<?xml version="1.0" standalone="no"?>
<!DOCTYPE svg PUBLIC "-//W3C//DTD SVG 1.1//EN" "http://www.w3.org/Graphics/SVG/1.1/DTD/svg11.dtd">
<svg width="304mm" height="264mm" viewBox="0 -164 304 264" xmlns="http://www.w3.org/2000/svg" version="1.1">
<title>OpenSCAD Model</title>
<path d="
M 264.015,-0 L 274.017,-0 L 274.017,-160.25 L 264.015,-160.25 L 264.015,-163.55 L 254.015,-163.55
 L 254.015,-160.25 L 244.012,-160.25 L 244.012,-0 L 254.015,-0 L 254.015,3.29999 L 264.015,3.29999
 z
M 258.685,-123.772 L 258.53,-123.789 L 258.38,-123.82 L 258.237,-123.863 L 258.103,-123.919 L 257.978,-123.987
 L 257.865,-124.066 L 257.764,-124.155 L 257.677,-124.253 L 257.615,-124.345 L 255.081,-124.345 L 255.081,-125.645
 L 257.83,-125.645 L 257.878,-125.695 L 257.992,-125.797 L 258.118,-125.89 L 258.254,-125.973 L 258.397,-126.045
 L 258.548,-126.106 L 258.704,-126.154 L 258.863,-126.19 L 259.024,-126.213 L 259.185,-126.222 L 259.344,-126.218
 L 259.499,-126.201 L 259.649,-126.17 L 259.792,-126.127 L 259.815,-126.117 L 259.815,-126.745 L 255.081,-126.745
 L 255.081,-128.045 L 259.815,-128.045 L 259.815,-129.145 L 255.081,-129.145 L 255.081,-130.445 L 259.815,-130.445
 L 259.815,-133.395 L 260.615,-133.395 L 260.615,-130.445 L 262.949,-130.445 L 262.949,-129.145 L 260.615,-129.145
 L 260.615,-128.045 L 262.949,-128.045 L 262.949,-126.745 L 260.615,-126.745 L 260.615,-125.645 L 262.949,-125.645
 L 262.949,-124.345 L 260.199,-124.345 L 260.152,-124.295 L 260.037,-124.193 L 259.911,-124.1 L 259.776,-124.017
 L 259.632,-123.945 L 259.481,-123.884 L 259.325,-123.836 L 259.166,-123.8 L 259.005,-123.777 L 258.844,-123.768
 z
M 264.149,-121.945 L 264.149,-123.245 L 265.363,-123.245 L 265.35,-123.272 L 265.309,-123.391 L 265.285,-123.515
 L 265.277,-123.641 L 265.287,-123.769 L 265.313,-123.898 L 265.356,-124.025 L 265.414,-124.15 L 265.488,-124.271
 L 265.545,-124.345 L 264.149,-124.345 L 264.149,-125.645 L 267.616,-125.645 L 267.616,-126.745 L 264.149,-126.745
 L 264.149,-128.045 L 267.616,-128.045 L 267.616,-129.145 L 264.149,-129.145 L 264.149,-130.445 L 267.616,-130.445
 L 267.616,-132.195 L 268.416,-132.195 L 268.416,-130.445 L 272.017,-130.445 L 272.017,-129.145 L 268.416,-129.145
 L 268.416,-128.045 L 272.017,-128.045 L 272.017,-126.745 L 268.416,-126.745 L 268.416,-125.645 L 272.017,-125.645
 L 272.017,-124.345 L 268.416,-124.345 L 268.416,-123.795 L 268.34,-123.795 L 268.319,-123.692 L 268.276,-123.565
 L 268.217,-123.44 L 268.143,-123.319 L 268.086,-123.245 L 272.017,-123.245 L 272.017,-121.945 z
M 246.012,-119.545 L 246.012,-120.845 L 249.613,-120.845 L 249.613,-121.945 L 246.012,-121.945 L 246.012,-123.245
 L 249.613,-123.245 L 249.613,-124.345 L 246.012,-124.345 L 246.012,-125.645 L 249.613,-125.645 L 249.613,-126.745
 L 246.012,-126.745 L 246.012,-128.045 L 249.613,-128.045 L 249.613,-128.595 L 249.69,-128.595 L 249.71,-128.698
 L 249.753,-128.825 L 249.812,-128.95 L 249.886,-129.071 L 249.943,-129.145 L 246.012,-129.145 L 246.012,-130.445
 L 253.881,-130.445 L 253.881,-129.145 L 252.666,-129.145 L 252.679,-129.118 L 252.72,-128.999 L 252.744,-128.875
 L 252.752,-128.749 L 252.742,-128.621 L 252.716,-128.492 L 252.674,-128.365 L 252.615,-128.24 L 252.541,-128.119
 L 252.484,-128.045 L 253.881,-128.045 L 253.881,-126.745 L 250.413,-126.745 L 250.413,-125.645 L 253.881,-125.645
 L 253.881,-124.345 L 250.413,-124.345 L 250.413,-123.245 L 253.881,-123.245 L 253.881,-121.945 L 250.413,-121.945
 L 250.413,-120.845 L 253.881,-120.845 L 253.881,-119.545 z
M 255.081,-121.945 L 255.081,-123.245 L 262.949,-123.245 L 262.949,-121.945 z
M 264.149,-119.545 L 264.149,-120.845 L 272.017,-120.845 L 272.017,-119.545 z
M 255.081,-119.545 L 255.081,-120.845 L 262.949,-120.845 L 262.949,-119.545 z
M 250.884,-78.9019 L 250.729,-78.9193 L 250.579,-78.95 L 250.436,-78.9935 L 250.301,-79.0494 L 250.177,-79.1171
 L 250.064,-79.1958 L 249.963,-79.2847 L 249.876,-79.3828 L 249.814,-79.475 L 246.012,-79.475 L 246.012,-80.775
 L 250.029,-80.775 L 250.076,-80.8254 L 250.191,-80.9269 L 250.317,-81.0197 L 250.452,-81.1026 L 250.596,-81.1748
 L 250.747,-81.2355 L 250.903,-81.2841 L 251.062,-81.32 L 251.223,-81.3427 L 251.384,-81.3521 L 251.542,-81.3481
 L 251.698,-81.3307 L 251.848,-81.3 L 251.991,-81.2565 L 252.013,-81.2472 L 252.013,-81.875 L 246.012,-81.875
 L 246.012,-83.175 L 252.013,-83.175 L 252.013,-84.275 L 246.012,-84.275 L 246.012,-85.575 L 252.013,-85.575
 L 252.013,-88.525 L 252.813,-88.525 L 252.813,-85.575 L 253.881,-85.575 L 253.881,-84.275 L 252.813,-84.275
 L 252.813,-83.175 L 253.881,-83.175 L 253.881,-81.875 L 252.813,-81.875 L 252.813,-80.775 L 253.881,-80.775
 L 253.881,-79.475 L 252.397,-79.475 L 252.35,-79.4246 L 252.236,-79.3231 L 252.11,-79.2303 L 251.974,-79.1474
 L 251.83,-79.0752 L 251.68,-79.0145 L 251.524,-78.9659 L 251.365,-78.93 L 251.204,-78.9073 L 251.043,-78.8979
 z
M 264.149,-74.675 L 264.149,-75.975 L 265.216,-75.975 L 265.216,-77.075 L 264.149,-77.075 L 264.149,-78.375
 L 265.216,-78.375 L 265.216,-79.475 L 264.149,-79.475 L 264.149,-80.775 L 265.216,-80.775 L 265.216,-81.875
 L 264.149,-81.875 L 264.149,-83.175 L 265.216,-83.175 L 265.216,-83.725 L 265.292,-83.725 L 265.313,-83.8276
 L 265.356,-83.9549 L 265.414,-84.0797 L 265.488,-84.2005 L 265.545,-84.275 L 264.149,-84.275 L 264.149,-85.575
 L 272.017,-85.575 L 272.017,-84.275 L 268.268,-84.275 L 268.282,-84.2477 L 268.323,-84.1287 L 268.347,-84.0054
 L 268.354,-83.8789 L 268.345,-83.7508 L 268.319,-83.6224 L 268.276,-83.4951 L 268.217,-83.3703 L 268.143,-83.2495
 L 268.086,-83.175 L 272.017,-83.175 L 272.017,-81.875 L 266.016,-81.875 L 266.016,-80.775 L 272.017,-80.775
 L 272.017,-79.475 L 266.016,-79.475 L 266.016,-78.375 L 272.017,-78.375 L 272.017,-77.075 L 266.016,-77.075
 L 266.016,-75.975 L 272.017,-75.975 L 272.017,-74.675 z
M 255.081,-84.275 L 255.081,-85.575 L 262.949,-85.575 L 262.949,-84.275 z
M 257.415,-72.925 L 257.415,-74.675 L 255.081,-74.675 L 255.081,-75.975 L 257.415,-75.975 L 257.415,-77.075
 L 255.081,-77.075 L 255.081,-78.375 L 257.415,-78.375 L 257.415,-79.475 L 255.081,-79.475 L 255.081,-80.775
 L 257.415,-80.775 L 257.415,-81.325 L 257.491,-81.325 L 257.512,-81.4276 L 257.554,-81.5549 L 257.613,-81.6797
 L 257.687,-81.8005 L 257.744,-81.875 L 255.081,-81.875 L 255.081,-83.175 L 262.949,-83.175 L 262.949,-81.875
 L 260.467,-81.875 L 260.481,-81.8477 L 260.521,-81.7287 L 260.546,-81.6054 L 260.553,-81.4789 L 260.544,-81.3508
 L 260.517,-81.2224 L 260.475,-81.0951 L 260.416,-80.9703 L 260.342,-80.8495 L 260.285,-80.775 L 262.949,-80.775
 L 262.949,-79.475 L 258.215,-79.475 L 258.215,-78.375 L 262.949,-78.375 L 262.949,-77.075 L 258.215,-77.075
 L 258.215,-75.975 L 262.949,-75.975 L 262.949,-74.675 L 258.215,-74.675 L 258.215,-72.925 z
M 246.012,-77.075 L 246.012,-78.375 L 253.881,-78.375 L 253.881,-77.075 z
M 246.012,-74.675 L 246.012,-75.975 L 253.881,-75.975 L 253.881,-74.675 z
M 264.149,-34.605 L 264.149,-35.905 L 265.363,-35.905 L 265.35,-35.9323 L 265.309,-36.0512 L 265.285,-36.1746
 L 265.277,-36.3011 L 265.287,-36.4292 L 265.313,-36.5576 L 265.356,-36.6849 L 265.414,-36.8096 L 265.488,-36.9305
 L 265.545,-37.005 L 264.149,-37.005 L 264.149,-38.305 L 267.616,-38.305 L 267.616,-39.405 L 264.149,-39.405
 L 264.149,-40.705 L 267.616,-40.705 L 267.616,-44.855 L 268.416,-44.855 L 268.416,-40.705 L 272.017,-40.705
 L 272.017,-39.405 L 268.416,-39.405 L 268.416,-38.305 L 272.017,-38.305 L 272.017,-37.005 L 268.416,-37.005
 L 268.416,-36.455 L 268.34,-36.455 L 268.319,-36.3524 L 268.276,-36.2251 L 268.217,-36.1003 L 268.143,-35.9794
 L 268.086,-35.905 L 272.017,-35.905 L 272.017,-34.605 z
M 258.685,-34.0319 L 258.53,-34.0493 L 258.38,-34.0799 L 258.237,-34.1234 L 258.103,-34.1794 L 257.978,-34.247
 L 257.865,-34.3258 L 257.764,-34.4147 L 257.677,-34.5128 L 257.615,-34.605 L 255.081,-34.605 L 255.081,-35.905
 L 257.83,-35.905 L 257.878,-35.9554 L 257.992,-36.0569 L 258.118,-36.1497 L 258.254,-36.2326 L 258.397,-36.3048
 L 258.548,-36.3655 L 258.704,-36.4141 L 258.863,-36.45 L 259.024,-36.4727 L 259.185,-36.4821 L 259.344,-36.4781
 L 259.499,-36.4607 L 259.649,-36.43 L 259.792,-36.3865 L 259.815,-36.3772 L 259.815,-37.005 L 255.081,-37.005
 L 255.081,-38.305 L 259.815,-38.305 L 259.815,-39.405 L 255.081,-39.405 L 255.081,-40.705 L 259.815,-40.705
 L 259.815,-43.655 L 260.615,-43.655 L 260.615,-40.705 L 262.949,-40.705 L 262.949,-39.405 L 260.615,-39.405
 L 260.615,-38.305 L 262.949,-38.305 L 262.949,-37.005 L 260.615,-37.005 L 260.615,-35.905 L 262.949,-35.905
 L 262.949,-34.605 L 260.199,-34.605 L 260.152,-34.5546 L 260.037,-34.4531 L 259.911,-34.3603 L 259.776,-34.2774
 L 259.632,-34.2052 L 259.481,-34.1444 L 259.325,-34.0959 L 259.166,-34.06 L 259.005,-34.0373 L 258.844,-34.0278
 z
M 246.012,-39.405 L 246.012,-40.705 L 253.881,-40.705 L 253.881,-39.405 z
M 249.613,-29.255 L 249.613,-29.805 L 246.012,-29.805 L 246.012,-31.105 L 249.613,-31.105 L 249.613,-32.205
 L 246.012,-32.205 L 246.012,-33.505 L 249.613,-33.505 L 249.613,-34.605 L 246.012,-34.605 L 246.012,-35.905
 L 249.613,-35.905 L 249.613,-37.005 L 246.012,-37.005 L 246.012,-38.305 L 250.029,-38.305 L 250.076,-38.3554
 L 250.191,-38.4569 L 250.317,-38.5497 L 250.452,-38.6326 L 250.596,-38.7048 L 250.747,-38.7655 L 250.903,-38.8141
 L 251.062,-38.8499 L 251.223,-38.8727 L 251.384,-38.8821 L 251.542,-38.8781 L 251.698,-38.8607 L 251.848,-38.83
 L 251.991,-38.7865 L 252.125,-38.7306 L 252.25,-38.6629 L 252.363,-38.5842 L 252.464,-38.4953 L 252.55,-38.3972
 L 252.613,-38.305 L 253.881,-38.305 L 253.881,-37.005 L 252.397,-37.005 L 252.35,-36.9546 L 252.236,-36.8531
 L 252.11,-36.7603 L 251.974,-36.6774 L 251.83,-36.6051 L 251.68,-36.5444 L 251.524,-36.4959 L 251.365,-36.46
 L 251.204,-36.4373 L 251.043,-36.4278 L 250.884,-36.4319 L 250.729,-36.4493 L 250.579,-36.4799 L 250.436,-36.5234
 L 250.413,-36.5328 L 250.413,-35.905 L 253.881,-35.905 L 253.881,-34.605 L 250.413,-34.605 L 250.413,-33.505
 L 253.881,-33.505 L 253.881,-32.205 L 250.413,-32.205 L 250.413,-31.105 L 253.881,-31.105 L 253.881,-29.805
 L 250.413,-29.805 L 250.413,-29.255 z
M 255.081,-32.205 L 255.081,-33.505 L 262.949,-33.505 L 262.949,-32.205 z
M 264.149,-32.205 L 264.149,-33.505 L 272.017,-33.505 L 272.017,-32.205 z
M 264.149,-29.805 L 264.149,-31.105 L 272.017,-31.105 L 272.017,-29.805 z
M 255.081,-29.805 L 255.081,-31.105 L 262.949,-31.105 L 262.949,-29.805 z
M 222.01,-0 L 232.012,-0 L 232.012,-160.25 L 222.01,-160.25 L 222.01,-163.55 L 212.01,-163.55
 L 212.01,-160.25 L 202.008,-160.25 L 202.008,-0 L 212.01,-0 L 212.01,3.29999 L 222.01,3.29999
 z
M 204.008,-124.345 L 204.008,-125.645 L 207.757,-125.645 L 207.743,-125.672 L 207.702,-125.791 L 207.678,-125.915
 L 207.671,-126.041 L 207.68,-126.169 L 207.706,-126.298 L 207.749,-126.425 L 207.808,-126.55 L 207.882,-126.671
 L 207.939,-126.745 L 204.008,-126.745 L 204.008,-128.045 L 210.009,-128.045 L 210.009,-129.145 L 204.008,-129.145
 L 204.008,-130.445 L 210.009,-130.445 L 210.009,-134.595 L 210.809,-134.595 L 210.809,-130.445 L 211.876,-130.445
 L 211.876,-129.145 L 210.809,-129.145 L 210.809,-128.045 L 211.876,-128.045 L 211.876,-126.745 L 210.809,-126.745
 L 210.809,-126.195 L 210.733,-126.195 L 210.712,-126.092 L 210.669,-125.965 L 210.611,-125.84 L 210.537,-125.719
 L 210.48,-125.645 L 211.876,-125.645 L 211.876,-124.345 z
M 223.212,-121.395 L 223.212,-121.945 L 222.144,-121.945 L 222.144,-123.245 L 223.212,-123.245 L 223.212,-124.345
 L 222.144,-124.345 L 222.144,-125.645 L 223.212,-125.645 L 223.212,-126.745 L 222.144,-126.745 L 222.144,-128.045
 L 223.212,-128.045 L 223.212,-129.145 L 222.144,-129.145 L 222.144,-130.445 L 223.628,-130.445 L 223.675,-130.495
 L 223.789,-130.597 L 223.915,-130.69 L 224.051,-130.773 L 224.195,-130.845 L 224.345,-130.906 L 224.501,-130.954
 L 224.66,-130.99 L 224.821,-131.013 L 224.982,-131.022 L 225.141,-131.018 L 225.296,-131.001 L 225.446,-130.97
 L 225.589,-130.927 L 225.724,-130.871 L 225.848,-130.803 L 225.961,-130.724 L 226.062,-130.635 L 226.149,-130.537
 L 226.211,-130.445 L 230.012,-130.445 L 230.012,-129.145 L 225.996,-129.145 L 225.949,-129.095 L 225.834,-128.993
 L 225.708,-128.9 L 225.573,-128.817 L 225.429,-128.745 L 225.278,-128.684 L 225.122,-128.636 L 224.963,-128.6
 L 224.802,-128.577 L 224.641,-128.568 L 224.482,-128.572 L 224.327,-128.589 L 224.177,-128.62 L 224.034,-128.663
 L 224.012,-128.673 L 224.012,-128.045 L 230.012,-128.045 L 230.012,-126.745 L 224.012,-126.745 L 224.012,-125.645
 L 230.012,-125.645 L 230.012,-124.345 L 224.012,-124.345 L 224.012,-123.245 L 230.012,-123.245 L 230.012,-121.945
 L 224.012,-121.945 L 224.012,-121.395 z
M 213.076,-129.145 L 213.076,-130.445 L 220.944,-130.445 L 220.944,-129.145 z
M 215.41,-118.995 L 215.41,-119.545 L 213.076,-119.545 L 213.076,-120.845 L 215.41,-120.845 L 215.41,-121.945
 L 213.076,-121.945 L 213.076,-123.245 L 215.41,-123.245 L 215.41,-124.345 L 213.076,-124.345 L 213.076,-125.645
 L 215.41,-125.645 L 215.41,-126.745 L 213.076,-126.745 L 213.076,-128.045 L 215.826,-128.045 L 215.873,-128.095
 L 215.988,-128.197 L 216.114,-128.29 L 216.249,-128.373 L 216.393,-128.445 L 216.544,-128.506 L 216.7,-128.554
 L 216.859,-128.59 L 217.02,-128.613 L 217.181,-128.622 L 217.34,-128.618 L 217.495,-128.601 L 217.645,-128.57
 L 217.788,-128.527 L 217.922,-128.471 L 218.047,-128.403 L 218.16,-128.324 L 218.261,-128.235 L 218.348,-128.137
 L 218.41,-128.045 L 220.944,-128.045 L 220.944,-126.745 L 218.195,-126.745 L 218.147,-126.695 L 218.033,-126.593
 L 217.907,-126.5 L 217.771,-126.417 L 217.627,-126.345 L 217.477,-126.284 L 217.321,-126.236 L 217.162,-126.2
 L 217.001,-126.177 L 216.84,-126.168 L 216.681,-126.172 L 216.526,-126.189 L 216.376,-126.22 L 216.233,-126.263
 L 216.21,-126.273 L 216.21,-125.645 L 220.944,-125.645 L 220.944,-124.345 L 216.21,-124.345 L 216.21,-123.245
 L 220.944,-123.245 L 220.944,-121.945 L 216.21,-121.945 L 216.21,-120.845 L 220.944,-120.845 L 220.944,-119.545
 L 216.21,-119.545 L 216.21,-118.995 z
M 204.008,-121.945 L 204.008,-123.245 L 211.876,-123.245 L 211.876,-121.945 z
M 204.008,-119.545 L 204.008,-120.845 L 211.876,-120.845 L 211.876,-119.545 z
M 222.144,-119.545 L 222.144,-120.845 L 230.012,-120.845 L 230.012,-119.545 z
M 222.144,-79.475 L 222.144,-80.775 L 223.359,-80.775 L 223.346,-80.8023 L 223.305,-80.9212 L 223.281,-81.0446
 L 223.273,-81.1711 L 223.283,-81.2992 L 223.309,-81.4276 L 223.351,-81.5549 L 223.41,-81.6797 L 223.484,-81.8005
 L 223.541,-81.875 L 222.144,-81.875 L 222.144,-83.175 L 225.612,-83.175 L 225.612,-84.275 L 222.144,-84.275
 L 222.144,-85.575 L 225.612,-85.575 L 225.612,-89.725 L 226.412,-89.725 L 226.412,-85.575 L 230.012,-85.575
 L 230.012,-84.275 L 226.412,-84.275 L 226.412,-83.175 L 230.012,-83.175 L 230.012,-81.875 L 226.412,-81.875
 L 226.412,-81.325 L 226.335,-81.325 L 226.315,-81.2224 L 226.272,-81.0951 L 226.213,-80.9703 L 226.139,-80.8495
 L 226.082,-80.775 L 230.012,-80.775 L 230.012,-79.475 z
M 213.076,-77.075 L 213.076,-78.375 L 215.558,-78.375 L 215.544,-78.4023 L 215.504,-78.5213 L 215.479,-78.6446
 L 215.472,-78.7711 L 215.481,-78.8992 L 215.508,-79.0276 L 215.55,-79.1549 L 215.609,-79.2797 L 215.683,-79.4005
 L 215.74,-79.475 L 213.076,-79.475 L 213.076,-80.775 L 217.81,-80.775 L 217.81,-81.875 L 213.076,-81.875
 L 213.076,-83.175 L 217.81,-83.175 L 217.81,-84.275 L 213.076,-84.275 L 213.076,-85.575 L 217.81,-85.575
 L 217.81,-87.325 L 218.61,-87.325 L 218.61,-85.575 L 220.944,-85.575 L 220.944,-84.275 L 218.61,-84.275
 L 218.61,-83.175 L 220.944,-83.175 L 220.944,-81.875 L 218.61,-81.875 L 218.61,-80.775 L 220.944,-80.775
 L 220.944,-79.475 L 218.61,-79.475 L 218.61,-78.925 L 218.534,-78.925 L 218.513,-78.8224 L 218.471,-78.6951
 L 218.412,-78.5703 L 218.338,-78.4495 L 218.281,-78.375 L 220.944,-78.375 L 220.944,-77.075 z
M 208.88,-76.5019 L 208.725,-76.5193 L 208.575,-76.55 L 208.432,-76.5935 L 208.297,-76.6494 L 208.173,-76.7171
 L 208.059,-76.7958 L 207.959,-76.8847 L 207.872,-76.9828 L 207.809,-77.075 L 204.008,-77.075 L 204.008,-78.375
 L 208.025,-78.375 L 208.072,-78.4254 L 208.187,-78.5269 L 208.313,-78.6197 L 208.448,-78.7026 L 208.592,-78.7748
 L 208.743,-78.8356 L 208.899,-78.8841 L 209.058,-78.92 L 209.219,-78.9427 L 209.379,-78.9521 L 209.538,-78.9481
 L 209.694,-78.9307 L 209.844,-78.9001 L 209.987,-78.8566 L 210.009,-78.8472 L 210.009,-79.475 L 204.008,-79.475
 L 204.008,-80.775 L 210.009,-80.775 L 210.009,-81.875 L 204.008,-81.875 L 204.008,-83.175 L 210.009,-83.175
 L 210.009,-84.275 L 204.008,-84.275 L 204.008,-85.575 L 210.009,-85.575 L 210.009,-86.125 L 210.809,-86.125
 L 210.809,-85.575 L 211.876,-85.575 L 211.876,-84.275 L 210.809,-84.275 L 210.809,-83.175 L 211.876,-83.175
 L 211.876,-81.875 L 210.809,-81.875 L 210.809,-80.775 L 211.876,-80.775 L 211.876,-79.475 L 210.809,-79.475
 L 210.809,-78.375 L 211.876,-78.375 L 211.876,-77.075 L 210.393,-77.075 L 210.346,-77.0246 L 210.232,-76.9231
 L 210.106,-76.8303 L 209.97,-76.7474 L 209.826,-76.6752 L 209.676,-76.6145 L 209.52,-76.5659 L 209.361,-76.53
 L 209.2,-76.5073 L 209.039,-76.4979 z
M 222.144,-77.075 L 222.144,-78.375 L 230.012,-78.375 L 230.012,-77.075 z
M 204.008,-74.675 L 204.008,-75.975 L 211.876,-75.975 L 211.876,-74.675 z
M 222.144,-74.675 L 222.144,-75.975 L 230.012,-75.975 L 230.012,-74.675 z
M 213.076,-74.675 L 213.076,-75.975 L 220.944,-75.975 L 220.944,-74.675 z
M 213.076,-34.605 L 213.076,-35.905 L 215.558,-35.905 L 215.544,-35.9323 L 215.504,-36.0512 L 215.479,-36.1746
 L 215.472,-36.3011 L 215.481,-36.4292 L 215.508,-36.5576 L 215.55,-36.6849 L 215.609,-36.8096 L 215.683,-36.9305
 L 215.74,-37.005 L 213.076,-37.005 L 213.076,-38.305 L 217.81,-38.305 L 217.81,-39.405 L 213.076,-39.405
 L 213.076,-40.705 L 217.81,-40.705 L 217.81,-44.855 L 218.61,-44.855 L 218.61,-40.705 L 220.944,-40.705
 L 220.944,-39.405 L 218.61,-39.405 L 218.61,-38.305 L 220.944,-38.305 L 220.944,-37.005 L 218.61,-37.005
 L 218.61,-36.455 L 218.534,-36.455 L 218.513,-36.3524 L 218.471,-36.2251 L 218.412,-36.1003 L 218.338,-35.9794
 L 218.281,-35.905 L 220.944,-35.905 L 220.944,-34.605 z
M 224.482,-34.0319 L 224.327,-34.0493 L 224.177,-34.0799 L 224.034,-34.1234 L 223.9,-34.1794 L 223.775,-34.247
 L 223.662,-34.3258 L 223.561,-34.4147 L 223.475,-34.5128 L 223.412,-34.605 L 222.144,-34.605 L 222.144,-35.905
 L 223.628,-35.905 L 223.675,-35.9554 L 223.789,-36.0569 L 223.915,-36.1497 L 224.051,-36.2326 L 224.195,-36.3048
 L 224.345,-36.3655 L 224.501,-36.4141 L 224.66,-36.45 L 224.821,-36.4727 L 224.982,-36.4821 L 225.141,-36.4781
 L 225.296,-36.4607 L 225.446,-36.43 L 225.589,-36.3865 L 225.612,-36.3772 L 225.612,-37.005 L 222.144,-37.005
 L 222.144,-38.305 L 225.612,-38.305 L 225.612,-39.405 L 222.144,-39.405 L 222.144,-40.705 L 225.612,-40.705
 L 225.612,-43.655 L 226.412,-43.655 L 226.412,-40.705 L 230.012,-40.705 L 230.012,-39.405 L 226.412,-39.405
 L 226.412,-38.305 L 230.012,-38.305 L 230.012,-37.005 L 226.412,-37.005 L 226.412,-35.905 L 230.012,-35.905
 L 230.012,-34.605 L 225.996,-34.605 L 225.949,-34.5546 L 225.834,-34.4531 L 225.708,-34.3603 L 225.573,-34.2774
 L 225.429,-34.2052 L 225.278,-34.1444 L 225.122,-34.0959 L 224.963,-34.06 L 224.802,-34.0373 L 224.641,-34.0278
 z
M 204.008,-29.805 L 204.008,-31.105 L 207.609,-31.105 L 207.609,-32.205 L 204.008,-32.205 L 204.008,-33.505
 L 207.609,-33.505 L 207.609,-34.605 L 204.008,-34.605 L 204.008,-35.905 L 207.609,-35.905 L 207.609,-37.005
 L 204.008,-37.005 L 204.008,-38.305 L 207.609,-38.305 L 207.609,-38.855 L 207.685,-38.855 L 207.706,-38.9576
 L 207.749,-39.0849 L 207.808,-39.2096 L 207.882,-39.3305 L 207.939,-39.405 L 204.008,-39.405 L 204.008,-40.705
 L 211.876,-40.705 L 211.876,-39.405 L 210.662,-39.405 L 210.675,-39.3777 L 210.716,-39.2587 L 210.74,-39.1354
 L 210.748,-39.0089 L 210.738,-38.8808 L 210.712,-38.7524 L 210.669,-38.6251 L 210.611,-38.5003 L 210.537,-38.3794
 L 210.48,-38.305 L 211.876,-38.305 L 211.876,-37.005 L 208.409,-37.005 L 208.409,-35.905 L 211.876,-35.905
 L 211.876,-34.605 L 208.409,-34.605 L 208.409,-33.505 L 211.876,-33.505 L 211.876,-32.205 L 208.409,-32.205
 L 208.409,-31.105 L 211.876,-31.105 L 211.876,-29.805 z
M 222.144,-32.205 L 222.144,-33.505 L 230.012,-33.505 L 230.012,-32.205 z
M 213.076,-32.205 L 213.076,-33.505 L 220.944,-33.505 L 220.944,-32.205 z
M 213.076,-29.805 L 213.076,-31.105 L 220.944,-31.105 L 220.944,-29.805 z
M 222.144,-29.805 L 222.144,-31.105 L 230.012,-31.105 L 230.012,-29.805 z
M 171.508,-0 L 190.008,-0 L 190.008,-160.25 L 171.508,-160.25 L 171.508,-163.55 L 161.508,-163.55
 L 161.508,-160.25 L 143.008,-160.25 L 143.008,-0 L 161.508,-0 L 161.508,3.29999 L 171.508,3.29999
 z
M 159.742,-121.945 L 159.742,-123.245 L 165.056,-123.245 L 165.042,-123.272 L 165.001,-123.391 L 164.977,-123.515
 L 164.97,-123.641 L 164.979,-123.769 L 165.005,-123.898 L 165.048,-124.025 L 165.107,-124.15 L 165.181,-124.271
 L 165.238,-124.345 L 159.742,-124.345 L 159.742,-125.645 L 167.308,-125.645 L 167.308,-126.745 L 159.742,-126.745
 L 159.742,-128.045 L 167.308,-128.045 L 167.308,-129.145 L 159.742,-129.145 L 159.742,-130.445 L 167.308,-130.445
 L 167.308,-132.195 L 168.108,-132.195 L 168.108,-130.445 L 173.275,-130.445 L 173.275,-129.145 L 168.108,-129.145
 L 168.108,-128.045 L 173.275,-128.045 L 173.275,-126.745 L 168.108,-126.745 L 168.108,-125.645 L 173.275,-125.645
 L 173.275,-124.345 L 168.108,-124.345 L 168.108,-123.795 L 168.032,-123.795 L 168.011,-123.692 L 167.969,-123.565
 L 167.91,-123.44 L 167.836,-123.319 L 167.779,-123.245 L 173.275,-123.245 L 173.275,-121.945 z
M 174.475,-119.545 L 174.475,-120.845 L 177.808,-120.845 L 177.808,-121.945 L 174.475,-121.945 L 174.475,-123.245
 L 177.808,-123.245 L 177.808,-124.345 L 174.475,-124.345 L 174.475,-125.645 L 177.808,-125.645 L 177.808,-126.745
 L 174.475,-126.745 L 174.475,-128.045 L 177.808,-128.045 L 177.808,-128.595 L 177.885,-128.595 L 177.905,-128.698
 L 177.948,-128.825 L 178.007,-128.95 L 178.081,-129.071 L 178.138,-129.145 L 174.475,-129.145 L 174.475,-130.445
 L 188.008,-130.445 L 188.008,-129.145 L 180.861,-129.145 L 180.874,-129.118 L 180.915,-128.999 L 180.939,-128.875
 L 180.947,-128.749 L 180.937,-128.621 L 180.911,-128.492 L 180.869,-128.365 L 180.81,-128.24 L 180.736,-128.119
 L 180.679,-128.045 L 188.008,-128.045 L 188.008,-126.745 L 178.608,-126.745 L 178.608,-125.645 L 188.008,-125.645
 L 188.008,-124.345 L 178.608,-124.345 L 178.608,-123.245 L 188.008,-123.245 L 188.008,-121.945 L 178.608,-121.945
 L 178.608,-120.845 L 188.008,-120.845 L 188.008,-119.545 z
M 145.008,-119.545 L 145.008,-120.845 L 152.156,-120.845 L 152.142,-120.872 L 152.102,-120.991 L 152.077,-121.115
 L 152.07,-121.241 L 152.079,-121.369 L 152.105,-121.498 L 152.148,-121.625 L 152.207,-121.75 L 152.281,-121.871
 L 152.338,-121.945 L 145.008,-121.945 L 145.008,-123.245 L 154.408,-123.245 L 154.408,-124.345 L 145.008,-124.345
 L 145.008,-125.645 L 154.408,-125.645 L 154.408,-126.745 L 145.008,-126.745 L 145.008,-128.045 L 154.408,-128.045
 L 154.408,-129.145 L 145.008,-129.145 L 145.008,-130.445 L 158.542,-130.445 L 158.542,-129.145 L 155.208,-129.145
 L 155.208,-128.045 L 158.542,-128.045 L 158.542,-126.745 L 155.208,-126.745 L 155.208,-125.645 L 158.542,-125.645
 L 158.542,-124.345 L 155.208,-124.345 L 155.208,-123.245 L 158.542,-123.245 L 158.542,-121.945 L 155.208,-121.945
 L 155.208,-121.395 L 155.132,-121.395 L 155.111,-121.292 L 155.069,-121.165 L 155.01,-121.04 L 154.936,-120.919
 L 154.879,-120.845 L 158.542,-120.845 L 158.542,-119.545 z
M 159.742,-119.545 L 159.742,-120.845 L 173.275,-120.845 L 173.275,-119.545 z
M 166.179,-78.9019 L 166.024,-78.9193 L 165.874,-78.95 L 165.731,-78.9935 L 165.596,-79.0494 L 165.472,-79.1171
 L 165.359,-79.1958 L 165.258,-79.2847 L 165.171,-79.3828 L 165.109,-79.475 L 159.742,-79.475 L 159.742,-80.775
 L 165.324,-80.775 L 165.371,-80.8254 L 165.486,-80.9269 L 165.612,-81.0197 L 165.747,-81.1026 L 165.891,-81.1748
 L 166.042,-81.2355 L 166.198,-81.2841 L 166.357,-81.32 L 166.518,-81.3427 L 166.679,-81.3521 L 166.837,-81.3481
 L 166.993,-81.3307 L 167.143,-81.3 L 167.286,-81.2565 L 167.308,-81.2472 L 167.308,-81.875 L 159.742,-81.875
 L 159.742,-83.175 L 167.308,-83.175 L 167.308,-84.275 L 159.742,-84.275 L 159.742,-85.575 L 167.308,-85.575
 L 167.308,-88.525 L 168.108,-88.525 L 168.108,-85.575 L 173.275,-85.575 L 173.275,-84.275 L 168.108,-84.275
 L 168.108,-83.175 L 173.275,-83.175 L 173.275,-81.875 L 168.108,-81.875 L 168.108,-80.775 L 173.275,-80.775
 L 173.275,-79.475 L 167.692,-79.475 L 167.645,-79.4246 L 167.531,-79.3231 L 167.405,-79.2303 L 167.269,-79.1474
 L 167.125,-79.0752 L 166.975,-79.0145 L 166.819,-78.9659 L 166.66,-78.93 L 166.499,-78.9073 L 166.338,-78.8979
 z
M 152.008,-76.525 L 152.008,-77.075 L 145.008,-77.075 L 145.008,-78.375 L 152.008,-78.375 L 152.008,-79.475
 L 145.008,-79.475 L 145.008,-80.775 L 152.008,-80.775 L 152.008,-81.875 L 145.008,-81.875 L 145.008,-83.175
 L 152.008,-83.175 L 152.008,-84.275 L 145.008,-84.275 L 145.008,-85.575 L 152.424,-85.575 L 152.471,-85.6254
 L 152.586,-85.7269 L 152.712,-85.8197 L 152.847,-85.9026 L 152.991,-85.9748 L 153.142,-86.0355 L 153.298,-86.0841
 L 153.457,-86.1199 L 153.618,-86.1427 L 153.779,-86.1521 L 153.937,-86.1481 L 154.093,-86.1307 L 154.243,-86.1
 L 154.386,-86.0565 L 154.52,-86.0006 L 154.645,-85.9329 L 154.758,-85.8542 L 154.859,-85.7653 L 154.945,-85.6672
 L 155.008,-85.575 L 158.542,-85.575 L 158.542,-84.275 L 154.792,-84.275 L 154.745,-84.2246 L 154.631,-84.1231
 L 154.505,-84.0303 L 154.369,-83.9474 L 154.225,-83.8752 L 154.075,-83.8144 L 153.919,-83.7659 L 153.76,-83.73
 L 153.599,-83.7073 L 153.438,-83.6978 L 153.279,-83.7019 L 153.124,-83.7193 L 152.974,-83.7499 L 152.831,-83.7934
 L 152.808,-83.8028 L 152.808,-83.175 L 158.542,-83.175 L 158.542,-81.875 L 152.808,-81.875 L 152.808,-80.775
 L 158.542,-80.775 L 158.542,-79.475 L 152.808,-79.475 L 152.808,-78.375 L 158.542,-78.375 L 158.542,-77.075
 L 152.808,-77.075 L 152.808,-76.525 z
M 179.079,-76.5019 L 178.924,-76.5193 L 178.774,-76.55 L 178.631,-76.5935 L 178.496,-76.6494 L 178.372,-76.7171
 L 178.259,-76.7958 L 178.158,-76.8847 L 178.071,-76.9828 L 178.009,-77.075 L 174.475,-77.075 L 174.475,-78.375
 L 178.224,-78.375 L 178.271,-78.4254 L 178.386,-78.5269 L 178.512,-78.6197 L 178.647,-78.7026 L 178.791,-78.7748
 L 178.942,-78.8356 L 179.098,-78.8841 L 179.257,-78.92 L 179.418,-78.9427 L 179.579,-78.9521 L 179.737,-78.9481
 L 179.893,-78.9307 L 180.043,-78.9001 L 180.186,-78.8566 L 180.208,-78.8472 L 180.208,-79.475 L 174.475,-79.475
 L 174.475,-80.775 L 180.208,-80.775 L 180.208,-81.875 L 174.475,-81.875 L 174.475,-83.175 L 180.208,-83.175
 L 180.208,-84.275 L 174.475,-84.275 L 174.475,-85.575 L 180.208,-85.575 L 180.208,-86.125 L 181.008,-86.125
 L 181.008,-85.575 L 188.008,-85.575 L 188.008,-84.275 L 181.008,-84.275 L 181.008,-83.175 L 188.008,-83.175
 L 188.008,-81.875 L 181.008,-81.875 L 181.008,-80.775 L 188.008,-80.775 L 188.008,-79.475 L 181.008,-79.475
 L 181.008,-78.375 L 188.008,-78.375 L 188.008,-77.075 L 180.592,-77.075 L 180.545,-77.0246 L 180.431,-76.9231
 L 180.305,-76.8303 L 180.169,-76.7474 L 180.025,-76.6752 L 179.875,-76.6145 L 179.719,-76.5659 L 179.56,-76.53
 L 179.399,-76.5073 L 179.238,-76.4979 z
M 159.742,-77.075 L 159.742,-78.375 L 173.275,-78.375 L 173.275,-77.075 z
M 145.008,-74.675 L 145.008,-75.975 L 158.542,-75.975 L 158.542,-74.675 z
M 174.475,-74.675 L 174.475,-75.975 L 188.008,-75.975 L 188.008,-74.675 z
M 159.742,-74.675 L 159.742,-75.975 L 173.275,-75.975 L 173.275,-74.675 z
M 159.742,-34.605 L 159.742,-35.905 L 165.056,-35.905 L 165.042,-35.9323 L 165.001,-36.0512 L 164.977,-36.1746
 L 164.97,-36.3011 L 164.979,-36.4292 L 165.005,-36.5576 L 165.048,-36.6849 L 165.107,-36.8096 L 165.181,-36.9305
 L 165.238,-37.005 L 159.742,-37.005 L 159.742,-38.305 L 167.308,-38.305 L 167.308,-39.405 L 159.742,-39.405
 L 159.742,-40.705 L 167.308,-40.705 L 167.308,-44.855 L 168.108,-44.855 L 168.108,-40.705 L 173.275,-40.705
 L 173.275,-39.405 L 168.108,-39.405 L 168.108,-38.305 L 173.275,-38.305 L 173.275,-37.005 L 168.108,-37.005
 L 168.108,-36.455 L 168.032,-36.455 L 168.011,-36.3524 L 167.969,-36.2251 L 167.91,-36.1003 L 167.836,-35.9794
 L 167.779,-35.905 L 173.275,-35.905 L 173.275,-34.605 z
M 153.279,-34.0319 L 153.124,-34.0493 L 152.974,-34.0799 L 152.831,-34.1234 L 152.696,-34.1794 L 152.572,-34.247
 L 152.459,-34.3258 L 152.358,-34.4147 L 152.271,-34.5128 L 152.209,-34.605 L 145.008,-34.605 L 145.008,-35.905
 L 152.424,-35.905 L 152.471,-35.9554 L 152.586,-36.0569 L 152.712,-36.1497 L 152.847,-36.2326 L 152.991,-36.3048
 L 153.142,-36.3655 L 153.298,-36.4141 L 153.457,-36.45 L 153.618,-36.4727 L 153.779,-36.4821 L 153.937,-36.4781
 L 154.093,-36.4607 L 154.243,-36.43 L 154.386,-36.3865 L 154.408,-36.3772 L 154.408,-37.005 L 145.008,-37.005
 L 145.008,-38.305 L 154.408,-38.305 L 154.408,-39.405 L 145.008,-39.405 L 145.008,-40.705 L 154.408,-40.705
 L 154.408,-43.655 L 155.208,-43.655 L 155.208,-40.705 L 158.542,-40.705 L 158.542,-39.405 L 155.208,-39.405
 L 155.208,-38.305 L 158.542,-38.305 L 158.542,-37.005 L 155.208,-37.005 L 155.208,-35.905 L 158.542,-35.905
 L 158.542,-34.605 L 154.792,-34.605 L 154.745,-34.5546 L 154.631,-34.4531 L 154.505,-34.3603 L 154.369,-34.2774
 L 154.225,-34.2052 L 154.075,-34.1444 L 153.919,-34.0959 L 153.76,-34.06 L 153.599,-34.0373 L 153.438,-34.0278
 z
M 174.475,-29.805 L 174.475,-31.105 L 177.808,-31.105 L 177.808,-32.205 L 174.475,-32.205 L 174.475,-33.505
 L 177.808,-33.505 L 177.808,-34.605 L 174.475,-34.605 L 174.475,-35.905 L 177.808,-35.905 L 177.808,-37.005
 L 174.475,-37.005 L 174.475,-38.305 L 177.808,-38.305 L 177.808,-38.855 L 177.885,-38.855 L 177.905,-38.9576
 L 177.948,-39.0849 L 178.007,-39.2096 L 178.081,-39.3305 L 178.138,-39.405 L 174.475,-39.405 L 174.475,-40.705
 L 188.008,-40.705 L 188.008,-39.405 L 180.861,-39.405 L 180.874,-39.3777 L 180.915,-39.2587 L 180.939,-39.1354
 L 180.947,-39.0089 L 180.937,-38.8808 L 180.911,-38.7524 L 180.869,-38.6251 L 180.81,-38.5003 L 180.736,-38.3794
 L 180.679,-38.305 L 188.008,-38.305 L 188.008,-37.005 L 178.608,-37.005 L 178.608,-35.905 L 188.008,-35.905
 L 188.008,-34.605 L 178.608,-34.605 L 178.608,-33.505 L 188.008,-33.505 L 188.008,-32.205 L 178.608,-32.205
 L 178.608,-31.105 L 188.008,-31.105 L 188.008,-29.805 z
M 145.008,-32.205 L 145.008,-33.505 L 158.542,-33.505 L 158.542,-32.205 z
M 159.742,-32.205 L 159.742,-33.505 L 173.275,-33.505 L 173.275,-32.205 z
M 145.008,-29.805 L 145.008,-31.105 L 158.542,-31.105 L 158.542,-29.805 z
M 159.742,-29.805 L 159.742,-31.105 L 173.275,-31.105 L 173.275,-29.805 z
M 79.0021,-0 L 89.0042,-0 L 89.0042,-160.25 L 79.0021,-160.25 L 79.0021,-163.55 L 69.0021,-163.55
 L 69.0021,-160.25 L 59,-160.25 L 59,-0 L 69.0021,-0 L 69.0021,3.29999 L 79.0021,3.29999
 z
M 70.0681,-124.345 L 70.0681,-125.645 L 72.5497,-125.645 L 72.536,-125.672 L 72.4952,-125.791 L 72.471,-125.915
 L 72.4636,-126.041 L 72.473,-126.169 L 72.4992,-126.298 L 72.5418,-126.425 L 72.6005,-126.55 L 72.6745,-126.671
 L 72.7314,-126.745 L 70.0681,-126.745 L 70.0681,-128.045 L 74.8021,-128.045 L 74.8021,-129.145 L 70.0681,-129.145
 L 70.0681,-130.445 L 74.8021,-130.445 L 74.8021,-134.595 L 75.6021,-134.595 L 75.6021,-130.445 L 77.9361,-130.445
 L 77.9361,-129.145 L 75.6021,-129.145 L 75.6021,-128.045 L 77.9361,-128.045 L 77.9361,-126.745 L 75.6021,-126.745
 L 75.6021,-126.195 L 75.5259,-126.195 L 75.505,-126.092 L 75.4623,-125.965 L 75.4037,-125.84 L 75.3297,-125.719
 L 75.2727,-125.645 L 77.9361,-125.645 L 77.9361,-124.345 z
M 65.8717,-123.772 L 65.7164,-123.789 L 65.5664,-123.82 L 65.4234,-123.863 L 65.2889,-123.919 L 65.1643,-123.987
 L 65.0512,-124.066 L 64.9506,-124.155 L 64.8637,-124.253 L 64.8011,-124.345 L 61,-124.345 L 61,-125.645
 L 65.0167,-125.645 L 65.0639,-125.695 L 65.1785,-125.797 L 65.3042,-125.89 L 65.4398,-125.973 L 65.5838,-126.045
 L 65.7345,-126.106 L 65.8903,-126.154 L 66.0495,-126.19 L 66.2103,-126.213 L 66.3711,-126.222 L 66.53,-126.218
 L 66.6853,-126.201 L 66.8353,-126.17 L 66.9783,-126.127 L 67.0008,-126.117 L 67.0008,-126.745 L 61,-126.745
 L 61,-128.045 L 67.0008,-128.045 L 67.0008,-129.145 L 61,-129.145 L 61,-130.445 L 67.0008,-130.445
 L 67.0008,-133.395 L 67.8008,-133.395 L 67.8008,-130.445 L 68.8681,-130.445 L 68.8681,-129.145 L 67.8008,-129.145
 L 67.8008,-128.045 L 68.8681,-128.045 L 68.8681,-126.745 L 67.8008,-126.745 L 67.8008,-125.645 L 68.8681,-125.645
 L 68.8681,-124.345 L 67.3849,-124.345 L 67.3378,-124.295 L 67.2232,-124.193 L 67.0974,-124.1 L 66.9619,-124.017
 L 66.8179,-123.945 L 66.6672,-123.884 L 66.5114,-123.836 L 66.3522,-123.8 L 66.1913,-123.777 L 66.0306,-123.768
 z
M 79.1361,-119.545 L 79.1361,-120.845 L 80.2033,-120.845 L 80.2033,-121.945 L 79.1361,-121.945 L 79.1361,-123.245
 L 80.2033,-123.245 L 80.2033,-124.345 L 79.1361,-124.345 L 79.1361,-125.645 L 80.2033,-125.645 L 80.2033,-126.745
 L 79.1361,-126.745 L 79.1361,-128.045 L 80.2033,-128.045 L 80.2033,-128.595 L 80.2795,-128.595 L 80.3004,-128.698
 L 80.3431,-128.825 L 80.4017,-128.95 L 80.4757,-129.071 L 80.5327,-129.145 L 79.1361,-129.145 L 79.1361,-130.445
 L 87.0042,-130.445 L 87.0042,-129.145 L 83.2557,-129.145 L 83.2694,-129.118 L 83.3102,-128.999 L 83.3344,-128.875
 L 83.3418,-128.749 L 83.3324,-128.621 L 83.3062,-128.492 L 83.2636,-128.365 L 83.2049,-128.24 L 83.1309,-128.119
 L 83.0739,-128.045 L 87.0042,-128.045 L 87.0042,-126.745 L 81.0033,-126.745 L 81.0033,-125.645 L 87.0042,-125.645
 L 87.0042,-124.345 L 81.0033,-124.345 L 81.0033,-123.245 L 87.0042,-123.245 L 87.0042,-121.945 L 81.0033,-121.945
 L 81.0033,-120.845 L 87.0042,-120.845 L 87.0042,-119.545 z
M 70.0681,-121.945 L 70.0681,-123.245 L 77.9361,-123.245 L 77.9361,-121.945 z
M 61,-121.945 L 61,-123.245 L 68.8681,-123.245 L 68.8681,-121.945 z
M 70.0681,-119.545 L 70.0681,-120.845 L 77.9361,-120.845 L 77.9361,-119.545 z
M 61,-119.545 L 61,-120.845 L 68.8681,-120.845 L 68.8681,-119.545 z
M 81.4742,-78.9019 L 81.3189,-78.9193 L 81.1689,-78.95 L 81.0258,-78.9935 L 80.8913,-79.0494 L 80.7668,-79.1171
 L 80.6536,-79.1958 L 80.5531,-79.2847 L 80.4662,-79.3828 L 80.4035,-79.475 L 79.1361,-79.475 L 79.1361,-80.775
 L 80.6192,-80.775 L 80.6664,-80.8254 L 80.7809,-80.9269 L 80.9067,-81.0197 L 81.0423,-81.1026 L 81.1862,-81.1748
 L 81.3369,-81.2355 L 81.4927,-81.2841 L 81.6519,-81.32 L 81.8128,-81.3427 L 81.9736,-81.3521 L 82.1325,-81.3481
 L 82.2878,-81.3307 L 82.4377,-81.3 L 82.5808,-81.2565 L 82.6033,-81.2472 L 82.6033,-81.875 L 79.1361,-81.875
 L 79.1361,-83.175 L 82.6033,-83.175 L 82.6033,-84.275 L 79.1361,-84.275 L 79.1361,-85.575 L 82.6033,-85.575
 L 82.6033,-88.525 L 83.4033,-88.525 L 83.4033,-85.575 L 87.0042,-85.575 L 87.0042,-84.275 L 83.4033,-84.275
 L 83.4033,-83.175 L 87.0042,-83.175 L 87.0042,-81.875 L 83.4033,-81.875 L 83.4033,-80.775 L 87.0042,-80.775
 L 87.0042,-79.475 L 82.9874,-79.475 L 82.9403,-79.4246 L 82.8257,-79.3231 L 82.6999,-79.2303 L 82.5643,-79.1474
 L 82.4204,-79.0752 L 82.2697,-79.0145 L 82.1139,-78.9659 L 81.9547,-78.93 L 81.7938,-78.9073 L 81.6331,-78.8979
 z
M 70.0681,-84.275 L 70.0681,-85.575 L 77.9361,-85.575 L 77.9361,-84.275 z
M 61,-74.675 L 61,-75.975 L 64.6008,-75.975 L 64.6008,-77.075 L 61,-77.075 L 61,-78.375
 L 64.6008,-78.375 L 64.6008,-79.475 L 61,-79.475 L 61,-80.775 L 64.6008,-80.775 L 64.6008,-81.875
 L 61,-81.875 L 61,-83.175 L 64.6008,-83.175 L 64.6008,-83.725 L 64.677,-83.725 L 64.698,-83.8276
 L 64.7406,-83.9549 L 64.7992,-84.0797 L 64.8732,-84.2005 L 64.9302,-84.275 L 61,-84.275 L 61,-85.575
 L 68.8681,-85.575 L 68.8681,-84.275 L 67.6533,-84.275 L 67.6669,-84.2477 L 67.7077,-84.1287 L 67.7319,-84.0054
 L 67.7393,-83.8789 L 67.7299,-83.7508 L 67.7037,-83.6224 L 67.6611,-83.4951 L 67.6024,-83.3703 L 67.5285,-83.2495
 L 67.4715,-83.175 L 68.8681,-83.175 L 68.8681,-81.875 L 65.4008,-81.875 L 65.4008,-80.775 L 68.8681,-80.775
 L 68.8681,-79.475 L 65.4008,-79.475 L 65.4008,-78.375 L 68.8681,-78.375 L 68.8681,-77.075 L 65.4008,-77.075
 L 65.4008,-75.975 L 68.8681,-75.975 L 68.8681,-74.675 z
M 72.4021,-74.125 L 72.4021,-74.675 L 70.0681,-74.675 L 70.0681,-75.975 L 72.4021,-75.975 L 72.4021,-77.075
 L 70.0681,-77.075 L 70.0681,-78.375 L 72.4021,-78.375 L 72.4021,-79.475 L 70.0681,-79.475 L 70.0681,-80.775
 L 72.4021,-80.775 L 72.4021,-81.875 L 70.0681,-81.875 L 70.0681,-83.175 L 72.818,-83.175 L 72.8651,-83.2254
 L 72.9797,-83.3269 L 73.1055,-83.4197 L 73.2411,-83.5026 L 73.385,-83.5748 L 73.5357,-83.6355 L 73.6915,-83.6841
 L 73.8507,-83.72 L 74.0116,-83.7427 L 74.1723,-83.7521 L 74.3312,-83.7481 L 74.4865,-83.7307 L 74.6365,-83.7
 L 74.7795,-83.6565 L 74.914,-83.6006 L 75.0386,-83.5329 L 75.1517,-83.4542 L 75.2523,-83.3653 L 75.3392,-83.2672
 L 75.4018,-83.175 L 77.9361,-83.175 L 77.9361,-81.875 L 75.1862,-81.875 L 75.139,-81.8246 L 75.0245,-81.7231
 L 74.8987,-81.6303 L 74.7631,-81.5474 L 74.6192,-81.4752 L 74.4685,-81.4144 L 74.3127,-81.3659 L 74.1534,-81.33
 L 73.9926,-81.3073 L 73.8318,-81.2979 L 73.6729,-81.3019 L 73.5176,-81.3193 L 73.3676,-81.3499 L 73.2246,-81.3934
 L 73.2021,-81.4028 L 73.2021,-80.775 L 77.9361,-80.775 L 77.9361,-79.475 L 73.2021,-79.475 L 73.2021,-78.375
 L 77.9361,-78.375 L 77.9361,-77.075 L 73.2021,-77.075 L 73.2021,-75.975 L 77.9361,-75.975 L 77.9361,-74.675
 L 73.2021,-74.675 L 73.2021,-74.125 z
M 79.1361,-77.075 L 79.1361,-78.375 L 87.0042,-78.375 L 87.0042,-77.075 z
M 79.1361,-74.675 L 79.1361,-75.975 L 87.0042,-75.975 L 87.0042,-74.675 z
M 73.6729,-34.0319 L 73.5176,-34.0493 L 73.3676,-34.0799 L 73.2246,-34.1234 L 73.0901,-34.1794 L 72.9656,-34.247
 L 72.8524,-34.3258 L 72.7518,-34.4147 L 72.665,-34.5128 L 72.6023,-34.605 L 70.0681,-34.605 L 70.0681,-35.905
 L 72.818,-35.905 L 72.8651,-35.9554 L 72.9797,-36.0569 L 73.1055,-36.1497 L 73.2411,-36.2326 L 73.385,-36.3048
 L 73.5357,-36.3655 L 73.6915,-36.4141 L 73.8507,-36.45 L 74.0116,-36.4727 L 74.1723,-36.4821 L 74.3312,-36.4781
 L 74.4865,-36.4607 L 74.6365,-36.43 L 74.7795,-36.3865 L 74.8021,-36.3772 L 74.8021,-37.005 L 70.0681,-37.005
 L 70.0681,-38.305 L 74.8021,-38.305 L 74.8021,-39.405 L 70.0681,-39.405 L 70.0681,-40.705 L 74.8021,-40.705
 L 74.8021,-43.655 L 75.6021,-43.655 L 75.6021,-40.705 L 77.9361,-40.705 L 77.9361,-39.405 L 75.6021,-39.405
 L 75.6021,-38.305 L 77.9361,-38.305 L 77.9361,-37.005 L 75.6021,-37.005 L 75.6021,-35.905 L 77.9361,-35.905
 L 77.9361,-34.605 L 75.1862,-34.605 L 75.139,-34.5546 L 75.0245,-34.4531 L 74.8987,-34.3603 L 74.7631,-34.2774
 L 74.6192,-34.2052 L 74.4685,-34.1444 L 74.3127,-34.0959 L 74.1534,-34.06 L 73.9926,-34.0373 L 73.8318,-34.0278
 z
M 81.4742,-34.0319 L 81.3189,-34.0493 L 81.1689,-34.0799 L 81.0258,-34.1234 L 80.8913,-34.1794 L 80.7668,-34.247
 L 80.6536,-34.3258 L 80.5531,-34.4147 L 80.4662,-34.5128 L 80.4035,-34.605 L 79.1361,-34.605 L 79.1361,-35.905
 L 80.6192,-35.905 L 80.6664,-35.9554 L 80.7809,-36.0569 L 80.9067,-36.1497 L 81.0423,-36.2326 L 81.1862,-36.3048
 L 81.3369,-36.3655 L 81.4927,-36.4141 L 81.6519,-36.45 L 81.8128,-36.4727 L 81.9736,-36.4821 L 82.1325,-36.4781
 L 82.2878,-36.4607 L 82.4377,-36.43 L 82.5808,-36.3865 L 82.6033,-36.3772 L 82.6033,-37.005 L 79.1361,-37.005
 L 79.1361,-38.305 L 82.6033,-38.305 L 82.6033,-39.405 L 79.1361,-39.405 L 79.1361,-40.705 L 82.6033,-40.705
 L 82.6033,-43.655 L 83.4033,-43.655 L 83.4033,-40.705 L 87.0042,-40.705 L 87.0042,-39.405 L 83.4033,-39.405
 L 83.4033,-38.305 L 87.0042,-38.305 L 87.0042,-37.005 L 83.4033,-37.005 L 83.4033,-35.905 L 87.0042,-35.905
 L 87.0042,-34.605 L 82.9874,-34.605 L 82.9403,-34.5546 L 82.8257,-34.4531 L 82.6999,-34.3603 L 82.5643,-34.2774
 L 82.4204,-34.2052 L 82.2697,-34.1444 L 82.1139,-34.0959 L 81.9547,-34.06 L 81.7938,-34.0373 L 81.6331,-34.0278
 z
M 65.8717,-31.6319 L 65.7164,-31.6493 L 65.5664,-31.6799 L 65.4234,-31.7234 L 65.2889,-31.7794 L 65.1643,-31.847
 L 65.0512,-31.9258 L 64.9506,-32.0147 L 64.8637,-32.1128 L 64.8011,-32.205 L 61,-32.205 L 61,-33.505
 L 65.0167,-33.505 L 65.0639,-33.5554 L 65.1785,-33.6569 L 65.3042,-33.7497 L 65.4398,-33.8326 L 65.5838,-33.9048
 L 65.7345,-33.9655 L 65.8903,-34.0141 L 66.0495,-34.05 L 66.2103,-34.0727 L 66.3711,-34.0821 L 66.53,-34.0781
 L 66.6853,-34.0607 L 66.8353,-34.03 L 66.9783,-33.9865 L 67.0008,-33.9772 L 67.0008,-34.605 L 61,-34.605
 L 61,-35.905 L 67.0008,-35.905 L 67.0008,-37.005 L 61,-37.005 L 61,-38.305 L 67.0008,-38.305
 L 67.0008,-39.405 L 61,-39.405 L 61,-40.705 L 67.0008,-40.705 L 67.0008,-41.255 L 67.8008,-41.255
 L 67.8008,-40.705 L 68.8681,-40.705 L 68.8681,-39.405 L 67.8008,-39.405 L 67.8008,-38.305 L 68.8681,-38.305
 L 68.8681,-37.005 L 67.8008,-37.005 L 67.8008,-35.905 L 68.8681,-35.905 L 68.8681,-34.605 L 67.8008,-34.605
 L 67.8008,-33.505 L 68.8681,-33.505 L 68.8681,-32.205 L 67.3849,-32.205 L 67.3378,-32.1546 L 67.2232,-32.0531
 L 67.0974,-31.9603 L 66.9619,-31.8774 L 66.8179,-31.8052 L 66.6672,-31.7444 L 66.5114,-31.6959 L 66.3522,-31.66
 L 66.1913,-31.6373 L 66.0306,-31.6279 z
M 79.1361,-32.205 L 79.1361,-33.505 L 87.0042,-33.505 L 87.0042,-32.205 z
M 70.0681,-32.205 L 70.0681,-33.505 L 77.9361,-33.505 L 77.9361,-32.205 z
M 79.1361,-29.805 L 79.1361,-31.105 L 87.0042,-31.105 L 87.0042,-29.805 z
M 61,-29.805 L 61,-31.105 L 68.8681,-31.105 L 68.8681,-29.805 z
M 70.0681,-29.805 L 70.0681,-31.105 L 77.9361,-31.105 L 77.9361,-29.805 z
M 121.006,-0 L 131.008,-0 L 131.008,-160.25 L 121.006,-160.25 L 121.006,-163.55 L 111.006,-163.55
 L 111.006,-160.25 L 101.004,-160.25 L 101.004,-0 L 111.006,-0 L 111.006,3.29999 L 121.006,3.29999
 z
M 114.406,-121.395 L 114.406,-121.945 L 112.072,-121.945 L 112.072,-123.245 L 114.406,-123.245 L 114.406,-124.345
 L 112.072,-124.345 L 112.072,-125.645 L 114.406,-125.645 L 114.406,-126.745 L 112.072,-126.745 L 112.072,-128.045
 L 114.406,-128.045 L 114.406,-129.145 L 112.072,-129.145 L 112.072,-130.445 L 114.822,-130.445 L 114.869,-130.495
 L 114.984,-130.597 L 115.11,-130.69 L 115.245,-130.773 L 115.389,-130.845 L 115.54,-130.906 L 115.696,-130.954
 L 115.855,-130.99 L 116.016,-131.013 L 116.176,-131.022 L 116.335,-131.018 L 116.491,-131.001 L 116.641,-130.97
 L 116.784,-130.927 L 116.918,-130.871 L 117.043,-130.803 L 117.156,-130.724 L 117.256,-130.635 L 117.343,-130.537
 L 117.406,-130.445 L 119.94,-130.445 L 119.94,-129.145 L 117.19,-129.145 L 117.143,-129.095 L 117.029,-128.993
 L 116.903,-128.9 L 116.767,-128.817 L 116.623,-128.745 L 116.473,-128.684 L 116.317,-128.636 L 116.158,-128.6
 L 115.997,-128.577 L 115.836,-128.568 L 115.677,-128.572 L 115.522,-128.589 L 115.372,-128.62 L 115.229,-128.663
 L 115.206,-128.673 L 115.206,-128.045 L 119.94,-128.045 L 119.94,-126.745 L 115.206,-126.745 L 115.206,-125.645
 L 119.94,-125.645 L 119.94,-124.345 L 115.206,-124.345 L 115.206,-123.245 L 119.94,-123.245 L 119.94,-121.945
 L 115.206,-121.945 L 115.206,-121.395 z
M 121.14,-129.145 L 121.14,-130.445 L 129.008,-130.445 L 129.008,-129.145 z
M 103.004,-129.145 L 103.004,-130.445 L 110.872,-130.445 L 110.872,-129.145 z
M 122.207,-118.995 L 122.207,-119.545 L 121.14,-119.545 L 121.14,-120.845 L 122.207,-120.845 L 122.207,-121.945
 L 121.14,-121.945 L 121.14,-123.245 L 122.207,-123.245 L 122.207,-124.345 L 121.14,-124.345 L 121.14,-125.645
 L 122.207,-125.645 L 122.207,-126.745 L 121.14,-126.745 L 121.14,-128.045 L 122.623,-128.045 L 122.671,-128.095
 L 122.785,-128.197 L 122.911,-128.29 L 123.046,-128.373 L 123.19,-128.445 L 123.341,-128.506 L 123.497,-128.554
 L 123.656,-128.59 L 123.817,-128.613 L 123.978,-128.622 L 124.137,-128.618 L 124.292,-128.601 L 124.442,-128.57
 L 124.585,-128.527 L 124.719,-128.471 L 124.844,-128.403 L 124.957,-128.324 L 125.058,-128.235 L 125.145,-128.137
 L 125.207,-128.045 L 129.008,-128.045 L 129.008,-126.745 L 124.992,-126.745 L 124.944,-126.695 L 124.83,-126.593
 L 124.704,-126.5 L 124.568,-126.417 L 124.425,-126.345 L 124.274,-126.284 L 124.118,-126.236 L 123.959,-126.2
 L 123.798,-126.177 L 123.637,-126.168 L 123.478,-126.172 L 123.323,-126.189 L 123.173,-126.22 L 123.03,-126.263
 L 123.007,-126.273 L 123.007,-125.645 L 129.008,-125.645 L 129.008,-124.345 L 123.007,-124.345 L 123.007,-123.245
 L 129.008,-123.245 L 129.008,-121.945 L 123.007,-121.945 L 123.007,-120.845 L 129.008,-120.845 L 129.008,-119.545
 L 123.007,-119.545 L 123.007,-118.995 z
M 106.605,-118.995 L 106.605,-119.545 L 103.004,-119.545 L 103.004,-120.845 L 106.605,-120.845 L 106.605,-121.945
 L 103.004,-121.945 L 103.004,-123.245 L 106.605,-123.245 L 106.605,-124.345 L 103.004,-124.345 L 103.004,-125.645
 L 106.605,-125.645 L 106.605,-126.745 L 103.004,-126.745 L 103.004,-128.045 L 107.021,-128.045 L 107.068,-128.095
 L 107.183,-128.197 L 107.308,-128.29 L 107.444,-128.373 L 107.588,-128.445 L 107.739,-128.506 L 107.894,-128.554
 L 108.054,-128.59 L 108.214,-128.613 L 108.375,-128.622 L 108.534,-128.618 L 108.689,-128.601 L 108.839,-128.57
 L 108.982,-128.527 L 109.117,-128.471 L 109.242,-128.403 L 109.355,-128.324 L 109.455,-128.235 L 109.542,-128.137
 L 109.605,-128.045 L 110.872,-128.045 L 110.872,-126.745 L 109.389,-126.745 L 109.342,-126.695 L 109.227,-126.593
 L 109.102,-126.5 L 108.966,-126.417 L 108.822,-126.345 L 108.671,-126.284 L 108.516,-126.236 L 108.356,-126.2
 L 108.196,-126.177 L 108.035,-126.168 L 107.876,-126.172 L 107.721,-126.189 L 107.571,-126.22 L 107.428,-126.263
 L 107.405,-126.273 L 107.405,-125.645 L 110.872,-125.645 L 110.872,-124.345 L 107.405,-124.345 L 107.405,-123.245
 L 110.872,-123.245 L 110.872,-121.945 L 107.405,-121.945 L 107.405,-120.845 L 110.872,-120.845 L 110.872,-119.545
 L 107.405,-119.545 L 107.405,-118.995 z
M 112.072,-119.545 L 112.072,-120.845 L 119.94,-120.845 L 119.94,-119.545 z
M 121.14,-79.475 L 121.14,-80.775 L 122.355,-80.775 L 122.341,-80.8023 L 122.301,-80.9212 L 122.276,-81.0446
 L 122.269,-81.1711 L 122.278,-81.2992 L 122.305,-81.4276 L 122.347,-81.5549 L 122.406,-81.6797 L 122.48,-81.8005
 L 122.537,-81.875 L 121.14,-81.875 L 121.14,-83.175 L 124.607,-83.175 L 124.607,-84.275 L 121.14,-84.275
 L 121.14,-85.575 L 124.607,-85.575 L 124.607,-89.725 L 125.407,-89.725 L 125.407,-85.575 L 129.008,-85.575
 L 129.008,-84.275 L 125.407,-84.275 L 125.407,-83.175 L 129.008,-83.175 L 129.008,-81.875 L 125.407,-81.875
 L 125.407,-81.325 L 125.331,-81.325 L 125.31,-81.2224 L 125.268,-81.0951 L 125.209,-80.9703 L 125.135,-80.8495
 L 125.078,-80.775 L 129.008,-80.775 L 129.008,-79.475 z
M 112.072,-79.475 L 112.072,-80.775 L 114.554,-80.775 L 114.54,-80.8023 L 114.499,-80.9212 L 114.475,-81.0446
 L 114.468,-81.1711 L 114.477,-81.2992 L 114.503,-81.4276 L 114.546,-81.5549 L 114.605,-81.6797 L 114.679,-81.8005
 L 114.736,-81.875 L 112.072,-81.875 L 112.072,-83.175 L 116.806,-83.175 L 116.806,-84.275 L 112.072,-84.275
 L 112.072,-85.575 L 116.806,-85.575 L 116.806,-89.725 L 117.606,-89.725 L 117.606,-85.575 L 119.94,-85.575
 L 119.94,-84.275 L 117.606,-84.275 L 117.606,-83.175 L 119.94,-83.175 L 119.94,-81.875 L 117.606,-81.875
 L 117.606,-81.325 L 117.53,-81.325 L 117.509,-81.2224 L 117.466,-81.0951 L 117.408,-80.9703 L 117.334,-80.8495
 L 117.277,-80.775 L 119.94,-80.775 L 119.94,-79.475 z
M 103.004,-77.075 L 103.004,-78.375 L 106.753,-78.375 L 106.739,-78.4023 L 106.698,-78.5213 L 106.674,-78.6446
 L 106.667,-78.7711 L 106.676,-78.8992 L 106.702,-79.0276 L 106.745,-79.1549 L 106.803,-79.2797 L 106.877,-79.4005
 L 106.934,-79.475 L 103.004,-79.475 L 103.004,-80.775 L 109.005,-80.775 L 109.005,-81.875 L 103.004,-81.875
 L 103.004,-83.175 L 109.005,-83.175 L 109.005,-84.275 L 103.004,-84.275 L 103.004,-85.575 L 109.005,-85.575
 L 109.005,-87.325 L 109.805,-87.325 L 109.805,-85.575 L 110.872,-85.575 L 110.872,-84.275 L 109.805,-84.275
 L 109.805,-83.175 L 110.872,-83.175 L 110.872,-81.875 L 109.805,-81.875 L 109.805,-80.775 L 110.872,-80.775
 L 110.872,-79.475 L 109.805,-79.475 L 109.805,-78.925 L 109.729,-78.925 L 109.708,-78.8224 L 109.665,-78.6951
 L 109.607,-78.5703 L 109.533,-78.4495 L 109.476,-78.375 L 110.872,-78.375 L 110.872,-77.075 z
M 112.072,-77.075 L 112.072,-78.375 L 119.94,-78.375 L 119.94,-77.075 z
M 121.14,-77.075 L 121.14,-78.375 L 129.008,-78.375 L 129.008,-77.075 z
M 112.072,-74.675 L 112.072,-75.975 L 119.94,-75.975 L 119.94,-74.675 z
M 103.004,-74.675 L 103.004,-75.975 L 110.872,-75.975 L 110.872,-74.675 z
M 121.14,-74.675 L 121.14,-75.975 L 129.008,-75.975 L 129.008,-74.675 z
M 103.004,-34.605 L 103.004,-35.905 L 106.753,-35.905 L 106.739,-35.9323 L 106.698,-36.0512 L 106.674,-36.1746
 L 106.667,-36.3011 L 106.676,-36.4292 L 106.702,-36.5576 L 106.745,-36.6849 L 106.803,-36.8096 L 106.877,-36.9305
 L 106.934,-37.005 L 103.004,-37.005 L 103.004,-38.305 L 109.005,-38.305 L 109.005,-39.405 L 103.004,-39.405
 L 103.004,-40.705 L 109.005,-40.705 L 109.005,-44.855 L 109.805,-44.855 L 109.805,-40.705 L 110.872,-40.705
 L 110.872,-39.405 L 109.805,-39.405 L 109.805,-38.305 L 110.872,-38.305 L 110.872,-37.005 L 109.805,-37.005
 L 109.805,-36.455 L 109.729,-36.455 L 109.708,-36.3524 L 109.665,-36.2251 L 109.607,-36.1003 L 109.533,-35.9794
 L 109.476,-35.905 L 110.872,-35.905 L 110.872,-34.605 z
M 115.677,-34.0319 L 115.522,-34.0493 L 115.372,-34.0799 L 115.229,-34.1234 L 115.094,-34.1794 L 114.97,-34.247
 L 114.857,-34.3258 L 114.756,-34.4147 L 114.669,-34.5128 L 114.606,-34.605 L 112.072,-34.605 L 112.072,-35.905
 L 114.822,-35.905 L 114.869,-35.9554 L 114.984,-36.0569 L 115.11,-36.1497 L 115.245,-36.2326 L 115.389,-36.3048
 L 115.54,-36.3655 L 115.696,-36.4141 L 115.855,-36.45 L 116.016,-36.4727 L 116.176,-36.4821 L 116.335,-36.4781
 L 116.491,-36.4607 L 116.641,-36.43 L 116.784,-36.3865 L 116.806,-36.3772 L 116.806,-37.005 L 112.072,-37.005
 L 112.072,-38.305 L 116.806,-38.305 L 116.806,-39.405 L 112.072,-39.405 L 112.072,-40.705 L 116.806,-40.705
 L 116.806,-43.655 L 117.606,-43.655 L 117.606,-40.705 L 119.94,-40.705 L 119.94,-39.405 L 117.606,-39.405
 L 117.606,-38.305 L 119.94,-38.305 L 119.94,-37.005 L 117.606,-37.005 L 117.606,-35.905 L 119.94,-35.905
 L 119.94,-34.605 L 117.19,-34.605 L 117.143,-34.5546 L 117.029,-34.4531 L 116.903,-34.3603 L 116.767,-34.2774
 L 116.623,-34.2052 L 116.473,-34.1444 L 116.317,-34.0959 L 116.158,-34.06 L 115.997,-34.0373 L 115.836,-34.0278
 z
M 123.478,-31.6319 L 123.323,-31.6493 L 123.173,-31.6799 L 123.03,-31.7234 L 122.896,-31.7794 L 122.771,-31.847
 L 122.658,-31.9258 L 122.557,-32.0147 L 122.47,-32.1128 L 122.408,-32.205 L 121.14,-32.205 L 121.14,-33.505
 L 122.623,-33.505 L 122.671,-33.5554 L 122.785,-33.6569 L 122.911,-33.7497 L 123.046,-33.8326 L 123.19,-33.9048
 L 123.341,-33.9655 L 123.497,-34.0141 L 123.656,-34.05 L 123.817,-34.0727 L 123.978,-34.0821 L 124.137,-34.0781
 L 124.292,-34.0607 L 124.442,-34.03 L 124.585,-33.9865 L 124.607,-33.9772 L 124.607,-34.605 L 121.14,-34.605
 L 121.14,-35.905 L 124.607,-35.905 L 124.607,-37.005 L 121.14,-37.005 L 121.14,-38.305 L 124.607,-38.305
 L 124.607,-39.405 L 121.14,-39.405 L 121.14,-40.705 L 124.607,-40.705 L 124.607,-41.255 L 125.407,-41.255
 L 125.407,-40.705 L 129.008,-40.705 L 129.008,-39.405 L 125.407,-39.405 L 125.407,-38.305 L 129.008,-38.305
 L 129.008,-37.005 L 125.407,-37.005 L 125.407,-35.905 L 129.008,-35.905 L 129.008,-34.605 L 125.407,-34.605
 L 125.407,-33.505 L 129.008,-33.505 L 129.008,-32.205 L 124.992,-32.205 L 124.944,-32.1546 L 124.83,-32.0531
 L 124.704,-31.9603 L 124.568,-31.8774 L 124.425,-31.8052 L 124.274,-31.7444 L 124.118,-31.6959 L 123.959,-31.66
 L 123.798,-31.6373 L 123.637,-31.6279 z
M 103.004,-32.205 L 103.004,-33.505 L 110.872,-33.505 L 110.872,-32.205 z
M 112.072,-32.205 L 112.072,-33.505 L 119.94,-33.505 L 119.94,-32.205 z
M 112.072,-29.805 L 112.072,-31.105 L 119.94,-31.105 L 119.94,-29.805 z
M 121.14,-29.805 L 121.14,-31.105 L 129.008,-31.105 L 129.008,-29.805 z
M 103.004,-29.805 L 103.004,-31.105 L 110.872,-31.105 L 110.872,-29.805 z
M 28.5,-0 L 47,-0 L 47,-160.25 L 28.5,-160.25 L 28.5,-163.55 L 18.5,-163.55
 L 18.5,-160.25 L 0,-160.25 L 0,-0 L 18.5,-0 L 18.5,3.29999 L 28.5,3.29999
 z
M 16.7333,-124.345 L 16.7333,-125.645 L 22.0476,-125.645 L 22.0339,-125.672 L 21.9932,-125.791 L 21.9689,-125.915
 L 21.9615,-126.041 L 21.9709,-126.169 L 21.9971,-126.298 L 22.0397,-126.425 L 22.0984,-126.55 L 22.1724,-126.671
 L 22.2294,-126.745 L 16.7333,-126.745 L 16.7333,-128.045 L 24.3,-128.045 L 24.3,-129.145 L 16.7333,-129.145
 L 16.7333,-130.445 L 24.3,-130.445 L 24.3,-134.595 L 25.1,-134.595 L 25.1,-130.445 L 30.2667,-130.445
 L 30.2667,-129.145 L 25.1,-129.145 L 25.1,-128.045 L 30.2667,-128.045 L 30.2667,-126.745 L 25.1,-126.745
 L 25.1,-126.195 L 25.0238,-126.195 L 25.0029,-126.092 L 24.9603,-125.965 L 24.9016,-125.84 L 24.8276,-125.719
 L 24.7706,-125.645 L 30.2667,-125.645 L 30.2667,-124.345 z
M 36.0708,-123.772 L 35.9156,-123.789 L 35.7656,-123.82 L 35.6225,-123.863 L 35.488,-123.919 L 35.3635,-123.987
 L 35.2503,-124.066 L 35.1497,-124.155 L 35.0629,-124.253 L 35.0002,-124.345 L 31.4667,-124.345 L 31.4667,-125.645
 L 35.2159,-125.645 L 35.263,-125.695 L 35.3776,-125.797 L 35.5034,-125.89 L 35.639,-125.973 L 35.7829,-126.045
 L 35.9336,-126.106 L 36.0894,-126.154 L 36.2486,-126.19 L 36.4095,-126.213 L 36.5703,-126.222 L 36.7291,-126.218
 L 36.8844,-126.201 L 37.0344,-126.17 L 37.1775,-126.127 L 37.2,-126.117 L 37.2,-126.745 L 31.4667,-126.745
 L 31.4667,-128.045 L 37.2,-128.045 L 37.2,-129.145 L 31.4667,-129.145 L 31.4667,-130.445 L 37.2,-130.445
 L 37.2,-133.395 L 38,-133.395 L 38,-130.445 L 45,-130.445 L 45,-129.145 L 38,-129.145
 L 38,-128.045 L 45,-128.045 L 45,-126.745 L 38,-126.745 L 38,-125.645 L 45,-125.645
 L 45,-124.345 L 37.5841,-124.345 L 37.537,-124.295 L 37.4224,-124.193 L 37.2966,-124.1 L 37.161,-124.017
 L 37.0171,-123.945 L 36.8664,-123.884 L 36.7106,-123.836 L 36.5514,-123.8 L 36.3905,-123.777 L 36.2297,-123.768
 z
M 2,-129.145 L 2,-130.445 L 15.5333,-130.445 L 15.5333,-129.145 z
M 9.00002,-118.995 L 9.00002,-119.545 L 2,-119.545 L 2,-120.845 L 9.00002,-120.845 L 9.00002,-121.945
 L 2,-121.945 L 2,-123.245 L 9.00002,-123.245 L 9.00002,-124.345 L 2,-124.345 L 2,-125.645
 L 9.00002,-125.645 L 9.00002,-126.745 L 2,-126.745 L 2,-128.045 L 9.41589,-128.045 L 9.46304,-128.095
 L 9.57762,-128.197 L 9.7034,-128.29 L 9.83899,-128.373 L 9.98293,-128.445 L 10.1336,-128.506 L 10.2894,-128.554
 L 10.4486,-128.59 L 10.6095,-128.613 L 10.7703,-128.622 L 10.9292,-128.618 L 11.0844,-128.601 L 11.2344,-128.57
 L 11.3775,-128.527 L 11.512,-128.471 L 11.6365,-128.403 L 11.7497,-128.324 L 11.8503,-128.235 L 11.9371,-128.137
 L 11.9998,-128.045 L 15.5333,-128.045 L 15.5333,-126.745 L 11.7841,-126.745 L 11.737,-126.695 L 11.6224,-126.593
 L 11.4966,-126.5 L 11.361,-126.417 L 11.2171,-126.345 L 11.0664,-126.284 L 10.9106,-126.236 L 10.7514,-126.2
 L 10.5905,-126.177 L 10.4297,-126.168 L 10.2709,-126.172 L 10.1156,-126.189 L 9.96558,-126.22 L 9.82254,-126.263
 L 9.80002,-126.273 L 9.80002,-125.645 L 15.5333,-125.645 L 15.5333,-124.345 L 9.80002,-124.345 L 9.80002,-123.245
 L 15.5333,-123.245 L 15.5333,-121.945 L 9.80002,-121.945 L 9.80002,-120.845 L 15.5333,-120.845 L 15.5333,-119.545
 L 9.80002,-119.545 L 9.80002,-118.995 z
M 16.7333,-121.945 L 16.7333,-123.245 L 30.2667,-123.245 L 30.2667,-121.945 z
M 31.4667,-121.945 L 31.4667,-123.245 L 45,-123.245 L 45,-121.945 z
M 16.7333,-119.545 L 16.7333,-120.845 L 30.2667,-120.845 L 30.2667,-119.545 z
M 31.4667,-119.545 L 31.4667,-120.845 L 45,-120.845 L 45,-119.545 z
M 20.75,-89.475 L 23.5,-92.225 L 26.25,-89.475 z
M 24.1,-76.6032 L 24.309,-76.6313 L 24.6255,-76.7071 L 24.9209,-76.8132 L 25.1953,-76.9496 L 25.4485,-77.1162
 L 25.6806,-77.3132 L 25.8916,-77.5405 L 26.0796,-77.7956 L 26.2424,-78.0762 L 26.3803,-78.3822 L 26.493,-78.7135
 L 26.5807,-79.0703 L 26.6434,-79.4525 L 26.681,-79.86 L 26.6935,-80.293 L 26.6809,-80.7067 L 26.6432,-81.0974
 L 26.5802,-81.4652 L 26.4921,-81.81 L 26.3788,-82.1319 L 26.2403,-82.4308 L 26.0767,-82.7067 L 25.8879,-82.9596
 L 25.6763,-83.1861 L 25.4445,-83.3823 L 25.1924,-83.5483 L 24.92,-83.6842 L 24.6273,-83.7898 L 24.3144,-83.8653
 L 24.1,-83.8944 L 24.1,-85.6389 L 24.2354,-85.6339 L 24.8088,-85.5668 L 25.3482,-85.4549 L 25.8534,-85.2982
 L 26.3244,-85.0968 L 26.7613,-84.8507 L 27.164,-84.5598 L 27.5326,-84.2241 L 27.8622,-83.8494 L 28.1478,-83.4413
 L 28.3895,-82.9999 L 28.5872,-82.5252 L 28.741,-82.0172 L 28.8508,-81.4758 L 28.9167,-80.9011 L 28.9387,-80.293
 L 28.9286,-79.8889 L 28.8982,-79.4972 L 28.8475,-79.1178 L 28.7765,-78.7508 L 28.6852,-78.3961 L 28.5737,-78.0538
 L 28.4418,-77.7238 L 28.2897,-77.4062 L 28.1188,-77.1039 L 27.9303,-76.82 L 27.7244,-76.5543 L 27.5009,-76.3069
 L 27.26,-76.0778 L 27.0016,-75.867 L 26.7257,-75.6745 L 26.4324,-75.5003 L 26.124,-75.3456 L 25.803,-75.2115
 L 25.4695,-75.0981 L 25.1233,-75.0052 L 24.7645,-74.933 L 24.3932,-74.8815 L 24.1,-74.8578 z
M 22.4414,-74.9314 L 21.9059,-75.0453 L 21.4039,-75.2048 L 20.9353,-75.4099 L 20.5002,-75.6605 L 20.0984,-75.9567
 L 19.7302,-76.2985 L 19.4006,-76.6799 L 19.115,-77.095 L 18.8733,-77.5438 L 18.6756,-78.0263 L 18.5218,-78.5424
 L 18.412,-79.0923 L 18.346,-79.6758 L 18.3241,-80.293 L 18.346,-80.9078 L 18.4117,-81.4879 L 18.5213,-82.0332
 L 18.6747,-82.5438 L 18.8719,-83.0197 L 19.1129,-83.4608 L 19.3978,-83.8673 L 19.7265,-84.2389 L 20.0942,-84.5711
 L 20.4962,-84.859 L 20.9324,-85.1026 L 21.403,-85.302 L 21.9078,-85.457 L 22.4468,-85.5677 L 22.9,-85.6202
 L 22.9,-83.8584 L 22.6144,-83.7909 L 22.3186,-83.686 L 22.0437,-83.5512 L 21.7899,-83.3865 L 21.557,-83.1918
 L 21.3451,-82.9671 L 21.1563,-82.7157 L 20.9927,-82.4406 L 20.8542,-82.1418 L 20.741,-81.8194 L 20.6529,-81.4733
 L 20.5899,-81.1035 L 20.5522,-80.7101 L 20.5396,-80.293 L 20.5525,-79.8719 L 20.5911,-79.4736 L 20.6555,-79.0984
 L 20.7456,-78.7461 L 20.8615,-78.4168 L 21.0032,-78.1104 L 21.1706,-77.827 L 21.3638,-77.5666 L 21.5793,-77.3332
 L 21.8134,-77.1309 L 22.0664,-76.9597 L 22.3382,-76.8197 L 22.6287,-76.7108 L 22.9,-76.6425 L 22.9,-74.8763
 z
M 20.75,-70.775 L 26.25,-70.775 L 23.5,-68.025 z
M 16.7333,-34.605 L 16.7333,-35.905 L 22.0476,-35.905 L 22.0339,-35.9323 L 21.9932,-36.0512 L 21.9689,-36.1746
 L 21.9615,-36.3011 L 21.9709,-36.4292 L 21.9971,-36.5576 L 22.0397,-36.6849 L 22.0984,-36.8096 L 22.1724,-36.9305
 L 22.2294,-37.005 L 16.7333,-37.005 L 16.7333,-38.305 L 24.3,-38.305 L 24.3,-39.405 L 16.7333,-39.405
 L 16.7333,-40.705 L 24.3,-40.705 L 24.3,-44.855 L 25.1,-44.855 L 25.1,-40.705 L 30.2667,-40.705
 L 30.2667,-39.405 L 25.1,-39.405 L 25.1,-38.305 L 30.2667,-38.305 L 30.2667,-37.005 L 25.1,-37.005
 L 25.1,-36.455 L 25.0238,-36.455 L 25.0029,-36.3524 L 24.9603,-36.2251 L 24.9016,-36.1003 L 24.8276,-35.9794
 L 24.7706,-35.905 L 30.2667,-35.905 L 30.2667,-34.605 z
M 36.0708,-34.0319 L 35.9156,-34.0493 L 35.7656,-34.0799 L 35.6225,-34.1234 L 35.488,-34.1794 L 35.3635,-34.247
 L 35.2503,-34.3258 L 35.1497,-34.4147 L 35.0629,-34.5128 L 35.0002,-34.605 L 31.4667,-34.605 L 31.4667,-35.905
 L 35.2159,-35.905 L 35.263,-35.9554 L 35.3776,-36.0569 L 35.5034,-36.1497 L 35.639,-36.2326 L 35.7829,-36.3048
 L 35.9336,-36.3655 L 36.0894,-36.4141 L 36.2486,-36.45 L 36.4095,-36.4727 L 36.5703,-36.4821 L 36.7291,-36.4781
 L 36.8844,-36.4607 L 37.0344,-36.43 L 37.1775,-36.3865 L 37.2,-36.3772 L 37.2,-37.005 L 31.4667,-37.005
 L 31.4667,-38.305 L 37.2,-38.305 L 37.2,-39.405 L 31.4667,-39.405 L 31.4667,-40.705 L 37.2,-40.705
 L 37.2,-43.655 L 38,-43.655 L 38,-40.705 L 45,-40.705 L 45,-39.405 L 38,-39.405
 L 38,-38.305 L 45,-38.305 L 45,-37.005 L 38,-37.005 L 38,-35.905 L 45,-35.905
 L 45,-34.605 L 37.5841,-34.605 L 37.537,-34.5546 L 37.4224,-34.4531 L 37.2966,-34.3603 L 37.161,-34.2774
 L 37.0171,-34.2052 L 36.8664,-34.1444 L 36.7106,-34.0959 L 36.5514,-34.06 L 36.3905,-34.0373 L 36.2297,-34.0278
 z
M 2,-32.205 L 2,-33.505 L 9.14758,-33.505 L 9.1339,-33.5323 L 9.09317,-33.6512 L 9.06895,-33.7746
 L 9.06152,-33.9011 L 9.07094,-34.0292 L 9.09712,-34.1576 L 9.13976,-34.2849 L 9.19839,-34.4097 L 9.27238,-34.5305
 L 9.32938,-34.605 L 2,-34.605 L 2,-35.905 L 11.4,-35.905 L 11.4,-37.005 L 2,-37.005
 L 2,-38.305 L 11.4,-38.305 L 11.4,-39.405 L 2,-39.405 L 2,-40.705 L 11.4,-40.705
 L 11.4,-42.455 L 12.2,-42.455 L 12.2,-40.705 L 15.5333,-40.705 L 15.5333,-39.405 L 12.2,-39.405
 L 12.2,-38.305 L 15.5333,-38.305 L 15.5333,-37.005 L 12.2,-37.005 L 12.2,-35.905 L 15.5333,-35.905
 L 15.5333,-34.605 L 12.2,-34.605 L 12.2,-34.055 L 12.1238,-34.055 L 12.1029,-33.9524 L 12.0603,-33.8251
 L 12.0016,-33.7003 L 11.9276,-33.5795 L 11.8706,-33.505 L 15.5333,-33.505 L 15.5333,-32.205 z
M 16.7333,-32.205 L 16.7333,-33.505 L 30.2667,-33.505 L 30.2667,-32.205 z
M 31.4667,-32.205 L 31.4667,-33.505 L 45,-33.505 L 45,-32.205 z
M 2,-29.805 L 2,-31.105 L 15.5333,-31.105 L 15.5333,-29.805 z
M 16.7333,-29.805 L 16.7333,-31.105 L 30.2667,-31.105 L 30.2667,-29.805 z
M 31.4667,-29.805 L 31.4667,-31.105 L 45,-31.105 L 45,-29.805 z
M 287.675,59.5 L 290.325,59.5 L 290.325,100 L 292,100 L 304,20 L 301,20
 L 301,17.2 L 293,17.2 L 293,20 L 285,20 L 285,17.2 L 277,17.2
 L 277,20 L 274,20 L 286,100 L 287.675,100 z
M 259,20 L 256,20 L 256,17.2 L 248,17.2 L 248,20 L 245.325,20
 L 245.325,60.5 L 242.675,60.5 L 242.675,20 L 240,20 L 240,17.2 L 232,17.2
 L 232,20 L 229,20 L 241,100 L 247,100 z
M 179,58.8 L 164.6,25.8 L 108.2,25.8 L 93.8,58.8 L 108.2,91.8 L 164.6,91.8
 z
M 131.475,32.625 L 131.475,29.975 L 141.325,29.975 L 141.325,32.625 z
M 162.716,41.066 L 165.145,40.0061 L 169.084,49.034 L 166.655,50.0939 z
M 103.716,49.034 L 107.655,40.0061 L 110.084,41.066 L 106.145,50.0939 z
M 135.075,54.725 L 135.075,46.875 L 137.725,46.875 L 137.725,54.725 z
M 124.475,60.125 L 124.475,57.475 L 132.325,57.475 L 132.325,60.125 z
M 140.475,60.125 L 140.475,57.475 L 148.325,57.475 L 148.325,60.125 z
M 135.075,70.725 L 135.075,62.875 L 137.725,62.875 L 137.725,70.725 z
M 103.716,68.5659 L 106.145,67.5061 L 110.084,76.534 L 107.655,77.5939 z
M 162.716,76.534 L 166.655,67.5061 L 169.084,68.5659 L 165.145,77.5939 z
M 131.475,87.625 L 131.475,84.975 L 141.325,84.975 L 141.325,87.625 z
M 91.4,58.8 L 77,25.8 L 20.6,25.8 L 6.2,58.8 L 20.6,91.8 L 77,91.8
 z
M 43.875,87.625 L 43.875,86.1582 L 43.0138,86.0218 L 40.2001,85.2679 L 37.4805,84.224 L 34.885,82.9015
 L 32.4419,81.3149 L 30.1781,79.4817 L 28.1183,77.4219 L 26.285,75.1581 L 24.6985,72.715 L 23.376,70.1195
 L 22.3321,67.3999 L 21.5781,64.5862 L 21.1225,61.709 L 20.97,58.8 L 21.1225,55.891 L 21.5781,53.0138
 L 22.3321,50.2001 L 23.376,47.4805 L 24.6985,44.885 L 26.285,42.4419 L 28.1183,40.1781 L 30.1781,38.1183
 L 32.4419,36.285 L 34.885,34.6985 L 37.4805,33.376 L 40.2001,32.3321 L 43.0138,31.5781 L 43.875,31.4417
 L 43.875,29.975 L 53.725,29.975 L 53.725,31.4417 L 54.5862,31.5781 L 57.3999,32.3321 L 60.1195,33.376
 L 62.715,34.6985 L 65.1581,36.285 L 67.4219,38.1183 L 69.4817,40.1781 L 71.3149,42.4419 L 72.9015,44.885
 L 74.224,47.4805 L 75.2679,50.2001 L 76.0218,53.0138 L 76.4775,55.891 L 76.63,58.8 L 76.4775,61.709
 L 76.0218,64.5862 L 75.2679,67.3999 L 74.224,70.1195 L 72.9015,72.715 L 71.3149,75.1581 L 69.4817,77.4219
 L 67.4219,79.4817 L 65.1581,81.3149 L 62.715,82.9015 L 60.1195,84.224 L 57.3999,85.2679 L 54.5862,86.0218
 L 53.725,86.1582 L 53.725,87.625 z
M 75.1158,41.066 L 77.5447,40.0061 L 81.4841,49.034 L 79.0553,50.0939 z
M 16.1159,49.034 L 20.0553,40.0061 L 22.4841,41.066 L 18.5447,50.0939 z
M 16.1159,68.5659 L 18.5447,67.5061 L 22.4841,76.534 L 20.0553,77.5939 z
M 75.1158,76.534 L 79.0553,67.5061 L 81.4841,68.5659 L 77.5447,77.5939 z
" stroke="black" fill="lightgray" stroke-width="0.5"/>
</svg>
