<?xml version="1.0" encoding="UTF-8" standalone="no"?>
<!-- Created with Inkscape (http://www.inkscape.org/) -->

<svg
   width="210mm"
   height="297mm"
   viewBox="0 0 210 297"
   version="1.1"
   id="svg1"
   xmlns="http://www.w3.org/2000/svg"
   xmlns:svg="http://www.w3.org/2000/svg">
  <defs
     id="defs1" />
  <g
     id="layer1">
    <path
       d="m 87.139174,85.073335 c 0.598929,2.973632 1.197859,5.947265 1.796788,8.920897 4.497677,-0.471803 9.127356,2.093777 11.124728,6.149678 1.8319,3.48261 1.76428,7.99906 -0.522436,11.26135 -1.406103,2.08207 -3.571969,3.63446 -5.991703,4.30736 -0.531571,0.5153 -0.179422,1.29775 -9.76e-4,1.89068 0.209792,0.62101 0.183822,1.28456 0.356384,1.91627 0.389674,1.89625 0.817897,3.9002 0.212968,5.80128 -0.795146,2.87312 -3.281478,5.3429 -6.297803,5.71399 -2.692732,0.29236 -5.611521,-0.67289 -7.339992,-2.81465 -1.183282,-1.56179 -1.537665,-3.9323 -0.31982,-5.57639 1.141105,-1.47813 3.39452,-1.78977 5.015102,-0.97304 2.227815,1.20087 2.878583,4.62362 1.076645,6.46514 -0.236993,0.26373 -1.396623,0.84308 -0.509338,0.99782 2.230796,0.45909 4.666869,-0.81617 5.549665,-2.91841 0.961992,-2.11309 0.631822,-4.51839 0.138799,-6.70682 -0.206921,-1.08723 -0.429856,-2.17136 -0.632381,-3.25944 -2.885469,0.50985 -5.83235,0.0656 -8.675816,-0.49155 -3.599709,-0.84815 -7.058391,-2.88912 -9.025658,-6.09228 -1.809199,-2.82218 -2.246896,-6.28824 -2.062091,-9.57519 0.213226,-4.262947 1.874377,-8.479191 4.815268,-11.598649 2.386226,-2.656785 5.349924,-4.734799 8.486165,-6.412381 -0.732442,-3.906854 -1.649183,-7.791154 -2.030359,-11.753786 -0.02175,-2.219371 1.016601,-4.622179 3.087273,-5.634235 2.354894,-1.130549 5.394857,-0.0758 6.729875,2.121692 1.705608,2.434797 1.884099,5.665343 1.045549,8.452185 -1.125259,3.725905 -3.380749,6.997301 -6.026836,9.808479 z m 0.85111,-15.981961 c -1.579741,-0.129966 -2.887637,1.385424 -2.917907,2.893157 -0.08351,1.868166 0.169475,3.731597 0.56286,5.55512 0.212947,1.037861 0.448288,2.07127 0.637488,3.113896 1.039481,-0.163265 1.624624,-1.130711 2.384807,-1.747573 1.89231,-2.069425 2.958515,-5.108592 2.106094,-7.863124 -0.373345,-1.147702 -1.54124,-2.053362 -2.773342,-1.951476 z m 2.395718,45.077326 c -0.903648,-4.81245 -1.807296,-9.6249 -2.710944,-14.437354 -2.670547,0.593224 -4.51884,3.205734 -4.74873,5.848394 -0.151572,0.66651 -0.0066,1.33883 0.04982,2.0076 0.05238,0.9067 -0.916744,-0.0636 -1.237395,-0.29889 -1.511447,-1.36952 -2.044011,-3.6089 -1.533948,-5.55518 0.606845,-2.96399 2.811268,-5.44617 5.509625,-6.726973 0.745272,0.0331 1.115905,-0.796746 0.897613,-1.433213 -0.343166,-1.307643 -0.534844,-2.654287 -0.818303,-3.977515 -0.172172,-0.87682 -0.34413,-1.753684 -0.514391,-2.630878 -3.770198,3.664005 -7.913031,7.073686 -10.748511,11.564483 -1.613454,2.726736 -1.670357,6.255266 -0.231069,9.066636 1.221242,2.48055 3.481877,4.36196 6.061603,5.30662 3.151533,1.29864 6.649861,1.72112 10.024631,1.26627 z M 89.944686,99.510688 c 0.924663,4.675852 1.849326,9.351712 2.773989,14.027562 3.314096,-0.79233 5.658174,-4.11411 5.688833,-7.46 0.03338,-1.7867 -0.651051,-3.64625 -2.102277,-4.75356 -1.776513,-1.446626 -4.139644,-1.78635 -6.360545,-1.814002 z"
       id="text1"
       style="font-size:64.5583px;font-family:'Curlz MT';-inkscape-font-specification:'Curlz MT';text-align:center;text-anchor:middle;white-space:pre;inline-size:66.874;fill:none;stroke:#00ff00;stroke-width:0.264583;stroke-dashoffset:22.6545;paint-order:fill markers stroke"
       aria-label="𝄞" />
  </g>
</svg>
