<svg width="336" height="335" viewBox="0 0 336 335" fill="none" xmlns="http://www.w3.org/2000/svg">
<path d="M251.268 283.336H85.963C69.967 283.336 57 270.369 57 254.373V80.963C57 64.967 69.967 52 85.963 52H251.268C267.264 52 280.231 64.967 280.231 80.963V254.373C280.231 270.369 267.264 283.336 251.268 283.336Z" stroke="#3D4647" stroke-width="5" stroke-miterlimit="10"/>
<path d="M197.622 209.094V196.121H186.057C186.057 189.484 189.275 183.048 192.694 181.037C194.705 179.327 199.231 178.523 203.153 180.534C208.282 183.45 208.583 191.898 205.969 195.719C230.406 191.194 227.992 167.561 219.646 159.014C212.908 152.075 205.567 151.07 199.936 153.181C187.064 157.807 178.416 173.193 178.013 196.121H171.275C171.275 175.305 174.895 168.667 184.348 142.421C189.175 130.052 186.259 114.766 177.811 100.688C174.694 95.66 170.872 91.135 166.548 86.207C162.224 91.135 158.402 95.66 155.285 100.688C146.838 114.767 143.921 130.052 148.748 142.421C158.201 168.668 161.821 175.305 161.821 196.121H155.083C154.681 173.193 146.032 157.807 133.16 153.181C127.528 151.069 120.187 152.075 113.45 159.014C105.103 167.562 102.69 191.194 127.127 195.719C124.512 191.898 124.814 183.45 129.943 180.534C133.865 178.523 138.39 179.327 140.402 181.037C143.821 183.048 147.039 189.484 147.039 196.121H135.474V209.094H159.508C159.206 215.832 155.586 221.061 148.848 223.977C149.653 226.793 153.776 232.525 159.407 232.123C160.513 238.157 161.519 241.576 166.547 247.107C171.575 241.576 172.581 238.157 173.687 232.123C179.319 232.525 183.442 226.793 184.246 223.977C177.508 221.061 173.888 215.831 173.586 209.094H197.62H197.622Z" stroke="#13AA4B" stroke-width="4" stroke-miterlimit="10"/>
</svg>
