<?xml version="1.0" standalone="no"?>
<!DOCTYPE svg PUBLIC "-//W3C//DTD SVG 1.1//EN" "http://www.w3.org/Graphics/SVG/1.1/DTD/svg11.dtd">
<svg width="415mm" height="388mm" viewBox="-50 -62 415 388" xmlns="http://www.w3.org/2000/svg" version="1.1">
<title>OpenSCAD Model</title>
<path d="
M 5.22641,49.7261 L 10.3956,48.9074 L 15.4508,47.5528 L 20.3368,45.6773 L 25,43.3013 L 29.3893,40.4508
 L 33.4565,37.1572 L 37.1572,33.4565 L 40.4508,29.3893 L 43.3013,25 L 45.6773,20.3368 L 47.5528,15.4508
 L 48.9074,10.3956 L 49.7261,5.22641 L 50,-0 L 49.7261,-5.22641 L 48.9074,-10.3956 L 47.5528,-15.4508
 L 45.6773,-20.3368 L 43.3013,-25 L 40.4508,-29.3893 L 37.1572,-33.4565 L 33.4565,-37.1572 L 29.3893,-40.4508
 L 25,-43.3013 L 20.3368,-45.6773 L 15.4508,-47.5528 L 10.3956,-48.9074 L 5.22641,-49.7261 L 5.11772,-49.7318
 L 5.20201,-49.8161 L 5.66312,-50.3855 L 6.06216,-51 L 6.39481,-51.6528 L 6.65739,-52.3369 L 6.84703,-53.0446
 L 6.96164,-53.7683 L 7,-54.5 L 6.96164,-55.2317 L 6.84703,-55.9554 L 6.65739,-56.6631 L 6.39481,-57.3472
 L 6.06216,-58 L 5.66312,-58.6145 L 5.20201,-59.1839 L 4.68391,-59.702 L 4.11449,-60.1631 L 3.5,-60.5622
 L 2.84715,-60.8948 L 2.16312,-61.1574 L 1.45537,-61.347 L 0.731689,-61.4616 L 0,-61.5 L -0.731689,-61.4616
 L -1.45537,-61.347 L -2.16312,-61.1574 L -2.84715,-60.8948 L -3.5,-60.5622 L -4.11449,-60.1631 L -4.68391,-59.702
 L -5.20201,-59.1839 L -5.66312,-58.6145 L -6.06216,-58 L -6.39481,-57.3472 L -6.65739,-56.6631 L -6.84703,-55.9554
 L -6.96164,-55.2317 L -7,-54.5 L -6.96164,-53.7683 L -6.84703,-53.0446 L -6.65739,-52.3369 L -6.39481,-51.6528
 L -6.06216,-51 L -5.66312,-50.3855 L -5.20201,-49.8161 L -5.11772,-49.7318 L -5.22641,-49.7261 L -10.3956,-48.9074
 L -15.4508,-47.5528 L -20.3368,-45.6773 L -25,-43.3013 L -29.3893,-40.4508 L -33.4565,-37.1572 L -37.1572,-33.4565
 L -40.4508,-29.3893 L -43.3013,-25 L -45.6773,-20.3368 L -47.5528,-15.4508 L -48.9074,-10.3956 L -49.7261,-5.22641
 L -50,-0 L -49.7261,5.22641 L -48.9074,10.3956 L -47.5528,15.4508 L -45.6773,20.3368 L -43.3013,25
 L -40.4508,29.3893 L -37.1572,33.4565 L -33.4565,37.1572 L -29.3893,40.4508 L -25,43.3013 L -20.3368,45.6773
 L -15.4508,47.5528 L -10.3956,48.9074 L -5.22641,49.7261 L 0,50 z
M -0.457565,-51.611 L -0.90387,-51.7182 L -1.32791,-51.8938 L -1.71927,-52.1336 L -2.06828,-52.4317 L -2.36636,-52.7807
 L -2.60619,-53.1721 L -2.78183,-53.5961 L -2.88898,-54.0424 L -2.92499,-54.5 L -2.88898,-54.9576 L -2.78183,-55.4039
 L -2.60619,-55.8279 L -2.36636,-56.2193 L -2.06828,-56.5683 L -1.71927,-56.8664 L -1.32791,-57.1062 L -0.90387,-57.2818
 L -0.457565,-57.389 L 0,-57.425 L 0.457565,-57.389 L 0.90387,-57.2818 L 1.32791,-57.1062 L 1.71927,-56.8664
 L 2.06828,-56.5683 L 2.36636,-56.2193 L 2.60619,-55.8279 L 2.78183,-55.4039 L 2.88898,-54.9576 L 2.92499,-54.5
 L 2.88898,-54.0424 L 2.78183,-53.5961 L 2.60619,-53.1721 L 2.36636,-52.7807 L 2.06828,-52.4317 L 1.71927,-52.1336
 L 1.32791,-51.8938 L 0.90387,-51.7182 L 0.457565,-51.611 L 0,-51.575 z
M -28.2995,-26.5543 L -28.5777,-26.661 L -28.8275,-26.8233 L -29.0381,-27.0339 L -29.2004,-27.2838 L -29.3072,-27.5619
 L -29.3538,-27.8561 L -29.3382,-28.1536 L -29.2611,-28.4414 L -29.1258,-28.7068 L -28.9383,-28.9383 L -28.7068,-29.1258
 L -28.4414,-29.2611 L -28.1536,-29.3382 L -27.8561,-29.3538 L -27.5619,-29.3072 L -27.2838,-29.2004 L -27.0339,-29.0381
 L -26.8233,-28.8275 L -26.661,-28.5777 L -26.5543,-28.2995 L -26.5077,-28.0053 L -26.5233,-27.7078 L -26.6004,-27.42
 L -26.7356,-27.1546 L -26.9231,-26.9231 L -27.1546,-26.7356 L -27.42,-26.6004 L -27.7078,-26.5233 L -28.0053,-26.5077
 z
M 27.7078,-26.5233 L 27.42,-26.6004 L 27.1546,-26.7356 L 26.9231,-26.9231 L 26.7356,-27.1546 L 26.6004,-27.42
 L 26.5233,-27.7078 L 26.5077,-28.0053 L 26.5543,-28.2995 L 26.661,-28.5777 L 26.8233,-28.8275 L 27.0339,-29.0381
 L 27.2838,-29.2004 L 27.5619,-29.3072 L 27.8561,-29.3538 L 28.1536,-29.3382 L 28.4414,-29.2611 L 28.7068,-29.1258
 L 28.9383,-28.9383 L 29.1258,-28.7068 L 29.2611,-28.4414 L 29.3382,-28.1536 L 29.3538,-27.8561 L 29.3072,-27.5619
 L 29.2004,-27.2838 L 29.0381,-27.0339 L 28.8275,-26.8233 L 28.5777,-26.661 L 28.2995,-26.5543 L 28.0053,-26.5077
 z
M -1.51773,28.9603 L -3.03131,28.8411 L -4.53659,28.643 L -6.02943,28.3663 L -7.50574,28.0118 L -8.96149,27.5806
 L -10.3927,27.0738 L -11.7953,26.4928 L -13.1657,25.8392 L -14.5,25.1147 L -15.7945,24.3214 L -17.0458,23.4615
 L -18.2503,22.5372 L -19.4048,21.5512 L -20.5061,20.5061 L -21.5512,19.4048 L -22.5372,18.2503 L -23.4615,17.0458
 L -24.3214,15.7945 L -25.1147,14.5 L -25.8392,13.1657 L -26.4928,11.7953 L -27.0738,10.3927 L -27.5806,8.96149
 L -28.0118,7.50574 L -28.3663,6.02943 L -28.643,4.53659 L -28.8411,3.03131 L -28.9603,1.51773 L -29,-0
 L -28.9603,-1.51773 L -28.8411,-3.03131 L -28.643,-4.53659 L -28.3663,-6.02943 L -28.0118,-7.50574 L -27.5806,-8.96149
 L -27.0738,-10.3927 L -26.4928,-11.7953 L -25.8392,-13.1657 L -25.1147,-14.5 L -24.3214,-15.7945 L -23.4615,-17.0458
 L -22.5372,-18.2503 L -21.5512,-19.4048 L -20.5061,-20.5061 L -19.4048,-21.5512 L -18.2503,-22.5372 L -17.0458,-23.4615
 L -15.7945,-24.3214 L -14.5,-25.1147 L -13.1657,-25.8392 L -11.7953,-26.4928 L -10.3927,-27.0738 L -8.96149,-27.5806
 L -7.50574,-28.0118 L -6.02943,-28.3663 L -4.53659,-28.643 L -3.03131,-28.8411 L -1.51773,-28.9603 L 0,-29
 L 1.51773,-28.9603 L 3.03131,-28.8411 L 4.53659,-28.643 L 6.02943,-28.3663 L 7.50574,-28.0118 L 8.96149,-27.5806
 L 10.3927,-27.0738 L 11.7953,-26.4928 L 13.1657,-25.8392 L 14.5,-25.1147 L 15.7945,-24.3214 L 17.0458,-23.4615
 L 18.2503,-22.5372 L 19.4048,-21.5512 L 20.5061,-20.5061 L 21.5512,-19.4048 L 22.5372,-18.2503 L 23.4615,-17.0458
 L 24.3214,-15.7945 L 25.1147,-14.5 L 25.8392,-13.1657 L 26.4928,-11.7953 L 27.0738,-10.3927 L 27.5806,-8.96149
 L 28.0118,-7.50574 L 28.3663,-6.02943 L 28.643,-4.53659 L 28.8411,-3.03131 L 28.9603,-1.51773 L 29,-0
 L 28.9603,1.51773 L 28.8411,3.03131 L 28.643,4.53659 L 28.3663,6.02943 L 28.0118,7.50574 L 27.5806,8.96149
 L 27.0738,10.3927 L 26.4928,11.7953 L 25.8392,13.1657 L 25.1147,14.5 L 24.3214,15.7945 L 23.4615,17.0458
 L 22.5372,18.2503 L 21.5512,19.4048 L 20.5061,20.5061 L 19.4048,21.5512 L 18.2503,22.5372 L 17.0458,23.4615
 L 15.7945,24.3214 L 14.5,25.1147 L 13.1657,25.8392 L 11.7953,26.4928 L 10.3927,27.0738 L 8.96149,27.5806
 L 7.50574,28.0118 L 6.02943,28.3663 L 4.53659,28.643 L 3.03131,28.8411 L 1.51773,28.9603 L 0,29
 z
M -28.1536,29.3382 L -28.4414,29.2611 L -28.7068,29.1258 L -28.9383,28.9383 L -29.1258,28.7068 L -29.2611,28.4414
 L -29.3382,28.1536 L -29.3538,27.8561 L -29.3072,27.5619 L -29.2004,27.2838 L -29.0381,27.0339 L -28.8275,26.8233
 L -28.5777,26.661 L -28.2995,26.5543 L -28.0053,26.5077 L -27.7078,26.5233 L -27.42,26.6004 L -27.1546,26.7356
 L -26.9231,26.9231 L -26.7356,27.1546 L -26.6004,27.42 L -26.5233,27.7078 L -26.5077,28.0053 L -26.5543,28.2995
 L -26.661,28.5777 L -26.8233,28.8275 L -27.0339,29.0381 L -27.2838,29.2004 L -27.5619,29.3072 L -27.8561,29.3538
 z
M 27.5619,29.3072 L 27.2838,29.2004 L 27.0339,29.0381 L 26.8233,28.8275 L 26.661,28.5777 L 26.5543,28.2995
 L 26.5077,28.0053 L 26.5233,27.7078 L 26.6004,27.42 L 26.7356,27.1546 L 26.9231,26.9231 L 27.1546,26.7356
 L 27.42,26.6004 L 27.7078,26.5233 L 28.0053,26.5077 L 28.2995,26.5543 L 28.5777,26.661 L 28.8275,26.8233
 L 29.0381,27.0339 L 29.2004,27.2838 L 29.3072,27.5619 L 29.3538,27.8561 L 29.3382,28.1536 L 29.2611,28.4414
 L 29.1258,28.7068 L 28.9383,28.9383 L 28.7068,29.1258 L 28.4414,29.2611 L 28.1536,29.3382 L 27.8561,29.3538
 z
M 117.226,49.7261 L 122.396,48.9074 L 127.451,47.5528 L 132.337,45.6773 L 137,43.3013 L 141.389,40.4508
 L 145.457,37.1572 L 149.157,33.4565 L 152.451,29.3893 L 155.301,25 L 157.677,20.3368 L 159.553,15.4508
 L 160.907,10.3956 L 161.726,5.22641 L 162,-0 L 161.726,-5.22641 L 160.907,-10.3956 L 159.553,-15.4508
 L 157.677,-20.3368 L 155.301,-25 L 152.451,-29.3893 L 149.157,-33.4565 L 145.457,-37.1572 L 141.389,-40.4508
 L 137,-43.3013 L 132.337,-45.6773 L 127.451,-47.5528 L 122.396,-48.9074 L 117.226,-49.7261 L 117.118,-49.7318
 L 117.202,-49.8161 L 117.663,-50.3855 L 118.062,-51 L 118.395,-51.6528 L 118.657,-52.3369 L 118.847,-53.0446
 L 118.962,-53.7683 L 119,-54.5 L 118.962,-55.2317 L 118.847,-55.9554 L 118.657,-56.6631 L 118.395,-57.3472
 L 118.062,-58 L 117.663,-58.6145 L 117.202,-59.1839 L 116.684,-59.702 L 116.114,-60.1631 L 115.5,-60.5622
 L 114.847,-60.8948 L 114.163,-61.1574 L 113.455,-61.347 L 112.732,-61.4616 L 112,-61.5 L 111.268,-61.4616
 L 110.545,-61.347 L 109.837,-61.1574 L 109.153,-60.8948 L 108.5,-60.5622 L 107.886,-60.1631 L 107.316,-59.702
 L 106.798,-59.1839 L 106.337,-58.6145 L 105.938,-58 L 105.605,-57.3472 L 105.343,-56.6631 L 105.153,-55.9554
 L 105.038,-55.2317 L 105,-54.5 L 105.038,-53.7683 L 105.153,-53.0446 L 105.343,-52.3369 L 105.605,-51.6528
 L 105.938,-51 L 106.337,-50.3855 L 106.798,-49.8161 L 106.882,-49.7318 L 106.774,-49.7261 L 101.604,-48.9074
 L 96.5492,-47.5528 L 91.6632,-45.6773 L 87,-43.3013 L 82.6107,-40.4508 L 78.5435,-37.1572 L 74.8428,-33.4565
 L 71.5492,-29.3893 L 68.6987,-25 L 66.3227,-20.3368 L 64.4472,-15.4508 L 63.0926,-10.3956 L 62.2739,-5.22641
 L 62,-0 L 62.2739,5.22641 L 63.0926,10.3956 L 64.4472,15.4508 L 66.3227,20.3368 L 68.6987,25
 L 71.5492,29.3893 L 74.8428,33.4565 L 78.5435,37.1572 L 82.6107,40.4508 L 87,43.3013 L 91.6632,45.6773
 L 96.5492,47.5528 L 101.604,48.9074 L 106.774,49.7261 L 112,50 z
M 111.542,-51.611 L 111.096,-51.7182 L 110.672,-51.8938 L 110.281,-52.1336 L 109.932,-52.4317 L 109.634,-52.7807
 L 109.394,-53.1721 L 109.218,-53.5961 L 109.111,-54.0424 L 109.075,-54.5 L 109.111,-54.9576 L 109.218,-55.4039
 L 109.394,-55.8279 L 109.634,-56.2193 L 109.932,-56.5683 L 110.281,-56.8664 L 110.672,-57.1062 L 111.096,-57.2818
 L 111.542,-57.389 L 112,-57.425 L 112.458,-57.389 L 112.904,-57.2818 L 113.328,-57.1062 L 113.719,-56.8664
 L 114.068,-56.5683 L 114.366,-56.2193 L 114.606,-55.8279 L 114.782,-55.4039 L 114.889,-54.9576 L 114.925,-54.5
 L 114.889,-54.0424 L 114.782,-53.5961 L 114.606,-53.1721 L 114.366,-52.7807 L 114.068,-52.4317 L 113.719,-52.1336
 L 113.328,-51.8938 L 112.904,-51.7182 L 112.458,-51.611 L 112,-51.575 z
M 139.708,-26.5233 L 139.42,-26.6004 L 139.155,-26.7356 L 138.923,-26.9231 L 138.736,-27.1546 L 138.6,-27.42
 L 138.523,-27.7078 L 138.508,-28.0053 L 138.554,-28.2995 L 138.661,-28.5777 L 138.823,-28.8275 L 139.034,-29.0381
 L 139.284,-29.2004 L 139.562,-29.3072 L 139.856,-29.3538 L 140.154,-29.3382 L 140.441,-29.2611 L 140.707,-29.1258
 L 140.938,-28.9383 L 141.126,-28.7068 L 141.261,-28.4414 L 141.338,-28.1536 L 141.354,-27.8561 L 141.307,-27.5619
 L 141.2,-27.2838 L 141.038,-27.0339 L 140.827,-26.8233 L 140.578,-26.661 L 140.3,-26.5543 L 140.005,-26.5077
 z
M 83.7005,-26.5543 L 83.4223,-26.661 L 83.1725,-26.8233 L 82.9619,-27.0339 L 82.7996,-27.2838 L 82.6928,-27.5619
 L 82.6462,-27.8561 L 82.6618,-28.1536 L 82.7389,-28.4414 L 82.8742,-28.7068 L 83.0617,-28.9383 L 83.2932,-29.1258
 L 83.5586,-29.2611 L 83.8464,-29.3382 L 84.1439,-29.3538 L 84.4381,-29.3072 L 84.7162,-29.2004 L 84.9661,-29.0381
 L 85.1767,-28.8275 L 85.339,-28.5777 L 85.4457,-28.2995 L 85.4923,-28.0053 L 85.4767,-27.7078 L 85.3996,-27.42
 L 85.2644,-27.1546 L 85.0769,-26.9231 L 84.8454,-26.7356 L 84.58,-26.6004 L 84.2922,-26.5233 L 83.9947,-26.5077
 z
M 83.8464,29.3382 L 83.5586,29.2611 L 83.2932,29.1258 L 83.0617,28.9383 L 82.8742,28.7068 L 82.7389,28.4414
 L 82.6618,28.1536 L 82.6462,27.8561 L 82.6928,27.5619 L 82.7996,27.2838 L 82.9619,27.0339 L 83.1725,26.8233
 L 83.4223,26.661 L 83.7005,26.5543 L 83.9947,26.5077 L 84.2922,26.5233 L 84.58,26.6004 L 84.8454,26.7356
 L 85.0769,26.9231 L 85.2644,27.1546 L 85.3996,27.42 L 85.4767,27.7078 L 85.4923,28.0053 L 85.4457,28.2995
 L 85.339,28.5777 L 85.1767,28.8275 L 84.9661,29.0381 L 84.7162,29.2004 L 84.4381,29.3072 L 84.1439,29.3538
 z
M 139.562,29.3072 L 139.284,29.2004 L 139.034,29.0381 L 138.823,28.8275 L 138.661,28.5777 L 138.554,28.2995
 L 138.508,28.0053 L 138.523,27.7078 L 138.6,27.42 L 138.736,27.1546 L 138.923,26.9231 L 139.155,26.7356
 L 139.42,26.6004 L 139.708,26.5233 L 140.005,26.5077 L 140.3,26.5543 L 140.578,26.661 L 140.827,26.8233
 L 141.038,27.0339 L 141.2,27.2838 L 141.307,27.5619 L 141.354,27.8561 L 141.338,28.1536 L 141.261,28.4414
 L 141.126,28.7068 L 140.938,28.9383 L 140.707,29.1258 L 140.441,29.2611 L 140.154,29.3382 L 139.856,29.3538
 z
M 225.355,25.8645 L 226.707,25.7581 L 228.052,25.5811 L 229.385,25.334 L 230.703,25.0175 L 232.004,24.6324
 L 233.282,24.1797 L 234.534,23.6608 L 235.758,23.0771 L 236.95,22.4301 L 238.106,21.7216 L 239.224,20.9535
 L 240.299,20.1281 L 241.33,19.2474 L 242.314,18.3141 L 243.247,17.3305 L 244.128,16.2994 L 244.954,15.2236
 L 245.722,14.1061 L 246.43,12.95 L 247.077,11.7583 L 247.661,10.5345 L 248.18,9.28172 L 248.632,8.00354
 L 249.017,6.7034 L 249.334,5.3849 L 249.581,4.05165 L 249.758,2.70728 L 249.865,1.3555 L 249.9,-0
 L 249.865,-1.3555 L 249.758,-2.70728 L 249.581,-4.05165 L 249.334,-5.3849 L 249.017,-6.7034 L 248.632,-8.00354
 L 248.18,-9.28172 L 247.661,-10.5345 L 247.077,-11.7583 L 246.43,-12.95 L 245.722,-14.1061 L 244.954,-15.2236
 L 244.128,-16.2994 L 243.247,-17.3305 L 242.314,-18.3141 L 241.33,-19.2474 L 240.299,-20.1281 L 239.224,-20.9535
 L 238.106,-21.7216 L 236.95,-22.4301 L 235.758,-23.0771 L 234.534,-23.6608 L 233.282,-24.1797 L 232.004,-24.6324
 L 230.703,-25.0175 L 229.385,-25.334 L 228.052,-25.5811 L 226.707,-25.7581 L 225.355,-25.8645 L 224,-25.9
 L 222.644,-25.8645 L 221.293,-25.7581 L 219.948,-25.5811 L 218.615,-25.334 L 217.297,-25.0175 L 215.996,-24.6324
 L 214.718,-24.1797 L 213.466,-23.6608 L 212.242,-23.0771 L 211.05,-22.4301 L 209.894,-21.7216 L 208.776,-20.9535
 L 207.701,-20.1281 L 206.67,-19.2474 L 205.686,-18.3141 L 204.753,-17.3305 L 203.872,-16.2994 L 203.046,-15.2236
 L 202.278,-14.1061 L 201.57,-12.95 L 200.923,-11.7583 L 200.339,-10.5345 L 199.82,-9.28172 L 199.368,-8.00354
 L 198.983,-6.7034 L 198.666,-5.3849 L 198.419,-4.05165 L 198.242,-2.70728 L 198.135,-1.3555 L 198.1,-0
 L 198.135,1.3555 L 198.242,2.70728 L 198.419,4.05165 L 198.666,5.3849 L 198.983,6.7034 L 199.368,8.00354
 L 199.82,9.28172 L 200.339,10.5345 L 200.923,11.7583 L 201.57,12.95 L 202.278,14.1061 L 203.046,15.2236
 L 203.872,16.2994 L 204.753,17.3305 L 205.686,18.3141 L 206.67,19.2474 L 207.701,20.1281 L 208.776,20.9535
 L 209.894,21.7216 L 211.05,22.4301 L 212.242,23.0771 L 213.466,23.6608 L 214.718,24.1797 L 215.996,24.6324
 L 217.297,25.0175 L 218.615,25.334 L 219.948,25.5811 L 221.293,25.7581 L 222.644,25.8645 L 224,25.9
 z
M 337.35,25.7646 L 338.697,25.6587 L 340.036,25.4823 L 341.364,25.2362 L 342.678,24.9209 L 343.973,24.5372
 L 345.246,24.0864 L 346.494,23.5695 L 347.713,22.988 L 348.9,22.3434 L 350.052,21.6377 L 351.165,20.8726
 L 352.236,20.0504 L 353.264,19.1731 L 354.243,18.2433 L 355.173,17.2636 L 356.05,16.2365 L 356.873,15.1649
 L 357.638,14.0517 L 358.343,12.9 L 358.988,11.713 L 359.569,10.4938 L 360.086,9.24588 L 360.537,7.97263
 L 360.921,6.67752 L 361.236,5.36412 L 361.482,4.036 L 361.659,2.69682 L 361.765,1.35027 L 361.8,-0
 L 361.765,-1.35027 L 361.659,-2.69682 L 361.482,-4.036 L 361.236,-5.36412 L 360.921,-6.67752 L 360.537,-7.97263
 L 360.086,-9.24588 L 359.569,-10.4938 L 358.988,-11.713 L 358.343,-12.9 L 357.638,-14.0517 L 356.873,-15.1649
 L 356.05,-16.2365 L 355.173,-17.2636 L 354.243,-18.2433 L 353.264,-19.1731 L 352.236,-20.0504 L 351.165,-20.8726
 L 350.052,-21.6377 L 348.9,-22.3434 L 347.713,-22.988 L 346.494,-23.5695 L 345.246,-24.0864 L 343.973,-24.5372
 L 342.678,-24.9209 L 341.364,-25.2362 L 340.036,-25.4823 L 338.697,-25.6587 L 337.35,-25.7646 L 336,-25.8
 L 334.65,-25.7646 L 333.303,-25.6587 L 331.964,-25.4823 L 330.636,-25.2362 L 329.322,-24.9209 L 328.027,-24.5372
 L 326.754,-24.0864 L 325.506,-23.5695 L 324.287,-22.988 L 323.1,-22.3434 L 321.948,-21.6377 L 320.835,-20.8726
 L 319.764,-20.0504 L 318.736,-19.1731 L 317.757,-18.2433 L 316.827,-17.2636 L 315.95,-16.2365 L 315.127,-15.1649
 L 314.362,-14.0517 L 313.657,-12.9 L 313.012,-11.713 L 312.431,-10.4938 L 311.914,-9.24588 L 311.463,-7.97263
 L 311.079,-6.67752 L 310.764,-5.36412 L 310.518,-4.036 L 310.341,-2.69682 L 310.235,-1.35027 L 310.2,-0
 L 310.235,1.35027 L 310.341,2.69682 L 310.518,4.036 L 310.764,5.36412 L 311.079,6.67752 L 311.463,7.97263
 L 311.914,9.24588 L 312.431,10.4938 L 313.012,11.713 L 313.657,12.9 L 314.362,14.0517 L 315.127,15.1649
 L 315.95,16.2365 L 316.827,17.2636 L 317.757,18.2433 L 318.736,19.1731 L 319.764,20.0504 L 320.835,20.8726
 L 321.948,21.6377 L 323.1,22.3434 L 324.287,22.988 L 325.506,23.5695 L 326.754,24.0864 L 328.027,24.5372
 L 329.322,24.9209 L 330.636,25.2362 L 331.964,25.4823 L 333.303,25.6587 L 334.65,25.7646 L 336,25.8
 z
M 330,-16 L 330,-20 L 342,-20 L 342,-16 z
M 334.749,7.9015 L 333.528,7.60844 L 332.368,7.12805 L 331.298,6.47212 L 330.343,5.65685 L 329.528,4.70227
 L 328.872,3.63191 L 328.392,2.47212 L 328.098,1.25146 L 328,-0 L 328.098,-1.25146 L 328.392,-2.47212
 L 328.872,-3.63191 L 329.528,-4.70227 L 330.343,-5.65685 L 331.298,-6.47212 L 332.368,-7.12805 L 333.528,-7.60844
 L 334.749,-7.9015 L 336,-8 L 337.251,-7.9015 L 338.472,-7.60844 L 339.632,-7.12805 L 340.702,-6.47212
 L 341.657,-5.65685 L 342.472,-4.70227 L 343.128,-3.63191 L 343.608,-2.47212 L 343.902,-1.25146 L 344,-0
 L 343.902,1.25146 L 343.608,2.47212 L 343.128,3.63191 L 342.472,4.70227 L 341.657,5.65685 L 340.702,6.47212
 L 339.632,7.12805 L 338.472,7.60844 L 337.251,7.9015 L 336,8 z
M 330,20 L 330,16 L 342,16 L 342,20 z
M 3.03131,152.341 L 6.02943,151.866 L 8.96149,151.081 L 11.7953,149.993 L 14.5,148.615 L 17.0458,146.961
 L 19.4048,145.051 L 21.5512,142.905 L 23.4615,140.546 L 25.1147,138 L 26.4928,135.295 L 27.5806,132.461
 L 28.3663,129.529 L 28.8411,126.531 L 29,123.5 L 28.8411,120.469 L 28.3663,117.471 L 27.5806,114.539
 L 26.4928,111.705 L 25.1147,109 L 23.4615,106.454 L 21.5512,104.095 L 19.4048,101.949 L 17.0458,100.039
 L 14.5,98.3853 L 11.7953,97.0072 L 8.96149,95.9194 L 6.02943,95.1337 L 3.03131,94.6589 L 0,94.5
 L -3.03131,94.6589 L -6.02943,95.1337 L -8.96149,95.9194 L -11.7953,97.0072 L -14.5,98.3853 L -17.0458,100.039
 L -19.4048,101.949 L -21.5512,104.095 L -23.4615,106.454 L -25.1147,109 L -26.4928,111.705 L -27.5806,114.539
 L -28.3663,117.471 L -28.8411,120.469 L -29,123.5 L -28.8411,126.531 L -28.3663,129.529 L -27.5806,132.461
 L -26.4928,135.295 L -25.1147,138 L -23.4615,140.546 L -21.5512,142.905 L -19.4048,145.051 L -17.0458,146.961
 L -14.5,148.615 L -11.7953,149.993 L -8.96149,151.081 L -6.02943,151.866 L -3.03131,152.341 L 0,152.5
 z
M -1.04671,143.473 L -2.09056,143.39 L -3.12868,143.254 L -4.15823,143.063 L -5.17638,142.819 L -6.18033,142.521
 L -7.16736,142.172 L -8.13472,141.771 L -9.0798,141.32 L -10,140.82 L -10.8928,140.273 L -11.7557,139.68
 L -12.5864,139.043 L -13.3826,138.363 L -14.1421,137.642 L -14.8629,136.883 L -15.5429,136.086 L -16.1803,135.256
 L -16.7734,134.393 L -17.3205,133.5 L -17.8201,132.58 L -18.2709,131.635 L -18.6716,130.667 L -19.0211,129.68
 L -19.3185,128.676 L -19.5629,127.658 L -19.7538,126.629 L -19.8904,125.591 L -19.9726,124.547 L -20,123.5
 L -19.9726,122.453 L -19.8904,121.409 L -19.7538,120.371 L -19.5629,119.342 L -19.3185,118.324 L -19.0211,117.32
 L -18.6716,116.333 L -18.2709,115.365 L -17.8201,114.42 L -17.3205,113.5 L -16.7734,112.607 L -16.1803,111.744
 L -15.5429,110.914 L -14.8629,110.117 L -14.1421,109.358 L -13.3826,108.637 L -12.5864,107.957 L -11.7557,107.32
 L -10.8928,106.727 L -10,106.18 L -9.0798,105.68 L -8.13472,105.229 L -7.16736,104.828 L -6.18033,104.479
 L -5.17638,104.181 L -4.15823,103.937 L -3.12868,103.746 L -2.09056,103.61 L -1.04671,103.527 L 0,103.5
 L 1.04671,103.527 L 2.09056,103.61 L 3.12868,103.746 L 4.15823,103.937 L 5.17638,104.181 L 6.18033,104.479
 L 7.16736,104.828 L 8.13472,105.229 L 9.0798,105.68 L 10,106.18 L 10.8928,106.727 L 11.7557,107.32
 L 12.5864,107.957 L 13.3826,108.637 L 14.1421,109.358 L 14.8629,110.117 L 15.5429,110.914 L 16.1803,111.744
 L 16.7734,112.607 L 17.3205,113.5 L 17.8201,114.42 L 18.2709,115.365 L 18.6716,116.333 L 19.0211,117.32
 L 19.3185,118.324 L 19.5629,119.342 L 19.7538,120.371 L 19.8904,121.409 L 19.9726,122.453 L 20,123.5
 L 19.9726,124.547 L 19.8904,125.591 L 19.7538,126.629 L 19.5629,127.658 L 19.3185,128.676 L 19.0211,129.68
 L 18.6716,130.667 L 18.2709,131.635 L 17.8201,132.58 L 17.3205,133.5 L 16.7734,134.393 L 16.1803,135.256
 L 15.5429,136.086 L 14.8629,136.883 L 14.1421,137.642 L 13.3826,138.363 L 12.5864,139.043 L 11.7557,139.68
 L 10.8928,140.273 L 10,140.82 L 9.0798,141.32 L 8.13472,141.771 L 7.16736,142.172 L 6.18033,142.521
 L 5.17638,142.819 L 4.15823,143.063 L 3.12868,143.254 L 2.09056,143.39 L 1.04671,143.473 L 0,143.5
 z
M 115.031,238.791 L 118.029,238.316 L 120.961,237.531 L 123.795,236.443 L 126.5,235.065 L 129.046,233.411
 L 131.405,231.501 L 133.551,229.355 L 135.461,226.996 L 137.115,224.45 L 138.493,221.745 L 139.581,218.911
 L 140.366,215.979 L 140.841,212.981 L 141,209.95 L 140.841,206.919 L 140.366,203.921 L 139.581,200.989
 L 138.493,198.155 L 137.115,195.45 L 135.461,192.904 L 133.551,190.545 L 131.405,188.399 L 129.046,186.489
 L 126.5,184.835 L 123.795,183.457 L 120.961,182.369 L 118.029,181.584 L 115.031,181.109 L 112,180.95
 L 108.969,181.109 L 105.971,181.584 L 103.039,182.369 L 100.205,183.457 L 97.5,184.835 L 94.9542,186.489
 L 92.5952,188.399 L 90.4488,190.545 L 88.5385,192.904 L 86.8853,195.45 L 85.5072,198.155 L 84.4194,200.989
 L 83.6337,203.921 L 83.1589,206.919 L 83,209.95 L 83.1589,212.981 L 83.6337,215.979 L 84.4194,218.911
 L 85.5072,221.745 L 86.8853,224.45 L 88.5385,226.996 L 90.4488,229.355 L 92.5952,231.501 L 94.9542,233.411
 L 97.5,235.065 L 100.205,236.443 L 103.039,237.531 L 105.971,238.316 L 108.969,238.791 L 112,238.95
 z
M 110.639,235.914 L 109.282,235.808 L 107.933,235.63 L 106.594,235.382 L 105.271,235.064 L 103.966,234.677
 L 102.682,234.223 L 101.425,233.702 L 100.196,233.116 L 99,232.467 L 97.8394,231.755 L 96.7176,230.984
 L 95.6377,230.156 L 94.6026,229.272 L 93.6152,228.335 L 92.6782,227.347 L 91.7942,226.312 L 90.9656,225.232
 L 90.1946,224.111 L 89.4834,222.95 L 88.8338,221.754 L 88.2478,220.525 L 87.7269,219.268 L 87.2725,217.984
 L 86.8859,216.679 L 86.5682,215.356 L 86.3201,214.017 L 86.1424,212.668 L 86.0356,211.311 L 86,209.95
 L 86.0356,208.589 L 86.1424,207.232 L 86.3201,205.883 L 86.5682,204.544 L 86.8859,203.221 L 87.2725,201.916
 L 87.7269,200.632 L 88.2478,199.375 L 88.8338,198.146 L 89.4834,196.95 L 90.1946,195.789 L 90.9656,194.668
 L 91.7942,193.588 L 92.6782,192.553 L 93.6152,191.565 L 94.6026,190.628 L 95.6377,189.744 L 96.7176,188.916
 L 97.8394,188.145 L 99,187.433 L 100.196,186.784 L 101.425,186.198 L 102.682,185.677 L 103.966,185.223
 L 105.271,184.836 L 106.594,184.518 L 107.933,184.27 L 109.282,184.092 L 110.639,183.986 L 112,183.95
 L 113.361,183.986 L 114.718,184.092 L 116.067,184.27 L 117.406,184.518 L 118.729,184.836 L 120.034,185.223
 L 121.318,185.677 L 122.575,186.198 L 123.804,186.784 L 125,187.433 L 126.161,188.145 L 127.282,188.916
 L 128.362,189.744 L 129.397,190.628 L 130.385,191.565 L 131.322,192.553 L 132.206,193.588 L 133.034,194.668
 L 133.805,195.789 L 134.517,196.95 L 135.166,198.146 L 135.752,199.375 L 136.273,200.632 L 136.727,201.916
 L 137.114,203.221 L 137.432,204.544 L 137.68,205.883 L 137.858,207.232 L 137.964,208.589 L 138,209.95
 L 137.964,211.311 L 137.858,212.668 L 137.68,214.017 L 137.432,215.356 L 137.114,216.679 L 136.727,217.984
 L 136.273,219.268 L 135.752,220.525 L 135.166,221.754 L 134.517,222.95 L 133.805,224.111 L 133.034,225.232
 L 132.206,226.312 L 131.322,227.347 L 130.385,228.335 L 129.397,229.272 L 128.362,230.156 L 127.282,230.984
 L 126.161,231.755 L 125,232.467 L 123.804,233.116 L 122.575,233.702 L 121.318,234.223 L 120.034,234.677
 L 118.729,235.064 L 117.406,235.382 L 116.067,235.63 L 114.718,235.808 L 113.361,235.914 L 112,235.95
 z
M 230.029,238.316 L 232.961,237.531 L 235.795,236.443 L 238.5,235.065 L 241.046,233.411 L 243.405,231.501
 L 245.551,229.355 L 247.461,226.996 L 249.115,224.45 L 250.493,221.745 L 251.581,218.911 L 252.366,215.979
 L 252.841,212.981 L 253,209.95 L 252.841,206.919 L 252.366,203.921 L 251.581,200.989 L 250.493,198.155
 L 249.115,195.45 L 247.461,192.904 L 245.551,190.545 L 243.405,188.399 L 241.046,186.489 L 238.5,184.835
 L 235.795,183.457 L 232.961,182.369 L 230.029,181.584 L 227.031,181.109 L 224,180.95 L 220.969,181.109
 L 217.971,181.584 L 215.039,182.369 L 212.205,183.457 L 209.5,184.835 L 206.954,186.489 L 204.595,188.399
 L 202.449,190.545 L 200.539,192.904 L 198.885,195.45 L 197.507,198.155 L 196.419,200.989 L 195.634,203.921
 L 195.159,206.919 L 195,209.95 L 195.159,212.981 L 195.634,215.979 L 196.419,218.911 L 197.507,221.745
 L 198.885,224.45 L 200.539,226.996 L 202.449,229.355 L 204.595,231.501 L 206.954,233.411 L 209.5,235.065
 L 212.205,236.443 L 215.039,237.531 L 217.971,238.316 L 218.25,238.361 L 218.25,235.299 L 217.271,235.064
 L 215.966,234.677 L 214.682,234.223 L 213.425,233.702 L 212.196,233.116 L 211,232.467 L 209.839,231.755
 L 208.718,230.984 L 207.638,230.156 L 206.603,229.272 L 205.615,228.335 L 204.678,227.347 L 203.794,226.312
 L 202.966,225.232 L 202.195,224.111 L 201.483,222.95 L 200.834,221.754 L 200.248,220.525 L 199.727,219.268
 L 199.273,217.984 L 198.886,216.679 L 198.568,215.356 L 198.32,214.017 L 198.142,212.668 L 198.036,211.311
 L 198,209.95 L 198.036,208.589 L 198.142,207.232 L 198.32,205.883 L 198.568,204.544 L 198.886,203.221
 L 199.273,201.916 L 199.727,200.632 L 200.248,199.375 L 200.834,198.146 L 201.483,196.95 L 202.195,195.789
 L 202.966,194.668 L 203.794,193.588 L 204.678,192.553 L 205.615,191.565 L 206.603,190.628 L 207.638,189.744
 L 208.718,188.916 L 209.839,188.145 L 211,187.433 L 212.196,186.784 L 213.425,186.198 L 214.682,185.677
 L 215.966,185.223 L 217.271,184.836 L 218.594,184.518 L 219.933,184.27 L 221.282,184.092 L 222.639,183.986
 L 224,183.95 L 225.361,183.986 L 226.718,184.092 L 228.067,184.27 L 229.406,184.518 L 230.729,184.836
 L 232.034,185.223 L 233.318,185.677 L 234.575,186.198 L 235.804,186.784 L 237,187.433 L 238.161,188.145
 L 239.282,188.916 L 240.362,189.744 L 241.397,190.628 L 242.385,191.565 L 243.322,192.553 L 244.206,193.588
 L 245.034,194.668 L 245.805,195.789 L 246.517,196.95 L 247.166,198.146 L 247.752,199.375 L 248.273,200.632
 L 248.727,201.916 L 249.114,203.221 L 249.432,204.544 L 249.68,205.883 L 249.858,207.232 L 249.964,208.589
 L 250,209.95 L 249.964,211.311 L 249.858,212.668 L 249.68,214.017 L 249.432,215.356 L 249.114,216.679
 L 248.727,217.984 L 248.273,219.268 L 247.752,220.525 L 247.166,221.754 L 246.517,222.95 L 245.805,224.111
 L 245.034,225.232 L 244.206,226.312 L 243.322,227.347 L 242.385,228.335 L 241.397,229.272 L 240.362,230.156
 L 239.282,230.984 L 238.161,231.755 L 237,232.467 L 235.804,233.116 L 234.575,233.702 L 233.318,234.223
 L 232.034,234.677 L 230.729,235.064 L 229.75,235.299 L 229.75,238.361 z
M 6.02943,238.316 L 8.96149,237.531 L 11.7953,236.443 L 14.5,235.065 L 17.0458,233.411 L 19.4048,231.501
 L 21.5512,229.355 L 23.4615,226.996 L 25.1147,224.45 L 26.4928,221.745 L 27.5806,218.911 L 28.3663,215.979
 L 28.8411,212.981 L 29,209.95 L 28.8411,206.919 L 28.3663,203.921 L 27.5806,200.989 L 26.4928,198.155
 L 25.1147,195.45 L 23.4615,192.904 L 21.5512,190.545 L 19.4048,188.399 L 17.0458,186.489 L 14.5,184.835
 L 11.7953,183.457 L 8.96149,182.369 L 6.02943,181.584 L 3.03131,181.109 L 0,180.95 L -3.03131,181.109
 L -6.02943,181.584 L -8.96149,182.369 L -11.7953,183.457 L -14.5,184.835 L -17.0458,186.489 L -19.4048,188.399
 L -21.5512,190.545 L -23.4615,192.904 L -25.1147,195.45 L -26.4928,198.155 L -27.5806,200.989 L -28.3663,203.921
 L -28.5689,205.2 L -25.5533,205.2 L -25.4318,204.544 L -25.1141,203.221 L -24.7275,201.916 L -24.2731,200.632
 L -23.7522,199.375 L -23.1662,198.146 L -22.5166,196.95 L -21.8054,195.789 L -21.0344,194.668 L -20.2058,193.588
 L -19.3218,192.553 L -18.3848,191.565 L -17.3974,190.628 L -16.3623,189.744 L -15.2824,188.916 L -14.1606,188.145
 L -13,187.433 L -11.8037,186.784 L -10.5751,186.198 L -9.31757,185.677 L -8.03444,185.223 L -6.72929,184.836
 L -5.4057,184.518 L -4.06729,184.27 L -2.71773,184.092 L -1.36073,183.986 L 0,183.95 L 1.36073,183.986
 L 2.71773,184.092 L 4.06729,184.27 L 5.4057,184.518 L 6.72929,184.836 L 8.03444,185.223 L 9.31757,185.677
 L 10.5751,186.198 L 11.8037,186.784 L 13,187.433 L 14.1606,188.145 L 15.2824,188.916 L 16.3623,189.744
 L 17.3974,190.628 L 18.3848,191.565 L 19.3218,192.553 L 20.2058,193.588 L 21.0344,194.668 L 21.8054,195.789
 L 22.5166,196.95 L 23.1662,198.146 L 23.7522,199.375 L 24.2731,200.632 L 24.7275,201.916 L 25.1141,203.221
 L 25.4318,204.544 L 25.6799,205.883 L 25.8576,207.232 L 25.9644,208.589 L 26,209.95 L 25.9644,211.311
 L 25.8576,212.668 L 25.6799,214.017 L 25.4318,215.356 L 25.1141,216.679 L 24.7275,217.984 L 24.2731,219.268
 L 23.7522,220.525 L 23.1662,221.754 L 22.5166,222.95 L 21.8054,224.111 L 21.0344,225.232 L 20.2058,226.312
 L 19.3218,227.347 L 18.3848,228.335 L 17.3974,229.272 L 16.3623,230.156 L 15.2824,230.984 L 14.1606,231.755
 L 13,232.467 L 11.8037,233.116 L 10.5751,233.702 L 9.31757,234.223 L 8.03444,234.677 L 6.72929,235.064
 L 5.75,235.299 L 5.75,238.361 z
M 342.029,238.316 L 344.961,237.531 L 347.795,236.443 L 350.5,235.065 L 353.046,233.411 L 355.405,231.501
 L 357.551,229.355 L 359.461,226.996 L 361.115,224.45 L 362.493,221.745 L 363.581,218.911 L 364.366,215.979
 L 364.841,212.981 L 365,209.95 L 364.841,206.919 L 364.366,203.921 L 363.581,200.989 L 362.493,198.155
 L 361.115,195.45 L 359.461,192.904 L 357.551,190.545 L 355.405,188.399 L 353.046,186.489 L 350.5,184.835
 L 347.795,183.457 L 344.961,182.369 L 342.029,181.584 L 339.031,181.109 L 336,180.95 L 332.969,181.109
 L 329.971,181.584 L 327.039,182.369 L 324.205,183.457 L 321.5,184.835 L 318.954,186.489 L 316.595,188.399
 L 314.449,190.545 L 312.539,192.904 L 310.885,195.45 L 309.507,198.155 L 308.419,200.989 L 307.634,203.921
 L 307.431,205.2 L 310.447,205.2 L 310.568,204.544 L 310.886,203.221 L 311.273,201.916 L 311.727,200.632
 L 312.248,199.375 L 312.834,198.146 L 313.483,196.95 L 314.195,195.789 L 314.966,194.668 L 315.794,193.588
 L 316.678,192.553 L 317.615,191.565 L 318.603,190.628 L 319.638,189.744 L 320.718,188.916 L 321.839,188.145
 L 323,187.433 L 324.196,186.784 L 325.425,186.198 L 326.682,185.677 L 327.966,185.223 L 329.271,184.836
 L 330.594,184.518 L 331.933,184.27 L 333.282,184.092 L 334.639,183.986 L 336,183.95 L 337.361,183.986
 L 338.718,184.092 L 340.067,184.27 L 341.406,184.518 L 342.729,184.836 L 344.034,185.223 L 345.318,185.677
 L 346.575,186.198 L 347.804,186.784 L 349,187.433 L 350.161,188.145 L 351.282,188.916 L 352.362,189.744
 L 353.397,190.628 L 354.385,191.565 L 355.322,192.553 L 356.206,193.588 L 357.034,194.668 L 357.805,195.789
 L 358.517,196.95 L 359.166,198.146 L 359.752,199.375 L 360.273,200.632 L 360.727,201.916 L 361.114,203.221
 L 361.432,204.544 L 361.68,205.883 L 361.858,207.232 L 361.964,208.589 L 362,209.95 L 361.964,211.311
 L 361.858,212.668 L 361.68,214.017 L 361.432,215.356 L 361.114,216.679 L 360.727,217.984 L 360.273,219.268
 L 359.752,220.525 L 359.166,221.754 L 358.517,222.95 L 357.805,224.111 L 357.034,225.232 L 356.206,226.312
 L 355.322,227.347 L 354.385,228.335 L 353.397,229.272 L 352.362,230.156 L 351.282,230.984 L 350.161,231.755
 L 349,232.467 L 347.804,233.116 L 346.575,233.702 L 345.318,234.223 L 344.034,234.677 L 342.729,235.064
 L 341.75,235.299 L 341.75,238.361 z
M 330.25,235.299 L 329.271,235.064 L 327.966,234.677 L 326.682,234.223 L 325.425,233.702 L 324.196,233.116
 L 323,232.467 L 321.839,231.755 L 320.718,230.984 L 319.638,230.156 L 318.603,229.272 L 317.615,228.335
 L 316.678,227.347 L 315.794,226.312 L 314.966,225.232 L 314.195,224.111 L 313.483,222.95 L 312.834,221.754
 L 312.248,220.525 L 311.727,219.268 L 311.273,217.984 L 310.886,216.679 L 310.568,215.356 L 310.447,214.7
 L 307.431,214.7 L 307.634,215.979 L 308.419,218.911 L 309.507,221.745 L 310.885,224.45 L 312.539,226.996
 L 314.449,229.355 L 316.595,231.501 L 318.954,233.411 L 321.5,235.065 L 324.205,236.443 L 327.039,237.531
 L 329.971,238.316 L 330.25,238.361 z
M -5.75,235.299 L -6.72929,235.064 L -8.03444,234.677 L -9.31757,234.223 L -10.5751,233.702 L -11.8037,233.116
 L -13,232.467 L -14.1606,231.755 L -15.2824,230.984 L -16.3623,230.156 L -17.3974,229.272 L -18.3848,228.335
 L -19.3218,227.347 L -20.2058,226.312 L -21.0344,225.232 L -21.8054,224.111 L -22.5166,222.95 L -23.1662,221.754
 L -23.7522,220.525 L -24.2731,219.268 L -24.7275,217.984 L -25.1141,216.679 L -25.4318,215.356 L -25.5533,214.7
 L -28.5689,214.7 L -28.3663,215.979 L -27.5806,218.911 L -26.4928,221.745 L -25.1147,224.45 L -23.4615,226.996
 L -21.5512,229.355 L -19.4048,231.501 L -17.0458,233.411 L -14.5,235.065 L -11.7953,236.443 L -8.96149,237.531
 L -6.02943,238.316 L -5.75,238.361 z
M 115.031,325.241 L 118.029,324.766 L 120.961,323.981 L 123.795,322.893 L 126.5,321.515 L 129.046,319.861
 L 131.405,317.951 L 133.551,315.805 L 135.461,313.446 L 137.115,310.9 L 138.493,308.195 L 139.581,305.361
 L 140.366,302.429 L 140.841,299.431 L 141,296.4 L 140.841,293.369 L 140.366,290.371 L 139.581,287.439
 L 138.493,284.605 L 137.115,281.9 L 135.461,279.354 L 133.551,276.995 L 131.405,274.849 L 129.046,272.939
 L 126.5,271.285 L 123.795,269.907 L 120.961,268.819 L 118.029,268.034 L 115.031,267.559 L 112,267.4
 L 108.969,267.559 L 105.971,268.034 L 103.039,268.819 L 100.205,269.907 L 97.5,271.285 L 94.9542,272.939
 L 92.5952,274.849 L 90.4488,276.995 L 88.5385,279.354 L 86.8853,281.9 L 85.5072,284.605 L 84.4194,287.439
 L 83.6337,290.371 L 83.1589,293.369 L 83,296.4 L 83.1589,299.431 L 83.6337,302.429 L 84.4194,305.361
 L 85.5072,308.195 L 86.8853,310.9 L 88.5385,313.446 L 90.4488,315.805 L 92.5952,317.951 L 94.9542,319.861
 L 97.5,321.515 L 100.205,322.893 L 103.039,323.981 L 105.971,324.766 L 108.969,325.241 L 112,325.4
 z
M 110.639,322.364 L 109.282,322.258 L 107.933,322.08 L 106.594,321.832 L 105.271,321.514 L 103.966,321.127
 L 102.682,320.673 L 101.425,320.152 L 100.196,319.566 L 99,318.917 L 97.8394,318.205 L 96.7176,317.434
 L 95.6377,316.606 L 94.6026,315.722 L 93.6152,314.785 L 92.6782,313.797 L 91.7942,312.762 L 90.9656,311.682
 L 90.1946,310.561 L 89.4834,309.4 L 88.8338,308.204 L 88.2478,306.975 L 87.7269,305.718 L 87.2725,304.434
 L 86.8859,303.129 L 86.5682,301.806 L 86.3201,300.467 L 86.1424,299.118 L 86.0356,297.761 L 86,296.4
 L 86.0356,295.039 L 86.1424,293.682 L 86.3201,292.333 L 86.5682,290.994 L 86.8859,289.671 L 87.2725,288.366
 L 87.7269,287.082 L 88.2478,285.825 L 88.8338,284.596 L 89.4834,283.4 L 90.1946,282.239 L 90.9656,281.118
 L 91.7942,280.038 L 92.6782,279.003 L 93.6152,278.015 L 94.6026,277.078 L 95.6377,276.194 L 96.7176,275.366
 L 97.8394,274.595 L 99,273.883 L 100.196,273.234 L 101.425,272.648 L 102.682,272.127 L 103.966,271.673
 L 105.271,271.286 L 106.594,270.968 L 107.933,270.72 L 109.282,270.542 L 110.639,270.436 L 112,270.4
 L 113.361,270.436 L 114.718,270.542 L 116.067,270.72 L 117.406,270.968 L 118.729,271.286 L 120.034,271.673
 L 121.318,272.127 L 122.575,272.648 L 123.804,273.234 L 125,273.883 L 126.161,274.595 L 127.282,275.366
 L 128.362,276.194 L 129.397,277.078 L 130.385,278.015 L 131.322,279.003 L 132.206,280.038 L 133.034,281.118
 L 133.805,282.239 L 134.517,283.4 L 135.166,284.596 L 135.752,285.825 L 136.273,287.082 L 136.727,288.366
 L 137.114,289.671 L 137.432,290.994 L 137.68,292.333 L 137.858,293.682 L 137.964,295.039 L 138,296.4
 L 137.964,297.761 L 137.858,299.118 L 137.68,300.467 L 137.432,301.806 L 137.114,303.129 L 136.727,304.434
 L 136.273,305.718 L 135.752,306.975 L 135.166,308.204 L 134.517,309.4 L 133.805,310.561 L 133.034,311.682
 L 132.206,312.762 L 131.322,313.797 L 130.385,314.785 L 129.397,315.722 L 128.362,316.606 L 127.282,317.434
 L 126.161,318.205 L 125,318.917 L 123.804,319.566 L 122.575,320.152 L 121.318,320.673 L 120.034,321.127
 L 118.729,321.514 L 117.406,321.832 L 116.067,322.08 L 114.718,322.258 L 113.361,322.364 L 112,322.4
 z
M 227.031,325.241 L 230.029,324.766 L 232.961,323.981 L 235.795,322.893 L 238.5,321.515 L 241.046,319.861
 L 243.405,317.951 L 245.551,315.805 L 247.461,313.446 L 249.115,310.9 L 250.493,308.195 L 251.581,305.361
 L 252.366,302.429 L 252.841,299.431 L 253,296.4 L 252.841,293.369 L 252.366,290.371 L 251.581,287.439
 L 250.493,284.605 L 249.115,281.9 L 247.461,279.354 L 245.551,276.995 L 243.405,274.849 L 241.046,272.939
 L 238.5,271.285 L 235.795,269.907 L 232.961,268.819 L 230.029,268.034 L 227.031,267.559 L 224,267.4
 L 220.969,267.559 L 217.971,268.034 L 215.039,268.819 L 212.205,269.907 L 209.5,271.285 L 206.954,272.939
 L 204.595,274.849 L 202.449,276.995 L 200.539,279.354 L 198.885,281.9 L 197.507,284.605 L 196.419,287.439
 L 195.634,290.371 L 195.159,293.369 L 195,296.4 L 195.159,299.431 L 195.634,302.429 L 196.419,305.361
 L 197.507,308.195 L 198.885,310.9 L 200.539,313.446 L 202.449,315.805 L 204.595,317.951 L 206.954,319.861
 L 209.5,321.515 L 212.205,322.893 L 215.039,323.981 L 217.971,324.766 L 220.969,325.241 L 224,325.4
 z
M 222.639,322.364 L 221.282,322.258 L 219.933,322.08 L 218.594,321.832 L 217.271,321.514 L 215.966,321.127
 L 214.682,320.673 L 213.425,320.152 L 212.196,319.566 L 211,318.917 L 209.839,318.205 L 208.718,317.434
 L 207.638,316.606 L 206.603,315.722 L 205.615,314.785 L 204.678,313.797 L 203.794,312.762 L 202.966,311.682
 L 202.195,310.561 L 201.483,309.4 L 200.834,308.204 L 200.248,306.975 L 199.727,305.718 L 199.273,304.434
 L 198.886,303.129 L 198.568,301.806 L 198.32,300.467 L 198.142,299.118 L 198.036,297.761 L 198,296.4
 L 198.036,295.039 L 198.142,293.682 L 198.32,292.333 L 198.568,290.994 L 198.886,289.671 L 199.273,288.366
 L 199.727,287.082 L 200.248,285.825 L 200.834,284.596 L 201.483,283.4 L 202.195,282.239 L 202.966,281.118
 L 203.794,280.038 L 204.678,279.003 L 205.615,278.015 L 206.603,277.078 L 207.638,276.194 L 208.718,275.366
 L 209.839,274.595 L 211,273.883 L 212.196,273.234 L 213.425,272.648 L 214.682,272.127 L 215.966,271.673
 L 217.271,271.286 L 218.594,270.968 L 219.933,270.72 L 221.282,270.542 L 222.639,270.436 L 224,270.4
 L 225.361,270.436 L 226.718,270.542 L 228.067,270.72 L 229.406,270.968 L 230.729,271.286 L 232.034,271.673
 L 233.318,272.127 L 234.575,272.648 L 235.804,273.234 L 237,273.883 L 238.161,274.595 L 239.282,275.366
 L 240.362,276.194 L 241.397,277.078 L 242.385,278.015 L 243.322,279.003 L 244.206,280.038 L 245.034,281.118
 L 245.805,282.239 L 246.517,283.4 L 247.166,284.596 L 247.752,285.825 L 248.273,287.082 L 248.727,288.366
 L 249.114,289.671 L 249.432,290.994 L 249.68,292.333 L 249.858,293.682 L 249.964,295.039 L 250,296.4
 L 249.964,297.761 L 249.858,299.118 L 249.68,300.467 L 249.432,301.806 L 249.114,303.129 L 248.727,304.434
 L 248.273,305.718 L 247.752,306.975 L 247.166,308.204 L 246.517,309.4 L 245.805,310.561 L 245.034,311.682
 L 244.206,312.762 L 243.322,313.797 L 242.385,314.785 L 241.397,315.722 L 240.362,316.606 L 239.282,317.434
 L 238.161,318.205 L 237,318.917 L 235.804,319.566 L 234.575,320.152 L 233.318,320.673 L 232.034,321.127
 L 230.729,321.514 L 229.406,321.832 L 228.067,322.08 L 226.718,322.258 L 225.361,322.364 L 224,322.4
 z
M 339.031,325.241 L 342.029,324.766 L 344.961,323.981 L 347.795,322.893 L 350.5,321.515 L 353.046,319.861
 L 355.405,317.951 L 357.551,315.805 L 359.461,313.446 L 361.115,310.9 L 362.493,308.195 L 363.581,305.361
 L 364.366,302.429 L 364.841,299.431 L 365,296.4 L 364.841,293.369 L 364.366,290.371 L 363.581,287.439
 L 362.493,284.605 L 361.115,281.9 L 359.461,279.354 L 357.551,276.995 L 355.405,274.849 L 353.046,272.939
 L 350.5,271.285 L 347.795,269.907 L 344.961,268.819 L 342.029,268.034 L 339.031,267.559 L 336,267.4
 L 332.969,267.559 L 329.971,268.034 L 327.039,268.819 L 324.205,269.907 L 321.5,271.285 L 318.954,272.939
 L 316.595,274.849 L 314.449,276.995 L 312.539,279.354 L 310.885,281.9 L 309.507,284.605 L 308.419,287.439
 L 307.634,290.371 L 307.159,293.369 L 307,296.4 L 307.159,299.431 L 307.634,302.429 L 308.419,305.361
 L 309.507,308.195 L 310.885,310.9 L 312.539,313.446 L 314.449,315.805 L 316.595,317.951 L 318.954,319.861
 L 321.5,321.515 L 324.205,322.893 L 327.039,323.981 L 329.971,324.766 L 332.969,325.241 L 336,325.4
 z
M 334.639,322.364 L 333.282,322.258 L 331.933,322.08 L 330.594,321.832 L 329.271,321.514 L 327.966,321.127
 L 326.682,320.673 L 325.425,320.152 L 324.196,319.566 L 323,318.917 L 321.839,318.205 L 320.718,317.434
 L 319.638,316.606 L 318.603,315.722 L 317.615,314.785 L 316.678,313.797 L 315.794,312.762 L 314.966,311.682
 L 314.195,310.561 L 313.483,309.4 L 312.834,308.204 L 312.248,306.975 L 311.727,305.718 L 311.273,304.434
 L 310.886,303.129 L 310.568,301.806 L 310.32,300.467 L 310.142,299.118 L 310.036,297.761 L 310,296.4
 L 310.036,295.039 L 310.142,293.682 L 310.32,292.333 L 310.568,290.994 L 310.886,289.671 L 311.273,288.366
 L 311.727,287.082 L 312.248,285.825 L 312.834,284.596 L 313.483,283.4 L 314.195,282.239 L 314.966,281.118
 L 315.794,280.038 L 316.678,279.003 L 317.615,278.015 L 318.603,277.078 L 319.638,276.194 L 320.718,275.366
 L 321.839,274.595 L 323,273.883 L 324.196,273.234 L 325.425,272.648 L 326.682,272.127 L 327.966,271.673
 L 329.271,271.286 L 330.594,270.968 L 331.933,270.72 L 333.282,270.542 L 334.639,270.436 L 336,270.4
 L 337.361,270.436 L 338.718,270.542 L 340.067,270.72 L 341.406,270.968 L 342.729,271.286 L 344.034,271.673
 L 345.318,272.127 L 346.575,272.648 L 347.804,273.234 L 349,273.883 L 350.161,274.595 L 351.282,275.366
 L 352.362,276.194 L 353.397,277.078 L 354.385,278.015 L 355.322,279.003 L 356.206,280.038 L 357.034,281.118
 L 357.805,282.239 L 358.517,283.4 L 359.166,284.596 L 359.752,285.825 L 360.273,287.082 L 360.727,288.366
 L 361.114,289.671 L 361.432,290.994 L 361.68,292.333 L 361.858,293.682 L 361.964,295.039 L 362,296.4
 L 361.964,297.761 L 361.858,299.118 L 361.68,300.467 L 361.432,301.806 L 361.114,303.129 L 360.727,304.434
 L 360.273,305.718 L 359.752,306.975 L 359.166,308.204 L 358.517,309.4 L 357.805,310.561 L 357.034,311.682
 L 356.206,312.762 L 355.322,313.797 L 354.385,314.785 L 353.397,315.722 L 352.362,316.606 L 351.282,317.434
 L 350.161,318.205 L 349,318.917 L 347.804,319.566 L 346.575,320.152 L 345.318,320.673 L 344.034,321.127
 L 342.729,321.514 L 341.406,321.832 L 340.067,322.08 L 338.718,322.258 L 337.361,322.364 L 336,322.4
 z
" stroke="black" fill="lightgray" stroke-width="0.5"/>
</svg>
