<svg xmlns="http://www.w3.org/2000/svg" width="11.8in" height="12.98in" viewBox="0 0 849.6 934.5600000000001"><g transform="translate(0 0)"><g transform="translate(143.18021298158263 143.90417964814944) rotate(90)"><path d="M 14.815020472440947 140.95587401574807 L 29.467842519685043 138.63514960629922 L 43.79754330708661 134.79533858267718 L 57.6476220472441 129.4789606299213 L 70.86614173228347 122.74384251968505 L 83.30825196850394 114.6636850393701 L 94.83732283464568 105.32749606299214 L 105.32749606299214 94.83732283464568 L 114.6636850393701 83.30825196850394 L 122.74384251968505 70.86614173228347 L 129.4789606299213 57.6476220472441 L 134.79533858267718 43.79754330708661 L 138.63514960629922 29.467842519685043 L 140.95587401574807 14.815020472440947 L 141.73228346456693 0 L 140.95587401574807 -14.815020472440947 L 138.63514960629922 -29.467842519685043 L 134.79533858267718 -43.79754330708661 L 129.4789606299213 -57.6476220472441 L 122.74384251968505 -70.86614173228347 L 114.6636850393701 -83.30825196850394 L 105.32749606299214 -94.83732283464568 L 94.83732283464568 -105.32749606299214 L 83.30825196850394 -114.6636850393701 L 70.86614173228347 -122.74384251968505 L 57.6476220472441 -129.4789606299213 L 43.79754330708661 -134.79533858267718 L 29.467842519685043 -138.63514960629922 L 14.815020472440947 -140.95587401574807 L 14.506922834645671 -140.972031496063 L 14.745855118110237 -141.21099212598426 L 16.052938582677168 -142.82503937007877 L 17.184075590551185 -144.56692913385828 L 18.127020472440947 -146.41738582677166 L 18.87134173228347 -148.35656692913386 L 19.408903937007878 -150.36264566929137 L 19.733782677165358 -152.4140787401575 L 19.84251968503937 -154.48818897637796 L 19.733782677165358 -156.56229921259845 L 19.408903937007878 -158.61373228346457 L 18.87134173228347 -160.61981102362208 L 18.127020472440947 -162.55899212598428 L 17.184075590551185 -164.40944881889766 L 16.052938582677168 -166.15133858267717 L 14.745855118110237 -167.76538582677168 L 13.277225196850395 -169.2340157480315 L 11.663121259842521 -170.54107086614175 L 9.921259842519685 -171.6723779527559 L 8.070661417322835 -172.61518110236224 L 6.131678740157481 -173.35955905511813 L 4.125458267716536 -173.89700787401577 L 2.0740790551181107 -174.22185826771656 L 0 -174.33070866141733 L -2.0740790551181107 -174.22185826771656 L -4.125458267716536 -173.89700787401577 L -6.131678740157481 -173.35955905511813 L -8.070661417322835 -172.61518110236224 L -9.921259842519685 -171.6723779527559 L -11.663121259842521 -170.54107086614175 L -13.277225196850395 -169.2340157480315 L -14.745855118110237 -167.76538582677168 L -16.052938582677168 -166.15133858267717 L -17.184075590551185 -164.40944881889766 L -18.127020472440947 -162.55899212598428 L -18.87134173228347 -160.61981102362208 L -19.408903937007878 -158.61373228346457 L -19.733782677165358 -156.56229921259845 L -19.84251968503937 -154.48818897637796 L -19.733782677165358 -152.4140787401575 L -19.408903937007878 -150.36264566929137 L -18.87134173228347 -148.35656692913386 L -18.127020472440947 -146.41738582677166 L -17.184075590551185 -144.56692913385828 L -16.052938582677168 -142.82503937007877 L -14.745855118110237 -141.21099212598426 L -14.506922834645671 -140.972031496063 L -14.815020472440947 -140.95587401574807 L -29.467842519685043 -138.63514960629922 L -43.79754330708661 -134.79533858267718 L -57.6476220472441 -129.4789606299213 L -70.86614173228347 -122.74384251968505 L -83.30825196850394 -114.6636850393701 L -94.83732283464568 -105.32749606299214 L -105.32749606299214 -94.83732283464568 L -114.6636850393701 -83.30825196850394 L -122.74384251968505 -70.86614173228347 L -129.4789606299213 -57.6476220472441 L -134.79533858267718 -43.79754330708661 L -138.63514960629922 -29.467842519685043 L -140.95587401574807 -14.815020472440947 L -141.73228346456693 0 L -140.95587401574807 14.815020472440947 L -138.63514960629922 29.467842519685043 L -134.79533858267718 43.79754330708661 L -129.4789606299213 57.6476220472441 L -122.74384251968505 70.86614173228347 L -114.6636850393701 83.30825196850394 L -105.32749606299214 94.83732283464568 L -94.83732283464568 105.32749606299214 L -83.30825196850394 114.6636850393701 L -70.86614173228347 122.74384251968505 L -57.6476220472441 129.4789606299213 L -43.79754330708661 134.79533858267718 L -29.467842519685043 138.63514960629922 L -14.815020472440947 140.95587401574807 L 0 141.73228346456693 z" stroke="black" fill="lightgray" stroke-width="0.5" class="active"/><path d="M -1.2970346456692914 -146.29889763779528 L -2.5621511811023625 -146.60277165354333 L -3.7641543307086622 -147.1005354330709 L -4.87352125984252 -147.78028346456693 L -5.86284094488189 -148.62529133858268 L -6.707792125984254 -149.61458267716537 L -7.387625196850395 -150.724062992126 L -7.885502362204726 -151.9259527559055 L -8.189234645669293 -153.19105511811026 L -8.291310236220474 -154.48818897637796 L -8.189234645669293 -155.78532283464568 L -7.885502362204726 -157.0504251968504 L -7.387625196850395 -158.25231496062995 L -6.707792125984254 -159.36179527559057 L -5.86284094488189 -160.35108661417325 L -4.87352125984252 -161.19609448818898 L -3.7641543307086622 -161.87584251968505 L -2.5621511811023625 -162.3736062992126 L -1.2970346456692914 -162.67748031496066 L 0 -162.77952755905514 L 1.2970346456692914 -162.67748031496066 L 2.5621511811023625 -162.3736062992126 L 3.7641543307086622 -161.87584251968505 L 4.87352125984252 -161.19609448818898 L 5.86284094488189 -160.35108661417325 L 6.707792125984254 -159.36179527559057 L 7.387625196850395 -158.25231496062995 L 7.885502362204726 -157.0504251968504 L 8.189234645669293 -155.78532283464568 L 8.291310236220474 -154.48818897637796 L 8.189234645669293 -153.19105511811026 L 7.885502362204726 -151.9259527559055 L 7.387625196850395 -150.724062992126 L 6.707792125984254 -149.61458267716537 L 5.86284094488189 -148.62529133858268 L 4.87352125984252 -147.78028346456693 L 3.7641543307086622 -147.1005354330709 L 2.5621511811023625 -146.60277165354333 L 1.2970346456692914 -146.29889763779528 L 0 -146.1968503937008 z" stroke="black" fill="lightgray" stroke-width="0.5" class="active"/><path d="M -80.21905511811023 -75.27203149606301 L -81.0076535433071 -75.57448818897639 L -81.71574803149608 -76.03455118110237 L -82.31272440944883 -76.63152755905513 L -82.7727874015748 -77.33990551181103 L -83.07552755905513 -78.12822047244096 L -83.2076220472441 -78.96217322834647 L -83.16340157480316 -79.80548031496065 L -82.94485039370079 -80.6212913385827 L -82.56132283464568 -81.37360629921261 L -82.02982677165356 -82.02982677165356 L -81.37360629921261 -82.56132283464568 L -80.6212913385827 -82.94485039370079 L -79.80548031496065 -83.16340157480316 L -78.96217322834647 -83.2076220472441 L -78.12822047244096 -83.07552755905513 L -77.33990551181103 -82.7727874015748 L -76.63152755905513 -82.31272440944883 L -76.03455118110237 -81.71574803149608 L -75.57448818897639 -81.0076535433071 L -75.27203149606301 -80.21905511811023 L -75.13993700787402 -79.38510236220473 L -75.18415748031497 -78.54179527559056 L -75.40270866141734 -77.72598425196851 L -75.78595275590553 -76.97366929133858 L -76.31744881889765 -76.31744881889765 L -76.97366929133858 -75.78595275590553 L -77.72598425196851 -75.40270866141734 L -78.54179527559056 -75.18415748031497 L -79.38510236220473 -75.13993700787402 z" stroke="black" fill="lightgray" stroke-width="0.5" class="active"/><path d="M 78.54179527559056 -75.18415748031497 L 77.72598425196851 -75.40270866141734 L 76.97366929133858 -75.78595275590553 L 76.31744881889765 -76.31744881889765 L 75.78595275590553 -76.97366929133858 L 75.40270866141734 -77.72598425196851 L 75.18415748031497 -78.54179527559056 L 75.13993700787402 -79.38510236220473 L 75.27203149606301 -80.21905511811023 L 75.57448818897639 -81.0076535433071 L 76.03455118110237 -81.71574803149608 L 76.63152755905513 -82.31272440944883 L 77.33990551181103 -82.7727874015748 L 78.12822047244096 -83.07552755905513 L 78.96217322834647 -83.2076220472441 L 79.80548031496065 -83.16340157480316 L 80.6212913385827 -82.94485039370079 L 81.37360629921261 -82.56132283464568 L 82.02982677165356 -82.02982677165356 L 82.56132283464568 -81.37360629921261 L 82.94485039370079 -80.6212913385827 L 83.16340157480316 -79.80548031496065 L 83.2076220472441 -78.96217322834647 L 83.07552755905513 -78.12822047244096 L 82.7727874015748 -77.33990551181103 L 82.31272440944883 -76.63152755905513 L 81.71574803149608 -76.03455118110237 L 81.0076535433071 -75.57448818897639 L 80.21905511811023 -75.27203149606301 L 79.38510236220473 -75.13993700787402 z" stroke="black" fill="lightgray" stroke-width="0.5" class="active"/><path d="M -4.302226771653544 82.09218897637795 L -8.592689763779529 81.75429921259844 L -12.859625196850397 81.19275590551182 L -17.091297637795275 80.4084094488189 L -21.276113385826775 79.40352755905514 L -25.40264881889764 78.1812283464567 L -29.459622047244096 76.74462992125984 L -33.43549606299213 75.09770078740158 L -37.32009448818898 73.24497637795277 L -41.102362204724415 71.19127559055119 L -44.77181102362205 68.94255118110237 L -48.3188031496063 66.50503937007875 L -51.73313385826772 63.88497637795276 L -55.005732283464575 61.090015748031504 L -58.127527559055125 58.127527559055125 L -61.090015748031504 55.005732283464575 L -63.88497637795276 51.73313385826772 L -66.50503937007875 48.3188031496063 L -68.94255118110237 44.77181102362205 L -71.19127559055119 41.102362204724415 L -73.24497637795277 37.32009448818898 L -75.09770078740158 33.43549606299213 L -76.74462992125984 29.459622047244096 L -78.1812283464567 25.40264881889764 L -79.40352755905514 21.276113385826775 L -80.4084094488189 17.091297637795275 L -81.19275590551182 12.859625196850397 L -81.75429921259844 8.592689763779529 L -82.09218897637795 4.302226771653544 L -82.20472440944883 0 L -82.09218897637795 -4.302226771653544 L -81.75429921259844 -8.592689763779529 L -81.19275590551182 -12.859625196850397 L -80.4084094488189 -17.091297637795275 L -79.40352755905514 -21.276113385826775 L -78.1812283464567 -25.40264881889764 L -76.74462992125984 -29.459622047244096 L -75.09770078740158 -33.43549606299213 L -73.24497637795277 -37.32009448818898 L -71.19127559055119 -41.102362204724415 L -68.94255118110237 -44.77181102362205 L -66.50503937007875 -48.3188031496063 L -63.88497637795276 -51.73313385826772 L -61.090015748031504 -55.005732283464575 L -58.127527559055125 -58.127527559055125 L -55.005732283464575 -61.090015748031504 L -51.73313385826772 -63.88497637795276 L -48.3188031496063 -66.50503937007875 L -44.77181102362205 -68.94255118110237 L -41.102362204724415 -71.19127559055119 L -37.32009448818898 -73.24497637795277 L -33.43549606299213 -75.09770078740158 L -29.459622047244096 -76.74462992125984 L -25.40264881889764 -78.1812283464567 L -21.276113385826775 -79.40352755905514 L -17.091297637795275 -80.4084094488189 L -12.859625196850397 -81.19275590551182 L -8.592689763779529 -81.75429921259844 L -4.302226771653544 -82.09218897637795 L 0 -82.20472440944883 L 4.302226771653544 -82.09218897637795 L 8.592689763779529 -81.75429921259844 L 12.859625196850397 -81.19275590551182 L 17.091297637795275 -80.4084094488189 L 21.276113385826775 -79.40352755905514 L 25.40264881889764 -78.1812283464567 L 29.459622047244096 -76.74462992125984 L 33.43549606299213 -75.09770078740158 L 37.32009448818898 -73.24497637795277 L 41.102362204724415 -71.19127559055119 L 44.77181102362205 -68.94255118110237 L 48.3188031496063 -66.50503937007875 L 51.73313385826772 -63.88497637795276 L 55.005732283464575 -61.090015748031504 L 58.127527559055125 -58.127527559055125 L 61.090015748031504 -55.005732283464575 L 63.88497637795276 -51.73313385826772 L 66.50503937007875 -48.3188031496063 L 68.94255118110237 -44.77181102362205 L 71.19127559055119 -41.102362204724415 L 73.24497637795277 -37.32009448818898 L 75.09770078740158 -33.43549606299213 L 76.74462992125984 -29.459622047244096 L 78.1812283464567 -25.40264881889764 L 79.40352755905514 -21.276113385826775 L 80.4084094488189 -17.091297637795275 L 81.19275590551182 -12.859625196850397 L 81.75429921259844 -8.592689763779529 L 82.09218897637795 -4.302226771653544 L 82.20472440944883 0 L 82.09218897637795 4.302226771653544 L 81.75429921259844 8.592689763779529 L 81.19275590551182 12.859625196850397 L 80.4084094488189 17.091297637795275 L 79.40352755905514 21.276113385826775 L 78.1812283464567 25.40264881889764 L 76.74462992125984 29.459622047244096 L 75.09770078740158 33.43549606299213 L 73.24497637795277 37.32009448818898 L 71.19127559055119 41.102362204724415 L 68.94255118110237 44.77181102362205 L 66.50503937007875 48.3188031496063 L 63.88497637795276 51.73313385826772 L 61.090015748031504 55.005732283464575 L 58.127527559055125 58.127527559055125 L 55.005732283464575 61.090015748031504 L 51.73313385826772 63.88497637795276 L 48.3188031496063 66.50503937007875 L 44.77181102362205 68.94255118110237 L 41.102362204724415 71.19127559055119 L 37.32009448818898 73.24497637795277 L 33.43549606299213 75.09770078740158 L 29.459622047244096 76.74462992125984 L 25.40264881889764 78.1812283464567 L 21.276113385826775 79.40352755905514 L 17.091297637795275 80.4084094488189 L 12.859625196850397 81.19275590551182 L 8.592689763779529 81.75429921259844 L 4.302226771653544 82.09218897637795 L 0 82.20472440944883 z" stroke="black" fill="lightgray" stroke-width="0.5" class="active"/><path d="M -79.80548031496065 83.16340157480316 L -80.6212913385827 82.94485039370079 L -81.37360629921261 82.56132283464568 L -82.02982677165356 82.02982677165356 L -82.56132283464568 81.37360629921261 L -82.94485039370079 80.6212913385827 L -83.16340157480316 79.80548031496065 L -83.2076220472441 78.96217322834647 L -83.07552755905513 78.12822047244096 L -82.7727874015748 77.33990551181103 L -82.31272440944883 76.63152755905513 L -81.71574803149608 76.03455118110237 L -81.0076535433071 75.57448818897639 L -80.21905511811023 75.27203149606301 L -79.38510236220473 75.13993700787402 L -78.54179527559056 75.18415748031497 L -77.72598425196851 75.40270866141734 L -76.97366929133858 75.78595275590553 L -76.31744881889765 76.31744881889765 L -75.78595275590553 76.97366929133858 L -75.40270866141734 77.72598425196851 L -75.18415748031497 78.54179527559056 L -75.13993700787402 79.38510236220473 L -75.27203149606301 80.21905511811023 L -75.57448818897639 81.0076535433071 L -76.03455118110237 81.71574803149608 L -76.63152755905513 82.31272440944883 L -77.33990551181103 82.7727874015748 L -78.12822047244096 83.07552755905513 L -78.96217322834647 83.2076220472441 z" stroke="black" fill="lightgray" stroke-width="0.5" class="active"/><path d="M 78.12822047244096 83.07552755905513 L 77.33990551181103 82.7727874015748 L 76.63152755905513 82.31272440944883 L 76.03455118110237 81.71574803149608 L 75.57448818897639 81.0076535433071 L 75.27203149606301 80.21905511811023 L 75.13993700787402 79.38510236220473 L 75.18415748031497 78.54179527559056 L 75.40270866141734 77.72598425196851 L 75.78595275590553 76.97366929133858 L 76.31744881889765 76.31744881889765 L 76.97366929133858 75.78595275590553 L 77.72598425196851 75.40270866141734 L 78.54179527559056 75.18415748031497 L 79.38510236220473 75.13993700787402 L 80.21905511811023 75.27203149606301 L 81.0076535433071 75.57448818897639 L 81.71574803149608 76.03455118110237 L 82.31272440944883 76.63152755905513 L 82.7727874015748 77.33990551181103 L 83.07552755905513 78.12822047244096 L 83.2076220472441 78.96217322834647 L 83.16340157480316 79.80548031496065 L 82.94485039370079 80.6212913385827 L 82.56132283464568 81.37360629921261 L 82.02982677165356 82.02982677165356 L 81.37360629921261 82.56132283464568 L 80.6212913385827 82.94485039370079 L 79.80548031496065 83.16340157480316 L 78.96217322834647 83.2076220472441 z" stroke="black" fill="lightgray" stroke-width="0.5" class="active"/></g><g transform="translate(490.3370603 427.1576506) rotate(180)"><path d="M 332.2941732283465 140.95587401574807 L 346.9492913385827 138.63514960629922 L 361.27842519685043 134.79533858267718 L 375.1285039370079 129.4789606299213 L 388.3464566929134 122.74384251968505 L 400.78771653543316 114.6636850393701 L 412.31905511811027 105.32749606299214 L 422.8072440944883 94.83732283464568 L 432.1445669291339 83.30825196850394 L 440.22330708661417 70.86614173228347 L 446.95842519685044 57.6476220472441 L 452.27622047244097 43.79754330708661 L 456.1143307086615 29.467842519685043 L 458.4359055118111 14.815020472440947 L 459.2125984251969 0 L 458.4359055118111 -14.815020472440947 L 456.1143307086615 -29.467842519685043 L 452.27622047244097 -43.79754330708661 L 446.95842519685044 -57.6476220472441 L 440.22330708661417 -70.86614173228347 L 432.1445669291339 -83.30825196850394 L 422.8072440944883 -94.83732283464568 L 412.31905511811027 -105.32749606299214 L 400.78771653543316 -114.6636850393701 L 388.3464566929134 -122.74384251968505 L 375.1285039370079 -129.4789606299213 L 361.27842519685043 -134.79533858267718 L 346.9492913385827 -138.63514960629922 L 332.2941732283465 -140.95587401574807 L 331.988031496063 -140.972031496063 L 332.2261417322835 -141.21099212598426 L 333.5329133858268 -142.82503937007877 L 334.66393700787404 -144.56692913385828 L 335.60787401574805 -146.41738582677166 L 336.3505511811024 -148.35656692913386 L 336.8891338582677 -150.36264566929137 L 337.2151181102363 -152.4140787401575 L 337.32283464566933 -154.48818897637796 L 337.2151181102363 -156.56229921259845 L 336.8891338582677 -158.61373228346457 L 336.3505511811024 -160.61981102362208 L 335.60787401574805 -162.55899212598428 L 334.66393700787404 -164.40944881889766 L 333.5329133858268 -166.15133858267717 L 332.2261417322835 -167.76538582677168 L 330.7577952755906 -169.2340157480315 L 329.14204724409456 -170.54107086614175 L 327.40157480314963 -171.6723779527559 L 325.5505511811024 -172.61518110236224 L 323.6116535433071 -173.35955905511813 L 321.60472440944886 -173.89700787401577 L 319.5552755905512 -174.22185826771656 L 317.4803149606299 -174.33070866141733 L 315.4053543307087 -174.22185826771656 L 313.35590551181105 -173.89700787401577 L 311.3489763779528 -173.35955905511813 L 309.41007874015753 -172.61518110236224 L 307.5590551181103 -171.6723779527559 L 305.81858267716535 -170.54107086614175 L 304.2028346456693 -169.2340157480315 L 302.7344881889764 -167.76538582677168 L 301.4277165354331 -166.15133858267717 L 300.29669291338587 -164.40944881889766 L 299.35275590551186 -162.55899212598428 L 298.6100787401575 -160.61981102362208 L 298.0714960629922 -158.61373228346457 L 297.7455118110236 -156.56229921259845 L 297.6377952755906 -154.48818897637796 L 297.7455118110236 -152.4140787401575 L 298.0714960629922 -150.36264566929137 L 298.6100787401575 -148.35656692913386 L 299.35275590551186 -146.41738582677166 L 300.29669291338587 -144.56692913385828 L 301.4277165354331 -142.82503937007877 L 302.7344881889764 -141.21099212598426 L 302.9725984251969 -140.972031496063 L 302.6664566929134 -140.95587401574807 L 288.0113385826772 -138.63514960629922 L 273.68277165354334 -134.79533858267718 L 259.83269291338587 -129.4789606299213 L 246.6141732283465 -122.74384251968505 L 234.172062992126 -114.6636850393701 L 222.64299212598425 -105.32749606299214 L 212.15281889763781 -94.83732283464568 L 202.81662992125987 -83.30825196850394 L 194.7364724409449 -70.86614173228347 L 188.00135433070866 -57.6476220472441 L 182.68497637795275 -43.79754330708661 L 178.84516535433073 -29.467842519685043 L 176.5244409448819 -14.815020472440947 L 175.74803149606302 0 L 176.5244409448819 14.815020472440947 L 178.84516535433073 29.467842519685043 L 182.68497637795275 43.79754330708661 L 188.00135433070866 57.6476220472441 L 194.7364724409449 70.86614173228347 L 202.81662992125987 83.30825196850394 L 212.15281889763781 94.83732283464568 L 222.64299212598425 105.32749606299214 L 234.172062992126 114.6636850393701 L 246.6141732283465 122.74384251968505 L 259.83269291338587 129.4789606299213 L 273.68277165354334 134.79533858267718 L 288.0113385826772 138.63514960629922 L 302.6664566929134 140.95587401574807 L 317.4803149606299 141.73228346456693 z" stroke="black" fill="lightgray" stroke-width="0.5" class="active"/><path d="M 316.1820472440945 -146.29889763779528 L 314.9177952755906 -146.60277165354333 L 313.71590551181106 -147.1005354330709 L 312.60755905511814 -147.78028346456693 L 311.61826771653546 -148.62529133858268 L 310.77354330708664 -149.61458267716537 L 310.0932283464567 -150.724062992126 L 309.59433070866146 -151.9259527559055 L 309.2910236220473 -153.19105511811026 L 309.18897637795277 -154.48818897637796 L 309.2910236220473 -155.78532283464568 L 309.59433070866146 -157.0504251968504 L 310.0932283464567 -158.25231496062995 L 310.77354330708664 -159.36179527559057 L 311.61826771653546 -160.35108661417325 L 312.60755905511814 -161.19609448818898 L 313.71590551181106 -161.87584251968505 L 314.9177952755906 -162.3736062992126 L 316.1820472440945 -162.67748031496066 L 317.4803149606299 -162.77952755905514 L 318.7785826771654 -162.67748031496066 L 320.0428346456693 -162.3736062992126 L 321.24472440944885 -161.87584251968505 L 322.35307086614176 -161.19609448818898 L 323.34236220472445 -160.35108661417325 L 324.18708661417327 -159.36179527559057 L 324.8674015748032 -158.25231496062995 L 325.36629921259845 -157.0504251968504 L 325.6696062992126 -155.78532283464568 L 325.77165354330714 -154.48818897637796 L 325.6696062992126 -153.19105511811026 L 325.36629921259845 -151.9259527559055 L 324.8674015748032 -150.724062992126 L 324.18708661417327 -149.61458267716537 L 323.34236220472445 -148.62529133858268 L 322.35307086614176 -147.78028346456693 L 321.24472440944885 -147.1005354330709 L 320.0428346456693 -146.60277165354333 L 318.7785826771654 -146.29889763779528 L 317.4803149606299 -146.1968503937008 z" stroke="black" fill="lightgray" stroke-width="0.5" class="active"/><path d="M 396.02267716535437 -75.18415748031497 L 395.2062992125984 -75.40270866141734 L 394.45511811023624 -75.78595275590553 L 393.7974803149607 -76.31744881889765 L 393.26740157480316 -76.97366929133858 L 392.88188976377955 -77.72598425196851 L 392.66362204724413 -78.54179527559056 L 392.6211023622048 -79.38510236220473 L 392.75149606299215 -80.21905511811023 L 393.05480314960636 -81.0076535433071 L 393.51401574803157 -81.71574803149608 L 394.112125984252 -82.31272440944883 L 394.8207874015748 -82.7727874015748 L 395.6088188976379 -83.07552755905513 L 396.44220472440946 -83.2076220472441 L 397.2869291338583 -83.16340157480316 L 398.10047244094494 -82.94485039370079 L 398.8544881889764 -82.56132283464568 L 399.50929133858267 -82.02982677165356 L 400.0422047244095 -81.37360629921261 L 400.4248818897638 -80.6212913385827 L 400.64314960629923 -79.80548031496065 L 400.68850393700797 -78.96217322834647 L 400.55527559055116 -78.12822047244096 L 400.251968503937 -77.33990551181103 L 399.7927559055119 -76.63152755905513 L 399.1946456692914 -76.03455118110237 L 398.4888188976378 -75.57448818897639 L 397.70078740157487 -75.27203149606301 L 396.8645669291339 -75.13993700787402 z" stroke="black" fill="lightgray" stroke-width="0.5" class="active"/><path d="M 237.26125984251973 -75.27203149606301 L 236.47266141732288 -75.57448818897639 L 235.76456692913388 -76.03455118110237 L 235.16759055118112 -76.63152755905513 L 234.70752755905514 -77.33990551181103 L 234.40478740157485 -78.12822047244096 L 234.27269291338584 -78.96217322834647 L 234.3169133858268 -79.80548031496065 L 234.53546456692916 -80.6212913385827 L 234.9189921259843 -81.37360629921261 L 235.4504881889764 -82.02982677165356 L 236.10670866141734 -82.56132283464568 L 236.85902362204726 -82.94485039370079 L 237.67483464566934 -83.16340157480316 L 238.51814173228348 -83.2076220472441 L 239.352094488189 -83.07552755905513 L 240.14040944881893 -82.7727874015748 L 240.8487874015748 -82.31272440944883 L 241.44576377952757 -81.71574803149608 L 241.90582677165355 -81.0076535433071 L 242.20828346456696 -80.21905511811023 L 242.34037795275594 -79.38510236220473 L 242.29615748031497 -78.54179527559056 L 242.07760629921265 -77.72598425196851 L 241.69436220472443 -76.97366929133858 L 241.16286614173228 -76.31744881889765 L 240.50664566929134 -75.78595275590553 L 239.75433070866143 -75.40270866141734 L 238.93851968503938 -75.18415748031497 L 238.0952125984252 -75.13993700787402 z" stroke="black" fill="lightgray" stroke-width="0.5" class="active"/><path d="M 237.67483464566934 83.16340157480316 L 236.85902362204726 82.94485039370079 L 236.10670866141734 82.56132283464568 L 235.4504881889764 82.02982677165356 L 234.9189921259843 81.37360629921261 L 234.53546456692916 80.6212913385827 L 234.3169133858268 79.80548031496065 L 234.27269291338584 78.96217322834647 L 234.40478740157485 78.12822047244096 L 234.70752755905514 77.33990551181103 L 235.16759055118112 76.63152755905513 L 235.76456692913388 76.03455118110237 L 236.47266141732288 75.57448818897639 L 237.26125984251973 75.27203149606301 L 238.0952125984252 75.13993700787402 L 238.93851968503938 75.18415748031497 L 239.75433070866143 75.40270866141734 L 240.50664566929134 75.78595275590553 L 241.16286614173228 76.31744881889765 L 241.69436220472443 76.97366929133858 L 242.07760629921265 77.72598425196851 L 242.29615748031497 78.54179527559056 L 242.34037795275594 79.38510236220473 L 242.20828346456696 80.21905511811023 L 241.90582677165355 81.0076535433071 L 241.44576377952757 81.71574803149608 L 240.8487874015748 82.31272440944883 L 240.14040944881893 82.7727874015748 L 239.352094488189 83.07552755905513 L 238.51814173228348 83.2076220472441 z" stroke="black" fill="lightgray" stroke-width="0.5" class="active"/><path d="M 395.6088188976379 83.07552755905513 L 394.8207874015748 82.7727874015748 L 394.112125984252 82.31272440944883 L 393.51401574803157 81.71574803149608 L 393.05480314960636 81.0076535433071 L 392.75149606299215 80.21905511811023 L 392.6211023622048 79.38510236220473 L 392.66362204724413 78.54179527559056 L 392.88188976377955 77.72598425196851 L 393.26740157480316 76.97366929133858 L 393.7974803149607 76.31744881889765 L 394.45511811023624 75.78595275590553 L 395.2062992125984 75.40270866141734 L 396.02267716535437 75.18415748031497 L 396.8645669291339 75.13993700787402 L 397.70078740157487 75.27203149606301 L 398.4888188976378 75.57448818897639 L 399.1946456692914 76.03455118110237 L 399.7927559055119 76.63152755905513 L 400.251968503937 77.33990551181103 L 400.55527559055116 78.12822047244096 L 400.68850393700797 78.96217322834647 L 400.64314960629923 79.80548031496065 L 400.4248818897638 80.6212913385827 L 400.0422047244095 81.37360629921261 L 399.50929133858267 82.02982677165356 L 398.8544881889764 82.56132283464568 L 398.10047244094494 82.94485039370079 L 397.2869291338583 83.16340157480316 L 396.44220472440946 83.2076220472441 z" stroke="black" fill="lightgray" stroke-width="0.5" class="active"/></g><g transform="translate(-869.2228266000001 -204.97366620000003) rotate(0)"><path d="M 961.032755905512 921.9429921259843 L 969.5310236220473 920.596535433071 L 977.8422047244096 918.3713385826773 L 985.8755905511813 915.2872440944882 L 993.5433070866143 911.3811023622047 L 1000.76031496063 906.6925984251969 L 1007.4472440944883 901.2784251968505 L 1013.5303937007875 895.1952755905513 L 1018.944566929134 888.5083464566931 L 1023.6330708661419 881.2913385826772 L 1027.5392125984254 873.6236220472441 L 1030.6233070866144 865.5902362204725 L 1032.848503937008 857.2790551181103 L 1034.1949606299213 848.7807874015748 L 1034.6456692913387 840.1889763779528 L 1034.1949606299213 831.5971653543309 L 1032.848503937008 823.0988976377953 L 1030.6233070866144 814.7877165354332 L 1027.5392125984254 806.7543307086615 L 1023.6330708661419 799.0866141732283 L 1018.944566929134 791.8696062992126 L 1013.5303937007875 785.1826771653544 L 1007.4472440944883 779.0995275590552 L 1000.76031496063 773.6853543307088 L 993.5433070866143 768.9968503937009 L 985.8755905511813 765.0907086614174 L 977.8422047244096 762.0066141732285 L 969.5310236220473 759.7814173228347 L 961.032755905512 758.4349606299214 L 952.4409448818899 757.9842519685039 L 943.8491338582678 758.4349606299214 L 935.3508661417324 759.7814173228347 L 927.0396850393702 762.0066141732285 L 919.0062992125985 765.0907086614174 L 911.3385826771655 768.9968503937009 L 904.1215748031498 773.6853543307088 L 897.4346456692915 779.0995275590552 L 891.3514960629923 785.1826771653544 L 885.9373228346457 791.8696062992126 L 881.2488188976379 799.0866141732283 L 877.3426771653544 806.7543307086615 L 874.2585826771654 814.7877165354332 L 872.0333858267718 823.0988976377953 L 870.6869291338584 831.5971653543309 L 870.236220472441 840.1889763779528 L 870.6869291338584 848.7807874015748 L 872.0333858267718 857.2790551181103 L 874.2585826771654 865.5902362204725 L 877.3426771653544 873.6236220472441 L 881.2488188976379 881.2913385826772 L 885.9373228346457 888.5083464566931 L 891.3514960629923 895.1952755905513 L 897.4346456692915 901.2784251968505 L 904.1215748031498 906.6925984251969 L 911.3385826771655 911.3811023622047 L 919.0062992125985 915.2872440944882 L 927.0396850393702 918.3713385826773 L 935.3508661417324 920.596535433071 L 943.8491338582678 921.9429921259843 L 952.4409448818899 922.3937007874016 z" stroke="black" fill="lightgray" stroke-width="0.5" class="active"/><path d="M 948.5829921259843 913.7877165354331 L 944.7363779527559 913.4872440944882 L 940.912440944882 912.9826771653544 L 937.1168503937008 912.2796850393702 L 933.3666141732285 911.3782677165356 L 929.6674015748033 910.2812598425198 L 926.0277165354332 908.9943307086616 L 922.464566929134 907.5174803149607 L 918.980787401575 905.8563779527559 L 915.5905511811025 904.0166929133859 L 912.2995275590553 901.9984251968505 L 909.1218897637797 899.812913385827 L 906.0604724409449 897.4658267716536 L 903.1266141732285 894.96 L 900.3259842519686 892.3039370078742 L 897.6699212598426 889.5033070866143 L 895.164094488189 886.5694488188977 L 892.8170078740159 883.5080314960632 L 890.6314960629923 880.3303937007875 L 888.6132283464568 877.0393700787401 L 886.7735433070867 873.6491338582679 L 885.112440944882 870.1653543307089 L 883.6355905511812 866.6022047244096 L 882.348661417323 862.9625196850395 L 881.2516535433073 859.2633070866143 L 880.3502362204725 855.5130708661418 L 879.6472440944883 851.7174803149607 L 879.1426771653544 847.8935433070867 L 878.8422047244095 844.0469291338584 L 878.740157480315 840.1889763779528 L 878.8422047244095 836.3310236220473 L 879.1426771653544 832.4844094488191 L 879.6472440944883 828.660472440945 L 880.3502362204725 824.864881889764 L 881.2516535433073 821.1146456692913 L 882.348661417323 817.4154330708661 L 883.6355905511812 813.7757480314962 L 885.112440944882 810.2125984251969 L 886.7735433070867 806.7288188976379 L 888.6132283464568 803.3385826771654 L 890.6314960629923 800.0475590551181 L 892.8170078740159 796.8699212598426 L 895.164094488189 793.808503937008 L 897.6699212598426 790.8746456692913 L 900.3259842519686 788.0740157480316 L 903.1266141732285 785.4179527559055 L 906.0604724409449 782.912125984252 L 909.1218897637797 780.5650393700788 L 912.2995275590553 778.3795275590553 L 915.5905511811025 776.3612598425198 L 918.980787401575 774.5215748031496 L 922.464566929134 772.860472440945 L 926.0277165354332 771.3836220472442 L 929.6674015748033 770.0966929133859 L 933.3666141732285 768.9996850393702 L 937.1168503937008 768.0982677165356 L 940.912440944882 767.3952755905514 L 944.7363779527559 766.8907086614173 L 948.5829921259843 766.5902362204724 L 952.4409448818899 766.488188976378 L 956.2988976377953 766.5902362204724 L 960.1455118110238 766.8907086614173 L 963.9694488188977 767.3952755905514 L 967.7650393700789 768.0982677165356 L 971.5152755905513 768.9996850393702 L 975.2144881889765 770.0966929133859 L 978.8541732283466 771.3836220472442 L 982.4173228346457 772.860472440945 L 985.9011023622047 774.5215748031496 L 989.2913385826772 776.3612598425198 L 992.5823622047245 778.3795275590553 L 995.7600000000001 780.5650393700788 L 998.8214173228348 782.912125984252 L 1001.7552755905513 785.4179527559055 L 1004.5559055118111 788.0740157480316 L 1007.2119685039371 790.8746456692913 L 1009.7177952755907 793.808503937008 L 1012.0648818897639 796.8699212598426 L 1014.2503937007875 800.0475590551181 L 1016.268661417323 803.3385826771654 L 1018.108346456693 806.7288188976379 L 1019.7694488188978 810.2125984251969 L 1021.2462992125986 813.7757480314962 L 1022.5332283464568 817.4154330708661 L 1023.6302362204725 821.1146456692913 L 1024.5316535433071 824.864881889764 L 1025.2346456692915 828.660472440945 L 1025.7392125984254 832.4844094488191 L 1026.0396850393702 836.3310236220473 L 1026.1417322834648 840.1889763779528 L 1026.0396850393702 844.0469291338584 L 1025.7392125984254 847.8935433070867 L 1025.2346456692915 851.7174803149607 L 1024.5316535433071 855.5130708661418 L 1023.6302362204725 859.2633070866143 L 1022.5332283464568 862.9625196850395 L 1021.2462992125986 866.6022047244096 L 1019.7694488188978 870.1653543307089 L 1018.108346456693 873.6491338582679 L 1016.268661417323 877.0393700787401 L 1014.2503937007875 880.3303937007875 L 1012.0648818897639 883.5080314960632 L 1009.7177952755907 886.5694488188977 L 1007.2119685039371 889.5033070866143 L 1004.5559055118111 892.3039370078742 L 1001.7552755905513 894.96 L 998.8214173228348 897.4658267716536 L 995.7600000000001 899.812913385827 L 992.5823622047245 901.9984251968505 L 989.2913385826772 904.0166929133859 L 985.9011023622047 905.8563779527559 L 982.4173228346457 907.5174803149607 L 978.8541732283466 908.9943307086616 L 975.2144881889765 910.2812598425198 L 971.5152755905513 911.3782677165356 L 967.7650393700789 912.2796850393702 L 963.9694488188977 912.9826771653544 L 960.1455118110238 913.4872440944882 L 956.2988976377953 913.7877165354331 L 952.4409448818899 913.8897637795276 z" stroke="black" fill="lightgray" stroke-width="0.5" class="active"/></g><g transform="translate(-67.95804810000004 56.0023245000001) rotate(0)"><path d="M 326.072125984252 676.8878740157481 L 334.5703937007874 675.5414173228347 L 342.88157480314965 673.316220472441 L 350.9149606299213 670.2321259842521 L 358.58267716535437 666.3259842519685 L 365.7996850393701 661.6374803149607 L 372.48661417322836 656.2233070866142 L 378.5697637795276 650.140157480315 L 383.9839370078741 643.4532283464567 L 388.67244094488194 636.236220472441 L 392.5785826771654 628.5685039370079 L 395.66267716535435 620.5351181102363 L 397.88787401574814 612.2239370078742 L 399.2343307086615 603.7256692913386 L 399.68503937007875 595.1338582677166 L 399.2343307086615 586.5420472440945 L 397.88787401574814 578.0437795275591 L 395.66267716535435 569.7325984251969 L 392.5785826771654 561.6992125984252 L 388.67244094488194 554.0314960629921 L 383.9839370078741 546.8144881889764 L 378.5697637795276 540.1275590551181 L 372.48661417322836 534.044409448819 L 365.7996850393701 528.6302362204725 L 358.58267716535437 523.9417322834646 L 350.9149606299213 520.0355905511811 L 342.88157480314965 516.9514960629922 L 334.5703937007874 514.7262992125985 L 326.072125984252 513.3798425196851 L 317.4803149606299 512.9291338582677 L 308.8885039370079 513.3798425196851 L 300.3902362204725 514.7262992125985 L 292.07905511811026 516.9514960629922 L 284.0456692913386 520.0355905511811 L 276.37795275590554 523.9417322834646 L 269.1615118110237 528.6302362204725 L 262.4745826771654 534.044409448819 L 256.39029921259845 540.1275590551181 L 250.9752755905512 546.8144881889764 L 246.28903937007877 554.0314960629921 L 242.38261417322838 561.6992125984252 L 239.29908661417323 569.7325984251969 L 237.07190551181105 578.0437795275591 L 235.72601574803153 586.5420472440945 L 235.27559055118112 595.1338582677166 L 235.72601574803153 603.7256692913386 L 237.07190551181105 612.2239370078742 L 239.29908661417323 620.5351181102363 L 242.38261417322838 628.5685039370079 L 246.28903937007877 636.236220472441 L 250.9752755905512 643.4532283464567 L 256.39029921259845 650.140157480315 L 262.4745826771654 656.2233070866142 L 269.1615118110237 661.6374803149607 L 276.37795275590554 666.3259842519685 L 284.0456692913386 670.2321259842521 L 292.07905511811026 673.316220472441 L 300.3902362204725 675.5414173228347 L 308.8885039370079 676.8878740157481 L 317.4803149606299 677.3385826771654 z" stroke="black" fill="lightgray" stroke-width="0.5" class="active"/><path d="M 313.6223622047244 668.7325984251969 L 309.7757480314961 668.432125984252 L 305.9518110236221 667.9275590551182 L 302.15622047244096 667.224566929134 L 298.40598425196856 666.3231496062992 L 294.70677165354334 665.2261417322835 L 291.06708661417326 663.9392125984253 L 287.503937007874 662.4623622047245 L 284.020157480315 660.8012598425198 L 280.62992125984255 658.9615748031497 L 277.34003149606303 656.9433070866143 L 274.16012598425203 654.7577952755906 L 271.09899212598424 652.4107086614174 L 268.1648503937008 649.9048818897638 L 265.36592125984254 647.2488188976379 L 262.7098582677166 644.448188976378 L 260.204031496063 641.5143307086615 L 257.8552440944882 638.4529133858268 L 255.66973228346458 635.2752755905512 L 253.6537322834646 631.9842519685039 L 251.81234645669292 628.5940157480316 L 250.15124409448822 625.1102362204725 L 248.67467716535435 621.5470866141733 L 247.38661417322837 617.9074015748032 L 246.29074015748037 614.208188976378 L 245.3901732283465 610.4579527559056 L 244.68689763779528 606.6623622047244 L 244.18318110236223 602.8384251968505 L 243.8804409448819 598.9918110236222 L 243.77952755905514 595.1338582677166 L 243.8804409448819 591.2759055118111 L 244.18318110236223 587.4292913385827 L 244.68689763779528 583.6053543307088 L 245.3901732283465 579.8097637795277 L 246.29074015748037 576.0595275590551 L 247.38661417322837 572.3603149606299 L 248.67467716535435 568.72062992126 L 250.15124409448822 565.1574803149607 L 251.81234645669292 561.6737007874016 L 253.6537322834646 558.2834645669292 L 255.66973228346458 554.9924409448819 L 257.8552440944882 551.8148031496064 L 260.204031496063 548.7533858267717 L 262.7098582677166 545.8195275590551 L 265.36592125984254 543.0188976377954 L 268.1648503937008 540.3628346456693 L 271.09899212598424 537.8570078740158 L 274.16012598425203 535.5099212598426 L 277.34003149606303 533.324409448819 L 280.62992125984255 531.3061417322835 L 284.020157480315 529.4664566929134 L 287.503937007874 527.8053543307087 L 291.06708661417326 526.3285039370079 L 294.70677165354334 525.0415748031497 L 298.40598425196856 523.944566929134 L 302.15622047244096 523.0431496062993 L 305.9518110236221 522.340157480315 L 309.7757480314961 521.8355905511812 L 313.6223622047244 521.5351181102362 L 317.4803149606299 521.4330708661417 L 321.3382677165355 521.5351181102362 L 325.1848818897638 521.8355905511812 L 329.0088188976378 522.340157480315 L 332.80440944881894 523.0431496062993 L 336.55464566929135 523.944566929134 L 340.25385826771657 525.0415748031497 L 343.89354330708665 526.3285039370079 L 347.4566929133859 527.8053543307087 L 350.9404724409449 529.4664566929134 L 354.33070866141736 531.3061417322835 L 357.6217322834646 533.324409448819 L 360.7993700787402 535.5099212598426 L 363.86078740157484 537.8570078740158 L 366.79464566929136 540.3628346456693 L 369.5952755905512 543.0188976377954 L 372.2513385826772 545.8195275590551 L 374.7571653543307 548.7533858267717 L 377.10425196850395 551.8148031496064 L 379.2897637795276 554.9924409448819 L 381.308031496063 558.2834645669292 L 383.1477165354331 561.6737007874016 L 384.8088188976379 565.1574803149607 L 386.2856692913386 568.72062992126 L 387.57259842519693 572.3603149606299 L 388.66960629921266 576.0595275590551 L 389.5710236220473 579.8097637795277 L 390.27401574803156 583.6053543307088 L 390.7785826771654 587.4292913385827 L 391.07905511811026 591.2759055118111 L 391.18110236220474 595.1338582677166 L 391.07905511811026 598.9918110236222 L 390.7785826771654 602.8384251968505 L 390.27401574803156 606.6623622047244 L 389.5710236220473 610.4579527559056 L 388.66960629921266 614.208188976378 L 387.57259842519693 617.9074015748032 L 386.2856692913386 621.5470866141733 L 384.8088188976379 625.1102362204725 L 383.1477165354331 628.5940157480316 L 381.308031496063 631.9842519685039 L 379.2897637795276 635.2752755905512 L 377.10425196850395 638.4529133858268 L 374.7571653543307 641.5143307086615 L 372.2513385826772 644.448188976378 L 369.5952755905512 647.2488188976379 L 366.79464566929136 649.9048818897638 L 363.86078740157484 652.4107086614174 L 360.7993700787402 654.7577952755906 L 357.6217322834646 656.9433070866143 L 354.33070866141736 658.9615748031497 L 350.9404724409449 660.8012598425198 L 347.4566929133859 662.4623622047245 L 343.89354330708665 663.9392125984253 L 340.25385826771657 665.2261417322835 L 336.55464566929135 666.3231496062992 L 332.80440944881894 667.224566929134 L 329.0088188976378 667.9275590551182 L 325.1848818897638 668.432125984252 L 321.3382677165355 668.7325984251969 L 317.4803149606299 668.8346456692914 z" stroke="black" fill="lightgray" stroke-width="0.5" class="active"/></g><g transform="translate(-507.0835981999999 901.4827958000001) rotate(270)"><path d="M 643.5524409448819 921.9429921259843 L 652.0507086614174 920.596535433071 L 660.3618897637797 918.3713385826773 L 668.3952755905513 915.2872440944882 L 676.0629921259844 911.3811023622047 L 683.2800000000001 906.6925984251969 L 689.9669291338583 901.2784251968505 L 696.0500787401576 895.1952755905513 L 701.4642519685041 888.5083464566931 L 706.1527559055119 881.2913385826772 L 710.0588976377953 873.6236220472441 L 713.1429921259843 865.5902362204725 L 715.3681889763781 857.2790551181103 L 716.7146456692915 848.7807874015748 L 717.1653543307087 840.1889763779528 L 716.7146456692915 831.5971653543309 L 715.3681889763781 823.0988976377953 L 713.1429921259843 814.7877165354332 L 710.0588976377953 806.7543307086615 L 706.1527559055119 799.0866141732283 L 701.4642519685041 791.8696062992126 L 696.0500787401576 785.1826771653544 L 689.9669291338583 779.0995275590552 L 683.2800000000001 773.6853543307088 L 676.0629921259844 768.9968503937009 L 668.3952755905513 765.0907086614174 L 660.3618897637797 762.0066141732285 L 652.0507086614174 759.7814173228347 L 643.5524409448819 758.4349606299214 L 634.9606299212599 757.9842519685039 L 626.3688188976379 758.4349606299214 L 617.8705511811024 759.7814173228347 L 609.5593700787401 762.0066141732285 L 601.5259842519686 765.0907086614174 L 593.8582677165355 768.9968503937009 L 586.6412598425197 773.6853543307088 L 579.9543307086615 779.0995275590552 L 573.8711811023622 785.1826771653544 L 568.4570078740157 791.8696062992126 L 563.768503937008 799.0866141732283 L 559.8623622047245 806.7543307086615 L 556.7782677165355 814.7877165354332 L 554.5530708661418 823.0988976377953 L 553.2066141732283 831.5971653543309 L 552.7559055118111 840.1889763779528 L 553.2066141732283 848.7807874015748 L 554.5530708661418 857.2790551181103 L 556.7782677165355 865.5902362204725 L 559.8623622047245 873.6236220472441 L 563.768503937008 881.2913385826772 L 568.4570078740157 888.5083464566931 L 573.8711811023622 895.1952755905513 L 579.9543307086615 901.2784251968505 L 586.6412598425197 906.6925984251969 L 593.8582677165355 911.3811023622047 L 601.5259842519686 915.2872440944882 L 609.5593700787401 918.3713385826773 L 617.8705511811024 920.596535433071 L 626.3688188976379 921.9429921259843 L 634.9606299212599 922.3937007874016 z" stroke="black" fill="lightgray" stroke-width="0.5" class="active"/><path d="M 631.1026771653544 913.7877165354331 L 627.2560629921261 913.4872440944882 L 623.432125984252 912.9826771653544 L 619.6365354330709 912.2796850393702 L 615.8862992125985 911.3782677165356 L 612.1870866141733 910.2812598425198 L 608.5474015748032 908.9943307086616 L 604.984251968504 907.5174803149607 L 601.5004724409449 905.8563779527559 L 598.1102362204725 904.0166929133859 L 594.8192125984252 901.9984251968505 L 591.6415748031496 899.812913385827 L 588.580157480315 897.4658267716536 L 585.6462992125985 894.96 L 582.8456692913387 892.3039370078742 L 580.1896062992126 889.5033070866143 L 577.6837795275592 886.5694488188977 L 575.336692913386 883.5080314960632 L 573.1511811023622 880.3303937007875 L 571.1329133858269 877.0393700787401 L 569.2932283464568 873.6491338582679 L 567.632125984252 870.1653543307089 L 566.1552755905512 866.6022047244096 L 564.868346456693 862.9625196850395 L 563.7713385826772 859.2633070866143 L 562.8699212598426 855.5130708661418 L 562.1669291338583 851.7174803149607 L 561.6623622047244 847.8935433070867 L 561.3618897637796 844.0469291338584 L 561.2598425196851 840.1889763779528 L 561.3618897637796 836.3310236220473 L 561.6623622047244 832.4844094488191 L 562.1669291338583 828.660472440945 L 562.8699212598426 824.864881889764 L 563.7713385826772 821.1146456692913 L 564.868346456693 817.4154330708661 L 566.1552755905512 813.7757480314962 L 567.632125984252 810.2125984251969 L 569.2932283464568 806.7288188976379 L 571.1329133858269 803.3385826771654 L 573.1511811023622 800.0475590551181 L 575.336692913386 796.8699212598426 L 577.6837795275592 793.808503937008 L 580.1896062992126 790.8746456692913 L 582.8456692913387 788.0740157480316 L 585.6462992125985 785.4179527559055 L 588.580157480315 782.912125984252 L 591.6415748031496 780.5650393700788 L 594.8192125984252 778.3795275590553 L 598.1102362204725 776.3612598425198 L 601.5004724409449 774.5215748031496 L 604.984251968504 772.860472440945 L 608.5474015748032 771.3836220472442 L 612.1870866141733 770.0966929133859 L 615.8862992125985 768.9996850393702 L 619.6365354330709 768.0982677165356 L 623.432125984252 767.3952755905514 L 627.2560629921261 766.8907086614173 L 631.1026771653544 766.5902362204724 L 634.9606299212599 766.488188976378 L 638.8185826771654 766.5902362204724 L 642.6651968503937 766.8907086614173 L 646.4891338582678 767.3952755905514 L 650.2847244094489 768.0982677165356 L 654.0349606299213 768.9996850393702 L 657.7341732283465 770.0966929133859 L 661.3738582677166 771.3836220472442 L 664.9370078740158 772.860472440945 L 668.4207874015749 774.5215748031496 L 671.8110236220473 776.3612598425198 L 675.1020472440946 778.3795275590553 L 678.2796850393702 780.5650393700788 L 681.3411023622048 782.912125984252 L 684.2749606299213 785.4179527559055 L 687.0755905511811 788.0740157480316 L 689.7316535433072 790.8746456692913 L 692.2374803149606 793.808503937008 L 694.5845669291339 796.8699212598426 L 696.7700787401576 800.0475590551181 L 698.7883464566929 803.3385826771654 L 700.628031496063 806.7288188976379 L 702.2891338582679 810.2125984251969 L 703.7659842519686 813.7757480314962 L 705.0529133858269 817.4154330708661 L 706.1499212598426 821.1146456692913 L 707.0513385826772 824.864881889764 L 707.7543307086615 828.660472440945 L 708.2588976377954 832.4844094488191 L 708.5593700787402 836.3310236220473 L 708.6614173228347 840.1889763779528 L 708.5593700787402 844.0469291338584 L 708.2588976377954 847.8935433070867 L 707.7543307086615 851.7174803149607 L 707.0513385826772 855.5130708661418 L 706.1499212598426 859.2633070866143 L 705.0529133858269 862.9625196850395 L 703.7659842519686 866.6022047244096 L 702.2891338582679 870.1653543307089 L 700.628031496063 873.6491338582679 L 698.7883464566929 877.0393700787401 L 696.7700787401576 880.3303937007875 L 694.5845669291339 883.5080314960632 L 692.2374803149606 886.5694488188977 L 689.7316535433072 889.5033070866143 L 687.0755905511811 892.3039370078742 L 684.2749606299213 894.96 L 681.3411023622048 897.4658267716536 L 678.2796850393702 899.812913385827 L 675.1020472440946 901.9984251968505 L 671.8110236220473 904.0166929133859 L 668.4207874015749 905.8563779527559 L 664.9370078740158 907.5174803149607 L 661.3738582677166 908.9943307086616 L 657.7341732283465 910.2812598425198 L 654.0349606299213 911.3782677165356 L 650.2847244094489 912.2796850393702 L 646.4891338582678 912.9826771653544 L 642.6651968503937 913.4872440944882 L 638.8185826771654 913.7877165354331 L 634.9606299212599 913.8897637795276 z" stroke="black" fill="lightgray" stroke-width="0.5" class="active"/></g><g transform="translate(19.875670600000035 535.8201273000001) rotate(270)"><path d="M 8.592689763779529 431.8327559055119 L 17.091297637795275 430.4862992125985 L 25.40264881889764 428.2611023622047 L 33.43549606299213 425.17700787401577 L 41.102362204724415 421.27086614173237 L 48.3188031496063 416.58236220472446 L 55.005732283464575 411.16818897637796 L 61.090015748031504 405.0850393700788 L 66.50503937007875 398.3981102362205 L 71.19127559055119 391.18110236220474 L 75.09770078740158 383.51338582677164 L 78.1812283464567 375.4800000000001 L 80.4084094488189 367.16881889763783 L 81.75429921259844 358.67055118110244 L 82.20472440944883 350.07874015748035 L 81.75429921259844 341.48692913385827 L 80.4084094488189 332.9886614173229 L 78.1812283464567 324.6774803149607 L 75.09770078740158 316.644094488189 L 71.19127559055119 308.9763779527559 L 66.50503937007875 301.7593700787402 L 61.090015748031504 295.0724409448819 L 55.005732283464575 288.9892913385827 L 48.3188031496063 283.57511811023625 L 41.102362204724415 278.88746456692917 L 33.43549606299213 274.98103937007875 L 25.40264881889764 271.89751181102366 L 17.091297637795275 269.6703307086615 L 8.592689763779529 268.3244409448819 L 0 267.8740157480315 L -8.592689763779529 268.3244409448819 L -17.091297637795275 269.6703307086615 L -25.40264881889764 271.89751181102366 L -33.43549606299213 274.98103937007875 L -41.102362204724415 278.88746456692917 L -48.3188031496063 283.57511811023625 L -55.005732283464575 288.9892913385827 L -61.090015748031504 295.0724409448819 L -66.50503937007875 301.7593700787402 L -71.19127559055119 308.9763779527559 L -75.09770078740158 316.644094488189 L -78.1812283464567 324.6774803149607 L -80.4084094488189 332.9886614173229 L -81.75429921259844 341.48692913385827 L -82.20472440944883 350.07874015748035 L -81.75429921259844 358.67055118110244 L -80.4084094488189 367.16881889763783 L -78.1812283464567 375.4800000000001 L -75.09770078740158 383.51338582677164 L -71.19127559055119 391.18110236220474 L -66.50503937007875 398.3981102362205 L -61.090015748031504 405.0850393700788 L -55.005732283464575 411.16818897637796 L -48.3188031496063 416.58236220472446 L -41.102362204724415 421.27086614173237 L -33.43549606299213 425.17700787401577 L -25.40264881889764 428.2611023622047 L -17.091297637795275 430.4862992125985 L -8.592689763779529 431.8327559055119 L 0 432.2834645669292 z" stroke="black" fill="lightgray" stroke-width="0.5" class="active"/><path d="M -2.9670519685039376 406.6951181102363 L -5.925996850393702 406.459842519685 L -8.868699212598427 406.0743307086614 L -11.787108661417323 405.53291338582676 L -14.673203149606302 404.8412598425197 L -17.51904566929134 403.99653543307085 L -20.31692598425197 403.0072440944882 L -23.05904881889764 401.87055118110237 L -25.7380157480315 400.592125984252 L -28.34645669291339 399.1748031496063 L -30.877228346456693 397.624251968504 L -33.323244094488196 395.94330708661425 L -35.6779842519685 394.1376377952756 L -37.93492913385827 392.21007874015754 L -40.08784251968504 390.16629921259846 L -42.13105511811024 388.0148031496064 L -44.05861417322835 385.75559055118117 L -45.865417322834645 383.4028346456693 L -47.54664566929134 380.9565354330709 L -49.097480314960634 378.4251968503937 L -50.51366929133859 375.8173228346457 L -51.791527559055126 373.13858267716535 L -52.92737007874017 370.3946456692914 L -53.91807874015749 367.59685039370083 L -54.76110236220473 364.7508661417323 L -55.45388976377953 361.8651968503937 L -55.995023622047256 358.94834645669295 L -56.38223622047244 356.0059842519685 L -56.6152440944882 353.04661417322836 L -56.69291338582678 350.07874015748035 L -56.6152440944882 347.11086614173234 L -56.38223622047244 344.1514960629922 L -55.995023622047256 341.20913385826776 L -55.45388976377953 338.29228346456694 L -54.76110236220473 335.4066141732284 L -53.91807874015749 332.5606299212599 L -52.92737007874017 329.76283464566933 L -51.791527559055126 327.0188976377953 L -50.51366929133859 324.340157480315 L -49.097480314960634 321.732283464567 L -47.54664566929134 319.20094488188977 L -45.865417322834645 316.7546456692914 L -44.05861417322835 314.40188976377954 L -42.13105511811024 312.14267716535437 L -40.08784251968504 309.99118110236225 L -37.93492913385827 307.94740157480317 L -35.6779842519685 306.019842519685 L -33.323244094488196 304.21417322834645 L -30.877228346456693 302.5332283464567 L -28.34645669291339 300.9826771653544 L -25.7380157480315 299.5653543307087 L -23.05904881889764 298.2869291338583 L -20.31692598425197 297.1502362204725 L -17.51904566929134 296.1609448818898 L -14.673203149606302 295.316220472441 L -11.787108661417323 294.6245669291339 L -8.868699212598427 294.08314960629923 L -5.925996850393702 293.6976377952756 L -2.9670519685039376 293.46236220472446 L 0 293.38582677165357 L 2.9670519685039376 293.46236220472446 L 5.925996850393702 293.6976377952756 L 8.868699212598427 294.08314960629923 L 11.787108661417323 294.6245669291339 L 14.673203149606302 295.316220472441 L 17.51904566929134 296.1609448818898 L 20.31692598425197 297.1502362204725 L 23.05904881889764 298.2869291338583 L 25.7380157480315 299.5653543307087 L 28.34645669291339 300.9826771653544 L 30.877228346456693 302.5332283464567 L 33.323244094488196 304.21417322834645 L 35.6779842519685 306.019842519685 L 37.93492913385827 307.94740157480317 L 40.08784251968504 309.99118110236225 L 42.13105511811024 312.14267716535437 L 44.05861417322835 314.40188976377954 L 45.865417322834645 316.7546456692914 L 47.54664566929134 319.20094488188977 L 49.097480314960634 321.732283464567 L 50.51366929133859 324.340157480315 L 51.791527559055126 327.0188976377953 L 52.92737007874017 329.76283464566933 L 53.91807874015749 332.5606299212599 L 54.76110236220473 335.4066141732284 L 55.45388976377953 338.29228346456694 L 55.995023622047256 341.20913385826776 L 56.38223622047244 344.1514960629922 L 56.6152440944882 347.11086614173234 L 56.69291338582678 350.07874015748035 L 56.6152440944882 353.04661417322836 L 56.38223622047244 356.0059842519685 L 55.995023622047256 358.94834645669295 L 55.45388976377953 361.8651968503937 L 54.76110236220473 364.7508661417323 L 53.91807874015749 367.59685039370083 L 52.92737007874017 370.3946456692914 L 51.791527559055126 373.13858267716535 L 50.51366929133859 375.8173228346457 L 49.097480314960634 378.4251968503937 L 47.54664566929134 380.9565354330709 L 45.865417322834645 383.4028346456693 L 44.05861417322835 385.75559055118117 L 42.13105511811024 388.0148031496064 L 40.08784251968504 390.16629921259846 L 37.93492913385827 392.21007874015754 L 35.6779842519685 394.1376377952756 L 33.323244094488196 395.94330708661425 L 30.877228346456693 397.624251968504 L 28.34645669291339 399.1748031496063 L 25.7380157480315 400.592125984252 L 23.05904881889764 401.87055118110237 L 20.31692598425197 403.0072440944882 L 17.51904566929134 403.99653543307085 L 14.673203149606302 404.8412598425197 L 11.787108661417323 405.53291338582676 L 8.868699212598427 406.0743307086614 L 5.925996850393702 406.459842519685 L 2.9670519685039376 406.6951181102363 L 0 406.77165354330714 z" stroke="black" fill="lightgray" stroke-width="0.5" class="active"/></g><g transform="translate(698.5632437000002 923.4070864) rotate(180)"><path d="M 326.072125984252 921.9429921259843 L 334.5703937007874 920.596535433071 L 342.88157480314965 918.3713385826773 L 350.9149606299213 915.2872440944882 L 358.58267716535437 911.3811023622047 L 365.7996850393701 906.6925984251969 L 372.48661417322836 901.2784251968505 L 378.5697637795276 895.1952755905513 L 383.9839370078741 888.5083464566931 L 388.67244094488194 881.2913385826772 L 392.5785826771654 873.6236220472441 L 395.66267716535435 865.5902362204725 L 397.88787401574814 857.2790551181103 L 399.2343307086615 848.7807874015748 L 399.68503937007875 840.1889763779528 L 399.2343307086615 831.5971653543309 L 397.88787401574814 823.0988976377953 L 395.66267716535435 814.7877165354332 L 392.5785826771654 806.7543307086615 L 388.67244094488194 799.0866141732283 L 383.9839370078741 791.8696062992126 L 378.5697637795276 785.1826771653544 L 372.48661417322836 779.0995275590552 L 365.7996850393701 773.6853543307088 L 358.58267716535437 768.9968503937009 L 350.9149606299213 765.0907086614174 L 342.88157480314965 762.0066141732285 L 334.5703937007874 759.7814173228347 L 326.072125984252 758.4349606299214 L 317.4803149606299 757.9842519685039 L 308.8885039370079 758.4349606299214 L 300.3902362204725 759.7814173228347 L 292.07905511811026 762.0066141732285 L 284.0456692913386 765.0907086614174 L 276.37795275590554 768.9968503937009 L 269.1615118110237 773.6853543307088 L 262.4745826771654 779.0995275590552 L 256.39029921259845 785.1826771653544 L 250.9752755905512 791.8696062992126 L 246.28903937007877 799.0866141732283 L 242.38261417322838 806.7543307086615 L 239.29908661417323 814.7877165354332 L 237.07190551181105 823.0988976377953 L 235.72601574803153 831.5971653543309 L 235.27559055118112 840.1889763779528 L 235.72601574803153 848.7807874015748 L 237.07190551181105 857.2790551181103 L 239.29908661417323 865.5902362204725 L 242.38261417322838 873.6236220472441 L 246.28903937007877 881.2913385826772 L 250.9752755905512 888.5083464566931 L 256.39029921259845 895.1952755905513 L 262.4745826771654 901.2784251968505 L 269.1615118110237 906.6925984251969 L 276.37795275590554 911.3811023622047 L 284.0456692913386 915.2872440944882 L 292.07905511811026 918.3713385826773 L 300.3902362204725 920.596535433071 L 308.8885039370079 921.9429921259843 L 317.4803149606299 922.3937007874016 z" stroke="black" fill="lightgray" stroke-width="0.5" class="active"/><path d="M 313.6223622047244 913.7877165354331 L 309.7757480314961 913.4872440944882 L 305.9518110236221 912.9826771653544 L 302.15622047244096 912.2796850393702 L 298.40598425196856 911.3782677165356 L 294.70677165354334 910.2812598425198 L 291.06708661417326 908.9943307086616 L 287.503937007874 907.5174803149607 L 284.020157480315 905.8563779527559 L 280.62992125984255 904.0166929133859 L 277.34003149606303 901.9984251968505 L 274.16012598425203 899.812913385827 L 271.09899212598424 897.4658267716536 L 268.1648503937008 894.96 L 265.36592125984254 892.3039370078742 L 262.7098582677166 889.5033070866143 L 260.204031496063 886.5694488188977 L 257.8552440944882 883.5080314960632 L 255.66973228346458 880.3303937007875 L 253.6537322834646 877.0393700787401 L 251.81234645669292 873.6491338582679 L 250.15124409448822 870.1653543307089 L 248.67467716535435 866.6022047244096 L 247.38661417322837 862.9625196850395 L 246.29074015748037 859.2633070866143 L 245.3901732283465 855.5130708661418 L 244.68689763779528 851.7174803149607 L 244.18318110236223 847.8935433070867 L 243.8804409448819 844.0469291338584 L 243.77952755905514 840.1889763779528 L 243.8804409448819 836.3310236220473 L 244.18318110236223 832.4844094488191 L 244.68689763779528 828.660472440945 L 245.3901732283465 824.864881889764 L 246.29074015748037 821.1146456692913 L 247.38661417322837 817.4154330708661 L 248.67467716535435 813.7757480314962 L 250.15124409448822 810.2125984251969 L 251.81234645669292 806.7288188976379 L 253.6537322834646 803.3385826771654 L 255.66973228346458 800.0475590551181 L 257.8552440944882 796.8699212598426 L 260.204031496063 793.808503937008 L 262.7098582677166 790.8746456692913 L 265.36592125984254 788.0740157480316 L 268.1648503937008 785.4179527559055 L 271.09899212598424 782.912125984252 L 274.16012598425203 780.5650393700788 L 277.34003149606303 778.3795275590553 L 280.62992125984255 776.3612598425198 L 284.020157480315 774.5215748031496 L 287.503937007874 772.860472440945 L 291.06708661417326 771.3836220472442 L 294.70677165354334 770.0966929133859 L 298.40598425196856 768.9996850393702 L 302.15622047244096 768.0982677165356 L 305.9518110236221 767.3952755905514 L 309.7757480314961 766.8907086614173 L 313.6223622047244 766.5902362204724 L 317.4803149606299 766.488188976378 L 321.3382677165355 766.5902362204724 L 325.1848818897638 766.8907086614173 L 329.0088188976378 767.3952755905514 L 332.80440944881894 768.0982677165356 L 336.55464566929135 768.9996850393702 L 340.25385826771657 770.0966929133859 L 343.89354330708665 771.3836220472442 L 347.4566929133859 772.860472440945 L 350.9404724409449 774.5215748031496 L 354.33070866141736 776.3612598425198 L 357.6217322834646 778.3795275590553 L 360.7993700787402 780.5650393700788 L 363.86078740157484 782.912125984252 L 366.79464566929136 785.4179527559055 L 369.5952755905512 788.0740157480316 L 372.2513385826772 790.8746456692913 L 374.7571653543307 793.808503937008 L 377.10425196850395 796.8699212598426 L 379.2897637795276 800.0475590551181 L 381.308031496063 803.3385826771654 L 383.1477165354331 806.7288188976379 L 384.8088188976379 810.2125984251969 L 386.2856692913386 813.7757480314962 L 387.57259842519693 817.4154330708661 L 388.66960629921266 821.1146456692913 L 389.5710236220473 824.864881889764 L 390.27401574803156 828.660472440945 L 390.7785826771654 832.4844094488191 L 391.07905511811026 836.3310236220473 L 391.18110236220474 840.1889763779528 L 391.07905511811026 844.0469291338584 L 390.7785826771654 847.8935433070867 L 390.27401574803156 851.7174803149607 L 389.5710236220473 855.5130708661418 L 388.66960629921266 859.2633070866143 L 387.57259842519693 862.9625196850395 L 386.2856692913386 866.6022047244096 L 384.8088188976379 870.1653543307089 L 383.1477165354331 873.6491338582679 L 381.308031496063 877.0393700787401 L 379.2897637795276 880.3303937007875 L 377.10425196850395 883.5080314960632 L 374.7571653543307 886.5694488188977 L 372.2513385826772 889.5033070866143 L 369.5952755905512 892.3039370078742 L 366.79464566929136 894.96 L 363.86078740157484 897.4658267716536 L 360.7993700787402 899.812913385827 L 357.6217322834646 901.9984251968505 L 354.33070866141736 904.0166929133859 L 350.9404724409449 905.8563779527559 L 347.4566929133859 907.5174803149607 L 343.89354330708665 908.9943307086616 L 340.25385826771657 910.2812598425198 L 336.55464566929135 911.3782677165356 L 332.80440944881894 912.2796850393702 L 329.0088188976378 912.9826771653544 L 325.1848818897638 913.4872440944882 L 321.3382677165355 913.7877165354331 L 317.4803149606299 913.8897637795276 z" stroke="black" fill="lightgray" stroke-width="0.5" class="active"/></g><g transform="translate(-498.4429996 146.9383591) rotate(0)"><path d="M 638.8015748031496 73.31669291338584 L 642.6340157480315 73.01508661417323 L 646.4466141732283 72.51335433070867 L 650.2251968503938 71.81291338582677 L 653.9612598425198 70.91574803149607 L 657.6491338582678 69.82412598425198 L 661.2718110236221 68.54088188976378 L 664.8207874015749 67.06998425196852 L 668.2903937007875 65.41540157480316 L 671.6692913385828 63.58138582677166 L 674.9461417322835 61.573039370078746 L 678.1152755905513 59.39574803149606 L 681.1625196850395 57.056031496063 L 684.0850393700789 54.559559055118115 L 686.8743307086614 51.91398425196851 L 689.5190551181104 49.12582677165355 L 692.016377952756 46.20302362204725 L 694.3577952755907 43.15351181102363 L 696.5348031496064 39.985795275590554 L 698.5417322834646 36.70866141732284 L 700.3757480314962 33.33061417322835 L 702.0311811023623 29.861574803149608 L 703.5023622047245 26.310387401574804 L 704.7836220472442 22.6872 L 705.8749606299214 19.00176377952756 L 706.7735433070867 15.264283464566931 L 707.4737007874016 11.484992125984254 L 707.9754330708662 7.674179527559056 L 708.2787401574805 3.8423622047244104 L 708.3779527559057 0 L 708.2787401574805 -3.8423622047244104 L 707.9754330708662 -7.674179527559056 L 707.4737007874016 -11.484992125984254 L 706.7735433070867 -15.264283464566931 L 705.8749606299214 -19.00176377952756 L 704.7836220472442 -22.6872 L 703.5023622047245 -26.310387401574804 L 702.0311811023623 -29.861574803149608 L 700.3757480314962 -33.33061417322835 L 698.5417322834646 -36.70866141732284 L 696.5348031496064 -39.985795275590554 L 694.3577952755907 -43.15351181102363 L 692.016377952756 -46.20302362204725 L 689.5190551181104 -49.12582677165355 L 686.8743307086614 -51.91398425196851 L 684.0850393700789 -54.559559055118115 L 681.1625196850395 -57.056031496063 L 678.1152755905513 -59.39574803149606 L 674.9461417322835 -61.573039370078746 L 671.6692913385828 -63.58138582677166 L 668.2903937007875 -65.41540157480316 L 664.8207874015749 -67.06998425196852 L 661.2718110236221 -68.54088188976378 L 657.6491338582678 -69.82412598425198 L 653.9612598425198 -70.91574803149607 L 650.2251968503938 -71.81291338582677 L 646.4466141732283 -72.51335433070867 L 642.6340157480315 -73.01508661417323 L 638.8015748031496 -73.31669291338584 L 634.9606299212599 -73.41732283464567 L 631.1168503937008 -73.31669291338584 L 627.2872440944883 -73.01508661417323 L 623.4746456692915 -72.51335433070867 L 619.696062992126 -71.81291338582677 L 615.96 -70.91574803149607 L 612.272125984252 -69.82412598425198 L 608.6494488188977 -68.54088188976378 L 605.1004724409449 -67.06998425196852 L 601.6308661417323 -65.41540157480316 L 598.2519685039371 -63.58138582677166 L 594.9751181102363 -61.573039370078746 L 591.8059842519685 -59.39574803149606 L 588.7587401574804 -57.056031496063 L 585.8362204724409 -54.559559055118115 L 583.0469291338584 -51.91398425196851 L 580.4022047244094 -49.12582677165355 L 577.9048818897638 -46.20302362204725 L 575.5634645669292 -43.15351181102363 L 573.3864566929134 -39.985795275590554 L 571.3795275590552 -36.70866141732284 L 569.5455118110236 -33.33061417322835 L 567.8900787401575 -29.861574803149608 L 566.4188976377953 -26.310387401574804 L 565.1376377952756 -22.6872 L 564.0462992125985 -19.00176377952756 L 563.1477165354331 -15.264283464566931 L 562.4475590551182 -11.484992125984254 L 561.9458267716536 -7.674179527559056 L 561.6425196850394 -3.8423622047244104 L 561.5433070866142 0 L 561.6425196850394 3.8423622047244104 L 561.9458267716536 7.674179527559056 L 562.4475590551182 11.484992125984254 L 563.1477165354331 15.264283464566931 L 564.0462992125985 19.00176377952756 L 565.1376377952756 22.6872 L 566.4188976377953 26.310387401574804 L 567.8900787401575 29.861574803149608 L 569.5455118110236 33.33061417322835 L 571.3795275590552 36.70866141732284 L 573.3864566929134 39.985795275590554 L 575.5634645669292 43.15351181102363 L 577.9048818897638 46.20302362204725 L 580.4022047244094 49.12582677165355 L 583.0469291338584 51.91398425196851 L 585.8362204724409 54.559559055118115 L 588.7587401574804 57.056031496063 L 591.8059842519685 59.39574803149606 L 594.9751181102363 61.573039370078746 L 598.2519685039371 63.58138582677166 L 601.6308661417323 65.41540157480316 L 605.1004724409449 67.06998425196852 L 608.6494488188977 68.54088188976378 L 612.272125984252 69.82412598425198 L 615.96 70.91574803149607 L 619.696062992126 71.81291338582677 L 623.4746456692915 72.51335433070867 L 627.2872440944883 73.01508661417323 L 631.1168503937008 73.31669291338584 L 634.9606299212599 73.41732283464567 z" stroke="black" fill="lightgray" stroke-width="0.5" class="active"/></g><g transform="translate(400.2551692000002 1642.2524735000002) rotate(270)"><path d="M 956.2677165354332 73.03351181102363 L 960.0859842519686 72.73332283464568 L 963.8815748031498 72.23329133858267 L 967.6459842519686 71.53568503937008 L 971.3707086614174 70.64192125984252 L 975.0415748031497 69.55426771653543 L 978.6500787401575 68.27640944881891 L 982.1877165354332 66.81118110236221 L 985.6431496062994 65.16283464566929 L 989.007874015748 63.3356220472441 L 992.2733858267718 61.3352125984252 L 995.428346456693 59.1664251968504 L 998.464251968504 56.83577952755906 L 1001.3782677165356 54.34894488188977 L 1004.1533858267718 51.713291338582685 L 1006.7896062992127 48.936188976377956 L 1009.2755905511813 46.02472440944882 L 1011.608503937008 42.987118110236224 L 1013.7770078740158 39.83159055118111 L 1015.7754330708663 36.566929133858274 L 1017.6037795275591 33.202204724409455 L 1019.2507086614174 29.746204724409452 L 1020.7162204724411 26.208793700787403 L 1021.9946456692913 22.599581102362205 L 1023.0831496062993 18.928403149606304 L 1023.9760629921261 15.205379527559057 L 1024.673385826772 11.440629921259843 L 1025.1751181102363 7.644529133858269 L 1025.475590551181 3.8275370078740165 L 1025.5748031496064 0 L 1025.475590551181 -3.8275370078740165 L 1025.1751181102363 -7.644529133858269 L 1024.673385826772 -11.440629921259843 L 1023.9760629921261 -15.205379527559057 L 1023.0831496062993 -18.928403149606304 L 1021.9946456692913 -22.599581102362205 L 1020.7162204724411 -26.208793700787403 L 1019.2507086614174 -29.746204724409452 L 1017.6037795275591 -33.202204724409455 L 1015.7754330708663 -36.566929133858274 L 1013.7770078740158 -39.83159055118111 L 1011.608503937008 -42.987118110236224 L 1009.2755905511813 -46.02472440944882 L 1006.7896062992127 -48.936188976377956 L 1004.1533858267718 -51.713291338582685 L 1001.3782677165356 -54.34894488188977 L 998.464251968504 -56.83577952755906 L 995.428346456693 -59.1664251968504 L 992.2733858267718 -61.3352125984252 L 989.007874015748 -63.3356220472441 L 985.6431496062994 -65.16283464566929 L 982.1877165354332 -66.81118110236221 L 978.6500787401575 -68.27640944881891 L 975.0415748031497 -69.55426771653543 L 971.3707086614174 -70.64192125984252 L 967.6459842519686 -71.53568503937008 L 963.8815748031498 -72.23329133858267 L 960.0859842519686 -72.73332283464568 L 956.2677165354332 -73.03351181102363 L 952.4409448818899 -73.13385826771655 L 948.6141732283465 -73.03351181102363 L 944.7959055118112 -72.73332283464568 L 941.00031496063 -72.23329133858267 L 937.2359055118112 -71.53568503937008 L 933.5111811023623 -70.64192125984252 L 929.8403149606299 -69.55426771653543 L 926.2318110236222 -68.27640944881891 L 922.6941732283465 -66.81118110236221 L 919.2387401574804 -65.16283464566929 L 915.8740157480316 -63.3356220472441 L 912.6085039370079 -61.3352125984252 L 909.4535433070866 -59.1664251968504 L 906.4176377952757 -56.83577952755906 L 903.5036220472441 -54.34894488188977 L 900.728503937008 -51.713291338582685 L 898.092283464567 -48.936188976377956 L 895.6062992125985 -46.02472440944882 L 893.2733858267718 -42.987118110236224 L 891.104881889764 -39.83159055118111 L 889.1064566929134 -36.566929133858274 L 887.2781102362205 -33.202204724409455 L 885.6311811023622 -29.746204724409452 L 884.1656692913386 -26.208793700787403 L 882.8872440944883 -22.599581102362205 L 881.7987401574804 -18.928403149606304 L 880.9058267716537 -15.205379527559057 L 880.2085039370079 -11.440629921259843 L 879.7067716535435 -7.644529133858269 L 879.4062992125986 -3.8275370078740165 L 879.3070866141733 0 L 879.4062992125986 3.8275370078740165 L 879.7067716535435 7.644529133858269 L 880.2085039370079 11.440629921259843 L 880.9058267716537 15.205379527559057 L 881.7987401574804 18.928403149606304 L 882.8872440944883 22.599581102362205 L 884.1656692913386 26.208793700787403 L 885.6311811023622 29.746204724409452 L 887.2781102362205 33.202204724409455 L 889.1064566929134 36.566929133858274 L 891.104881889764 39.83159055118111 L 893.2733858267718 42.987118110236224 L 895.6062992125985 46.02472440944882 L 898.092283464567 48.936188976377956 L 900.728503937008 51.713291338582685 L 903.5036220472441 54.34894488188977 L 906.4176377952757 56.83577952755906 L 909.4535433070866 59.1664251968504 L 912.6085039370079 61.3352125984252 L 915.8740157480316 63.3356220472441 L 919.2387401574804 65.16283464566929 L 922.6941732283465 66.81118110236221 L 926.2318110236222 68.27640944881891 L 929.8403149606299 69.55426771653543 L 933.5111811023623 70.64192125984252 L 937.2359055118112 71.53568503937008 L 941.00031496063 72.23329133858267 L 944.7959055118112 72.73332283464568 L 948.6141732283465 73.03351181102363 L 952.4409448818899 73.13385826771655 z" stroke="black" fill="lightgray" stroke-width="0.5" class="active"/><path d="M 935.4330708661419 -45.35433070866142 L 935.4330708661419 -56.69291338582678 L 969.4488188976379 -56.69291338582678 L 969.4488188976379 -45.35433070866142 z" stroke="black" fill="lightgray" stroke-width="0.5" class="active"/><path d="M 948.8948031496064 22.397952755905514 L 945.4337007874017 21.567231496062995 L 942.1455118110237 20.20549606299213 L 939.112440944882 18.34616692913386 L 936.4053543307089 16.03516535433071 L 934.0951181102364 13.329269291338585 L 932.2355905511812 10.295177952755907 L 930.8749606299214 7.007584251968504 L 930.0415748031497 3.547445669291339 L 929.7637795275591 0 L 930.0415748031497 -3.547445669291339 L 930.8749606299214 -7.007584251968504 L 932.2355905511812 -10.295177952755907 L 934.0951181102364 -13.329269291338585 L 936.4053543307089 -16.03516535433071 L 939.112440944882 -18.34616692913386 L 942.1455118110237 -20.20549606299213 L 945.4337007874017 -21.567231496062995 L 948.8948031496064 -22.397952755905514 L 952.4409448818899 -22.67716535433071 L 955.9870866141732 -22.397952755905514 L 959.448188976378 -21.567231496062995 L 962.736377952756 -20.20549606299213 L 965.7694488188978 -18.34616692913386 L 968.4765354330709 -16.03516535433071 L 970.7867716535434 -13.329269291338585 L 972.6462992125985 -10.295177952755907 L 974.0069291338584 -7.007584251968504 L 974.8403149606299 -3.547445669291339 L 975.1181102362206 0 L 974.8403149606299 3.547445669291339 L 974.0069291338584 7.007584251968504 L 972.6462992125985 10.295177952755907 L 970.7867716535434 13.329269291338585 L 968.4765354330709 16.03516535433071 L 965.7694488188978 18.34616692913386 L 962.736377952756 20.20549606299213 L 959.448188976378 21.567231496062995 L 955.9870866141732 22.397952755905514 L 952.4409448818899 22.67716535433071 z" stroke="black" fill="lightgray" stroke-width="0.5" class="active"/><path d="M 935.4330708661419 56.69291338582678 L 935.4330708661419 45.35433070866142 L 969.4488188976379 45.35433070866142 L 969.4488188976379 56.69291338582678 z" stroke="black" fill="lightgray" stroke-width="0.5" class="active"/></g><g transform="translate(-148.11155299999984 1023.5501293000002) rotate(270)"><path d="M 652.0507086614174 675.5414173228347 L 660.3618897637797 673.316220472441 L 668.3952755905513 670.2321259842521 L 676.0629921259844 666.3259842519685 L 683.2800000000001 661.6374803149607 L 689.9669291338583 656.2233070866142 L 696.0500787401576 650.140157480315 L 701.4642519685041 643.4532283464567 L 706.1527559055119 636.236220472441 L 710.0588976377953 628.5685039370079 L 713.1429921259843 620.5351181102363 L 715.3681889763781 612.2239370078742 L 716.7146456692915 603.7256692913386 L 717.1653543307087 595.1338582677166 L 716.7146456692915 586.5420472440945 L 715.3681889763781 578.0437795275591 L 713.1429921259843 569.7325984251969 L 710.0588976377953 561.6992125984252 L 706.1527559055119 554.0314960629921 L 701.4642519685041 546.8144881889764 L 696.0500787401576 540.1275590551181 L 689.9669291338583 534.044409448819 L 683.2800000000001 528.6302362204725 L 676.0629921259844 523.9417322834646 L 668.3952755905513 520.0355905511811 L 660.3618897637797 516.9514960629922 L 652.0507086614174 514.7262992125985 L 643.5524409448819 513.3798425196851 L 634.9606299212599 512.9291338582677 L 626.3688188976379 513.3798425196851 L 617.8705511811024 514.7262992125985 L 609.5593700787401 516.9514960629922 L 601.5259842519686 520.0355905511811 L 593.8582677165355 523.9417322834646 L 586.6412598425197 528.6302362204725 L 579.9543307086615 534.044409448819 L 573.8711811023622 540.1275590551181 L 568.4570078740157 546.8144881889764 L 563.768503937008 554.0314960629921 L 559.8623622047245 561.6992125984252 L 556.7782677165355 569.7325984251969 L 554.5530708661418 578.0437795275591 L 553.2066141732283 586.5420472440945 L 552.7559055118111 595.1338582677166 L 553.2066141732283 603.7256692913386 L 554.5530708661418 612.2239370078742 L 556.7782677165355 620.5351181102363 L 559.8623622047245 628.5685039370079 L 563.768503937008 636.236220472441 L 568.4570078740157 643.4532283464567 L 573.8711811023622 650.140157480315 L 579.9543307086615 656.2233070866142 L 586.6412598425197 661.6374803149607 L 593.8582677165355 666.3259842519685 L 601.5259842519686 670.2321259842521 L 609.5593700787401 673.316220472441 L 617.8705511811024 675.5414173228347 L 618.6614173228347 675.6689763779528 L 618.6614173228347 666.9892913385828 L 615.8862992125985 666.3231496062992 L 612.1870866141733 665.2261417322835 L 608.5474015748032 663.9392125984253 L 604.984251968504 662.4623622047245 L 601.5004724409449 660.8012598425198 L 598.1102362204725 658.9615748031497 L 594.8192125984252 656.9433070866143 L 591.6415748031496 654.7577952755906 L 588.580157480315 652.4107086614174 L 585.6462992125985 649.9048818897638 L 582.8456692913387 647.2488188976379 L 580.1896062992126 644.448188976378 L 577.6837795275592 641.5143307086615 L 575.336692913386 638.4529133858268 L 573.1511811023622 635.2752755905512 L 571.1329133858269 631.9842519685039 L 569.2932283464568 628.5940157480316 L 567.632125984252 625.1102362204725 L 566.1552755905512 621.5470866141733 L 564.868346456693 617.9074015748032 L 563.7713385826772 614.208188976378 L 562.8699212598426 610.4579527559056 L 562.1669291338583 606.6623622047244 L 561.6623622047244 602.8384251968505 L 561.3618897637796 598.9918110236222 L 561.2598425196851 595.1338582677166 L 561.3618897637796 591.2759055118111 L 561.6623622047244 587.4292913385827 L 562.1669291338583 583.6053543307088 L 562.8699212598426 579.8097637795277 L 563.7713385826772 576.0595275590551 L 564.868346456693 572.3603149606299 L 566.1552755905512 568.72062992126 L 567.632125984252 565.1574803149607 L 569.2932283464568 561.6737007874016 L 571.1329133858269 558.2834645669292 L 573.1511811023622 554.9924409448819 L 575.336692913386 551.8148031496064 L 577.6837795275592 548.7533858267717 L 580.1896062992126 545.8195275590551 L 582.8456692913387 543.0188976377954 L 585.6462992125985 540.3628346456693 L 588.580157480315 537.8570078740158 L 591.6415748031496 535.5099212598426 L 594.8192125984252 533.324409448819 L 598.1102362204725 531.3061417322835 L 601.5004724409449 529.4664566929134 L 604.984251968504 527.8053543307087 L 608.5474015748032 526.3285039370079 L 612.1870866141733 525.0415748031497 L 615.8862992125985 523.944566929134 L 619.6365354330709 523.0431496062993 L 623.432125984252 522.340157480315 L 627.2560629921261 521.8355905511812 L 631.1026771653544 521.5351181102362 L 634.9606299212599 521.4330708661417 L 638.8185826771654 521.5351181102362 L 642.6651968503937 521.8355905511812 L 646.4891338582678 522.340157480315 L 650.2847244094489 523.0431496062993 L 654.0349606299213 523.944566929134 L 657.7341732283465 525.0415748031497 L 661.3738582677166 526.3285039370079 L 664.9370078740158 527.8053543307087 L 668.4207874015749 529.4664566929134 L 671.8110236220473 531.3061417322835 L 675.1020472440946 533.324409448819 L 678.2796850393702 535.5099212598426 L 681.3411023622048 537.8570078740158 L 684.2749606299213 540.3628346456693 L 687.0755905511811 543.0188976377954 L 689.7316535433072 545.8195275590551 L 692.2374803149606 548.7533858267717 L 694.5845669291339 551.8148031496064 L 696.7700787401576 554.9924409448819 L 698.7883464566929 558.2834645669292 L 700.628031496063 561.6737007874016 L 702.2891338582679 565.1574803149607 L 703.7659842519686 568.72062992126 L 705.0529133858269 572.3603149606299 L 706.1499212598426 576.0595275590551 L 707.0513385826772 579.8097637795277 L 707.7543307086615 583.6053543307088 L 708.2588976377954 587.4292913385827 L 708.5593700787402 591.2759055118111 L 708.6614173228347 595.1338582677166 L 708.5593700787402 598.9918110236222 L 708.2588976377954 602.8384251968505 L 707.7543307086615 606.6623622047244 L 707.0513385826772 610.4579527559056 L 706.1499212598426 614.208188976378 L 705.0529133858269 617.9074015748032 L 703.7659842519686 621.5470866141733 L 702.2891338582679 625.1102362204725 L 700.628031496063 628.5940157480316 L 698.7883464566929 631.9842519685039 L 696.7700787401576 635.2752755905512 L 694.5845669291339 638.4529133858268 L 692.2374803149606 641.5143307086615 L 689.7316535433072 644.448188976378 L 687.0755905511811 647.2488188976379 L 684.2749606299213 649.9048818897638 L 681.3411023622048 652.4107086614174 L 678.2796850393702 654.7577952755906 L 675.1020472440946 656.9433070866143 L 671.8110236220473 658.9615748031497 L 668.4207874015749 660.8012598425198 L 664.9370078740158 662.4623622047245 L 661.3738582677166 663.9392125984253 L 657.7341732283465 665.2261417322835 L 654.0349606299213 666.3231496062992 L 651.2598425196851 666.9892913385828 L 651.2598425196851 675.6689763779528 z" stroke="black" fill="lightgray" stroke-width="0.5" class="active"/></g><g transform="translate(1048.6751843 152.13036889999995) rotate(90)"><path d="M 17.091297637795275 675.5414173228347 L 25.40264881889764 673.316220472441 L 33.43549606299213 670.2321259842521 L 41.102362204724415 666.3259842519685 L 48.3188031496063 661.6374803149607 L 55.005732283464575 656.2233070866142 L 61.090015748031504 650.140157480315 L 66.50503937007875 643.4532283464567 L 71.19127559055119 636.236220472441 L 75.09770078740158 628.5685039370079 L 78.1812283464567 620.5351181102363 L 80.4084094488189 612.2239370078742 L 81.75429921259844 603.7256692913386 L 82.20472440944883 595.1338582677166 L 81.75429921259844 586.5420472440945 L 80.4084094488189 578.0437795275591 L 78.1812283464567 569.7325984251969 L 75.09770078740158 561.6992125984252 L 71.19127559055119 554.0314960629921 L 66.50503937007875 546.8144881889764 L 61.090015748031504 540.1275590551181 L 55.005732283464575 534.044409448819 L 48.3188031496063 528.6302362204725 L 41.102362204724415 523.9417322834646 L 33.43549606299213 520.0355905511811 L 25.40264881889764 516.9514960629922 L 17.091297637795275 514.7262992125985 L 8.592689763779529 513.3798425196851 L 0 512.9291338582677 L -8.592689763779529 513.3798425196851 L -17.091297637795275 514.7262992125985 L -25.40264881889764 516.9514960629922 L -33.43549606299213 520.0355905511811 L -41.102362204724415 523.9417322834646 L -48.3188031496063 528.6302362204725 L -55.005732283464575 534.044409448819 L -61.090015748031504 540.1275590551181 L -66.50503937007875 546.8144881889764 L -71.19127559055119 554.0314960629921 L -75.09770078740158 561.6992125984252 L -78.1812283464567 569.7325984251969 L -80.4084094488189 578.0437795275591 L -80.98270866141733 581.6692913385828 L -72.43455118110236 581.6692913385828 L -72.09014173228347 579.8097637795277 L -71.18957480314961 576.0595275590551 L -70.09370078740157 572.3603149606299 L -68.8056377952756 568.72062992126 L -67.32907086614173 565.1574803149607 L -65.66796850393702 561.6737007874016 L -63.82658267716536 558.2834645669292 L -61.81058267716536 554.9924409448819 L -59.62507086614174 551.8148031496064 L -57.27628346456694 548.7533858267717 L -54.77045669291339 545.8195275590551 L -52.1143937007874 543.0188976377954 L -49.315464566929144 540.3628346456693 L -46.38132283464568 537.8570078740158 L -43.320188976377956 535.5099212598426 L -40.140283464566934 533.324409448819 L -36.85039370078741 531.3061417322835 L -33.459307086614174 529.4664566929134 L -29.97666141732284 527.8053543307087 L -26.4120094488189 526.3285039370079 L -22.774790551181106 525.0415748031497 L -19.075152755905513 523.944566929134 L -15.323244094488192 523.0431496062993 L -11.529325984251969 522.340157480315 L -7.70380157480315 521.8355905511812 L -3.8571874015748033 521.5351181102362 L 0 521.4330708661417 L 3.8571874015748033 521.5351181102362 L 7.70380157480315 521.8355905511812 L 11.529325984251969 522.340157480315 L 15.323244094488192 523.0431496062993 L 19.075152755905513 523.944566929134 L 22.774790551181106 525.0415748031497 L 26.4120094488189 526.3285039370079 L 29.97666141732284 527.8053543307087 L 33.459307086614174 529.4664566929134 L 36.85039370078741 531.3061417322835 L 40.140283464566934 533.324409448819 L 43.320188976377956 535.5099212598426 L 46.38132283464568 537.8570078740158 L 49.315464566929144 540.3628346456693 L 52.1143937007874 543.0188976377954 L 54.77045669291339 545.8195275590551 L 57.27628346456694 548.7533858267717 L 59.62507086614174 551.8148031496064 L 61.81058267716536 554.9924409448819 L 63.82658267716536 558.2834645669292 L 65.66796850393702 561.6737007874016 L 67.32907086614173 565.1574803149607 L 68.8056377952756 568.72062992126 L 70.09370078740157 572.3603149606299 L 71.18957480314961 576.0595275590551 L 72.09014173228347 579.8097637795277 L 72.79341732283466 583.6053543307088 L 73.29713385826773 587.4292913385827 L 73.59987401574804 591.2759055118111 L 73.70078740157481 595.1338582677166 L 73.59987401574804 598.9918110236222 L 73.29713385826773 602.8384251968505 L 72.79341732283466 606.6623622047244 L 72.09014173228347 610.4579527559056 L 71.18957480314961 614.208188976378 L 70.09370078740157 617.9074015748032 L 68.8056377952756 621.5470866141733 L 67.32907086614173 625.1102362204725 L 65.66796850393702 628.5940157480316 L 63.82658267716536 631.9842519685039 L 61.81058267716536 635.2752755905512 L 59.62507086614174 638.4529133858268 L 57.27628346456694 641.5143307086615 L 54.77045669291339 644.448188976378 L 52.1143937007874 647.2488188976379 L 49.315464566929144 649.9048818897638 L 46.38132283464568 652.4107086614174 L 43.320188976377956 654.7577952755906 L 40.140283464566934 656.9433070866143 L 36.85039370078741 658.9615748031497 L 33.459307086614174 660.8012598425198 L 29.97666141732284 662.4623622047245 L 26.4120094488189 663.9392125984253 L 22.774790551181106 665.2261417322835 L 19.075152755905513 666.3231496062992 L 16.2992125984252 666.9892913385828 L 16.2992125984252 675.6689763779528 z" stroke="black" fill="lightgray" stroke-width="0.5" class="active"/></g><g transform="translate(-464.590366 -270.02058209999996) rotate(0)"><path d="M 969.5310236220473 675.5414173228347 L 977.8422047244096 673.316220472441 L 985.8755905511813 670.2321259842521 L 993.5433070866143 666.3259842519685 L 1000.76031496063 661.6374803149607 L 1007.4472440944883 656.2233070866142 L 1013.5303937007875 650.140157480315 L 1018.944566929134 643.4532283464567 L 1023.6330708661419 636.236220472441 L 1027.5392125984254 628.5685039370079 L 1030.6233070866144 620.5351181102363 L 1032.848503937008 612.2239370078742 L 1034.1949606299213 603.7256692913386 L 1034.6456692913387 595.1338582677166 L 1034.1949606299213 586.5420472440945 L 1032.848503937008 578.0437795275591 L 1030.6233070866144 569.7325984251969 L 1027.5392125984254 561.6992125984252 L 1023.6330708661419 554.0314960629921 L 1018.944566929134 546.8144881889764 L 1013.5303937007875 540.1275590551181 L 1007.4472440944883 534.044409448819 L 1000.76031496063 528.6302362204725 L 993.5433070866143 523.9417322834646 L 985.8755905511813 520.0355905511811 L 977.8422047244096 516.9514960629922 L 969.5310236220473 514.7262992125985 L 961.032755905512 513.3798425196851 L 952.4409448818899 512.9291338582677 L 943.8491338582678 513.3798425196851 L 935.3508661417324 514.7262992125985 L 927.0396850393702 516.9514960629922 L 919.0062992125985 520.0355905511811 L 911.3385826771655 523.9417322834646 L 904.1215748031498 528.6302362204725 L 897.4346456692915 534.044409448819 L 891.3514960629923 540.1275590551181 L 885.9373228346457 546.8144881889764 L 881.2488188976379 554.0314960629921 L 877.3426771653544 561.6992125984252 L 874.2585826771654 569.7325984251969 L 872.0333858267718 578.0437795275591 L 871.4579527559056 581.6692913385828 L 880.0072440944883 581.6692913385828 L 880.3502362204725 579.8097637795277 L 881.2516535433073 576.0595275590551 L 882.348661417323 572.3603149606299 L 883.6355905511812 568.72062992126 L 885.112440944882 565.1574803149607 L 886.7735433070867 561.6737007874016 L 888.6132283464568 558.2834645669292 L 890.6314960629923 554.9924409448819 L 892.8170078740159 551.8148031496064 L 895.164094488189 548.7533858267717 L 897.6699212598426 545.8195275590551 L 900.3259842519686 543.0188976377954 L 903.1266141732285 540.3628346456693 L 906.0604724409449 537.8570078740158 L 909.1218897637797 535.5099212598426 L 912.2995275590553 533.324409448819 L 915.5905511811025 531.3061417322835 L 918.980787401575 529.4664566929134 L 922.464566929134 527.8053543307087 L 926.0277165354332 526.3285039370079 L 929.6674015748033 525.0415748031497 L 933.3666141732285 523.944566929134 L 937.1168503937008 523.0431496062993 L 940.912440944882 522.340157480315 L 944.7363779527559 521.8355905511812 L 948.5829921259843 521.5351181102362 L 952.4409448818899 521.4330708661417 L 956.2988976377953 521.5351181102362 L 960.1455118110238 521.8355905511812 L 963.9694488188977 522.340157480315 L 967.7650393700789 523.0431496062993 L 971.5152755905513 523.944566929134 L 975.2144881889765 525.0415748031497 L 978.8541732283466 526.3285039370079 L 982.4173228346457 527.8053543307087 L 985.9011023622047 529.4664566929134 L 989.2913385826772 531.3061417322835 L 992.5823622047245 533.324409448819 L 995.7600000000001 535.5099212598426 L 998.8214173228348 537.8570078740158 L 1001.7552755905513 540.3628346456693 L 1004.5559055118111 543.0188976377954 L 1007.2119685039371 545.8195275590551 L 1009.7177952755907 548.7533858267717 L 1012.0648818897639 551.8148031496064 L 1014.2503937007875 554.9924409448819 L 1016.268661417323 558.2834645669292 L 1018.108346456693 561.6737007874016 L 1019.7694488188978 565.1574803149607 L 1021.2462992125986 568.72062992126 L 1022.5332283464568 572.3603149606299 L 1023.6302362204725 576.0595275590551 L 1024.5316535433071 579.8097637795277 L 1025.2346456692915 583.6053543307088 L 1025.7392125984254 587.4292913385827 L 1026.0396850393702 591.2759055118111 L 1026.1417322834648 595.1338582677166 L 1026.0396850393702 598.9918110236222 L 1025.7392125984254 602.8384251968505 L 1025.2346456692915 606.6623622047244 L 1024.5316535433071 610.4579527559056 L 1023.6302362204725 614.208188976378 L 1022.5332283464568 617.9074015748032 L 1021.2462992125986 621.5470866141733 L 1019.7694488188978 625.1102362204725 L 1018.108346456693 628.5940157480316 L 1016.268661417323 631.9842519685039 L 1014.2503937007875 635.2752755905512 L 1012.0648818897639 638.4529133858268 L 1009.7177952755907 641.5143307086615 L 1007.2119685039371 644.448188976378 L 1004.5559055118111 647.2488188976379 L 1001.7552755905513 649.9048818897638 L 998.8214173228348 652.4107086614174 L 995.7600000000001 654.7577952755906 L 992.5823622047245 656.9433070866143 L 989.2913385826772 658.9615748031497 L 985.9011023622047 660.8012598425198 L 982.4173228346457 662.4623622047245 L 978.8541732283466 663.9392125984253 L 975.2144881889765 665.2261417322835 L 971.5152755905513 666.3231496062992 L 968.740157480315 666.9892913385828 L 968.740157480315 675.6689763779528 z" stroke="black" fill="lightgray" stroke-width="0.5" class="active"/></g><g transform="translate(91.6503473 82.61728179999989) rotate(0)"><path d="M -16.2992125984252 666.9892913385828 L -19.075152755905513 666.3231496062992 L -22.774790551181106 665.2261417322835 L -26.4120094488189 663.9392125984253 L -29.97666141732284 662.4623622047245 L -33.459307086614174 660.8012598425198 L -36.85039370078741 658.9615748031497 L -40.140283464566934 656.9433070866143 L -43.320188976377956 654.7577952755906 L -46.38132283464568 652.4107086614174 L -49.315464566929144 649.9048818897638 L -52.1143937007874 647.2488188976379 L -54.77045669291339 644.448188976378 L -57.27628346456694 641.5143307086615 L -59.62507086614174 638.4529133858268 L -61.81058267716536 635.2752755905512 L -63.82658267716536 631.9842519685039 L -65.66796850393702 628.5940157480316 L -67.32907086614173 625.1102362204725 L -68.8056377952756 621.5470866141733 L -70.09370078740157 617.9074015748032 L -71.18957480314961 614.208188976378 L -72.09014173228347 610.4579527559056 L -72.43455118110236 608.5984251968504 L -80.98270866141733 608.5984251968504 L -80.4084094488189 612.2239370078742 L -78.1812283464567 620.5351181102363 L -75.09770078740158 628.5685039370079 L -71.19127559055119 636.236220472441 L -66.50503937007875 643.4532283464567 L -61.090015748031504 650.140157480315 L -55.005732283464575 656.2233070866142 L -48.3188031496063 661.6374803149607 L -41.102362204724415 666.3259842519685 L -33.43549606299213 670.2321259842521 L -25.40264881889764 673.316220472441 L -17.091297637795275 675.5414173228347 L -16.2992125984252 675.6689763779528 z" stroke="black" fill="lightgray" stroke-width="0.5" class="active"/></g><g transform="translate(768.3523502 -178.60231879999992) rotate(90)"><path d="M 936.1417322834646 666.9892913385828 L 933.3666141732285 666.3231496062992 L 929.6674015748033 665.2261417322835 L 926.0277165354332 663.9392125984253 L 922.464566929134 662.4623622047245 L 918.980787401575 660.8012598425198 L 915.5905511811025 658.9615748031497 L 912.2995275590553 656.9433070866143 L 909.1218897637797 654.7577952755906 L 906.0604724409449 652.4107086614174 L 903.1266141732285 649.9048818897638 L 900.3259842519686 647.2488188976379 L 897.6699212598426 644.448188976378 L 895.164094488189 641.5143307086615 L 892.8170078740159 638.4529133858268 L 890.6314960629923 635.2752755905512 L 888.6132283464568 631.9842519685039 L 886.7735433070867 628.5940157480316 L 885.112440944882 625.1102362204725 L 883.6355905511812 621.5470866141733 L 882.348661417323 617.9074015748032 L 881.2516535433073 614.208188976378 L 880.3502362204725 610.4579527559056 L 880.0072440944883 608.5984251968504 L 871.4579527559056 608.5984251968504 L 872.0333858267718 612.2239370078742 L 874.2585826771654 620.5351181102363 L 877.3426771653544 628.5685039370079 L 881.2488188976379 636.236220472441 L 885.9373228346457 643.4532283464567 L 891.3514960629923 650.140157480315 L 897.4346456692915 656.2233070866142 L 904.1215748031498 661.6374803149607 L 911.3385826771655 666.3259842519685 L 919.0062992125985 670.2321259842521 L 927.0396850393702 673.316220472441 L 935.3508661417324 675.5414173228347 L 936.1417322834646 675.6689763779528 z" stroke="black" fill="lightgray" stroke-width="0.5" class="active"/></g></g></svg>