<?xml version="1.0" standalone="no"?>
<!DOCTYPE svg PUBLIC "-//W3C//DTD SVG 1.1//EN" "http://www.w3.org/Graphics/SVG/1.1/DTD/svg11.dtd">
<svg width="696mm" height="568mm" viewBox="-80 -108 696 568" xmlns="http://www.w3.org/2000/svg" version="1.1">
<title>OpenSCAD Model</title>
<path d="
M 34.0549,107.363 L 36.6395,106.954 L 39.1671,106.276 L 41.6101,105.339 L 43.9417,104.151 L 46.1363,102.725
 L 48.1699,101.079 L 50.0203,99.2283 L 51.4975,97.4253 L 75.0558,65.7687 L 76.5061,63.5906 L 77.7207,61.2727
 L 78.6864,58.8406 L 79.3926,56.3209 L 79.8315,53.7412 L 80,50.8435 L 80,-50.8435 L 79.8631,-53.4567
 L 79.4537,-56.0413 L 78.7764,-58.5689 L 77.8386,-61.0119 L 76.6506,-63.3435 L 75.0558,-65.7687 L 51.4975,-97.4253
 L 49.8275,-99.4399 L 47.9561,-101.269 L 45.9037,-102.892 L 43.6929,-104.292 L 41.3479,-105.454 L 38.8943,-106.363
 L 36.3591,-107.012 L 33.77,-107.391 L 31.4417,-107.5 L -31.4417,-107.5 L -34.0549,-107.363 L -36.6395,-106.954
 L -39.1671,-106.276 L -41.6101,-105.339 L -43.9417,-104.151 L -46.1363,-102.725 L -48.1699,-101.079 L -50.0203,-99.2283
 L -51.4975,-97.4253 L -75.0558,-65.7687 L -76.5061,-63.5906 L -77.7207,-61.2727 L -78.6864,-58.8406 L -79.3926,-56.3209
 L -79.8315,-53.7412 L -80,-50.8435 L -80,50.8435 L -79.8631,53.4567 L -79.4537,56.0413 L -78.7764,58.5689
 L -77.8386,61.0119 L -76.6506,63.3435 L -75.0558,65.7687 L -51.4975,97.4253 L -49.8275,99.4399 L -47.9561,101.269
 L -45.9037,102.892 L -43.6929,104.292 L -41.3479,105.454 L -38.8943,106.363 L -36.3591,107.012 L -33.77,107.391
 L -31.4417,107.5 L 31.4417,107.5 z
M -0.271759,-89.9892 L -0.540558,-90.0318 L -0.803436,-90.1022 L -1.05751,-90.1998 L -1.29999,-90.3233 L -1.52823,-90.4715
 L -1.73973,-90.6428 L -1.93217,-90.8353 L -2.10344,-91.0468 L -2.25166,-91.275 L -2.37521,-91.5175 L -2.47273,-91.7715
 L -2.54318,-92.0344 L -2.58575,-92.3032 L -2.59999,-92.575 L -2.58575,-92.8468 L -2.54318,-93.1156 L -2.47273,-93.3784
 L -2.37521,-93.6325 L -2.25166,-93.875 L -2.10344,-94.1032 L -1.93217,-94.3147 L -1.73973,-94.5072 L -1.52823,-94.6784
 L -1.29999,-94.8267 L -1.05751,-94.9502 L -0.803436,-95.0477 L -0.563873,-95.1119 L -0.610092,-95.1297 L -0.75,-95.201
 L -0.881668,-95.2865 L -1.00369,-95.3853 L -1.11472,-95.4963 L -1.21352,-95.6183 L -1.29903,-95.75 L -1.37032,-95.8899
 L -1.42657,-96.0365 L -1.46721,-96.1881 L -1.49178,-96.3432 L -1.5,-96.5 L -1.49178,-96.6568 L -1.46721,-96.8119
 L -1.42657,-96.9635 L -1.37032,-97.1101 L -1.29903,-97.25 L -1.21352,-97.3817 L -1.11472,-97.5037 L -1.00369,-97.6147
 L -0.881668,-97.7135 L -0.75,-97.799 L -0.610092,-97.8703 L -0.463516,-97.9266 L -0.311859,-97.9672 L -0.156784,-97.9918
 L 0,-98 L 0.156784,-97.9918 L 0.311859,-97.9672 L 0.463516,-97.9266 L 0.610092,-97.8703 L 0.75,-97.799
 L 0.881668,-97.7135 L 1.00369,-97.6147 L 1.11472,-97.5037 L 1.21352,-97.3817 L 1.29903,-97.25 L 1.37032,-97.1101
 L 1.42657,-96.9635 L 1.46721,-96.8119 L 1.49178,-96.6568 L 1.5,-96.5 L 1.49178,-96.3432 L 1.46721,-96.1881
 L 1.42657,-96.0365 L 1.37032,-95.8899 L 1.29903,-95.75 L 1.21352,-95.6183 L 1.11472,-95.4963 L 1.00369,-95.3853
 L 0.881668,-95.2865 L 0.75,-95.201 L 0.610092,-95.1297 L 0.563873,-95.1119 L 0.803436,-95.0477 L 1.05751,-94.9502
 L 1.29999,-94.8267 L 1.52823,-94.6784 L 1.73973,-94.5072 L 1.93217,-94.3147 L 2.10344,-94.1032 L 2.25166,-93.875
 L 2.37521,-93.6325 L 2.47273,-93.3784 L 2.54318,-93.1156 L 2.58575,-92.8468 L 2.59999,-92.575 L 2.58575,-92.3032
 L 2.54318,-92.0344 L 2.47273,-91.7715 L 2.37521,-91.5175 L 2.25166,-91.275 L 2.10344,-91.0468 L 1.93217,-90.8353
 L 1.73973,-90.6428 L 1.52823,-90.4715 L 1.29999,-90.3233 L 1.05751,-90.1998 L 0.803436,-90.1022 L 0.540558,-90.0318
 L 0.271759,-89.9892 L 0,-89.975 z
M -22.2222,82.5 L -24.3902,82.3425 L -25.9297,82.0346 L -27.4287,81.5674 L -28.8706,80.9462 L -30.2397,80.1775
 L -31.521,79.27 L -32.7003,78.2336 L -33.7649,77.0795 L -34.703,75.8205 L -52.4808,49.1539 L -52.9904,48.3334
 L -53.7032,46.9344 L -54.2659,45.4686 L -54.6722,43.9521 L -54.9178,42.4013 L -55,40.8334 L -55,-40.8334
 L -54.9689,-41.7988 L -54.786,-43.3582 L -54.4411,-44.8899 L -53.9379,-46.3772 L -53.2821,-47.8037 L -52.4808,-49.1539
 L -34.703,-75.8205 L -33.3694,-77.537 L -32.2592,-78.6472 L -31.039,-79.6353 L -29.7222,-80.4904 L -28.3233,-81.2032
 L -26.8575,-81.7659 L -25.3409,-82.1722 L -23.7902,-82.4178 L -22.2222,-82.5 L 22.2222,-82.5 L 24.3902,-82.3425
 L 25.9297,-82.0346 L 27.4287,-81.5674 L 28.8706,-80.9462 L 30.2397,-80.1775 L 31.521,-79.27 L 32.7003,-78.2336
 L 33.7649,-77.0795 L 34.703,-75.8205 L 52.4808,-49.1539 L 52.9904,-48.3334 L 53.7032,-46.9344 L 54.2659,-45.4686
 L 54.6722,-43.9521 L 54.9178,-42.4013 L 55,-40.8334 L 55,40.8334 L 54.9689,41.7988 L 54.786,43.3582
 L 54.4411,44.8899 L 53.9379,46.3772 L 53.2821,47.8037 L 52.4808,49.1539 L 34.703,75.8205 L 33.3694,77.537
 L 32.2592,78.6472 L 31.039,79.6353 L 29.7222,80.4904 L 28.3233,81.2032 L 26.8575,81.7659 L 25.3409,82.1722
 L 23.7902,82.4178 L 22.2222,82.5 z
M -69.1568,-46.7582 L -69.3119,-46.7828 L -69.4635,-46.8234 L -69.6101,-46.8797 L -69.75,-46.951 L -69.8817,-47.0365
 L -70.0037,-47.1353 L -70.1147,-47.2463 L -70.2135,-47.3683 L -70.299,-47.5 L -70.3703,-47.6399 L -70.4266,-47.7865
 L -70.4672,-47.9381 L -70.4918,-48.0932 L -70.5,-48.25 L -70.4918,-48.4068 L -70.4672,-48.5619 L -70.4266,-48.7135
 L -70.3703,-48.8601 L -70.299,-49 L -70.2135,-49.1317 L -70.1147,-49.2537 L -70.0037,-49.3647 L -69.8817,-49.4635
 L -69.75,-49.549 L -69.6101,-49.6203 L -69.4635,-49.6766 L -69.3119,-49.7172 L -69.1568,-49.7418 L -69,-49.75
 L -68.8432,-49.7418 L -68.6881,-49.7172 L -68.5365,-49.6766 L -68.3899,-49.6203 L -68.25,-49.549 L -68.1183,-49.4635
 L -67.9963,-49.3647 L -67.8853,-49.2537 L -67.7865,-49.1317 L -67.701,-49 L -67.6297,-48.8601 L -67.5734,-48.7135
 L -67.5328,-48.5619 L -67.5082,-48.4068 L -67.5,-48.25 L -67.5082,-48.0932 L -67.5328,-47.9381 L -67.5734,-47.7865
 L -67.6297,-47.6399 L -67.701,-47.5 L -67.7865,-47.3683 L -67.8853,-47.2463 L -67.9963,-47.1353 L -68.1183,-47.0365
 L -68.25,-46.951 L -68.3899,-46.8797 L -68.5365,-46.8234 L -68.6881,-46.7828 L -68.8432,-46.7582 L -69,-46.75
 z
M 68.8432,-46.7582 L 68.6881,-46.7828 L 68.5365,-46.8234 L 68.3899,-46.8797 L 68.25,-46.951 L 68.1183,-47.0365
 L 67.9963,-47.1353 L 67.8853,-47.2463 L 67.7865,-47.3683 L 67.701,-47.5 L 67.6297,-47.6399 L 67.5734,-47.7865
 L 67.5328,-47.9381 L 67.5082,-48.0932 L 67.5,-48.25 L 67.5082,-48.4068 L 67.5328,-48.5619 L 67.5734,-48.7135
 L 67.6297,-48.8601 L 67.701,-49 L 67.7865,-49.1317 L 67.8853,-49.2537 L 67.9963,-49.3647 L 68.1183,-49.4635
 L 68.25,-49.549 L 68.3899,-49.6203 L 68.5365,-49.6766 L 68.6881,-49.7172 L 68.8432,-49.7418 L 69,-49.75
 L 69.1568,-49.7418 L 69.3119,-49.7172 L 69.4635,-49.6766 L 69.6101,-49.6203 L 69.75,-49.549 L 69.8817,-49.4635
 L 70.0037,-49.3647 L 70.1147,-49.2537 L 70.2135,-49.1317 L 70.299,-49 L 70.3703,-48.8601 L 70.4266,-48.7135
 L 70.4672,-48.5619 L 70.4918,-48.4068 L 70.5,-48.25 L 70.4918,-48.0932 L 70.4672,-47.9381 L 70.4266,-47.7865
 L 70.3703,-47.6399 L 70.299,-47.5 L 70.2135,-47.3683 L 70.1147,-47.2463 L 70.0037,-47.1353 L 69.8817,-47.0365
 L 69.75,-46.951 L 69.6101,-46.8797 L 69.4635,-46.8234 L 69.3119,-46.7828 L 69.1568,-46.7582 L 69,-46.75
 z
M 64.8032,2.58575 L 64.5344,2.54318 L 64.2715,2.47273 L 64.0175,2.37521 L 63.775,2.25166 L 63.5468,2.10344
 L 63.3353,1.93217 L 63.1428,1.73973 L 62.9715,1.52823 L 62.8233,1.29999 L 62.6998,1.05751 L 62.6022,0.803436
 L 62.5318,0.540558 L 62.4892,0.271759 L 62.475,-0 L 62.4892,-0.271759 L 62.5318,-0.540558 L 62.6022,-0.803436
 L 62.6998,-1.05751 L 62.8233,-1.29999 L 62.9715,-1.52823 L 63.1428,-1.73973 L 63.3353,-1.93217 L 63.5468,-2.10344
 L 63.775,-2.25166 L 64.0175,-2.37521 L 64.2715,-2.47273 L 64.5344,-2.54318 L 64.8032,-2.58575 L 65.075,-2.59999
 L 65.3468,-2.58575 L 65.6156,-2.54318 L 65.8784,-2.47273 L 66.1325,-2.37521 L 66.375,-2.25166 L 66.6032,-2.10344
 L 66.8147,-1.93217 L 67.0072,-1.73973 L 67.1784,-1.52823 L 67.3267,-1.29999 L 67.4502,-1.05751 L 67.5477,-0.803436
 L 67.6182,-0.540558 L 67.6608,-0.271759 L 67.675,-0 L 67.6608,0.271759 L 67.6182,0.540558 L 67.5477,0.803436
 L 67.4502,1.05751 L 67.3267,1.29999 L 67.1784,1.52823 L 67.0072,1.73973 L 66.8147,1.93217 L 66.6032,2.10344
 L 66.375,2.25166 L 66.1325,2.37521 L 65.8784,2.47273 L 65.6156,2.54318 L 65.3468,2.58575 L 65.075,2.59999
 z
M -65.3468,2.58575 L -65.6156,2.54318 L -65.8784,2.47273 L -66.1325,2.37521 L -66.375,2.25166 L -66.6032,2.10344
 L -66.8147,1.93217 L -67.0072,1.73973 L -67.1784,1.52823 L -67.3267,1.29999 L -67.4502,1.05751 L -67.5477,0.803436
 L -67.6182,0.540558 L -67.6608,0.271759 L -67.675,-0 L -67.6608,-0.271759 L -67.6182,-0.540558 L -67.5477,-0.803436
 L -67.4502,-1.05751 L -67.3267,-1.29999 L -67.1784,-1.52823 L -67.0072,-1.73973 L -66.8147,-1.93217 L -66.6032,-2.10344
 L -66.375,-2.25166 L -66.1325,-2.37521 L -65.8784,-2.47273 L -65.6156,-2.54318 L -65.3468,-2.58575 L -65.075,-2.59999
 L -64.8032,-2.58575 L -64.5344,-2.54318 L -64.2715,-2.47273 L -64.0175,-2.37521 L -63.775,-2.25166 L -63.5468,-2.10344
 L -63.3353,-1.93217 L -63.1428,-1.73973 L -62.9715,-1.52823 L -62.8233,-1.29999 L -62.6998,-1.05751 L -62.6022,-0.803436
 L -62.5318,-0.540558 L -62.4892,-0.271759 L -62.475,-0 L -62.4892,0.271759 L -62.5318,0.540558 L -62.6022,0.803436
 L -62.6998,1.05751 L -62.8233,1.29999 L -62.9715,1.52823 L -63.1428,1.73973 L -63.3353,1.93217 L -63.5468,2.10344
 L -63.775,2.25166 L -64.0175,2.37521 L -64.2715,2.47273 L -64.5344,2.54318 L -64.8032,2.58575 L -65.075,2.59999
 z
M -69.1568,49.7418 L -69.3119,49.7172 L -69.4635,49.6766 L -69.6101,49.6203 L -69.75,49.549 L -69.8817,49.4635
 L -70.0037,49.3647 L -70.1147,49.2537 L -70.2135,49.1317 L -70.299,49 L -70.3703,48.8601 L -70.4266,48.7135
 L -70.4672,48.5619 L -70.4918,48.4068 L -70.5,48.25 L -70.4918,48.0932 L -70.4672,47.9381 L -70.4266,47.7865
 L -70.3703,47.6399 L -70.299,47.5 L -70.2135,47.3683 L -70.1147,47.2463 L -70.0037,47.1353 L -69.8817,47.0365
 L -69.75,46.951 L -69.6101,46.8797 L -69.4635,46.8234 L -69.3119,46.7828 L -69.1568,46.7582 L -69,46.75
 L -68.8432,46.7582 L -68.6881,46.7828 L -68.5365,46.8234 L -68.3899,46.8797 L -68.25,46.951 L -68.1183,47.0365
 L -67.9963,47.1353 L -67.8853,47.2463 L -67.7865,47.3683 L -67.701,47.5 L -67.6297,47.6399 L -67.5734,47.7865
 L -67.5328,47.9381 L -67.5082,48.0932 L -67.5,48.25 L -67.5082,48.4068 L -67.5328,48.5619 L -67.5734,48.7135
 L -67.6297,48.8601 L -67.701,49 L -67.7865,49.1317 L -67.8853,49.2537 L -67.9963,49.3647 L -68.1183,49.4635
 L -68.25,49.549 L -68.3899,49.6203 L -68.5365,49.6766 L -68.6881,49.7172 L -68.8432,49.7418 L -69,49.75
 z
M 68.8432,49.7418 L 68.6881,49.7172 L 68.5365,49.6766 L 68.3899,49.6203 L 68.25,49.549 L 68.1183,49.4635
 L 67.9963,49.3647 L 67.8853,49.2537 L 67.7865,49.1317 L 67.701,49 L 67.6297,48.8601 L 67.5734,48.7135
 L 67.5328,48.5619 L 67.5082,48.4068 L 67.5,48.25 L 67.5082,48.0932 L 67.5328,47.9381 L 67.5734,47.7865
 L 67.6297,47.6399 L 67.701,47.5 L 67.7865,47.3683 L 67.8853,47.2463 L 67.9963,47.1353 L 68.1183,47.0365
 L 68.25,46.951 L 68.3899,46.8797 L 68.5365,46.8234 L 68.6881,46.7828 L 68.8432,46.7582 L 69,46.75
 L 69.1568,46.7582 L 69.3119,46.7828 L 69.4635,46.8234 L 69.6101,46.8797 L 69.75,46.951 L 69.8817,47.0365
 L 70.0037,47.1353 L 70.1147,47.2463 L 70.2135,47.3683 L 70.299,47.5 L 70.3703,47.6399 L 70.4266,47.7865
 L 70.4672,47.9381 L 70.4918,48.0932 L 70.5,48.25 L 70.4918,48.4068 L 70.4672,48.5619 L 70.4266,48.7135
 L 70.3703,48.8601 L 70.299,49 L 70.2135,49.1317 L 70.1147,49.2537 L 70.0037,49.3647 L 69.8817,49.4635
 L 69.75,49.549 L 69.6101,49.6203 L 69.4635,49.6766 L 69.3119,49.7172 L 69.1568,49.7418 L 69,49.75
 z
M -0.156784,97.9918 L -0.311859,97.9672 L -0.463516,97.9266 L -0.610092,97.8703 L -0.75,97.799 L -0.881668,97.7135
 L -1.00369,97.6147 L -1.11472,97.5037 L -1.21352,97.3817 L -1.29903,97.25 L -1.37032,97.1101 L -1.42657,96.9635
 L -1.46721,96.8119 L -1.49178,96.6568 L -1.5,96.5 L -1.49178,96.3432 L -1.46721,96.1881 L -1.42657,96.0365
 L -1.37032,95.8899 L -1.29903,95.75 L -1.21352,95.6183 L -1.11472,95.4963 L -1.00369,95.3853 L -0.881668,95.2865
 L -0.75,95.201 L -0.610092,95.1297 L -0.463516,95.0734 L -0.311859,95.0328 L -0.156784,95.0082 L 0,95
 L 0.156784,95.0082 L 0.311859,95.0328 L 0.463516,95.0734 L 0.610092,95.1297 L 0.75,95.201 L 0.881668,95.2865
 L 1.00369,95.3853 L 1.11472,95.4963 L 1.21352,95.6183 L 1.29903,95.75 L 1.37032,95.8899 L 1.42657,96.0365
 L 1.46721,96.1881 L 1.49178,96.3432 L 1.5,96.5 L 1.49178,96.6568 L 1.46721,96.8119 L 1.42657,96.9635
 L 1.37032,97.1101 L 1.29903,97.25 L 1.21352,97.3817 L 1.11472,97.5037 L 1.00369,97.6147 L 0.881668,97.7135
 L 0.75,97.799 L 0.610092,97.8703 L 0.463516,97.9266 L 0.311859,97.9672 L 0.156784,97.9918 L 0,98
 z
M 209.055,107.363 L 211.639,106.954 L 214.167,106.276 L 216.61,105.339 L 218.942,104.151 L 221.136,102.725
 L 223.17,101.079 L 225.02,99.2283 L 226.497,97.4253 L 250.056,65.7687 L 251.506,63.5906 L 252.721,61.2727
 L 253.686,58.8406 L 254.393,56.3209 L 254.831,53.7412 L 255,50.8435 L 255,-50.8435 L 254.863,-53.4567
 L 254.454,-56.0413 L 253.776,-58.5689 L 252.839,-61.0119 L 251.651,-63.3435 L 250.056,-65.7687 L 226.497,-97.4253
 L 224.827,-99.4399 L 222.956,-101.269 L 220.904,-102.892 L 218.693,-104.292 L 216.348,-105.454 L 213.894,-106.363
 L 211.359,-107.012 L 208.77,-107.391 L 206.442,-107.5 L 143.558,-107.5 L 140.945,-107.363 L 138.361,-106.954
 L 135.833,-106.276 L 133.39,-105.339 L 131.058,-104.151 L 128.864,-102.725 L 126.83,-101.079 L 124.98,-99.2283
 L 123.503,-97.4253 L 99.9442,-65.7687 L 98.4939,-63.5906 L 97.2793,-61.2727 L 96.3136,-58.8406 L 95.6074,-56.3209
 L 95.1685,-53.7412 L 95,-50.8435 L 95,50.8435 L 95.1369,53.4567 L 95.5463,56.0413 L 96.2236,58.5689
 L 97.1614,61.0119 L 98.3494,63.3435 L 99.9442,65.7687 L 123.503,97.4253 L 125.173,99.4399 L 127.044,101.269
 L 129.096,102.892 L 131.307,104.292 L 133.652,105.454 L 136.106,106.363 L 138.641,107.012 L 141.23,107.391
 L 143.558,107.5 L 206.442,107.5 z
M 174.66,-89.3428 L 174.324,-89.396 L 173.996,-89.4841 L 173.678,-89.606 L 173.375,-89.7604 L 173.09,-89.9457
 L 172.825,-90.1598 L 172.585,-90.4003 L 172.371,-90.6647 L 172.185,-90.95 L 172.031,-91.2531 L 171.909,-91.5707
 L 171.821,-91.8993 L 171.768,-92.2353 L 171.75,-92.575 L 171.768,-92.9147 L 171.821,-93.2507 L 171.909,-93.5793
 L 172.031,-93.8969 L 172.185,-94.2 L 172.371,-94.4853 L 172.585,-94.7497 L 172.825,-94.9902 L 173.09,-95.2043
 L 173.375,-95.3896 L 173.678,-95.544 L 173.807,-95.5934 L 173.786,-95.6183 L 173.701,-95.75 L 173.63,-95.8899
 L 173.573,-96.0365 L 173.533,-96.1881 L 173.508,-96.3432 L 173.5,-96.5 L 173.508,-96.6568 L 173.533,-96.8119
 L 173.573,-96.9635 L 173.63,-97.1101 L 173.701,-97.25 L 173.786,-97.3817 L 173.885,-97.5037 L 173.996,-97.6147
 L 174.118,-97.7135 L 174.25,-97.799 L 174.39,-97.8703 L 174.536,-97.9266 L 174.688,-97.9672 L 174.843,-97.9918
 L 175,-98 L 175.157,-97.9918 L 175.312,-97.9672 L 175.464,-97.9266 L 175.61,-97.8703 L 175.75,-97.799
 L 175.882,-97.7135 L 176.004,-97.6147 L 176.115,-97.5037 L 176.214,-97.3817 L 176.299,-97.25 L 176.37,-97.1101
 L 176.427,-96.9635 L 176.467,-96.8119 L 176.492,-96.6568 L 176.5,-96.5 L 176.492,-96.3432 L 176.467,-96.1881
 L 176.427,-96.0365 L 176.37,-95.8899 L 176.299,-95.75 L 176.214,-95.6183 L 176.193,-95.5934 L 176.322,-95.544
 L 176.625,-95.3896 L 176.91,-95.2043 L 177.175,-94.9902 L 177.415,-94.7497 L 177.629,-94.4853 L 177.815,-94.2
 L 177.969,-93.8969 L 178.091,-93.5793 L 178.179,-93.2507 L 178.232,-92.9147 L 178.25,-92.575 L 178.232,-92.2353
 L 178.179,-91.8993 L 178.091,-91.5707 L 177.969,-91.2531 L 177.815,-90.95 L 177.629,-90.6647 L 177.415,-90.4003
 L 177.175,-90.1598 L 176.91,-89.9457 L 176.625,-89.7604 L 176.322,-89.606 L 176.004,-89.4841 L 175.676,-89.396
 L 175.34,-89.3428 L 175,-89.325 z
M 152.437,88.575 L 149.728,88.3995 L 147.566,88.0022 L 145.457,87.3811 L 143.425,86.5431 L 141.492,85.4971
 L 139.678,84.2549 L 138.005,82.8299 L 136.489,81.2377 L 135.148,79.4959 L 117.637,54.0989 L 116.738,52.678
 L 115.741,50.7195 L 114.953,48.6673 L 114.384,46.5441 L 114.04,44.3731 L 113.925,42.178 L 113.925,-42.178
 L 113.992,-43.8576 L 114.283,-46.0364 L 114.799,-48.173 L 115.536,-50.2439 L 116.485,-52.2265 L 117.637,-54.0989
 L 135.148,-79.4959 L 136.831,-81.6267 L 138.385,-83.181 L 140.093,-84.5643 L 141.937,-85.7615 L 143.895,-86.7594
 L 145.948,-87.5472 L 148.071,-88.1161 L 150.242,-88.46 L 152.437,-88.575 L 197.563,-88.575 L 200.272,-88.3995
 L 202.434,-88.0022 L 204.543,-87.3811 L 206.575,-86.5431 L 208.508,-85.4971 L 210.322,-84.2549 L 211.995,-82.8299
 L 213.511,-81.2377 L 214.852,-79.4959 L 232.363,-54.0989 L 233.262,-52.678 L 234.259,-50.7195 L 235.047,-48.6673
 L 235.616,-46.5441 L 235.96,-44.3731 L 236.075,-42.178 L 236.075,42.178 L 236.008,43.8576 L 235.717,46.0364
 L 235.201,48.173 L 234.464,50.2439 L 233.515,52.2265 L 232.363,54.0989 L 214.852,79.4959 L 213.169,81.6267
 L 211.615,83.181 L 209.907,84.5643 L 208.063,85.7615 L 206.105,86.7594 L 204.052,87.5472 L 201.929,88.1161
 L 199.758,88.46 L 197.563,88.575 z
M 243.843,-46.7582 L 243.688,-46.7828 L 243.536,-46.8234 L 243.39,-46.8797 L 243.25,-46.951 L 243.118,-47.0365
 L 242.996,-47.1353 L 242.885,-47.2463 L 242.786,-47.3683 L 242.701,-47.5 L 242.63,-47.6399 L 242.573,-47.7865
 L 242.533,-47.9381 L 242.508,-48.0932 L 242.5,-48.25 L 242.508,-48.4068 L 242.533,-48.5619 L 242.573,-48.7135
 L 242.63,-48.8601 L 242.701,-49 L 242.786,-49.1317 L 242.885,-49.2537 L 242.996,-49.3647 L 243.118,-49.4635
 L 243.25,-49.549 L 243.39,-49.6203 L 243.536,-49.6766 L 243.688,-49.7172 L 243.843,-49.7418 L 244,-49.75
 L 244.157,-49.7418 L 244.312,-49.7172 L 244.464,-49.6766 L 244.61,-49.6203 L 244.75,-49.549 L 244.882,-49.4635
 L 245.004,-49.3647 L 245.115,-49.2537 L 245.214,-49.1317 L 245.299,-49 L 245.37,-48.8601 L 245.427,-48.7135
 L 245.467,-48.5619 L 245.492,-48.4068 L 245.5,-48.25 L 245.492,-48.0932 L 245.467,-47.9381 L 245.427,-47.7865
 L 245.37,-47.6399 L 245.299,-47.5 L 245.214,-47.3683 L 245.115,-47.2463 L 245.004,-47.1353 L 244.882,-47.0365
 L 244.75,-46.951 L 244.61,-46.8797 L 244.464,-46.8234 L 244.312,-46.7828 L 244.157,-46.7582 L 244,-46.75
 z
M 105.843,-46.7582 L 105.688,-46.7828 L 105.536,-46.8234 L 105.39,-46.8797 L 105.25,-46.951 L 105.118,-47.0365
 L 104.996,-47.1353 L 104.885,-47.2463 L 104.786,-47.3683 L 104.701,-47.5 L 104.63,-47.6399 L 104.573,-47.7865
 L 104.533,-47.9381 L 104.508,-48.0932 L 104.5,-48.25 L 104.508,-48.4068 L 104.533,-48.5619 L 104.573,-48.7135
 L 104.63,-48.8601 L 104.701,-49 L 104.786,-49.1317 L 104.885,-49.2537 L 104.996,-49.3647 L 105.118,-49.4635
 L 105.25,-49.549 L 105.39,-49.6203 L 105.536,-49.6766 L 105.688,-49.7172 L 105.843,-49.7418 L 106,-49.75
 L 106.157,-49.7418 L 106.312,-49.7172 L 106.464,-49.6766 L 106.61,-49.6203 L 106.75,-49.549 L 106.882,-49.4635
 L 107.004,-49.3647 L 107.115,-49.2537 L 107.214,-49.1317 L 107.299,-49 L 107.37,-48.8601 L 107.427,-48.7135
 L 107.467,-48.5619 L 107.492,-48.4068 L 107.5,-48.25 L 107.492,-48.0932 L 107.467,-47.9381 L 107.427,-47.7865
 L 107.37,-47.6399 L 107.299,-47.5 L 107.214,-47.3683 L 107.115,-47.2463 L 107.004,-47.1353 L 106.882,-47.0365
 L 106.75,-46.951 L 106.61,-46.8797 L 106.464,-46.8234 L 106.312,-46.7828 L 106.157,-46.7582 L 106,-46.75
 z
M 109.585,3.23219 L 109.249,3.17897 L 108.921,3.09093 L 108.603,2.96901 L 108.3,2.81458 L 108.015,2.6293
 L 107.75,2.41521 L 107.51,2.17467 L 107.296,1.91029 L 107.11,1.625 L 106.956,1.32188 L 106.834,1.0043
 L 106.746,0.675705 L 106.693,0.339706 L 106.675,-0 L 106.693,-0.339706 L 106.746,-0.675705 L 106.834,-1.0043
 L 106.956,-1.32188 L 107.11,-1.625 L 107.296,-1.91029 L 107.51,-2.17467 L 107.75,-2.41521 L 108.015,-2.6293
 L 108.3,-2.81458 L 108.603,-2.96901 L 108.921,-3.09093 L 109.249,-3.17897 L 109.585,-3.23219 L 109.925,-3.25
 L 110.265,-3.23219 L 110.601,-3.17897 L 110.929,-3.09093 L 111.247,-2.96901 L 111.55,-2.81458 L 111.835,-2.6293
 L 112.1,-2.41521 L 112.34,-2.17467 L 112.554,-1.91029 L 112.74,-1.625 L 112.894,-1.32188 L 113.016,-1.0043
 L 113.104,-0.675705 L 113.157,-0.339706 L 113.175,-0 L 113.157,0.339706 L 113.104,0.675705 L 113.016,1.0043
 L 112.894,1.32188 L 112.74,1.625 L 112.554,1.91029 L 112.34,2.17467 L 112.1,2.41521 L 111.835,2.6293
 L 111.55,2.81458 L 111.247,2.96901 L 110.929,3.09093 L 110.601,3.17897 L 110.265,3.23219 L 109.925,3.25
 z
M 239.735,3.23219 L 239.399,3.17897 L 239.071,3.09093 L 238.753,2.96901 L 238.45,2.81458 L 238.165,2.6293
 L 237.9,2.41521 L 237.66,2.17467 L 237.446,1.91029 L 237.26,1.625 L 237.106,1.32188 L 236.984,1.0043
 L 236.896,0.675705 L 236.843,0.339706 L 236.825,-0 L 236.843,-0.339706 L 236.896,-0.675705 L 236.984,-1.0043
 L 237.106,-1.32188 L 237.26,-1.625 L 237.446,-1.91029 L 237.66,-2.17467 L 237.9,-2.41521 L 238.165,-2.6293
 L 238.45,-2.81458 L 238.753,-2.96901 L 239.071,-3.09093 L 239.399,-3.17897 L 239.735,-3.23219 L 240.075,-3.25
 L 240.415,-3.23219 L 240.751,-3.17897 L 241.079,-3.09093 L 241.397,-2.96901 L 241.7,-2.81458 L 241.985,-2.6293
 L 242.25,-2.41521 L 242.49,-2.17467 L 242.704,-1.91029 L 242.89,-1.625 L 243.044,-1.32188 L 243.166,-1.0043
 L 243.254,-0.675705 L 243.307,-0.339706 L 243.325,-0 L 243.307,0.339706 L 243.254,0.675705 L 243.166,1.0043
 L 243.044,1.32188 L 242.89,1.625 L 242.704,1.91029 L 242.49,2.17467 L 242.25,2.41521 L 241.985,2.6293
 L 241.7,2.81458 L 241.397,2.96901 L 241.079,3.09093 L 240.751,3.17897 L 240.415,3.23219 L 240.075,3.25
 z
M 105.843,49.7418 L 105.688,49.7172 L 105.536,49.6766 L 105.39,49.6203 L 105.25,49.549 L 105.118,49.4635
 L 104.996,49.3647 L 104.885,49.2537 L 104.786,49.1317 L 104.701,49 L 104.63,48.8601 L 104.573,48.7135
 L 104.533,48.5619 L 104.508,48.4068 L 104.5,48.25 L 104.508,48.0932 L 104.533,47.9381 L 104.573,47.7865
 L 104.63,47.6399 L 104.701,47.5 L 104.786,47.3683 L 104.885,47.2463 L 104.996,47.1353 L 105.118,47.0365
 L 105.25,46.951 L 105.39,46.8797 L 105.536,46.8234 L 105.688,46.7828 L 105.843,46.7582 L 106,46.75
 L 106.157,46.7582 L 106.312,46.7828 L 106.464,46.8234 L 106.61,46.8797 L 106.75,46.951 L 106.882,47.0365
 L 107.004,47.1353 L 107.115,47.2463 L 107.214,47.3683 L 107.299,47.5 L 107.37,47.6399 L 107.427,47.7865
 L 107.467,47.9381 L 107.492,48.0932 L 107.5,48.25 L 107.492,48.4068 L 107.467,48.5619 L 107.427,48.7135
 L 107.37,48.8601 L 107.299,49 L 107.214,49.1317 L 107.115,49.2537 L 107.004,49.3647 L 106.882,49.4635
 L 106.75,49.549 L 106.61,49.6203 L 106.464,49.6766 L 106.312,49.7172 L 106.157,49.7418 L 106,49.75
 z
M 243.843,49.7418 L 243.688,49.7172 L 243.536,49.6766 L 243.39,49.6203 L 243.25,49.549 L 243.118,49.4635
 L 242.996,49.3647 L 242.885,49.2537 L 242.786,49.1317 L 242.701,49 L 242.63,48.8601 L 242.573,48.7135
 L 242.533,48.5619 L 242.508,48.4068 L 242.5,48.25 L 242.508,48.0932 L 242.533,47.9381 L 242.573,47.7865
 L 242.63,47.6399 L 242.701,47.5 L 242.786,47.3683 L 242.885,47.2463 L 242.996,47.1353 L 243.118,47.0365
 L 243.25,46.951 L 243.39,46.8797 L 243.536,46.8234 L 243.688,46.7828 L 243.843,46.7582 L 244,46.75
 L 244.157,46.7582 L 244.312,46.7828 L 244.464,46.8234 L 244.61,46.8797 L 244.75,46.951 L 244.882,47.0365
 L 245.004,47.1353 L 245.115,47.2463 L 245.214,47.3683 L 245.299,47.5 L 245.37,47.6399 L 245.427,47.7865
 L 245.467,47.9381 L 245.492,48.0932 L 245.5,48.25 L 245.492,48.4068 L 245.467,48.5619 L 245.427,48.7135
 L 245.37,48.8601 L 245.299,49 L 245.214,49.1317 L 245.115,49.2537 L 245.004,49.3647 L 244.882,49.4635
 L 244.75,49.549 L 244.61,49.6203 L 244.464,49.6766 L 244.312,49.7172 L 244.157,49.7418 L 244,49.75
 z
M 174.843,97.9918 L 174.688,97.9672 L 174.536,97.9266 L 174.39,97.8703 L 174.25,97.799 L 174.118,97.7135
 L 173.996,97.6147 L 173.885,97.5037 L 173.786,97.3817 L 173.701,97.25 L 173.63,97.1101 L 173.573,96.9635
 L 173.533,96.8119 L 173.508,96.6568 L 173.5,96.5 L 173.508,96.3432 L 173.533,96.1881 L 173.573,96.0365
 L 173.63,95.8899 L 173.701,95.75 L 173.786,95.6183 L 173.885,95.4963 L 173.996,95.3853 L 174.118,95.2865
 L 174.25,95.201 L 174.39,95.1297 L 174.536,95.0734 L 174.688,95.0328 L 174.843,95.0082 L 175,95
 L 175.157,95.0082 L 175.312,95.0328 L 175.464,95.0734 L 175.61,95.1297 L 175.75,95.201 L 175.882,95.2865
 L 176.004,95.3853 L 176.115,95.4963 L 176.214,95.6183 L 176.299,95.75 L 176.37,95.8899 L 176.427,96.0365
 L 176.467,96.1881 L 176.492,96.3432 L 176.5,96.5 L 176.492,96.6568 L 176.467,96.8119 L 176.427,96.9635
 L 176.37,97.1101 L 176.299,97.25 L 176.214,97.3817 L 176.115,97.5037 L 176.004,97.6147 L 175.882,97.7135
 L 175.75,97.799 L 175.61,97.8703 L 175.464,97.9266 L 175.312,97.9672 L 175.157,97.9918 L 175,98
 z
M 383.025,101.396 L 384.989,101.085 L 386.91,100.57 L 388.767,99.8574 L 390.539,98.9545 L 392.207,97.8713
 L 393.752,96.6198 L 395.158,95.2135 L 396.392,93.6932 L 420.353,60.8275 L 421.439,59.1613 L 422.345,57.3908
 L 423.06,55.5353 L 423.578,53.6152 L 423.893,51.6514 L 424,49.6342 L 424,-49.6342 L 423.896,-51.6203
 L 423.585,-53.5845 L 423.07,-55.5055 L 422.357,-57.3622 L 421.454,-59.1342 L 420.353,-60.8275 L 396.392,-93.6932
 L 395.138,-95.2367 L 393.729,-96.6407 L 392.181,-97.8897 L 390.512,-98.9701 L 388.738,-99.8701 L 386.88,-100.58
 L 384.958,-101.091 L 382.994,-101.399 L 381.039,-101.5 L 318.961,-101.5 L 316.975,-101.396 L 315.011,-101.085
 L 313.09,-100.57 L 311.233,-99.8574 L 309.461,-98.9545 L 307.793,-97.8713 L 306.248,-96.6198 L 304.842,-95.2135
 L 303.608,-93.6932 L 279.647,-60.8275 L 278.561,-59.1613 L 277.655,-57.3908 L 276.94,-55.5353 L 276.422,-53.6152
 L 276.107,-51.6514 L 276,-49.6342 L 276,49.6342 L 276.104,51.6203 L 276.415,53.5845 L 276.93,55.5055
 L 277.643,57.3622 L 278.546,59.1342 L 279.647,60.8275 L 303.608,93.6932 L 304.862,95.2367 L 306.271,96.6407
 L 307.819,97.8897 L 309.488,98.9701 L 311.262,99.8701 L 313.12,100.58 L 315.042,101.091 L 317.006,101.399
 L 318.961,101.5 L 381.039,101.5 z
M 327.481,88.5 L 324.768,88.324 L 322.606,87.9263 L 320.497,87.3049 L 318.465,86.4664 L 316.532,85.4202
 L 314.719,84.1776 L 313.046,82.7523 L 311.53,81.1599 L 310.19,79.4178 L 292.709,54.0566 L 291.813,52.6388
 L 290.816,50.6803 L 290.028,48.6281 L 289.459,46.5049 L 289.115,44.3339 L 289,42.1388 L 289,-42.1388
 L 289.067,-43.8146 L 289.357,-45.9935 L 289.873,-48.1302 L 290.609,-50.2013 L 291.558,-52.184 L 292.709,-54.0566
 L 310.19,-79.4178 L 311.875,-81.5517 L 313.429,-83.106 L 315.137,-84.4893 L 316.981,-85.6865 L 318.939,-86.6844
 L 320.991,-87.4722 L 323.114,-88.0411 L 325.286,-88.385 L 327.481,-88.5 L 372.519,-88.5 L 375.232,-88.324
 L 377.394,-87.9263 L 379.503,-87.3049 L 381.535,-86.4664 L 383.468,-85.4202 L 385.281,-84.1776 L 386.954,-82.7523
 L 388.47,-81.1599 L 389.81,-79.4178 L 407.291,-54.0566 L 408.187,-52.6388 L 409.184,-50.6803 L 409.972,-48.6281
 L 410.541,-46.5049 L 410.885,-44.3339 L 411,-42.1388 L 411,42.1388 L 410.933,43.8146 L 410.643,45.9935
 L 410.127,48.1302 L 409.391,50.2013 L 408.442,52.184 L 407.291,54.0566 L 389.81,79.4178 L 388.125,81.5517
 L 386.571,83.106 L 384.863,84.4893 L 383.019,85.6865 L 381.061,86.6844 L 379.009,87.4722 L 376.886,88.0411
 L 374.714,88.385 L 372.519,88.5 z
M 34.0549,337.363 L 36.6395,336.954 L 39.1671,336.276 L 41.6101,335.339 L 43.9417,334.151 L 46.1363,332.725
 L 48.1699,331.079 L 50.0203,329.228 L 51.4975,327.425 L 75.0558,295.769 L 76.5061,293.591 L 77.7207,291.273
 L 78.6864,288.841 L 79.3926,286.321 L 79.8315,283.741 L 80,280.843 L 80,179.157 L 79.8631,176.543
 L 79.4537,173.959 L 78.7764,171.431 L 77.8386,168.988 L 76.6506,166.657 L 75.0558,164.231 L 51.4975,132.575
 L 49.8275,130.56 L 47.9561,128.731 L 45.9037,127.108 L 43.6929,125.708 L 41.3479,124.546 L 38.8943,123.637
 L 36.3591,122.988 L 33.77,122.609 L 31.4417,122.5 L -31.4417,122.5 L -34.0549,122.637 L -36.6395,123.046
 L -39.1671,123.724 L -41.6101,124.661 L -43.9417,125.849 L -46.1363,127.275 L -48.1699,128.921 L -50.0203,130.772
 L -51.4975,132.575 L -75.0558,164.231 L -76.5061,166.409 L -77.7207,168.727 L -78.6864,171.159 L -79.3926,173.679
 L -79.8315,176.259 L -80,179.157 L -80,280.843 L -79.8631,283.457 L -79.4537,286.041 L -78.7764,288.569
 L -77.8386,291.012 L -76.6506,293.343 L -75.0558,295.769 L -51.4975,327.425 L -49.8275,329.44 L -47.9561,331.269
 L -45.9037,332.892 L -43.6929,334.292 L -41.3479,335.454 L -38.8943,336.363 L -36.3591,337.012 L -33.77,337.391
 L -31.4417,337.5 L 31.4417,337.5 z
M -0.156784,134.992 L -0.311859,134.967 L -0.463516,134.927 L -0.610092,134.87 L -0.75,134.799 L -0.881668,134.714
 L -1.00369,134.615 L -1.11472,134.504 L -1.21352,134.382 L -1.29903,134.25 L -1.37032,134.11 L -1.42657,133.964
 L -1.46721,133.812 L -1.49178,133.657 L -1.5,133.5 L -1.49178,133.343 L -1.46721,133.188 L -1.42657,133.036
 L -1.37032,132.89 L -1.29903,132.75 L -1.21352,132.618 L -1.11472,132.496 L -1.00369,132.385 L -0.881668,132.286
 L -0.75,132.201 L -0.610092,132.13 L -0.463516,132.073 L -0.311859,132.033 L -0.156784,132.008 L 0,132
 L 0.156784,132.008 L 0.311859,132.033 L 0.463516,132.073 L 0.610092,132.13 L 0.75,132.201 L 0.881668,132.286
 L 1.00369,132.385 L 1.11472,132.496 L 1.21352,132.618 L 1.29903,132.75 L 1.37032,132.89 L 1.42657,133.036
 L 1.46721,133.188 L 1.49178,133.343 L 1.5,133.5 L 1.49178,133.657 L 1.46721,133.812 L 1.42657,133.964
 L 1.37032,134.11 L 1.29903,134.25 L 1.21352,134.382 L 1.11472,134.504 L 1.00369,134.615 L 0.881668,134.714
 L 0.75,134.799 L 0.610092,134.87 L 0.463516,134.927 L 0.311859,134.967 L 0.156784,134.992 L 0,135
 z
M -50,291.35 L -50,269.65 L -1,269.65 L -1,231 L -63.9573,231 L -63.9603,231.004
 L -64.0713,231.115 L -64.1933,231.214 L -64.325,231.299 L -64.4649,231.37 L -64.6115,231.427 L -64.7631,231.467
 L -64.9182,231.492 L -65.075,231.5 L -65.2318,231.492 L -65.3869,231.467 L -65.5385,231.427 L -65.6851,231.37
 L -65.825,231.299 L -65.9567,231.214 L -66.0787,231.115 L -66.1897,231.004 L -66.2885,230.882 L -66.374,230.75
 L -66.4453,230.61 L -66.5016,230.464 L -66.5422,230.312 L -66.5668,230.157 L -66.575,230 L -66.5668,229.843
 L -66.5422,229.688 L -66.5016,229.536 L -66.4453,229.39 L -66.374,229.25 L -66.2885,229.118 L -66.1897,228.996
 L -66.0787,228.885 L -65.9567,228.786 L -65.825,228.701 L -65.6851,228.63 L -65.5385,228.573 L -65.3869,228.533
 L -65.2318,228.508 L -65.075,228.5 L -64.9182,228.508 L -64.7631,228.533 L -64.6115,228.573 L -64.4649,228.63
 L -64.325,228.701 L -64.1933,228.786 L -64.0713,228.885 L -63.9603,228.996 L -63.9573,229 L -1,229
 L -1,138.543 L -1.00369,138.54 L -1.11472,138.429 L -1.21352,138.307 L -1.29903,138.175 L -1.37032,138.035
 L -1.42657,137.889 L -1.46721,137.737 L -1.49178,137.582 L -1.5,137.425 L -1.49178,137.268 L -1.46721,137.113
 L -1.42657,136.961 L -1.37032,136.815 L -1.29903,136.675 L -1.21352,136.543 L -1.11472,136.421 L -1.00369,136.31
 L -0.881668,136.211 L -0.75,136.126 L -0.610092,136.055 L -0.463516,135.998 L -0.311859,135.958 L -0.156784,135.933
 L 0,135.925 L 0.156784,135.933 L 0.311859,135.958 L 0.463516,135.998 L 0.610092,136.055 L 0.75,136.126
 L 0.881668,136.211 L 1.00369,136.31 L 1.11472,136.421 L 1.21352,136.543 L 1.29903,136.675 L 1.37032,136.815
 L 1.42657,136.961 L 1.46721,137.113 L 1.49178,137.268 L 1.5,137.425 L 1.49178,137.582 L 1.46721,137.737
 L 1.42657,137.889 L 1.37032,138.035 L 1.29903,138.175 L 1.21352,138.307 L 1.11472,138.429 L 1.00369,138.54
 L 1,138.543 L 1,229 L 63.9573,229 L 63.9603,228.996 L 64.0713,228.885 L 64.1933,228.786
 L 64.325,228.701 L 64.4649,228.63 L 64.6115,228.573 L 64.7631,228.533 L 64.9182,228.508 L 65.075,228.5
 L 65.2318,228.508 L 65.3869,228.533 L 65.5385,228.573 L 65.6851,228.63 L 65.825,228.701 L 65.9567,228.786
 L 66.0787,228.885 L 66.1897,228.996 L 66.2885,229.118 L 66.374,229.25 L 66.4453,229.39 L 66.5016,229.536
 L 66.5422,229.688 L 66.5668,229.843 L 66.575,230 L 66.5668,230.157 L 66.5422,230.312 L 66.5016,230.464
 L 66.4453,230.61 L 66.374,230.75 L 66.2885,230.882 L 66.1897,231.004 L 66.0787,231.115 L 65.9567,231.214
 L 65.825,231.299 L 65.6851,231.37 L 65.5385,231.427 L 65.3869,231.467 L 65.2318,231.492 L 65.075,231.5
 L 64.9182,231.492 L 64.7631,231.467 L 64.6115,231.427 L 64.4649,231.37 L 64.325,231.299 L 64.1933,231.214
 L 64.0713,231.115 L 63.9603,231.004 L 63.9573,231 L 1,231 L 1,269.65 L 50,269.65
 L 50,291.35 z
M 68.8432,183.242 L 68.6881,183.217 L 68.5365,183.177 L 68.3899,183.12 L 68.25,183.049 L 68.1183,182.964
 L 67.9963,182.865 L 67.8853,182.754 L 67.7865,182.632 L 67.701,182.5 L 67.6297,182.36 L 67.5734,182.214
 L 67.5328,182.062 L 67.5082,181.907 L 67.5,181.75 L 67.5082,181.593 L 67.5328,181.438 L 67.5734,181.286
 L 67.6297,181.14 L 67.701,181 L 67.7865,180.868 L 67.8853,180.746 L 67.9963,180.635 L 68.1183,180.536
 L 68.25,180.451 L 68.3899,180.38 L 68.5365,180.323 L 68.6881,180.283 L 68.8432,180.258 L 69,180.25
 L 69.1568,180.258 L 69.3119,180.283 L 69.4635,180.323 L 69.6101,180.38 L 69.75,180.451 L 69.8817,180.536
 L 70.0037,180.635 L 70.1147,180.746 L 70.2135,180.868 L 70.299,181 L 70.3703,181.14 L 70.4266,181.286
 L 70.4672,181.438 L 70.4918,181.593 L 70.5,181.75 L 70.4918,181.907 L 70.4672,182.062 L 70.4266,182.214
 L 70.3703,182.36 L 70.299,182.5 L 70.2135,182.632 L 70.1147,182.754 L 70.0037,182.865 L 69.8817,182.964
 L 69.75,183.049 L 69.6101,183.12 L 69.4635,183.177 L 69.3119,183.217 L 69.1568,183.242 L 69,183.25
 z
M -69.1568,183.242 L -69.3119,183.217 L -69.4635,183.177 L -69.6101,183.12 L -69.75,183.049 L -69.8817,182.964
 L -70.0037,182.865 L -70.1147,182.754 L -70.2135,182.632 L -70.299,182.5 L -70.3703,182.36 L -70.4266,182.214
 L -70.4672,182.062 L -70.4918,181.907 L -70.5,181.75 L -70.4918,181.593 L -70.4672,181.438 L -70.4266,181.286
 L -70.3703,181.14 L -70.299,181 L -70.2135,180.868 L -70.1147,180.746 L -70.0037,180.635 L -69.8817,180.536
 L -69.75,180.451 L -69.6101,180.38 L -69.4635,180.323 L -69.3119,180.283 L -69.1568,180.258 L -69,180.25
 L -68.8432,180.258 L -68.6881,180.283 L -68.5365,180.323 L -68.3899,180.38 L -68.25,180.451 L -68.1183,180.536
 L -67.9963,180.635 L -67.8853,180.746 L -67.7865,180.868 L -67.701,181 L -67.6297,181.14 L -67.5734,181.286
 L -67.5328,181.438 L -67.5082,181.593 L -67.5,181.75 L -67.5082,181.907 L -67.5328,182.062 L -67.5734,182.214
 L -67.6297,182.36 L -67.701,182.5 L -67.7865,182.632 L -67.8853,182.754 L -67.9963,182.865 L -68.1183,182.964
 L -68.25,183.049 L -68.3899,183.12 L -68.5365,183.177 L -68.6881,183.217 L -68.8432,183.242 L -69,183.25
 z
M 68.8432,279.742 L 68.6881,279.717 L 68.5365,279.677 L 68.3899,279.62 L 68.25,279.549 L 68.1183,279.464
 L 67.9963,279.365 L 67.8853,279.254 L 67.7865,279.132 L 67.701,279 L 67.6297,278.86 L 67.5734,278.714
 L 67.5328,278.562 L 67.5082,278.407 L 67.5,278.25 L 67.5082,278.093 L 67.5328,277.938 L 67.5734,277.786
 L 67.6297,277.64 L 67.701,277.5 L 67.7865,277.368 L 67.8853,277.246 L 67.9963,277.135 L 68.1183,277.036
 L 68.25,276.951 L 68.3899,276.88 L 68.5365,276.823 L 68.6881,276.783 L 68.8432,276.758 L 69,276.75
 L 69.1568,276.758 L 69.3119,276.783 L 69.4635,276.823 L 69.6101,276.88 L 69.75,276.951 L 69.8817,277.036
 L 70.0037,277.135 L 70.1147,277.246 L 70.2135,277.368 L 70.299,277.5 L 70.3703,277.64 L 70.4266,277.786
 L 70.4672,277.938 L 70.4918,278.093 L 70.5,278.25 L 70.4918,278.407 L 70.4672,278.562 L 70.4266,278.714
 L 70.3703,278.86 L 70.299,279 L 70.2135,279.132 L 70.1147,279.254 L 70.0037,279.365 L 69.8817,279.464
 L 69.75,279.549 L 69.6101,279.62 L 69.4635,279.677 L 69.3119,279.717 L 69.1568,279.742 L 69,279.75
 z
M -69.1568,279.742 L -69.3119,279.717 L -69.4635,279.677 L -69.6101,279.62 L -69.75,279.549 L -69.8817,279.464
 L -70.0037,279.365 L -70.1147,279.254 L -70.2135,279.132 L -70.299,279 L -70.3703,278.86 L -70.4266,278.714
 L -70.4672,278.562 L -70.4918,278.407 L -70.5,278.25 L -70.4918,278.093 L -70.4672,277.938 L -70.4266,277.786
 L -70.3703,277.64 L -70.299,277.5 L -70.2135,277.368 L -70.1147,277.246 L -70.0037,277.135 L -69.8817,277.036
 L -69.75,276.951 L -69.6101,276.88 L -69.4635,276.823 L -69.3119,276.783 L -69.1568,276.758 L -69,276.75
 L -68.8432,276.758 L -68.6881,276.783 L -68.5365,276.823 L -68.3899,276.88 L -68.25,276.951 L -68.1183,277.036
 L -67.9963,277.135 L -67.8853,277.246 L -67.7865,277.368 L -67.701,277.5 L -67.6297,277.64 L -67.5734,277.786
 L -67.5328,277.938 L -67.5082,278.093 L -67.5,278.25 L -67.5082,278.407 L -67.5328,278.562 L -67.5734,278.714
 L -67.6297,278.86 L -67.701,279 L -67.7865,279.132 L -67.8853,279.254 L -67.9963,279.365 L -68.1183,279.464
 L -68.25,279.549 L -68.3899,279.62 L -68.5365,279.677 L -68.6881,279.717 L -68.8432,279.742 L -69,279.75
 z
M -0.156784,327.992 L -0.311859,327.967 L -0.463516,327.927 L -0.610092,327.87 L -0.75,327.799 L -0.881668,327.714
 L -1.00369,327.615 L -1.11472,327.504 L -1.21352,327.382 L -1.29903,327.25 L -1.37032,327.11 L -1.42657,326.964
 L -1.46721,326.812 L -1.49178,326.657 L -1.5,326.5 L -1.49178,326.343 L -1.46721,326.188 L -1.42657,326.036
 L -1.37032,325.89 L -1.29903,325.75 L -1.21352,325.618 L -1.11472,325.496 L -1.00369,325.385 L -0.881668,325.286
 L -0.75,325.201 L -0.610092,325.13 L -0.463516,325.073 L -0.311859,325.033 L -0.156784,325.008 L 0,325
 L 0.156784,325.008 L 0.311859,325.033 L 0.463516,325.073 L 0.610092,325.13 L 0.75,325.201 L 0.881668,325.286
 L 1.00369,325.385 L 1.11472,325.496 L 1.21352,325.618 L 1.29903,325.75 L 1.37032,325.89 L 1.42657,326.036
 L 1.46721,326.188 L 1.49178,326.343 L 1.5,326.5 L 1.49178,326.657 L 1.46721,326.812 L 1.42657,326.964
 L 1.37032,327.11 L 1.29903,327.25 L 1.21352,327.382 L 1.11472,327.504 L 1.00369,327.615 L 0.881668,327.714
 L 0.75,327.799 L 0.610092,327.87 L 0.463516,327.927 L 0.311859,327.967 L 0.156784,327.992 L 0,328
 z
M 580.933,318.326 L 582.794,318.032 L 584.614,317.544 L 586.373,316.869 L 588.052,316.013 L 589.632,314.987
 L 591.096,313.802 L 592.428,312.469 L 593.874,310.638 L 612.747,283.246 L 613.734,281.64 L 614.547,279.941
 L 615.178,278.165 L 615.62,276.334 L 615.868,274.466 L 615.925,273.033 L 615.925,186.967 L 615.826,185.085
 L 615.532,183.225 L 615.044,181.405 L 614.369,179.646 L 613.513,177.967 L 612.747,176.754 L 593.874,149.362
 L 592.726,147.869 L 591.427,146.504 L 589.993,145.282 L 588.439,144.217 L 586.782,143.319 L 585.041,142.6
 L 583.233,142.067 L 581.381,141.726 L 579.052,141.575 L 530.948,141.575 L 529.067,141.674 L 527.206,141.968
 L 525.386,142.456 L 523.627,143.131 L 521.948,143.987 L 520.368,145.013 L 518.904,146.198 L 517.572,147.531
 L 516.126,149.362 L 497.253,176.754 L 496.266,178.36 L 495.453,180.059 L 494.822,181.835 L 494.38,183.666
 L 494.132,185.534 L 494.075,186.967 L 494.075,273.033 L 494.174,274.915 L 494.468,276.775 L 494.956,278.595
 L 495.631,280.354 L 496.487,282.033 L 497.253,283.246 L 516.126,310.638 L 517.274,312.131 L 518.573,313.496
 L 520.007,314.718 L 521.561,315.783 L 523.218,316.681 L 524.959,317.4 L 526.767,317.933 L 528.619,318.274
 L 530.948,318.425 L 579.052,318.425 z
M 365,230 L 377,230 L 382.172,198.119 L 382.418,196.568 L 382.5,195 L 382.418,193.432
 L 382.172,191.881 L 381.766,190.365 L 381.203,188.899 L 380.49,187.5 L 379.635,186.183 L 378.647,184.963
 L 377.537,183.853 L 376.317,182.865 L 375,182.01 L 373.601,181.297 L 372.135,180.734 L 370.619,180.328
 L 369.068,180.082 L 367.5,180 L 351.56,180 L 355.967,200.732 L 344.18,203.237 L 339.241,180
 L 332.5,180 L 330.932,180.082 L 329.381,180.328 L 327.865,180.734 L 326.399,181.297 L 325,182.01
 L 323.683,182.865 L 322.463,183.853 L 321.353,184.963 L 320.365,186.183 L 319.51,187.5 L 318.797,188.899
 L 318.234,190.365 L 317.828,191.881 L 317.582,193.432 L 317.5,195 L 317.582,196.568 L 317.828,198.119
 L 323,230 L 335,230 L 335,232.8 L 365,232.8 z
M 445,230 L 457,230 L 462.172,198.119 L 462.418,196.568 L 462.5,195 L 462.418,193.432
 L 462.172,191.881 L 461.766,190.365 L 461.203,188.899 L 460.49,187.5 L 459.635,186.183 L 458.647,184.963
 L 457.537,183.853 L 456.317,182.865 L 455,182.01 L 453.601,181.297 L 452.135,180.734 L 450.619,180.328
 L 449.068,180.082 L 447.5,180 L 431.56,180 L 435.967,200.732 L 424.18,203.237 L 419.241,180
 L 412.5,180 L 410.932,180.082 L 409.381,180.328 L 407.865,180.734 L 406.399,181.297 L 405,182.01
 L 403.683,182.865 L 402.463,183.853 L 401.353,184.963 L 400.365,186.183 L 399.51,187.5 L 398.797,188.899
 L 398.234,190.365 L 397.828,191.881 L 397.582,193.432 L 397.5,195 L 397.582,196.568 L 397.828,198.119
 L 403,230 L 415,230 L 415,232.8 L 445,232.8 z
M 236.045,269.945 L 237.079,269.781 L 238.09,269.511 L 239.067,269.135 L 240,268.66 L 240.878,268.09
 L 241.691,267.431 L 242.431,266.691 L 243.09,265.878 L 243.66,265 L 244.135,264.067 L 244.511,263.09
 L 244.781,262.079 L 244.945,261.045 L 245,260 L 245,200 L 244.945,198.955 L 244.781,197.921
 L 244.511,196.91 L 244.135,195.933 L 243.66,195 L 243.09,194.122 L 242.431,193.309 L 241.691,192.569
 L 240.878,191.91 L 240,191.34 L 239.067,190.865 L 238.09,190.489 L 237.079,190.219 L 236.045,190.055
 L 235,190 L 115,190 L 113.955,190.055 L 112.921,190.219 L 111.91,190.489 L 110.933,190.865
 L 110,191.34 L 109.122,191.91 L 108.309,192.569 L 107.569,193.309 L 106.91,194.122 L 106.34,195
 L 105.865,195.933 L 105.489,196.91 L 105.219,197.921 L 105.055,198.955 L 105,200 L 105,260
 L 105.055,261.045 L 105.219,262.079 L 105.489,263.09 L 105.865,264.067 L 106.34,265 L 106.91,265.878
 L 107.569,266.691 L 108.309,267.431 L 109.122,268.09 L 110,268.66 L 110.933,269.135 L 111.91,269.511
 L 112.921,269.781 L 113.955,269.945 L 115,270 L 235,270 z
M 129.675,244.925 L 129.675,215.075 L 132.325,215.075 L 132.325,244.925 z
M 217.675,244.925 L 217.675,215.075 L 220.325,215.075 L 220.325,244.925 z
M 13.9111,457.2 L 25.0222,457.2 L 25.0222,460 L 36.1333,460 L 36.1333,457.2 L 47.2444,457.2
 L 47.2444,460 L 58.3555,460 L 58.3555,457.2 L 69.4666,457.2 L 69.4666,460 L 80.5778,460
 L 80.5778,457.2 L 91.6889,457.2 L 91.6889,460 L 102.8,460 L 102.8,457.2 L 105.6,457.2
 L 105.6,449.967 L 102.8,449.967 L 102.8,442.733 L 105.6,442.733 L 105.6,435.5 L 102.8,435.5
 L 102.8,432.7 L 91.6889,432.7 L 91.6889,435.5 L 80.5778,435.5 L 80.5778,432.7 L 69.4666,432.7
 L 69.4666,435.5 L 58.3555,435.5 L 58.3555,432.7 L 47.2444,432.7 L 47.2444,435.5 L 36.1333,435.5
 L 36.1333,432.7 L 25.0222,432.7 L 25.0222,435.5 L 13.9111,435.5 L 13.9111,432.7 L 2.79999,432.7
 L 2.79999,435.5 L 0,435.5 L 0,442.733 L 2.79999,442.733 L 2.79999,449.967 L 0,449.967
 L 0,457.2 L 2.79999,457.2 L 2.79999,460 L 13.9111,460 z
M 431.4,456.36 L 428.6,456.36 L 428.6,452.72 L 431.4,452.72 L 431.4,449.08 L 428.6,449.08
 L 428.6,445.44 L 431.4,445.44 L 431.4,439 L 428.6,439 L 428.6,441.8 L 421.367,441.8
 L 421.367,439 L 414.133,439 L 414.133,441.8 L 406.9,441.8 L 406.9,439 L 404.1,439
 L 404.1,445.44 L 406.9,445.44 L 406.9,449.08 L 404.1,449.08 L 404.1,452.72 L 406.9,452.72
 L 406.9,456.36 L 404.1,456.36 L 404.1,460 L 431.4,460 z
M 389.1,456.36 L 386.3,456.36 L 386.3,452.72 L 389.1,452.72 L 389.1,449.08 L 386.3,449.08
 L 386.3,445.44 L 389.1,445.44 L 389.1,439 L 386.3,439 L 386.3,441.8 L 379.067,441.8
 L 379.067,439 L 371.833,439 L 371.833,441.8 L 364.6,441.8 L 364.6,439 L 361.8,439
 L 361.8,445.44 L 364.6,445.44 L 364.6,449.08 L 361.8,449.08 L 361.8,452.72 L 364.6,452.72
 L 364.6,456.36 L 361.8,456.36 L 361.8,460 L 389.1,460 z
M 377.3,458 L 377.3,446 L 384.3,446 L 384.3,458 z
M 344,456.36 L 346.8,456.36 L 346.8,452.72 L 344,452.72 L 344,449.08 L 346.8,449.08
 L 346.8,445.44 L 344,445.44 L 344,441.8 L 332.889,441.8 L 332.889,439 L 321.778,439
 L 321.778,441.8 L 310.667,441.8 L 310.667,439 L 299.556,439 L 299.556,441.8 L 288.444,441.8
 L 288.444,439 L 277.333,439 L 277.333,441.8 L 266.222,441.8 L 266.222,439 L 255.111,439
 L 255.111,441.8 L 244,441.8 L 244,445.44 L 241.2,445.44 L 241.2,449.08 L 244,449.08
 L 244,452.72 L 241.2,452.72 L 241.2,456.36 L 244,456.36 L 244,460 L 344,460
 z
M 223.4,456.36 L 226.2,456.36 L 226.2,452.72 L 223.4,452.72 L 223.4,449.08 L 226.2,449.08
 L 226.2,445.44 L 223.4,445.44 L 223.4,441.8 L 212.289,441.8 L 212.289,439 L 201.178,439
 L 201.178,441.8 L 190.067,441.8 L 190.067,439 L 178.956,439 L 178.956,441.8 L 167.844,441.8
 L 167.844,439 L 156.733,439 L 156.733,441.8 L 145.622,441.8 L 145.622,439 L 134.511,439
 L 134.511,441.8 L 123.4,441.8 L 123.4,445.44 L 120.6,445.44 L 120.6,449.08 L 123.4,449.08
 L 123.4,452.72 L 120.6,452.72 L 120.6,456.36 L 123.4,456.36 L 123.4,460 L 223.4,460
 z
" stroke="black" fill="lightgray" stroke-width="0.5"/>
</svg>
