<?xml version="1.0" encoding="UTF-8" standalone="no"?>
<svg
   width="478mm"
   height="366mm"
   viewBox="-30 -366 478 366"
   version="1.1"
   id="svg1"
   sodipodi:docname="parts_tuning_fork.svg"
   inkscape:version="1.4.2 (f4327f4, 2025-05-13)"
   xmlns:inkscape="http://www.inkscape.org/namespaces/inkscape"
   xmlns:sodipodi="http://sodipodi.sourceforge.net/DTD/sodipodi-0.dtd"
   xmlns="http://www.w3.org/2000/svg"
   xmlns:svg="http://www.w3.org/2000/svg"
   xmlns:rdf="http://www.w3.org/1999/02/22-rdf-syntax-ns#"
   xmlns:cc="http://creativecommons.org/ns#"
   xmlns:dc="http://purl.org/dc/elements/1.1/">
  <defs
     id="defs1" />
  <sodipodi:namedview
     id="namedview1"
     pagecolor="#ffffff"
     bordercolor="#000000"
     borderopacity="0.25"
     inkscape:showpageshadow="2"
     inkscape:pageopacity="0.0"
     inkscape:pagecheckerboard="0"
     inkscape:deskcolor="#d1d1d1"
     inkscape:document-units="mm"
     showgrid="false"
     inkscape:zoom="0.8269613"
     inkscape:cx="709.82766"
     inkscape:cy="594.34462"
     inkscape:window-width="2560"
     inkscape:window-height="1369"
     inkscape:window-x="-8"
     inkscape:window-y="1478"
     inkscape:window-maximized="1"
     inkscape:current-layer="svg1" />
  <title
     id="title1">OpenSCAD Model</title>
  <path
     d="m 15,-313.63 h 18 v 3.3 h 6 v -3.3 h 18 v 3.3 h 6 v -3.3 h 18 v 3.3 h 6 v -3.3 h 18 v 3.3 h 6 v -3.3 h 10.095 v -8.2 h 0.01 v 8.2 h 4.39 v -8.2 h 0.01 v 8.2 h 4.39 v -8.2 h 0.01 v 8.2 h 4.39 v -8.2 h 0.01 v 8.2 h 4.39 v -8.2 h 0.01 v 8.2 h 4.39 v -8.2 h 0.01 v 8.2 h 4.39 v -8.2 h 0.01 v 8.2 h 4.39 v -8.2 h 0.01 v 8.2 h 4.39 v -8.2 h 0.01 v 8.2 h 4.39 v -8.2 h 0.01 v 8.2 h 13.773 v 3.3 h 6 v -3.3 h 18.75 v 3.3 h 6 v -3.3 h 18.75 v 3.3 h 6 v -3.3 h 18.75 v 3.3 h 6 v -3.3 h 9.375 v -19.4 h -9.375 v -3.3 h -6 v 3.3 h -18.75 v -3.3 h -6 v 3.3 h -18.75 v -3.3 h -6 v 3.3 h -18.75 v -3.3 h -6 v 3.3 h -13.773 v 8.2 h -0.01 v -8.2 h -4.39 v 8.2 h -0.01 v -8.2 h -4.39 v 8.2 h -0.01 v -8.2 h -4.39 v 8.2 h -0.01 v -8.2 h -4.39 v 8.2 h -0.01 v -8.2 h -4.39 v 8.2 h -0.01 v -8.2 h -4.39 v 8.2 h -0.01 v -8.2 h -4.39 v 8.2 h -0.01 v -8.2 h -4.39 v 8.2 h -0.01 v -8.2 h -4.39 v 8.2 h -0.01 v -8.2 H 111 v -3.3 h -6 v 3.3 H 87 v -3.3 h -6 v 3.3 H 63 v -3.3 h -6 v 3.3 H 39 v -3.3 h -6 v 3.3 H 15 v -3.3 H 9 v 3.3 H 0 v 19.4 h 9 v 3.3 h 6 z m 121.495,-3 v -13.4 h 0.01 v 13.4 z m -13.2,0 v -13.4 h 0.01 v 13.4 z m 4.4,0 v -13.4 h 0.01 v 13.4 z m 35.2,0 v -13.4 h 0.01 v 13.4 z m -4.4,0 v -13.4 h 0.01 v 13.4 z m -4.4,0 v -13.4 h 0.01 v 13.4 z m -4.4,0 v -13.4 h 0.01 v 13.4 z m -4.4,0 v -13.4 h 0.01 v 13.4 z m -4.4,0 v -13.4 h 0.01 v 13.4 z m -8.8,0 v -13.4 h 0.01 v 13.4 z"
     id="path2" />
  <path
     d="m 15,-343.03 h 18 v 3.3 h 6 v -3.3 h 18 v 3.3 h 6 v -3.3 h 18 v 3.3 h 6 v -3.3 h 18 v 3.3 h 6 v -3.3 h 9.595 v -8.95 h 0.01 v 8.95 h 2.39 v -8.95 h 0.01 v 8.95 h 2.39 v -8.95 h 0.01 v 8.95 h 2.39 v -8.95 h 0.01 v 8.95 h 2.39 v -8.95 h 0.01 v 8.95 h 2.39 v -8.95 h 0.01 v 8.95 h 2.39 v -8.95 h 0.01 v 8.95 h 2.39 v -8.95 h 0.01 v 8.95 h 2.39 v -8.95 h 0.01 v 8.95 h 2.39 v -8.95 h 0.01 v 8.95 h 2.39 v -8.95 h 0.01 v 8.95 h 2.39 v -8.95 h 0.01 v 8.95 h 2.39 v -8.95 h 0.01 v 8.95 h 2.39 v -8.95 h 0.01 v 8.95 h 2.39 v -8.95 h 0.01 v 8.95 h 2.39 v -8.95 h 0.01 v 8.95 h 10.094 v 3.3 h 6 v -3.3 h 18 v 3.3 h 6 v -3.3 h 18 v 3.3 h 6 v -3.3 h 18 v 3.3 h 6 v -3.3 h 18 v 3.3 h 6 v -3.3 h 9 v -19.4 h -9 v -3.3 h -6 v 3.3 h -18 v -3.3 h -6 v 3.3 h -18 v -3.3 h -6 v 3.3 h -18 v -3.3 h -6 v 3.3 h -18 v -3.3 h -6 v 3.3 h -10.094 v 8.95 h -0.01 v -8.95 h -2.39 v 8.95 h -0.01 v -8.95 h -2.39 v 8.95 h -0.01 v -8.95 h -2.39 v 8.95 h -0.01 v -8.95 h -2.39 v 8.95 h -0.01 v -8.95 h -2.39 v 8.95 h -0.01 v -8.95 h -2.39 v 8.95 h -0.01 v -8.95 h -2.39 v 8.95 h -0.01 v -8.95 h -2.39 v 8.95 h -0.01 v -8.95 h -2.39 v 8.95 h -0.01 v -8.95 h -2.39 v 8.95 h -0.01 v -8.95 h -2.39 v 8.95 h -0.01 v -8.95 h -2.39 v 8.95 h -0.01 v -8.95 h -2.39 v 8.95 h -0.01 v -8.95 h -2.39 v 8.95 h -0.01 v -8.95 h -2.39 v 8.95 h -0.01 v -8.95 H 111 v -3.3 h -6 v 3.3 H 87 v -3.3 h -6 v 3.3 H 63 v -3.3 h -6 v 3.3 H 39 v -3.3 h -6 v 3.3 H 15 v -3.3 H 9 v 3.3 H 0 v 19.4 h 9 v 3.3 h 6 z m 116.395,-1.5 v -16.4 h 0.01 v 16.4 z m -9.6,0 v -16.4 h 0.01 v 16.4 z m 33.6,0 v -16.4 h 0.01 v 16.4 z m -12,0 v -16.4 h 0.01 v 16.4 z m 9.6,0 v -16.4 h 0.01 v 16.4 z m -19.2,0 v -16.4 h 0.01 v 16.4 z m 2.4,0 v -16.4 h 0.01 v 16.4 z m 2.4,0 v -16.4 h 0.01 v 16.4 z m 12,0 v -16.4 h 0.01 v 16.4 z m -4.8,0 v -16.4 h 0.01 v 16.4 z m -4.8,0 v -16.4 h 0.01 v 16.4 z m 7.2,0 v -16.4 h 0.01 v 16.4 z m -19.2,0 v -16.4 h 0.01 v 16.4 z m -2.4,0 v -16.4 h 0.01 v 16.4 z m -2.4,0 v -16.4 h 0.01 v 16.4 z"
     id="path1" />
  <metadata
     id="metadata11">
    <rdf:RDF>
      <cc:Work
         rdf:about="">
        <dc:title>OpenSCAD Model</dc:title>
      </cc:Work>
    </rdf:RDF>
  </metadata>
</svg>
