<?xml version="1.0" standalone="no"?>
<!DOCTYPE svg PUBLIC "-//W3C//DTD SVG 1.1//EN" "http://www.w3.org/Graphics/SVG/1.1/DTD/svg11.dtd">
<svg width="472mm" height="365mm" viewBox="-30 -365 472 365" xmlns="http://www.w3.org/2000/svg" version="1.1">
<title>OpenSCAD Model</title>
<path d="
M 15,-341.581 L 33,-341.581 L 33,-338.281 L 39,-338.281 L 39,-341.581 L 57,-341.581
 L 57,-338.281 L 63,-338.281 L 63,-341.581 L 81,-341.581 L 81,-338.281 L 87,-338.281
 L 87,-341.581 L 105,-341.581 L 105,-338.281 L 111,-338.281 L 111,-341.581 L 120.595,-341.581
 L 120.595,-350.531 L 120.605,-350.531 L 120.605,-341.581 L 122.995,-341.581 L 122.995,-350.531 L 123.005,-350.531
 L 123.005,-341.581 L 125.395,-341.581 L 125.395,-350.531 L 125.405,-350.531 L 125.405,-341.581 L 127.795,-341.581
 L 127.795,-350.531 L 127.805,-350.531 L 127.805,-341.581 L 130.195,-341.581 L 130.195,-350.531 L 130.205,-350.531
 L 130.205,-341.581 L 132.595,-341.581 L 132.595,-350.531 L 132.605,-350.531 L 132.605,-341.581 L 134.995,-341.581
 L 134.995,-350.531 L 135.005,-350.531 L 135.005,-341.581 L 137.395,-341.581 L 137.395,-350.531 L 137.405,-350.531
 L 137.405,-341.581 L 139.795,-341.581 L 139.795,-350.531 L 139.805,-350.531 L 139.805,-341.581 L 142.195,-341.581
 L 142.195,-350.531 L 142.205,-350.531 L 142.205,-341.581 L 144.595,-341.581 L 144.595,-350.531 L 144.605,-350.531
 L 144.605,-341.581 L 146.995,-341.581 L 146.995,-350.531 L 147.005,-350.531 L 147.005,-341.581 L 149.395,-341.581
 L 149.395,-350.531 L 149.405,-350.531 L 149.405,-341.581 L 151.795,-341.581 L 151.795,-350.531 L 151.805,-350.531
 L 151.805,-341.581 L 154.195,-341.581 L 154.195,-350.531 L 154.205,-350.531 L 154.205,-341.581 L 156.595,-341.581
 L 156.595,-350.531 L 156.605,-350.531 L 156.605,-341.581 L 166.699,-341.581 L 166.699,-338.281 L 172.699,-338.281
 L 172.699,-341.581 L 190.699,-341.581 L 190.699,-338.281 L 196.699,-338.281 L 196.699,-341.581 L 214.699,-341.581
 L 214.699,-338.281 L 220.699,-338.281 L 220.699,-341.581 L 238.699,-341.581 L 238.699,-338.281 L 244.699,-338.281
 L 244.699,-341.581 L 262.699,-341.581 L 262.699,-338.281 L 268.699,-338.281 L 268.699,-341.581 L 277.699,-341.581
 L 277.699,-360.981 L 268.699,-360.981 L 268.699,-364.281 L 262.699,-364.281 L 262.699,-360.981 L 244.699,-360.981
 L 244.699,-364.281 L 238.699,-364.281 L 238.699,-360.981 L 220.699,-360.981 L 220.699,-364.281 L 214.699,-364.281
 L 214.699,-360.981 L 196.699,-360.981 L 196.699,-364.281 L 190.699,-364.281 L 190.699,-360.981 L 172.699,-360.981
 L 172.699,-364.281 L 166.699,-364.281 L 166.699,-360.981 L 156.605,-360.981 L 156.605,-352.031 L 156.595,-352.031
 L 156.595,-360.981 L 154.205,-360.981 L 154.205,-352.031 L 154.195,-352.031 L 154.195,-360.981 L 151.805,-360.981
 L 151.805,-352.031 L 151.795,-352.031 L 151.795,-360.981 L 149.405,-360.981 L 149.405,-352.031 L 149.395,-352.031
 L 149.395,-360.981 L 147.005,-360.981 L 147.005,-352.031 L 146.995,-352.031 L 146.995,-360.981 L 144.605,-360.981
 L 144.605,-352.031 L 144.595,-352.031 L 144.595,-360.981 L 142.205,-360.981 L 142.205,-352.031 L 142.195,-352.031
 L 142.195,-360.981 L 139.805,-360.981 L 139.805,-352.031 L 139.795,-352.031 L 139.795,-360.981 L 137.405,-360.981
 L 137.405,-352.031 L 137.395,-352.031 L 137.395,-360.981 L 135.005,-360.981 L 135.005,-352.031 L 134.995,-352.031
 L 134.995,-360.981 L 132.605,-360.981 L 132.605,-352.031 L 132.595,-352.031 L 132.595,-360.981 L 130.205,-360.981
 L 130.205,-352.031 L 130.195,-352.031 L 130.195,-360.981 L 127.805,-360.981 L 127.805,-352.031 L 127.795,-352.031
 L 127.795,-360.981 L 125.405,-360.981 L 125.405,-352.031 L 125.395,-352.031 L 125.395,-360.981 L 123.005,-360.981
 L 123.005,-352.031 L 122.995,-352.031 L 122.995,-360.981 L 120.605,-360.981 L 120.605,-352.031 L 120.595,-352.031
 L 120.595,-360.981 L 111,-360.981 L 111,-364.281 L 105,-364.281 L 105,-360.981 L 87,-360.981
 L 87,-364.281 L 81,-364.281 L 81,-360.981 L 63,-360.981 L 63,-364.281 L 57,-364.281
 L 57,-360.981 L 39,-360.981 L 39,-364.281 L 33,-364.281 L 33,-360.981 L 15,-360.981
 L 15,-364.281 L 9,-364.281 L 9,-360.981 L 0,-360.981 L 0,-341.581 L 9,-341.581
 L 9,-338.281 L 15,-338.281 z
M 131.395,-343.081 L 131.395,-359.481 L 131.405,-359.481 L 131.405,-343.081 z
M 121.795,-343.081 L 121.795,-359.481 L 121.805,-359.481 L 121.805,-343.081 z
M 155.395,-343.081 L 155.395,-359.481 L 155.405,-359.481 L 155.405,-343.081 z
M 143.395,-343.081 L 143.395,-359.481 L 143.405,-359.481 L 143.405,-343.081 z
M 152.995,-343.081 L 152.995,-359.481 L 153.005,-359.481 L 153.005,-343.081 z
M 133.795,-343.081 L 133.795,-359.481 L 133.805,-359.481 L 133.805,-343.081 z
M 136.195,-343.081 L 136.195,-359.481 L 136.205,-359.481 L 136.205,-343.081 z
M 138.595,-343.081 L 138.595,-359.481 L 138.605,-359.481 L 138.605,-343.081 z
M 150.595,-343.081 L 150.595,-359.481 L 150.605,-359.481 L 150.605,-343.081 z
M 145.795,-343.081 L 145.795,-359.481 L 145.805,-359.481 L 145.805,-343.081 z
M 140.995,-343.081 L 140.995,-359.481 L 141.005,-359.481 L 141.005,-343.081 z
M 148.195,-343.081 L 148.195,-359.481 L 148.205,-359.481 L 148.205,-343.081 z
M 128.995,-343.081 L 128.995,-359.481 L 129.005,-359.481 L 129.005,-343.081 z
M 126.595,-343.081 L 126.595,-359.481 L 126.605,-359.481 L 126.605,-343.081 z
M 124.195,-343.081 L 124.195,-359.481 L 124.205,-359.481 L 124.205,-343.081 z
M 15,-312.181 L 33,-312.181 L 33,-308.881 L 39,-308.881 L 39,-312.181 L 57,-312.181
 L 57,-308.881 L 63,-308.881 L 63,-312.181 L 81,-312.181 L 81,-308.881 L 87,-308.881
 L 87,-312.181 L 105,-312.181 L 105,-308.881 L 111,-308.881 L 111,-312.181 L 116.695,-312.181
 L 116.695,-321.131 L 116.705,-321.131 L 116.705,-312.181 L 119.495,-312.181 L 119.495,-321.131 L 119.505,-321.131
 L 119.505,-312.181 L 122.295,-312.181 L 122.295,-321.131 L 122.305,-321.131 L 122.305,-312.181 L 125.095,-312.181
 L 125.095,-321.131 L 125.105,-321.131 L 125.105,-312.181 L 127.895,-312.181 L 127.895,-321.131 L 127.905,-321.131
 L 127.905,-312.181 L 130.695,-312.181 L 130.695,-321.131 L 130.705,-321.131 L 130.705,-312.181 L 133.495,-312.181
 L 133.495,-321.131 L 133.505,-321.131 L 133.505,-312.181 L 136.295,-312.181 L 136.295,-321.131 L 136.305,-321.131
 L 136.305,-312.181 L 139.095,-312.181 L 139.095,-321.131 L 139.105,-321.131 L 139.105,-312.181 L 141.895,-312.181
 L 141.895,-321.131 L 141.905,-321.131 L 141.905,-312.181 L 144.695,-312.181 L 144.695,-321.131 L 144.705,-321.131
 L 144.705,-312.181 L 147.495,-312.181 L 147.495,-321.131 L 147.505,-321.131 L 147.505,-312.181 L 150.295,-312.181
 L 150.295,-321.131 L 150.305,-321.131 L 150.305,-312.181 L 153.095,-312.181 L 153.095,-321.131 L 153.105,-321.131
 L 153.105,-312.181 L 155.895,-312.181 L 155.895,-321.131 L 155.905,-321.131 L 155.905,-312.181 L 158.695,-312.181
 L 158.695,-321.131 L 158.705,-321.131 L 158.705,-312.181 L 161.495,-312.181 L 161.495,-321.131 L 161.505,-321.131
 L 161.505,-312.181 L 164.295,-312.181 L 164.295,-321.131 L 164.305,-321.131 L 164.305,-312.181 L 172.456,-312.181
 L 172.456,-308.881 L 178.456,-308.881 L 178.456,-312.181 L 197.706,-312.181 L 197.706,-308.881 L 203.706,-308.881
 L 203.706,-312.181 L 222.956,-312.181 L 222.956,-308.881 L 228.956,-308.881 L 228.956,-312.181 L 248.206,-312.181
 L 248.206,-308.881 L 254.206,-308.881 L 254.206,-312.181 L 263.831,-312.181 L 263.831,-331.581 L 254.206,-331.581
 L 254.206,-334.881 L 248.206,-334.881 L 248.206,-331.581 L 228.956,-331.581 L 228.956,-334.881 L 222.956,-334.881
 L 222.956,-331.581 L 203.706,-331.581 L 203.706,-334.881 L 197.706,-334.881 L 197.706,-331.581 L 178.456,-331.581
 L 178.456,-334.881 L 172.456,-334.881 L 172.456,-331.581 L 164.305,-331.581 L 164.305,-322.631 L 164.295,-322.631
 L 164.295,-331.581 L 161.505,-331.581 L 161.505,-322.631 L 161.495,-322.631 L 161.495,-331.581 L 158.705,-331.581
 L 158.705,-322.631 L 158.695,-322.631 L 158.695,-331.581 L 155.905,-331.581 L 155.905,-322.631 L 155.895,-322.631
 L 155.895,-331.581 L 153.105,-331.581 L 153.105,-322.631 L 153.095,-322.631 L 153.095,-331.581 L 150.305,-331.581
 L 150.305,-322.631 L 150.295,-322.631 L 150.295,-331.581 L 147.505,-331.581 L 147.505,-322.631 L 147.495,-322.631
 L 147.495,-331.581 L 144.705,-331.581 L 144.705,-322.631 L 144.695,-322.631 L 144.695,-331.581 L 141.905,-331.581
 L 141.905,-322.631 L 141.895,-322.631 L 141.895,-331.581 L 139.105,-331.581 L 139.105,-322.631 L 139.095,-322.631
 L 139.095,-331.581 L 136.305,-331.581 L 136.305,-322.631 L 136.295,-322.631 L 136.295,-331.581 L 133.505,-331.581
 L 133.505,-322.631 L 133.495,-322.631 L 133.495,-331.581 L 130.705,-331.581 L 130.705,-322.631 L 130.695,-322.631
 L 130.695,-331.581 L 127.905,-331.581 L 127.905,-322.631 L 127.895,-322.631 L 127.895,-331.581 L 125.105,-331.581
 L 125.105,-322.631 L 125.095,-322.631 L 125.095,-331.581 L 122.305,-331.581 L 122.305,-322.631 L 122.295,-322.631
 L 122.295,-331.581 L 119.505,-331.581 L 119.505,-322.631 L 119.495,-322.631 L 119.495,-331.581 L 116.705,-331.581
 L 116.705,-322.631 L 116.695,-322.631 L 116.695,-331.581 L 111,-331.581 L 111,-334.881 L 105,-334.881
 L 105,-331.581 L 87,-331.581 L 87,-334.881 L 81,-334.881 L 81,-331.581 L 63,-331.581
 L 63,-334.881 L 57,-334.881 L 57,-331.581 L 39,-331.581 L 39,-334.881 L 33,-334.881
 L 33,-331.581 L 15,-331.581 L 15,-334.881 L 9,-334.881 L 9,-331.581 L 0,-331.581
 L 0,-312.181 L 9,-312.181 L 9,-308.881 L 15,-308.881 z
M 154.495,-313.681 L 154.495,-330.081 L 154.505,-330.081 L 154.505,-313.681 z
M 132.095,-313.681 L 132.095,-330.081 L 132.105,-330.081 L 132.105,-313.681 z
M 157.295,-313.681 L 157.295,-330.081 L 157.305,-330.081 L 157.305,-313.681 z
M 151.695,-313.681 L 151.695,-330.081 L 151.705,-330.081 L 151.705,-313.681 z
M 160.095,-313.681 L 160.095,-330.081 L 160.105,-330.081 L 160.105,-313.681 z
M 140.495,-313.681 L 140.495,-330.081 L 140.505,-330.081 L 140.505,-313.681 z
M 134.895,-313.681 L 134.895,-330.081 L 134.905,-330.081 L 134.905,-313.681 z
M 123.695,-313.681 L 123.695,-330.081 L 123.705,-330.081 L 123.705,-313.681 z
M 118.095,-313.681 L 118.095,-330.081 L 118.105,-330.081 L 118.105,-313.681 z
M 137.695,-313.681 L 137.695,-330.081 L 137.705,-330.081 L 137.705,-313.681 z
M 126.495,-313.681 L 126.495,-330.081 L 126.505,-330.081 L 126.505,-313.681 z
M 165.695,-313.681 L 165.695,-330.081 L 165.705,-330.081 L 165.705,-313.681 z
M 148.895,-313.681 L 148.895,-330.081 L 148.905,-330.081 L 148.905,-313.681 z
M 120.895,-313.681 L 120.895,-330.081 L 120.905,-330.081 L 120.905,-313.681 z
M 162.895,-313.681 L 162.895,-330.081 L 162.905,-330.081 L 162.905,-313.681 z
M 146.095,-313.681 L 146.095,-330.081 L 146.105,-330.081 L 146.105,-313.681 z
M 143.295,-313.681 L 143.295,-330.081 L 143.305,-330.081 L 143.305,-313.681 z
M 129.295,-313.681 L 129.295,-330.081 L 129.305,-330.081 L 129.305,-313.681 z
M 296.899,-312.181 L 300.099,-312.181 L 300.099,-331.581 L 296.899,-331.581 L 296.899,-334.881 L 290.899,-334.881
 L 290.899,-331.581 L 287.699,-331.581 L 287.699,-312.181 L 290.899,-312.181 L 290.899,-308.881 L 296.899,-308.881
 z
M 428.662,-296.858 L 430.11,-297.087 L 431.525,-297.467 L 432.893,-297.992 L 434.199,-298.657 L 435.428,-299.455
 L 436.567,-300.377 L 437.603,-301.414 L 438.525,-302.552 L 439.323,-303.781 L 439.989,-305.087 L 440.514,-306.455
 L 440.893,-307.871 L 441.122,-309.318 L 441.199,-310.781 L 430.199,-310.781 L 430.199,-313.581 L 424.199,-313.581
 L 424.199,-310.781 L 413.199,-310.781 L 413.276,-309.318 L 413.505,-307.871 L 413.884,-306.455 L 414.409,-305.087
 L 415.075,-303.781 L 415.873,-302.552 L 416.795,-301.414 L 417.831,-300.377 L 418.97,-299.455 L 420.199,-298.657
 L 421.505,-297.992 L 422.873,-297.467 L 424.288,-297.087 L 425.736,-296.858 L 427.199,-296.781 z
M 352.662,-296.858 L 354.11,-297.087 L 355.525,-297.467 L 356.893,-297.992 L 358.199,-298.657 L 359.428,-299.455
 L 360.567,-300.377 L 361.603,-301.414 L 362.525,-302.552 L 363.323,-303.781 L 363.989,-305.087 L 364.514,-306.455
 L 364.893,-307.871 L 365.122,-309.318 L 365.199,-310.781 L 354.199,-310.781 L 354.199,-313.581 L 348.199,-313.581
 L 348.199,-310.781 L 337.199,-310.781 L 337.276,-309.318 L 337.505,-307.871 L 337.884,-306.455 L 338.409,-305.087
 L 339.075,-303.781 L 339.873,-302.552 L 340.795,-301.414 L 341.831,-300.377 L 342.97,-299.455 L 344.199,-298.657
 L 345.505,-297.992 L 346.873,-297.467 L 348.288,-297.087 L 349.736,-296.858 L 351.199,-296.781 z
M 390.662,-296.858 L 392.11,-297.087 L 393.525,-297.467 L 394.893,-297.992 L 396.199,-298.657 L 397.428,-299.455
 L 398.567,-300.377 L 399.603,-301.414 L 400.525,-302.552 L 401.323,-303.781 L 401.989,-305.087 L 402.514,-306.455
 L 402.893,-307.871 L 403.122,-309.318 L 403.199,-310.781 L 392.199,-310.781 L 392.199,-313.581 L 386.199,-313.581
 L 386.199,-310.781 L 375.199,-310.781 L 375.276,-309.318 L 375.505,-307.871 L 375.884,-306.455 L 376.409,-305.087
 L 377.075,-303.781 L 377.873,-302.552 L 378.795,-301.414 L 379.831,-300.377 L 380.97,-299.455 L 382.199,-298.657
 L 383.505,-297.992 L 384.873,-297.467 L 386.288,-297.087 L 387.736,-296.858 L 389.199,-296.781 z
M 296.899,-282.781 L 300.099,-282.781 L 300.099,-302.181 L 296.899,-302.181 L 296.899,-305.481 L 290.899,-305.481
 L 290.899,-302.181 L 287.699,-302.181 L 287.699,-282.781 L 290.899,-282.781 L 290.899,-279.481 L 296.899,-279.481
 z
M 328.649,-282.781 L 335.599,-282.781 L 335.599,-302.181 L 328.649,-302.181 L 328.649,-305.481 L 322.649,-305.481
 L 322.649,-302.181 L 315.699,-302.181 L 315.699,-282.781 L 322.649,-282.781 L 322.649,-279.481 L 328.649,-279.481
 z
M 322.724,-296.006 L 322.724,-298.656 L 328.574,-298.656 L 328.574,-296.006 z
M 322.724,-291.156 L 322.724,-293.806 L 328.574,-293.806 L 328.574,-291.156 z
M 322.724,-286.306 L 322.724,-288.956 L 328.574,-288.956 L 328.574,-286.306 z
M 15,-282.781 L 33,-282.781 L 33,-279.481 L 39,-279.481 L 39,-282.781 L 57,-282.781
 L 57,-279.481 L 63,-279.481 L 63,-282.781 L 81,-282.781 L 81,-279.481 L 87,-279.481
 L 87,-282.781 L 105,-282.781 L 105,-279.481 L 111,-279.481 L 111,-282.781 L 116.695,-282.781
 L 116.695,-291.731 L 116.705,-291.731 L 116.705,-282.781 L 119.495,-282.781 L 119.495,-291.731 L 119.505,-291.731
 L 119.505,-282.781 L 122.295,-282.781 L 122.295,-291.731 L 122.305,-291.731 L 122.305,-282.781 L 125.095,-282.781
 L 125.095,-291.731 L 125.105,-291.731 L 125.105,-282.781 L 127.895,-282.781 L 127.895,-291.731 L 127.905,-291.731
 L 127.905,-282.781 L 130.695,-282.781 L 130.695,-291.731 L 130.705,-291.731 L 130.705,-282.781 L 133.495,-282.781
 L 133.495,-291.731 L 133.505,-291.731 L 133.505,-282.781 L 136.295,-282.781 L 136.295,-291.731 L 136.305,-291.731
 L 136.305,-282.781 L 139.095,-282.781 L 139.095,-291.731 L 139.105,-291.731 L 139.105,-282.781 L 141.895,-282.781
 L 141.895,-291.731 L 141.905,-291.731 L 141.905,-282.781 L 144.695,-282.781 L 144.695,-291.731 L 144.705,-291.731
 L 144.705,-282.781 L 147.495,-282.781 L 147.495,-291.731 L 147.505,-291.731 L 147.505,-282.781 L 150.295,-282.781
 L 150.295,-291.731 L 150.305,-291.731 L 150.305,-282.781 L 153.095,-282.781 L 153.095,-291.731 L 153.105,-291.731
 L 153.105,-282.781 L 155.895,-282.781 L 155.895,-291.731 L 155.905,-291.731 L 155.905,-282.781 L 158.695,-282.781
 L 158.695,-291.731 L 158.705,-291.731 L 158.705,-282.781 L 161.495,-282.781 L 161.495,-291.731 L 161.505,-291.731
 L 161.505,-282.781 L 164.295,-282.781 L 164.295,-291.731 L 164.305,-291.731 L 164.305,-282.781 L 172.456,-282.781
 L 172.456,-279.481 L 178.456,-279.481 L 178.456,-282.781 L 197.706,-282.781 L 197.706,-279.481 L 203.706,-279.481
 L 203.706,-282.781 L 222.956,-282.781 L 222.956,-279.481 L 228.956,-279.481 L 228.956,-282.781 L 248.206,-282.781
 L 248.206,-279.481 L 254.206,-279.481 L 254.206,-282.781 L 263.831,-282.781 L 263.831,-302.181 L 254.206,-302.181
 L 254.206,-305.481 L 248.206,-305.481 L 248.206,-302.181 L 228.956,-302.181 L 228.956,-305.481 L 222.956,-305.481
 L 222.956,-302.181 L 203.706,-302.181 L 203.706,-305.481 L 197.706,-305.481 L 197.706,-302.181 L 178.456,-302.181
 L 178.456,-305.481 L 172.456,-305.481 L 172.456,-302.181 L 164.305,-302.181 L 164.305,-293.231 L 164.295,-293.231
 L 164.295,-302.181 L 161.505,-302.181 L 161.505,-293.231 L 161.495,-293.231 L 161.495,-302.181 L 158.705,-302.181
 L 158.705,-293.231 L 158.695,-293.231 L 158.695,-302.181 L 155.905,-302.181 L 155.905,-293.231 L 155.895,-293.231
 L 155.895,-302.181 L 153.105,-302.181 L 153.105,-293.231 L 153.095,-293.231 L 153.095,-302.181 L 150.305,-302.181
 L 150.305,-293.231 L 150.295,-293.231 L 150.295,-302.181 L 147.505,-302.181 L 147.505,-293.231 L 147.495,-293.231
 L 147.495,-302.181 L 144.705,-302.181 L 144.705,-293.231 L 144.695,-293.231 L 144.695,-302.181 L 141.905,-302.181
 L 141.905,-293.231 L 141.895,-293.231 L 141.895,-302.181 L 139.105,-302.181 L 139.105,-293.231 L 139.095,-293.231
 L 139.095,-302.181 L 136.305,-302.181 L 136.305,-293.231 L 136.295,-293.231 L 136.295,-302.181 L 133.505,-302.181
 L 133.505,-293.231 L 133.495,-293.231 L 133.495,-302.181 L 130.705,-302.181 L 130.705,-293.231 L 130.695,-293.231
 L 130.695,-302.181 L 127.905,-302.181 L 127.905,-293.231 L 127.895,-293.231 L 127.895,-302.181 L 125.105,-302.181
 L 125.105,-293.231 L 125.095,-293.231 L 125.095,-302.181 L 122.305,-302.181 L 122.305,-293.231 L 122.295,-293.231
 L 122.295,-302.181 L 119.505,-302.181 L 119.505,-293.231 L 119.495,-293.231 L 119.495,-302.181 L 116.705,-302.181
 L 116.705,-293.231 L 116.695,-293.231 L 116.695,-302.181 L 111,-302.181 L 111,-305.481 L 105,-305.481
 L 105,-302.181 L 87,-302.181 L 87,-305.481 L 81,-305.481 L 81,-302.181 L 63,-302.181
 L 63,-305.481 L 57,-305.481 L 57,-302.181 L 39,-302.181 L 39,-305.481 L 33,-305.481
 L 33,-302.181 L 15,-302.181 L 15,-305.481 L 9,-305.481 L 9,-302.181 L 0,-302.181
 L 0,-282.781 L 9,-282.781 L 9,-279.481 L 15,-279.481 z
M 129.295,-284.281 L 129.295,-300.681 L 129.305,-300.681 L 129.305,-284.281 z
M 132.095,-284.281 L 132.095,-300.681 L 132.105,-300.681 L 132.105,-284.281 z
M 157.295,-284.281 L 157.295,-300.681 L 157.305,-300.681 L 157.305,-284.281 z
M 154.495,-284.281 L 154.495,-300.681 L 154.505,-300.681 L 154.505,-284.281 z
M 151.695,-284.281 L 151.695,-300.681 L 151.705,-300.681 L 151.705,-284.281 z
M 160.095,-284.281 L 160.095,-300.681 L 160.105,-300.681 L 160.105,-284.281 z
M 140.495,-284.281 L 140.495,-300.681 L 140.505,-300.681 L 140.505,-284.281 z
M 134.895,-284.281 L 134.895,-300.681 L 134.905,-300.681 L 134.905,-284.281 z
M 123.695,-284.281 L 123.695,-300.681 L 123.705,-300.681 L 123.705,-284.281 z
M 137.695,-284.281 L 137.695,-300.681 L 137.705,-300.681 L 137.705,-284.281 z
M 143.295,-284.281 L 143.295,-300.681 L 143.305,-300.681 L 143.305,-284.281 z
M 146.095,-284.281 L 146.095,-300.681 L 146.105,-300.681 L 146.105,-284.281 z
M 162.895,-284.281 L 162.895,-300.681 L 162.905,-300.681 L 162.905,-284.281 z
M 120.895,-284.281 L 120.895,-300.681 L 120.905,-300.681 L 120.905,-284.281 z
M 118.095,-284.281 L 118.095,-300.681 L 118.105,-300.681 L 118.105,-284.281 z
M 165.695,-284.281 L 165.695,-300.681 L 165.705,-300.681 L 165.705,-284.281 z
M 126.495,-284.281 L 126.495,-300.681 L 126.505,-300.681 L 126.505,-284.281 z
M 148.895,-284.281 L 148.895,-300.681 L 148.905,-300.681 L 148.905,-284.281 z
M 1.06763,-0.0407562 L 2.12906,-0.162827 L 3.17807,-0.365479 L 4.20859,-0.647552 L 5.21458,-1.00739 L 6.19022,-1.44287
 L 7.12979,-1.95151 L 8.02785,-2.53032 L 8.87915,-3.17592 L 9.67873,-3.88455 L 10.422,-4.65211 L 11.1045,-5.47412
 L 11.7223,-6.34576 L 12.2719,-7.26199 L 12.75,-8.21747 L 12.75,-115 L 12.7907,-116.427 L 12.9129,-117.849
 L 13.116,-119.262 L 13.3994,-120.661 L 13.7622,-122.042 L 14.2033,-123.399 L 14.7211,-124.73 L 15.3139,-126.028
 L 15.98,-127.291 L 16.717,-128.513 L 17.5226,-129.692 L 18.3941,-130.822 L 19.3288,-131.901 L 20.3235,-132.925
 L 22.4265,-134.856 L 23.4212,-135.88 L 24.3559,-136.959 L 25.2274,-138.09 L 26.033,-139.268 L 26.77,-140.491
 L 27.436,-141.753 L 28.0289,-143.052 L 28.5467,-144.382 L 28.9877,-145.74 L 29.3506,-147.12 L 29.634,-148.519
 L 29.8371,-149.932 L 29.9592,-151.355 L 30,-152.781 L 30,-272.781 L 12,-272.781 L 12,-152.781
 L 11.9342,-151.527 L 11.7378,-150.286 L 11.4127,-149.073 L 10.9625,-147.901 L 10.3923,-146.781 L 9.70819,-145.728
 L 8.91772,-144.752 L 8.02956,-143.864 L 7.05342,-143.073 L 6,-142.389 L 4.88083,-141.819 L 3.70819,-141.369
 L 2.49493,-141.044 L 1.25433,-140.847 L 0,-140.781 L -1.25433,-140.847 L -2.49493,-141.044 L -3.70819,-141.369
 L -4.88083,-141.819 L -6,-142.389 L -7.05342,-143.073 L -8.02956,-143.864 L -8.91772,-144.752 L -9.70819,-145.728
 L -10.3923,-146.781 L -10.9625,-147.901 L -11.4127,-149.073 L -11.7378,-150.286 L -11.9342,-151.527 L -12,-152.781
 L -12,-272.781 L -30,-272.781 L -30,-152.781 L -29.9592,-151.355 L -29.8371,-149.932 L -29.634,-148.519
 L -29.3506,-147.12 L -28.9877,-145.74 L -28.5467,-144.382 L -28.0289,-143.052 L -27.436,-141.753 L -26.77,-140.491
 L -26.033,-139.268 L -25.2274,-138.09 L -24.3559,-136.959 L -23.4212,-135.88 L -22.4265,-134.856 L -20.3235,-132.925
 L -19.3288,-131.901 L -18.3941,-130.822 L -17.5226,-129.692 L -16.717,-128.513 L -15.98,-127.291 L -15.3139,-126.028
 L -14.7211,-124.73 L -14.2033,-123.399 L -13.7622,-122.042 L -13.3994,-120.661 L -13.116,-119.262 L -12.9129,-117.849
 L -12.7907,-116.427 L -12.75,-115 L -12.75,-8.21747 L -12.2719,-7.26199 L -11.7223,-6.34576 L -11.1045,-5.47412
 L -10.422,-4.65211 L -9.67873,-3.88455 L -8.87915,-3.17592 L -8.02785,-2.53032 L -7.12979,-1.95151 L -6.19022,-1.44287
 L -5.21458,-1.00739 L -4.20859,-0.647552 L -3.17807,-0.365479 L -2.12906,-0.162827 L -1.06763,-0.0407562 L 0,-0
 z
M -23.925,-270.056 L -23.925,-272.706 L -18.075,-272.706 L -18.075,-270.056 z
M 18.075,-270.056 L 18.075,-272.706 L 23.925,-272.706 L 23.925,-270.056 z
M 12.075,-257.856 L 12.075,-263.706 L 14.725,-263.706 L 14.725,-257.856 z
M -29.925,-257.856 L -29.925,-263.706 L -27.275,-263.706 L -27.275,-257.856 z
M -14.725,-257.856 L -14.725,-263.706 L -12.075,-263.706 L -12.075,-257.856 z
M 27.275,-257.856 L 27.275,-263.706 L 29.925,-263.706 L 29.925,-257.856 z
M -29.925,-233.856 L -29.925,-239.706 L -27.275,-239.706 L -27.275,-233.856 z
M 12.075,-233.856 L 12.075,-239.706 L 14.725,-239.706 L 14.725,-233.856 z
M 27.275,-233.856 L 27.275,-239.706 L 29.925,-239.706 L 29.925,-233.856 z
M -14.725,-233.856 L -14.725,-239.706 L -12.075,-239.706 L -12.075,-233.856 z
M -14.725,-209.856 L -14.725,-215.706 L -12.075,-215.706 L -12.075,-209.856 z
M -29.925,-209.856 L -29.925,-215.706 L -27.275,-215.706 L -27.275,-209.856 z
M 27.275,-209.856 L 27.275,-215.706 L 29.925,-215.706 L 29.925,-209.856 z
M 12.075,-209.856 L 12.075,-215.706 L 14.725,-215.706 L 14.725,-209.856 z
M 12.075,-185.856 L 12.075,-191.706 L 14.725,-191.706 L 14.725,-185.856 z
M -14.725,-185.856 L -14.725,-191.706 L -12.075,-191.706 L -12.075,-185.856 z
M -29.925,-185.856 L -29.925,-191.706 L -27.275,-191.706 L -27.275,-185.856 z
M 27.275,-185.856 L 27.275,-191.706 L 29.925,-191.706 L 29.925,-185.856 z
M -14.725,-161.856 L -14.725,-167.706 L -12.075,-167.706 L -12.075,-161.856 z
M 12.075,-161.856 L 12.075,-167.706 L 14.725,-167.706 L 14.725,-161.856 z
M 27.275,-161.856 L 27.275,-167.706 L 29.925,-167.706 L 29.925,-161.856 z
M -29.925,-161.856 L -29.925,-167.706 L -27.275,-167.706 L -27.275,-161.856 z
M 10.025,-99.45 L 10.025,-105.3 L 12.675,-105.3 L 12.675,-99.45 z
M -12.675,-99.45 L -12.675,-105.3 L -10.025,-105.3 L -10.025,-99.45 z
M 10.025,-74.2 L 10.025,-80.05 L 12.675,-80.05 L 12.675,-74.2 z
M -12.675,-74.2 L -12.675,-80.05 L -10.025,-80.05 L -10.025,-74.2 z
M 10.025,-48.95 L 10.025,-54.8 L 12.675,-54.8 L 12.675,-48.95 z
M -12.675,-48.95 L -12.675,-54.8 L -10.025,-54.8 L -10.025,-48.95 z
M 10.025,-23.7 L 10.025,-29.55 L 12.675,-29.55 L 12.675,-23.7 z
M -12.675,-23.7 L -12.675,-29.55 L -10.025,-29.55 L -10.025,-23.7 z
M -2.92499,-14.075 L -2.92499,-16.725 L 2.92499,-16.725 L 2.92499,-14.075 z
M 76.0676,-0.0407562 L 77.1291,-0.162827 L 78.1781,-0.365479 L 79.2086,-0.647552 L 80.2146,-1.00739 L 81.1902,-1.44287
 L 82.1298,-1.95151 L 83.0278,-2.53032 L 83.8792,-3.17592 L 84.6787,-3.88455 L 85.422,-4.65211 L 86.1045,-5.47412
 L 86.7223,-6.34576 L 87.2719,-7.26199 L 87.75,-8.21747 L 87.75,-115 L 87.7907,-116.427 L 87.9129,-117.849
 L 88.116,-119.262 L 88.3994,-120.661 L 88.7622,-122.042 L 89.2033,-123.399 L 89.7211,-124.73 L 90.3139,-126.028
 L 90.98,-127.291 L 91.717,-128.513 L 92.5226,-129.692 L 93.3941,-130.822 L 94.3288,-131.901 L 95.3235,-132.925
 L 97.4265,-134.856 L 98.4212,-135.88 L 99.3559,-136.959 L 100.227,-138.09 L 101.033,-139.268 L 101.77,-140.491
 L 102.436,-141.753 L 103.029,-143.052 L 103.547,-144.382 L 103.988,-145.74 L 104.351,-147.12 L 104.634,-148.519
 L 104.837,-149.932 L 104.959,-151.355 L 105,-152.781 L 105,-272.781 L 87,-272.781 L 87,-152.781
 L 86.9342,-151.527 L 86.7378,-150.286 L 86.4127,-149.073 L 85.9625,-147.901 L 85.3923,-146.781 L 84.7082,-145.728
 L 83.9177,-144.752 L 83.0296,-143.864 L 82.0534,-143.073 L 81,-142.389 L 79.8808,-141.819 L 78.7082,-141.369
 L 77.4949,-141.044 L 76.2543,-140.847 L 75,-140.781 L 73.7457,-140.847 L 72.5051,-141.044 L 71.2918,-141.369
 L 70.1192,-141.819 L 69,-142.389 L 67.9466,-143.073 L 66.9704,-143.864 L 66.0823,-144.752 L 65.2918,-145.728
 L 64.6077,-146.781 L 64.0375,-147.901 L 63.5873,-149.073 L 63.2622,-150.286 L 63.0658,-151.527 L 63,-152.781
 L 63,-272.781 L 45,-272.781 L 45,-152.781 L 45.0408,-151.355 L 45.1629,-149.932 L 45.366,-148.519
 L 45.6494,-147.12 L 46.0123,-145.74 L 46.4533,-144.382 L 46.9711,-143.052 L 47.564,-141.753 L 48.23,-140.491
 L 48.967,-139.268 L 49.7726,-138.09 L 50.6441,-136.959 L 51.5788,-135.88 L 52.5735,-134.856 L 54.6765,-132.925
 L 55.6712,-131.901 L 56.6059,-130.822 L 57.4774,-129.692 L 58.283,-128.513 L 59.02,-127.291 L 59.6861,-126.028
 L 60.2789,-124.73 L 60.7967,-123.399 L 61.2378,-122.042 L 61.6006,-120.661 L 61.884,-119.262 L 62.0871,-117.849
 L 62.2093,-116.427 L 62.25,-115 L 62.25,-8.21747 L 62.7281,-7.26199 L 63.2777,-6.34576 L 63.8955,-5.47412
 L 64.578,-4.65211 L 65.3213,-3.88455 L 66.1208,-3.17592 L 66.9722,-2.53032 L 67.8702,-1.95151 L 68.8098,-1.44287
 L 69.7854,-1.00739 L 70.7914,-0.647552 L 71.8219,-0.365479 L 72.8709,-0.162827 L 73.9324,-0.0407562 L 75,-0
 z
M 93.075,-270.056 L 93.075,-272.706 L 98.925,-272.706 L 98.925,-270.056 z
M 51.075,-270.056 L 51.075,-272.706 L 56.925,-272.706 L 56.925,-270.056 z
M 102.275,-257.856 L 102.275,-263.706 L 104.925,-263.706 L 104.925,-257.856 z
M 60.275,-257.856 L 60.275,-263.706 L 62.925,-263.706 L 62.925,-257.856 z
M 45.075,-257.856 L 45.075,-263.706 L 47.725,-263.706 L 47.725,-257.856 z
M 87.075,-257.856 L 87.075,-263.706 L 89.725,-263.706 L 89.725,-257.856 z
M 87.075,-233.856 L 87.075,-239.706 L 89.725,-239.706 L 89.725,-233.856 z
M 102.275,-233.856 L 102.275,-239.706 L 104.925,-239.706 L 104.925,-233.856 z
M 60.275,-233.856 L 60.275,-239.706 L 62.925,-239.706 L 62.925,-233.856 z
M 45.075,-233.856 L 45.075,-239.706 L 47.725,-239.706 L 47.725,-233.856 z
M 87.075,-209.856 L 87.075,-215.706 L 89.725,-215.706 L 89.725,-209.856 z
M 60.275,-209.856 L 60.275,-215.706 L 62.925,-215.706 L 62.925,-209.856 z
M 45.075,-209.856 L 45.075,-215.706 L 47.725,-215.706 L 47.725,-209.856 z
M 102.275,-209.856 L 102.275,-215.706 L 104.925,-215.706 L 104.925,-209.856 z
M 87.075,-185.856 L 87.075,-191.706 L 89.725,-191.706 L 89.725,-185.856 z
M 60.275,-185.856 L 60.275,-191.706 L 62.925,-191.706 L 62.925,-185.856 z
M 45.075,-185.856 L 45.075,-191.706 L 47.725,-191.706 L 47.725,-185.856 z
M 102.275,-185.856 L 102.275,-191.706 L 104.925,-191.706 L 104.925,-185.856 z
M 60.275,-161.856 L 60.275,-167.706 L 62.925,-167.706 L 62.925,-161.856 z
M 102.275,-161.856 L 102.275,-167.706 L 104.925,-167.706 L 104.925,-161.856 z
M 87.075,-161.856 L 87.075,-167.706 L 89.725,-167.706 L 89.725,-161.856 z
M 45.075,-161.856 L 45.075,-167.706 L 47.725,-167.706 L 47.725,-161.856 z
M 85.025,-99.45 L 85.025,-105.3 L 87.675,-105.3 L 87.675,-99.45 z
M 62.325,-99.45 L 62.325,-105.3 L 64.975,-105.3 L 64.975,-99.45 z
M 62.325,-74.2 L 62.325,-80.05 L 64.975,-80.05 L 64.975,-74.2 z
M 85.025,-74.2 L 85.025,-80.05 L 87.675,-80.05 L 87.675,-74.2 z
M 85.025,-48.95 L 85.025,-54.8 L 87.675,-54.8 L 87.675,-48.95 z
M 62.325,-48.95 L 62.325,-54.8 L 64.975,-54.8 L 64.975,-48.95 z
M 85.025,-23.7 L 85.025,-29.55 L 87.675,-29.55 L 87.675,-23.7 z
M 62.325,-23.7 L 62.325,-29.55 L 64.975,-29.55 L 64.975,-23.7 z
M 72.075,-14.075 L 72.075,-16.725 L 77.925,-16.725 L 77.925,-14.075 z
" stroke="black" fill="lightgray" stroke-width="0.5"/>
</svg>
