<svg xmlns="http://www.w3.org/2000/svg" width="11.8in" height="12.98in" viewBox="0 0 849.6 934.5600000000001"><g/><g/><g/><g/><g/><g/><g/><g/><g/><g/><g/><g/><path d="M 773.2374780317697 85.29716924533261 L 773.1219486459429 88.32343696186805 L 773.1219486459429 88.32343696186805 L 772.7759211813759 91.33241333982079 L 772.7759211813759 91.33241333982079 L 772.2014745672027 94.30595664690742 L 772.2014745672027 94.30595664690742 L 771.4018975593287 97.22705900911217 L 771.4018975593287 97.22705900911217 L 770.3818843309822 100.07871255241926 L 770.3818843309822 100.07871255241926 L 769.1474528349192 102.84419286737989 L 769.1474528349192 102.84419286737989 L 767.705638661691 105.50762593824601 L 767.705638661691 105.50762593824601 L 766.0649174018483 108.05313774926964 L 766.0649174018483 108.05313774926964 L 764.2348701577539 110.46655507210428 L 764.2348701577539 110.46655507210428 L 762.226155197124 112.73285428470271 L 762.226155197124 112.73285428470271 L 760.0503945672027 114.83984641068696 L 760.0503945672027 114.83984641068696 L 757.7202874805886 116.7744920799783 L 757.7202874805886 116.7744920799783 L 755.2494969294074 118.52573617446649 L 755.2494969294074 118.52573617446649 L 752.6523095278326 120.083657434309 L 752.6523095278326 120.083657434309 L 749.9438622837381 121.4389015287972 L 749.9438622837381 121.4389015287972 L 447.25322606326563 121.43890152879726 L 447.25322606326563 121.43890152879726 L 443.2081866931869 121.5542716075374 L 443.2081866931869 121.5542716075374 L 439.1773205514546 121.90066530832482 L 439.1773205514546 121.90066530832482 L 435.17196622074596 122.47638184375788 L 435.17196622074596 122.47638184375788 L 431.20629692940736 123.27972042643503 L 431.20629692940736 123.27972042643503 L 427.29165126011605 124.30812987525394 L 427.29165126011605 124.30812987525394 L 423.4450370868877 125.55849207997835 L 423.4450370868877 125.55849207997835 L 419.6721237010609 127.02627160753741 L 419.6721237010609 127.02627160753741 L 415.9927536223208 128.7066495602933 L 415.9927536223208 128.7066495602933 L 412.41259614200584 130.59480704060826 L 412.41259614200584 130.59480704060826 L 408.9486591341318 132.683940898876 L 408.9486591341318 132.683940898876 L 405.6066118900373 134.9675314500571 L 405.6066118900373 134.9675314500571 L 402.40346228373807 137.4379251508445 L 402.40346228373807 137.4379251508445 L 399.3448796065727 140.08746845793112 L 399.3448796065727 140.08746845793112 L 396.4422024412184 142.9070905051752 L 396.4422024412184 142.9070905051752 L 390.96850165381693 148.86835034769487 L 390.96850165381693 148.86835034769487 L 388.06582448846257 151.68797239493898 L 388.06582448846257 151.68797239493898 L 385.0072418112972 154.33751570202563 L 385.0072418112972 154.33751570202563 L 381.8012575593287 156.80790940281304 L 381.8012575593287 156.80790940281304 L 378.4620449609035 159.09149995399414 L 378.4620449609035 159.09149995399414 L 374.99527330736015 161.18063381226185 L 374.99527330736015 161.18063381226185 L 371.41795047271455 163.06850782800987 L 371.41795047271455 163.06850782800987 L 367.7357457483051 164.74916924533272 L 367.7357457483051 164.74916924533272 L 363.9656670081476 166.21694877289178 L 363.9656670081476 166.21694877289178 L 360.11621818924993 167.46702751304923 L 360.11621818924993 167.46702751304923 L 356.2044071656279 168.49572042643507 L 356.2044071656279 168.49572042643507 L 352.2387378742893 169.29905900911226 L 352.2387378742893 169.29905900911226 L 348.2333835435807 169.87477554454532 L 348.2333835435807 169.87477554454532 L 344.19968275617913 170.2208857807658 L 344.19968275617913 170.2208857807658 L 340.15747803176964 170.33653932407287 L 340.15747803176964 170.33653932407287 L -0.0000022831910655440883 170.33653932407293 L -0.0000022831910655440883 170.33653932407293 L -0.0000022831910655440883 119.31291727682884 L -0.0000022831910655440883 119.31291727682884 L 340.1574780317696 119.31291727682878 L 340.1574780317696 119.31291727682878 L 343.71212370106093 119.12639759178938 L 343.71212370106093 119.12639759178938 L 347.22991897665145 118.56967318234058 L 347.22991897665145 118.56967318234058 L 350.66834417350185 117.64812987525397 L 350.66834417350185 117.64812987525397 L 353.9905488979113 116.37197239493904 L 353.9905488979113 116.37197239493904 L 357.1653520475176 114.75565743430911 L 357.1653520475176 114.75565743430911 L 360.15023393728137 112.81647633194689 L 360.15023393728137 112.81647633194689 L 362.9168481105097 110.57568893037208 L 362.9168481105097 110.57568893037208 L 365.43401346484046 108.05824011147445 L 365.43401346484046 108.05824011147445 L 367.6762181892499 105.29105900911222 L 367.6762181892499 105.29105900911222 L 369.61511582704514 102.30504326108075 L 369.61511582704514 102.30504326108075 L 371.2308638585413 99.13250782800986 L 371.2308638585413 99.13250782800986 L 372.5064544097223 95.80860231619886 L 372.5064544097223 95.80860231619886 L 373.42771425224197 92.36932672564768 L 373.42771425224197 92.36932672564768 L 373.9861394490924 88.85266530832484 L 373.9861394490924 88.85266530832484 L 374.17322606326564 85.2971692453327 L 374.17322606326564 85.2971692453327 L 373.9861394490924 81.74167318234058 L 373.9861394490924 81.74167318234058 L 373.42771425224197 78.22501176501774 L 373.42771425224197 78.22501176501774 L 372.5064544097223 74.78573617446656 L 372.5064544097223 74.78573617446656 L 371.2308638585413 71.46183066265556 L 371.2308638585413 71.46183066265556 L 369.61511582704514 68.28929522958467 L 369.61511582704514 68.28929522958467 L 367.6762181892499 65.30327948155318 L 367.6762181892499 65.30327948155318 L 365.43401346484046 62.536098379190975 L 365.43401346484046 62.536098379190975 L 362.9168481105097 60.01864956029334 L 362.9168481105097 60.01864956029334 L 360.15023393728137 57.777862158718506 L 360.15023393728137 57.777862158718506 L 357.1653520475176 55.83868105635631 L 357.1653520475176 55.83868105635631 L 353.9905488979113 54.222366095726386 L 353.9905488979113 54.222366095726386 L 350.66834417350185 52.94620861541145 L 350.66834417350185 52.94620861541145 L 347.22991897665145 52.02466530832481 L 347.22991897665145 52.02466530832481 L 343.71212370106093 51.46794089887601 L 343.71212370106093 51.46794089887601 L 340.1574780317696 51.28142121383664 L 340.1574780317696 51.28142121383664 L -0.0000022831910655440883 51.281421213836694 L -0.0000022831910655440883 51.281421213836694 L -0.0000022831910655440883 0.25779916659257646 L -0.0000022831910655440883 0.25779916659257646 L 340.1574780317696 0.2577991665925196 L 340.1574780317696 0.2577991665925196 L 344.1996827561791 0.37401963903346325 L 344.1996827561791 0.37401963903346325 L 348.23338354358066 0.719846410687012 L 348.23338354358066 0.719846410687012 L 352.23873787428926 1.295279481553166 L 352.23873787428926 1.295279481553166 L 356.20440716562786 2.097484205962587 L 356.20440716562786 2.097484205962587 L 360.1162181892499 3.126460583915332 L 360.1162181892499 3.126460583915332 L 363.96566700814753 4.376539324072837 L 363.96566700814753 4.376539324072837 L 367.735745748305 5.844885780765765 L 367.735745748305 5.844885780765765 L 371.4179504727145 7.525830662655494 L 371.4179504727145 7.525830662655494 L 374.9952733073601 9.413704678403576 L 374.9952733073601 9.413704678403576 L 378.4620449609034 11.502838536671277 L 378.4620449609034 11.502838536671277 L 381.80125755932863 13.78756294612009 L 381.80125755932863 13.78756294612009 L 385.00724181129715 16.256822788639738 L 385.00724181129715 16.256822788639738 L 388.0658244884625 18.906366095726355 L 388.0658244884625 18.906366095726355 L 390.9685016538169 21.725988142970436 L 390.9685016538169 21.725988142970436 L 396.4422024412184 27.68724798549016 L 396.4422024412184 27.68724798549016 L 399.3448796065727 30.50687003273424 L 399.3448796065727 30.50687003273424 L 402.40346228373807 33.15641333982086 L 402.40346228373807 33.15641333982086 L 405.6066118900373 35.6268070406083 L 405.6066118900373 35.6268070406083 L 408.9486591341318 37.910397591789376 L 408.9486591341318 37.910397591789376 L 412.41259614200584 39.99953145005708 L 412.41259614200584 39.99953145005708 L 415.9927536223208 41.88768893037201 L 415.9927536223208 41.88768893037201 L 419.6721237010609 43.568066883127926 L 419.6721237010609 43.568066883127926 L 423.4450370868877 45.035846410687014 L 423.4450370868877 45.035846410687014 L 427.29165126011605 46.2862086154114 L 427.29165126011605 46.2862086154114 L 431.20629692940736 47.3146180642303 L 431.20629692940736 47.3146180642303 L 435.17196622074596 48.11795664690749 L 435.17196622074596 48.11795664690749 L 439.1773205514546 48.693673182340575 L 439.1773205514546 48.693673182340575 L 443.2081866931869 49.04006688312796 L 443.2081866931869 49.04006688312796 L 447.25322606326563 49.155436961868105 L 447.25322606326563 49.155436961868105 L 749.9438622837381 49.15543696186805 L 749.9438622837381 49.15543696186805 L 752.6523095278326 50.51068105635625 L 752.6523095278326 50.51068105635625 L 755.2494969294074 52.06860231619876 L 755.2494969294074 52.06860231619876 L 757.7202874805886 53.81984641068695 L 757.7202874805886 53.81984641068695 L 760.0503945672027 55.75449207997829 L 760.0503945672027 55.75449207997829 L 762.226155197124 57.86148420596251 L 762.226155197124 57.86148420596251 L 764.2348701577539 60.127783418560966 L 764.2348701577539 60.127783418560966 L 766.0649174018483 62.54120074139561 L 766.0649174018483 62.54120074139561 L 767.705638661691 65.08671255241921 L 767.705638661691 65.08671255241921 L 769.1474528349192 67.75014562328536 L 769.1474528349192 67.75014562328536 L 770.3818843309822 70.51562593824599 L 770.3818843309822 70.51562593824599 L 771.4018975593287 73.36727948155308 L 771.4018975593287 73.36727948155308 L 772.2014745672027 76.2883818437578 L 772.2014745672027 76.2883818437578 L 772.7759211813759 79.26192515084446 L 772.7759211813759 79.26192515084446 L 773.1219486459429 82.2709015287972 L 773.1219486459429 82.2709015287972 L 773.2374780317697 85.29716924533261 z" fill="none" stroke="#000000"/><path d="M 7.724407165627895 17.478271607537465 L 0.21259614200573654 17.478271607537465 L 0.21259614200573654 17.478271607537465 L 0.21259614200573654 34.06094877289178 L 0.21259614200573654 34.06094877289178 L 7.724407165627895 34.06094877289178 L 7.724407165627895 34.06094877289178 L 7.724407165627895 17.478271607537465 z" fill="none" stroke="#000000"/><path d="M 7.724407165627895 136.53338971777373 L 0.21259614200573654 136.53338971777373 L 0.21259614200573654 136.53338971777373 L 0.21259614200573654 153.11606688312804 L 0.21259614200573654 153.11606688312804 L 7.724407165627895 153.11606688312804 L 7.724407165627895 153.11606688312804 L 7.724407165627895 136.53338971777373 z" fill="none" stroke="#000000"/><path d="M 42.30708433098221 0.47039759178943547 L 25.72440716562778 0.47039759178943547 L 25.72440716562778 0.47039759178943547 L 25.72440716562778 7.98220861541148 L 25.72440716562778 7.98220861541148 L 42.30708433098221 7.98220861541148 L 42.30708433098221 7.98220861541148 L 42.30708433098221 0.4703975917894354 z" fill="none" stroke="#000000"/><path d="M 42.30708433098221 119.5255157020257 L 25.72440716562778 119.5255157020257 L 25.72440716562778 119.5255157020257 L 25.72440716562778 127.03732672564774 L 25.72440716562778 127.03732672564774 L 42.30708433098221 127.03732672564774 L 42.30708433098221 127.03732672564774 L 42.30708433098221 119.5255157020257 z" fill="none" stroke="#000000"/><path d="M 42.30708433098221 162.61212987525403 L 25.72440716562778 162.61212987525403 L 25.72440716562778 162.61212987525403 L 25.72440716562778 170.12394089887607 L 25.72440716562778 170.12394089887607 L 42.30708433098221 170.12394089887607 L 42.30708433098221 170.12394089887607 L 42.30708433098221 162.61212987525403 z" fill="none" stroke="#000000"/><path d="M 42.30708433098221 43.55701176501782 L 25.72440716562778 43.55701176501782 L 25.72440716562778 43.55701176501782 L 25.72440716562778 51.068822788639835 L 25.72440716562778 51.068822788639835 L 42.30708433098221 51.068822788639835 L 42.30708433098221 51.068822788639835 L 42.30708433098221 43.55701176501782 z" fill="none" stroke="#000000"/><path d="M 110.33858039397433 43.55701176501779 L 93.75590322862001 43.55701176501779 L 93.75590322862001 43.55701176501779 L 93.75590322862001 51.06882278863981 L 93.75590322862001 51.06882278863981 L 110.33858039397433 51.06882278863981 L 110.33858039397433 51.06882278863981 L 110.33858039397433 43.55701176501779 z" fill="none" stroke="#000000"/><path d="M 110.33858039397433 0.47039759178943547 L 93.75590322862001 0.47039759178943547 L 93.75590322862001 0.47039759178943547 L 93.75590322862001 7.98220861541148 L 93.75590322862001 7.98220861541148 L 110.33858039397433 7.98220861541148 L 110.33858039397433 7.98220861541148 L 110.33858039397433 0.4703975917894354 z" fill="none" stroke="#000000"/><path d="M 110.33858039397433 119.52551570202567 L 93.75590322862001 119.52551570202567 L 93.75590322862001 119.52551570202567 L 93.75590322862001 127.03732672564772 L 93.75590322862001 127.03732672564772 L 110.33858039397433 127.03732672564772 L 110.33858039397433 127.03732672564772 L 110.33858039397433 119.52551570202567 z" fill="none" stroke="#000000"/><path d="M 110.33858039397433 162.612129875254 L 93.75590322862001 162.612129875254 L 93.75590322862001 162.612129875254 L 93.75590322862001 170.12394089887607 L 93.75590322862001 170.12394089887607 L 110.33858039397433 170.12394089887607 L 110.33858039397433 170.12394089887607 L 110.33858039397433 162.612129875254 z" fill="none" stroke="#000000"/><path d="M 178.37007645696644 0.47039759178943547 L 161.78739929161213 0.47039759178943547 L 161.78739929161213 0.47039759178943547 L 161.78739929161213 7.98220861541148 L 161.78739929161213 7.98220861541148 L 178.37007645696644 7.98220861541148 L 178.37007645696644 7.98220861541148 L 178.37007645696644 0.4703975917894354 z" fill="none" stroke="#000000"/><path d="M 178.37007645696644 162.612129875254 L 161.78739929161213 162.612129875254 L 161.78739929161213 162.612129875254 L 161.78739929161213 170.12394089887604 L 161.78739929161213 170.12394089887604 L 178.37007645696644 170.12394089887604 L 178.37007645696644 170.12394089887604 L 178.37007645696644 162.612129875254 z" fill="none" stroke="#000000"/><path d="M 178.37007645696644 119.52551570202567 L 161.78739929161213 119.52551570202567 L 161.78739929161213 119.52551570202567 L 161.78739929161213 127.03732672564772 L 161.78739929161213 127.03732672564772 L 178.37007645696644 127.03732672564772 L 178.37007645696644 127.03732672564772 L 178.37007645696644 119.52551570202567 z" fill="none" stroke="#000000"/><path d="M 178.37007645696644 43.55701176501779 L 161.78739929161213 43.55701176501779 L 161.78739929161213 43.55701176501779 L 161.78739929161213 51.06882278863981 L 161.78739929161213 51.06882278863981 L 178.37007645696644 51.06882278863981 L 178.37007645696644 51.06882278863981 L 178.37007645696644 43.55701176501779 z" fill="none" stroke="#000000"/><path d="M 246.40157251995868 0.47039759178943547 L 229.81889535460425 0.47039759178943547 L 229.81889535460425 0.47039759178943547 L 229.81889535460425 7.98220861541148 L 229.81889535460425 7.98220861541148 L 246.40157251995868 7.98220861541148 L 246.40157251995868 7.98220861541148 L 246.40157251995868 0.4703975917894354 z" fill="none" stroke="#000000"/><path d="M 246.40157251995868 43.55701176501776 L 229.81889535460425 43.55701176501779 L 229.81889535460425 43.55701176501779 L 229.81889535460425 51.06882278863981 L 229.81889535460425 51.06882278863981 L 246.40157251995868 51.06882278863978 L 246.40157251995868 51.06882278863978 L 246.40157251995868 43.55701176501776 z" fill="none" stroke="#000000"/><path d="M 246.40157251995868 119.52551570202564 L 229.81889535460425 119.52551570202567 L 229.81889535460425 119.52551570202567 L 229.81889535460425 127.03732672564772 L 229.81889535460425 127.03732672564772 L 246.40157251995868 127.03732672564769 L 246.40157251995868 127.03732672564769 L 246.40157251995868 119.52551570202564 z" fill="none" stroke="#000000"/><path d="M 246.40157251995868 162.61212987525397 L 229.81889535460425 162.612129875254 L 229.81889535460425 162.612129875254 L 229.81889535460425 170.12394089887601 L 229.81889535460425 170.12394089887601 L 246.40157251995868 170.12394089887601 L 246.40157251995868 170.12394089887601 L 246.40157251995868 162.61212987525397 z" fill="none" stroke="#000000"/><path d="M 314.4330685829507 119.52551570202564 L 297.85039141759637 119.52551570202564 L 297.85039141759637 119.52551570202564 L 297.85039141759637 127.03732672564769 L 297.85039141759637 127.03732672564769 L 314.4330685829507 127.03732672564769 L 314.4330685829507 127.03732672564769 L 314.4330685829507 119.52551570202564 z" fill="none" stroke="#000000"/><path d="M 314.43306858295074 162.61212987525397 L 297.8503914175964 162.61212987525397 L 297.8503914175964 162.61212987525397 L 297.8503914175964 170.12394089887601 L 297.8503914175964 170.12394089887601 L 314.43306858295074 170.12394089887601 L 314.43306858295074 170.12394089887601 L 314.43306858295074 162.61212987525397 z" fill="none" stroke="#000000"/><path d="M 314.4330685829507 0.4703975917893786 L 297.85039141759637 0.47039759178943547 L 297.85039141759637 0.47039759178943547 L 297.85039141759637 7.98220861541148 L 297.85039141759637 7.98220861541148 L 314.4330685829507 7.982208615411423 L 314.4330685829507 7.982208615411423 L 314.4330685829507 0.47039759178937857 z" fill="none" stroke="#000000"/><path d="M 314.4330685829507 43.55701176501776 L 297.85039141759637 43.55701176501776 L 297.85039141759637 43.55701176501776 L 297.85039141759637 51.06882278863978 L 297.85039141759637 51.06882278863978 L 314.4330685829507 51.06882278863978 L 314.4330685829507 51.06882278863978 L 314.4330685829507 43.55701176501776 z" fill="none" stroke="#000000"/><path d="M 491.331966220746 49.368035387064964 L 474.74928905539167 49.368035387064964 L 474.74928905539167 49.368035387064964 L 474.74928905539167 56.87984641068698 L 474.74928905539167 56.87984641068698 L 491.331966220746 56.87984641068698 L 491.331966220746 56.87984641068698 L 491.331966220746 49.368035387064964 z" fill="none" stroke="#000000"/><path d="M 491.331966220746 113.71449207997836 L 474.74928905539167 113.71449207997836 L 474.74928905539167 113.71449207997836 L 474.74928905539167 121.2263031036004 L 474.74928905539167 121.2263031036004 L 491.331966220746 121.2263031036004 L 491.331966220746 121.2263031036004 L 491.331966220746 113.71449207997836 z" fill="none" stroke="#000000"/><path d="M 562.9067693703523 113.71449207997833 L 546.324092204998 113.71449207997833 L 546.324092204998 113.71449207997833 L 546.324092204998 121.22630310360037 L 546.324092204998 121.22630310360037 L 562.9067693703523 121.22630310360037 L 562.9067693703523 121.22630310360037 L 562.9067693703523 113.71449207997833 z" fill="none" stroke="#000000"/><path d="M 562.9067693703523 49.368035387064936 L 546.3240922049979 49.368035387064936 L 546.3240922049979 49.368035387064936 L 546.3240922049979 56.87984641068695 L 546.3240922049979 56.87984641068695 L 562.9067693703523 56.87984641068695 L 562.9067693703523 56.87984641068695 L 562.9067693703523 49.368035387064936 z" fill="none" stroke="#000000"/><path d="M 634.4815725199586 49.368035387064936 L 617.8988953546043 49.368035387064936 L 617.8988953546043 49.368035387064936 L 617.8988953546043 56.87984641068695 L 617.8988953546043 56.87984641068695 L 634.4815725199586 56.87984641068695 L 634.4815725199586 56.87984641068695 L 634.4815725199586 49.368035387064936 z" fill="none" stroke="#000000"/><path d="M 634.4815725199586 113.71449207997833 L 617.8988953546043 113.71449207997833 L 617.8988953546043 113.71449207997833 L 617.8988953546043 121.22630310360037 L 617.8988953546043 121.22630310360037 L 634.4815725199586 121.22630310360037 L 634.4815725199586 121.22630310360037 L 634.4815725199586 113.71449207997833 z" fill="none" stroke="#000000"/><path d="M 706.0563756695649 49.36803538706491 L 689.4736985042106 49.368035387064936 L 689.4736985042106 49.368035387064936 L 689.4736985042106 56.87984641068695 L 689.4736985042106 56.87984641068695 L 706.0563756695649 56.87984641068692 L 706.0563756695649 56.87984641068692 L 706.0563756695649 49.36803538706491 z" fill="none" stroke="#000000"/><path d="M 706.0563756695649 113.7144920799783 L 689.4736985042106 113.71449207997833 L 689.4736985042106 113.71449207997833 L 689.4736985042106 121.22630310360037 L 689.4736985042106 121.22630310360037 L 706.0563756695649 121.22630310360034 L 706.0563756695649 121.22630310360034 L 706.0563756695649 113.7144920799783 z" fill="none" stroke="#000000"/><path d="M 733.3398402364941 77.00583066265546 L 725.828029212872 77.00583066265546 L 725.828029212872 77.00583066265546 L 725.828029212872 93.5885078280098 L 725.828029212872 93.5885078280098 L 733.3398402364941 93.5885078280098 L 733.3398402364941 93.5885078280098 L 733.3398402364941 77.00583066265546 z" fill="none" stroke="#000000"/><path d="M 13.987202000000025 209.58050680000002 L 14.102731385826797 206.5541540440945 L 14.102731385826797 206.5541540440945 L 14.448758850393725 203.5453760913386 L 14.448758850393725 203.5453760913386 L 15.023205464566953 200.5718044377953 L 15.023205464566953 200.5718044377953 L 15.82278247244097 197.6506453826772 L 15.82278247244097 197.6506453826772 L 16.842795700787427 194.7990201858268 L 16.842795700787427 194.7990201858268 L 18.07722719685042 192.0334264850394 L 18.07722719685042 192.0334264850394 L 19.519041370078764 189.37007845354333 L 19.519041370078764 189.37007845354333 L 21.159762629921282 186.82439656377954 L 21.159762629921282 186.82439656377954 L 22.989809874015773 184.41126270551183 L 22.989809874015773 184.41126270551183 L 24.998524834645693 182.14473672125987 L 24.998524834645693 182.14473672125987 L 27.174285464566957 180.03782963464568 L 27.174285464566957 180.03782963464568 L 29.504392551181127 178.10318396535436 L 29.504392551181127 178.10318396535436 L 31.97518310236223 176.35193987086615 L 31.97518310236223 176.35193987086615 L 34.57237050393703 174.79401861102363 L 34.57237050393703 174.79401861102363 L 37.280817748031524 173.43877451653546 L 37.280817748031524 173.43877451653546 L 339.971453968504 173.43877451653543 L 339.971453968504 173.43877451653543 L 344.01649333858273 173.32340443779526 L 344.01649333858273 173.32340443779526 L 348.04735948031504 172.97701073700787 L 348.04735948031504 172.97701073700787 L 352.0527138110237 172.40129420157479 L 352.0527138110237 172.40129420157479 L 356.0183831023623 171.59795561889763 L 356.0183831023623 171.59795561889763 L 359.9330287716536 170.56954617007875 L 359.9330287716536 170.56954617007875 L 363.77964294488197 169.31918396535434 L 363.77964294488197 169.31918396535434 L 367.55255633070874 167.85140443779528 L 367.55255633070874 167.85140443779528 L 371.2319264094489 166.17102648503936 L 371.2319264094489 166.17102648503936 L 374.8120838897638 164.2828690047244 L 374.8120838897638 164.2828690047244 L 378.27602089763786 162.1937351464567 L 378.27602089763786 162.1937351464567 L 381.61806814173235 159.9101445952756 L 381.61806814173235 159.9101445952756 L 384.8212177480316 157.43975089448818 L 384.8212177480316 157.43975089448818 L 387.87980042519695 154.79020758740157 L 387.87980042519695 154.79020758740157 L 390.78247759055125 151.9705855401575 L 390.78247759055125 151.9705855401575 L 396.2561783779528 146.0093256976378 L 396.2561783779528 146.0093256976378 L 399.15885554330714 143.1897036503937 L 399.15885554330714 143.1897036503937 L 402.2174382204725 140.5401603433071 L 402.2174382204725 140.5401603433071 L 405.423422472441 138.06976664251965 L 405.423422472441 138.06976664251965 L 408.7626350708662 135.78617609133858 L 408.7626350708662 135.78617609133858 L 412.22940672440956 133.69704223307087 L 412.22940672440956 133.69704223307087 L 415.80672955905516 131.80916821732282 L 415.80672955905516 131.80916821732282 L 419.48893428346463 130.12850679999997 L 419.48893428346463 130.12850679999997 L 423.2590130236221 128.6607272724409 L 423.2590130236221 128.6607272724409 L 427.1084618425198 127.41064853228345 L 427.1084618425198 127.41064853228345 L 431.0202728661418 126.38195561889762 L 431.0202728661418 126.38195561889762 L 434.9859421574804 125.57861703622046 L 434.9859421574804 125.57861703622046 L 438.991296488189 125.00290050078739 L 438.991296488189 125.00290050078739 L 443.0249972755906 124.65679026456692 L 443.0249972755906 124.65679026456692 L 447.06720200000007 124.54113672125983 L 447.06720200000007 124.54113672125983 L 787.2246823149608 124.54113672125982 L 787.2246823149608 124.54113672125982 L 787.2246823149608 175.5647587685039 L 787.2246823149608 175.5647587685039 L 447.06720200000007 175.56475876850394 L 447.06720200000007 175.56475876850394 L 443.5125563307087 175.7512784535433 L 443.5125563307087 175.7512784535433 L 439.9947610551182 176.3080028629921 L 439.9947610551182 176.3080028629921 L 436.5563358582678 177.22954617007872 L 436.5563358582678 177.22954617007872 L 433.23413113385834 178.50570365039368 L 433.23413113385834 178.50570365039368 L 430.05932798425204 180.1220186110236 L 430.05932798425204 180.1220186110236 L 427.0744460944883 182.0612280598425 L 427.0744460944883 182.0612280598425 L 424.30783192125995 184.30193042204723 L 424.30783192125995 184.30193042204723 L 421.7906665669292 186.81954931968502 L 421.7906665669292 186.81954931968502 L 419.54846184251977 189.5865603433071 L 419.54846184251977 189.5865603433071 L 417.6095642047245 192.57263278425197 L 417.6095642047245 192.57263278425197 L 415.99381617322837 195.74508317795275 L 415.99381617322837 195.74508317795275 L 414.7182256220473 199.06910207559054 L 414.7182256220473 199.06910207559054 L 413.7969657795277 202.50826428031496 L 413.7969657795277 202.50826428031496 L 413.2385405826773 206.0249256976378 L 413.2385405826773 206.0249256976378 L 413.051453968504 209.5805068 L 413.051453968504 209.5805068 L 413.2385405826773 213.1360879023622 L 413.2385405826773 213.1360879023622 L 413.7969657795277 216.65274931968503 L 413.7969657795277 216.65274931968503 L 414.7182256220473 220.09191152440945 L 414.7182256220473 220.09191152440945 L 415.99381617322837 223.41593042204724 L 415.99381617322837 223.41593042204724 L 417.6095642047245 226.58838081574802 L 417.6095642047245 226.58838081574802 L 419.54846184251977 229.57445325669292 L 419.54846184251977 229.57445325669292 L 421.7906665669292 232.34146428031497 L 421.7906665669292 232.34146428031497 L 424.30783192125995 234.85908317795275 L 424.30783192125995 234.85908317795275 L 427.0744460944883 237.09978554015748 L 427.0744460944883 237.09978554015748 L 430.05932798425204 239.03899498897638 L 430.05932798425204 239.03899498897638 L 433.23413113385834 240.6553099496063 L 433.23413113385834 240.6553099496063 L 436.5563358582678 241.93146742992127 L 436.5563358582678 241.93146742992127 L 439.9947610551182 242.85301073700788 L 439.9947610551182 242.85301073700788 L 443.5125563307087 243.40973514645668 L 443.5125563307087 243.40973514645668 L 447.06720200000007 243.59625483149605 L 447.06720200000007 243.59625483149605 L 787.2246823149608 243.59625483149603 L 787.2246823149608 243.59625483149603 L 787.2246823149608 294.6198768787401 L 787.2246823149608 294.6198768787401 L 447.06720200000007 294.6198768787402 L 447.06720200000007 294.6198768787402 L 443.0249972755906 294.50422333543304 L 443.0249972755906 294.50422333543304 L 438.991296488189 294.1581130992126 L 438.991296488189 294.1581130992126 L 434.9859421574804 293.5823965637795 L 434.9859421574804 293.5823965637795 L 431.0202728661418 292.77905798110237 L 431.0202728661418 292.77905798110237 L 427.1084618425198 291.75036506771653 L 427.1084618425198 291.75036506771653 L 423.2590130236221 290.5002863275591 L 423.2590130236221 290.5002863275591 L 419.48893428346463 289.0325068 L 419.48893428346463 289.0325068 L 415.80672955905516 287.3518453826772 L 415.80672955905516 287.3518453826772 L 412.22940672440956 285.4639713669291 L 412.22940672440956 285.4639713669291 L 408.7626350708662 283.3748375086614 L 408.7626350708662 283.3748375086614 L 405.423422472441 281.09124695748034 L 405.423422472441 281.09124695748034 L 402.2174382204725 278.6208532566929 L 402.2174382204725 278.6208532566929 L 399.15885554330714 275.9713099496063 L 399.15885554330714 275.9713099496063 L 396.2561783779528 273.1516879023622 L 396.2561783779528 273.1516879023622 L 390.78247759055125 267.19042805984253 L 390.78247759055125 267.19042805984253 L 387.87980042519695 264.37080601259845 L 387.87980042519695 264.37080601259845 L 384.8212177480316 261.72126270551183 L 384.8212177480316 261.72126270551183 L 381.61806814173235 259.25086900472445 L 381.61806814173235 259.25086900472445 L 378.27602089763786 256.9672784535433 L 378.27602089763786 256.9672784535433 L 374.8120838897638 254.87814459527561 L 374.8120838897638 254.87814459527561 L 371.2319264094489 252.98998711496063 L 371.2319264094489 252.98998711496063 L 367.55255633070874 251.30960916220474 L 367.55255633070874 251.30960916220474 L 363.77964294488197 249.84182963464568 L 363.77964294488197 249.84182963464568 L 359.9330287716536 248.59146742992127 L 359.9330287716536 248.59146742992127 L 356.0183831023623 247.56305798110236 L 356.0183831023623 247.56305798110236 L 352.0527138110237 246.7597193984252 L 352.0527138110237 246.7597193984252 L 348.04735948031504 246.18400286299214 L 348.04735948031504 246.18400286299214 L 344.01649333858273 245.83760916220473 L 344.01649333858273 245.83760916220473 L 339.971453968504 245.72223908346456 L 339.971453968504 245.72223908346456 L 37.280817748031524 245.7222390834646 L 37.280817748031524 245.7222390834646 L 34.57237050393704 244.36699498897642 L 34.57237050393704 244.36699498897642 L 31.975183102362237 242.8090737291339 L 31.975183102362237 242.8090737291339 L 29.50439255118113 241.05782963464569 L 29.50439255118113 241.05782963464569 L 27.174285464566957 239.12318396535437 L 27.174285464566957 239.12318396535437 L 24.998524834645696 237.01627687874017 L 24.998524834645696 237.01627687874017 L 22.989809874015776 234.74975089448822 L 22.989809874015776 234.74975089448822 L 21.15976262992129 232.3366170362205 L 21.15976262992129 232.3366170362205 L 19.519041370078767 229.79093514645672 L 19.519041370078767 229.79093514645672 L 18.07722719685042 227.12758711496065 L 18.07722719685042 227.12758711496065 L 16.842795700787427 224.36199341417324 L 16.842795700787427 224.36199341417324 L 15.82278247244097 221.51036821732285 L 15.82278247244097 221.51036821732285 L 15.023205464566955 218.58920916220475 L 15.023205464566955 218.58920916220475 L 14.448758850393727 215.61563750866145 L 14.448758850393727 215.61563750866145 L 14.102731385826797 212.60685955590554 L 14.102731385826797 212.60685955590554 L 13.987202000000025 209.58050680000002 z" fill="none" stroke="#000000"/><path d="M 779.5002728661418 158.34428632755902 L 787.012083889764 158.34428632755902 L 787.012083889764 158.34428632755902 L 787.012083889764 141.7616091622047 L 787.012083889764 141.7616091622047 L 779.5002728661418 141.7616091622047 L 779.5002728661418 141.7616091622047 L 779.5002728661418 158.34428632755902 z" fill="none" stroke="#000000"/><path d="M 779.5002728661418 277.3994044377953 L 787.012083889764 277.3994044377953 L 787.012083889764 277.3994044377953 L 787.012083889764 260.8167272724409 L 787.012083889764 260.8167272724409 L 779.5002728661418 260.8167272724409 L 779.5002728661418 260.8167272724409 L 779.5002728661418 277.3994044377953 z" fill="none" stroke="#000000"/><path d="M 744.9175957007875 251.32066428031493 L 761.5002728661419 251.32066428031493 L 761.5002728661419 251.32066428031493 L 761.5002728661419 243.80885325669288 L 761.5002728661419 243.80885325669288 L 744.9175957007875 243.80885325669288 L 744.9175957007875 243.80885325669288 L 744.9175957007875 251.32066428031493 z" fill="none" stroke="#000000"/><path d="M 744.9175957007875 132.26554617007872 L 761.5002728661419 132.26554617007872 L 761.5002728661419 132.26554617007872 L 761.5002728661419 124.75373514645666 L 761.5002728661419 124.75373514645666 L 744.9175957007875 124.75373514645666 L 744.9175957007875 124.75373514645666 L 744.9175957007875 132.26554617007872 z" fill="none" stroke="#000000"/><path d="M 744.9175957007875 175.35216034330705 L 761.5002728661419 175.35216034330705 L 761.5002728661419 175.35216034330705 L 761.5002728661419 167.840349319685 L 761.5002728661419 167.840349319685 L 744.9175957007875 167.840349319685 L 744.9175957007875 167.840349319685 L 744.9175957007875 175.35216034330705 z" fill="none" stroke="#000000"/><path d="M 744.9175957007875 294.4072784535433 L 761.5002728661419 294.4072784535433 L 761.5002728661419 294.4072784535433 L 761.5002728661419 286.89546742992127 L 761.5002728661419 286.89546742992127 L 744.9175957007875 286.89546742992127 L 744.9175957007875 286.89546742992127 L 744.9175957007875 294.4072784535433 z" fill="none" stroke="#000000"/><path d="M 676.8860996377954 175.35216034330705 L 693.4687768031497 175.35216034330705 L 693.4687768031497 175.35216034330705 L 693.4687768031497 167.840349319685 L 693.4687768031497 167.840349319685 L 676.8860996377954 167.840349319685 L 676.8860996377954 167.840349319685 L 676.8860996377954 175.35216034330705 z" fill="none" stroke="#000000"/><path d="M 676.8860996377954 294.4072784535433 L 693.4687768031497 294.4072784535433 L 693.4687768031497 294.4072784535433 L 693.4687768031497 286.89546742992127 L 693.4687768031497 286.89546742992127 L 676.8860996377954 286.89546742992127 L 676.8860996377954 286.89546742992127 L 676.8860996377954 294.4072784535433 z" fill="none" stroke="#000000"/><path d="M 676.8860996377954 251.32066428031493 L 693.4687768031497 251.32066428031493 L 693.4687768031497 251.32066428031493 L 693.4687768031497 243.80885325669288 L 693.4687768031497 243.80885325669288 L 676.8860996377954 243.80885325669288 L 676.8860996377954 243.80885325669288 L 676.8860996377954 251.32066428031493 z" fill="none" stroke="#000000"/><path d="M 676.8860996377954 132.26554617007872 L 693.4687768031497 132.26554617007872 L 693.4687768031497 132.26554617007872 L 693.4687768031497 124.75373514645666 L 693.4687768031497 124.75373514645666 L 676.8860996377954 124.75373514645666 L 676.8860996377954 124.75373514645666 L 676.8860996377954 132.26554617007872 z" fill="none" stroke="#000000"/><path d="M 608.8546035748033 251.32066428031496 L 625.4372807401576 251.32066428031496 L 625.4372807401576 251.32066428031496 L 625.4372807401576 243.8088532566929 L 625.4372807401576 243.8088532566929 L 608.8546035748033 243.8088532566929 L 608.8546035748033 243.8088532566929 L 608.8546035748033 251.32066428031496 z" fill="none" stroke="#000000"/><path d="M 608.8546035748033 175.35216034330708 L 625.4372807401576 175.35216034330708 L 625.4372807401576 175.35216034330708 L 625.4372807401576 167.84034931968503 L 625.4372807401576 167.84034931968503 L 608.8546035748033 167.84034931968503 L 608.8546035748033 167.84034931968503 L 608.8546035748033 175.35216034330708 z" fill="none" stroke="#000000"/><path d="M 608.8546035748033 132.26554617007872 L 625.4372807401576 132.26554617007872 L 625.4372807401576 132.26554617007872 L 625.4372807401576 124.75373514645666 L 625.4372807401576 124.75373514645666 L 608.8546035748033 124.75373514645666 L 608.8546035748033 124.75373514645666 L 608.8546035748033 132.26554617007872 z" fill="none" stroke="#000000"/><path d="M 608.8546035748033 294.4072784535433 L 625.4372807401576 294.4072784535433 L 625.4372807401576 294.4072784535433 L 625.4372807401576 286.89546742992127 L 625.4372807401576 286.89546742992127 L 608.8546035748033 286.89546742992127 L 608.8546035748033 286.89546742992127 L 608.8546035748033 294.4072784535433 z" fill="none" stroke="#000000"/><path d="M 540.823107511811 294.4072784535433 L 557.4057846771655 294.4072784535433 L 557.4057846771655 294.4072784535433 L 557.4057846771655 286.89546742992127 L 557.4057846771655 286.89546742992127 L 540.823107511811 286.89546742992127 L 540.823107511811 286.89546742992127 L 540.823107511811 294.4072784535433 z" fill="none" stroke="#000000"/><path d="M 540.823107511811 251.32066428031496 L 557.4057846771655 251.32066428031496 L 557.4057846771655 251.32066428031496 L 557.4057846771655 243.8088532566929 L 557.4057846771655 243.8088532566929 L 540.823107511811 243.8088532566929 L 540.823107511811 243.8088532566929 L 540.823107511811 251.32066428031496 z" fill="none" stroke="#000000"/><path d="M 540.823107511811 132.26554617007872 L 557.4057846771655 132.26554617007872 L 557.4057846771655 132.26554617007872 L 557.4057846771655 124.75373514645668 L 557.4057846771655 124.75373514645668 L 540.823107511811 124.75373514645668 L 540.823107511811 124.75373514645668 L 540.823107511811 132.26554617007872 z" fill="none" stroke="#000000"/><path d="M 540.823107511811 175.35216034330708 L 557.4057846771655 175.35216034330708 L 557.4057846771655 175.35216034330708 L 557.4057846771655 167.84034931968503 L 557.4057846771655 167.84034931968503 L 540.823107511811 167.84034931968503 L 540.823107511811 167.84034931968503 L 540.823107511811 175.35216034330708 z" fill="none" stroke="#000000"/><path d="M 472.79161144881897 175.35216034330708 L 489.3742886141733 175.35216034330708 L 489.3742886141733 175.35216034330708 L 489.3742886141733 167.84034931968503 L 489.3742886141733 167.84034931968503 L 472.79161144881897 167.84034931968503 L 472.79161144881897 167.84034931968503 L 472.79161144881897 175.35216034330708 z" fill="none" stroke="#000000"/><path d="M 472.79161144881897 132.26554617007872 L 489.3742886141733 132.26554617007872 L 489.3742886141733 132.26554617007872 L 489.3742886141733 124.75373514645668 L 489.3742886141733 124.75373514645668 L 472.79161144881897 124.75373514645668 L 472.79161144881897 124.75373514645668 L 472.79161144881897 132.26554617007872 z" fill="none" stroke="#000000"/><path d="M 472.79161144881897 294.4072784535433 L 489.3742886141733 294.4072784535433 L 489.3742886141733 294.4072784535433 L 489.3742886141733 286.89546742992127 L 489.3742886141733 286.89546742992127 L 472.79161144881897 286.89546742992127 L 472.79161144881897 286.89546742992127 L 472.79161144881897 294.4072784535433 z" fill="none" stroke="#000000"/><path d="M 472.79161144881897 251.32066428031496 L 489.3742886141733 251.32066428031496 L 489.3742886141733 251.32066428031496 L 489.3742886141733 243.8088532566929 L 489.3742886141733 243.8088532566929 L 472.79161144881897 243.8088532566929 L 472.79161144881897 243.8088532566929 L 472.79161144881897 251.32066428031496 z" fill="none" stroke="#000000"/><path d="M 295.89271381102367 181.16318396535434 L 312.475390976378 181.16318396535434 L 312.475390976378 181.16318396535434 L 312.475390976378 173.6513729417323 L 312.475390976378 173.6513729417323 L 295.89271381102367 173.6513729417323 L 295.89271381102367 173.6513729417323 L 295.89271381102367 181.16318396535434 z" fill="none" stroke="#000000"/><path d="M 295.89271381102367 245.50964065826773 L 312.475390976378 245.50964065826773 L 312.475390976378 245.50964065826773 L 312.475390976378 237.99782963464568 L 312.475390976378 237.99782963464568 L 295.89271381102367 237.99782963464568 L 295.89271381102367 237.99782963464568 L 295.89271381102367 245.50964065826773 z" fill="none" stroke="#000000"/><path d="M 224.3179106614174 245.50964065826773 L 240.9005878267717 245.50964065826773 L 240.9005878267717 245.50964065826773 L 240.9005878267717 237.99782963464568 L 240.9005878267717 237.99782963464568 L 224.3179106614174 237.99782963464568 L 224.3179106614174 237.99782963464568 L 224.3179106614174 245.50964065826773 z" fill="none" stroke="#000000"/><path d="M 224.3179106614174 181.16318396535434 L 240.9005878267717 181.16318396535434 L 240.9005878267717 181.16318396535434 L 240.9005878267717 173.6513729417323 L 240.9005878267717 173.6513729417323 L 224.3179106614174 173.6513729417323 L 224.3179106614174 173.6513729417323 L 224.3179106614174 181.16318396535434 z" fill="none" stroke="#000000"/><path d="M 152.74310751181108 245.50964065826776 L 169.3257846771654 245.50964065826776 L 169.3257846771654 245.50964065826776 L 169.3257846771654 237.99782963464568 L 169.3257846771654 237.99782963464568 L 152.74310751181108 237.99782963464568 L 152.74310751181108 237.99782963464568 L 152.74310751181108 245.50964065826776 z" fill="none" stroke="#000000"/><path d="M 152.74310751181108 181.16318396535434 L 169.3257846771654 181.16318396535434 L 169.3257846771654 181.16318396535434 L 169.3257846771654 173.6513729417323 L 169.3257846771654 173.6513729417323 L 152.74310751181108 173.6513729417323 L 152.74310751181108 173.6513729417323 L 152.74310751181108 181.16318396535434 z" fill="none" stroke="#000000"/><path d="M 81.16830436220475 245.50964065826776 L 97.75098152755909 245.50964065826776 L 97.75098152755909 245.50964065826776 L 97.75098152755909 237.99782963464568 L 97.75098152755909 237.99782963464568 L 81.16830436220475 237.99782963464568 L 81.16830436220475 237.99782963464568 L 81.16830436220475 245.50964065826776 z" fill="none" stroke="#000000"/><path d="M 81.16830436220475 181.16318396535434 L 97.75098152755909 181.16318396535434 L 97.75098152755909 181.16318396535434 L 97.75098152755909 173.6513729417323 L 97.75098152755909 173.6513729417323 L 81.16830436220475 173.6513729417323 L 81.16830436220475 173.6513729417323 L 81.16830436220475 181.16318396535434 z" fill="none" stroke="#000000"/><path d="M 53.88483979527562 217.8718170362205 L 61.39665081889767 217.8718170362205 L 61.39665081889767 217.8718170362205 L 61.39665081889767 201.28919656377954 L 61.39665081889767 201.28919656377954 L 53.88483979527562 201.28919656377954 L 53.88483979527562 201.28919656377954 L 53.88483979527562 217.8718170362205 z" fill="none" stroke="#000000"/><path d="M 341.87244094488193 333.8294048976378 L 341.844094488189 333.8294048976378 L 341.844094488189 333.8294048976378 L 341.844094488189 359.1994836377953 L 341.844094488189 359.1994836377953 L 314.6456692913386 359.1994836377953 L 314.6456692913386 359.1994836377953 L 314.6456692913386 368.55381434645676 L 314.6456692913386 368.55381434645676 L 297.6377952755906 368.55381434645676 L 297.6377952755906 368.55381434645676 L 297.6377952755906 359.1994836377953 L 297.6377952755906 359.1994836377953 L 246.6141732283465 359.1994836377953 L 246.6141732283465 359.1994836377953 L 246.6141732283465 368.55381434645676 L 246.6141732283465 368.55381434645676 L 229.60629921259846 368.55381434645676 L 229.60629921259846 368.55381434645676 L 229.60629921259846 359.1994836377953 L 229.60629921259846 359.1994836377953 L 178.58267716535434 359.1994836377953 L 178.58267716535434 359.1994836377953 L 178.58267716535434 368.55381434645676 L 178.58267716535434 368.55381434645676 L 161.5748031496063 368.55381434645676 L 161.5748031496063 368.55381434645676 L 161.5748031496063 359.1994836377953 L 161.5748031496063 359.1994836377953 L 110.55118110236222 359.1994836377953 L 110.55118110236222 359.1994836377953 L 110.55118110236222 368.55381434645676 L 110.55118110236222 368.55381434645676 L 93.54330708661418 368.55381434645676 L 93.54330708661418 368.55381434645676 L 93.54330708661418 359.1994836377953 L 93.54330708661418 359.1994836377953 L 42.51968503937008 359.1994836377953 L 42.51968503937008 359.1994836377953 L 42.51968503937008 368.55381434645676 L 42.51968503937008 368.55381434645676 L 25.51181102362205 368.55381434645676 L 25.51181102362205 368.55381434645676 L 25.51181102362205 359.1994836377953 L 25.51181102362205 359.1994836377953 L 0 359.1994836377953 L 0 359.1994836377953 L 0 304.20735765354334 L 0 304.20735765354334 L 25.51181102362205 304.20735765354334 L 25.51181102362205 304.20735765354334 L 25.51181102362205 294.853026944882 L 25.51181102362205 294.853026944882 L 42.51968503937008 294.853026944882 L 42.51968503937008 294.853026944882 L 42.51968503937008 304.20735765354334 L 42.51968503937008 304.20735765354334 L 93.54330708661418 304.20735765354334 L 93.54330708661418 304.20735765354334 L 93.54330708661418 294.853026944882 L 93.54330708661418 294.853026944882 L 110.55118110236222 294.853026944882 L 110.55118110236222 294.853026944882 L 110.55118110236222 304.20735765354334 L 110.55118110236222 304.20735765354334 L 161.5748031496063 304.20735765354334 L 161.5748031496063 304.20735765354334 L 161.5748031496063 294.853026944882 L 161.5748031496063 294.853026944882 L 178.58267716535434 294.853026944882 L 178.58267716535434 294.853026944882 L 178.58267716535434 304.20735765354334 L 178.58267716535434 304.20735765354334 L 229.60629921259846 304.20735765354334 L 229.60629921259846 304.20735765354334 L 229.60629921259846 294.853026944882 L 229.60629921259846 294.853026944882 L 246.6141732283465 294.853026944882 L 246.6141732283465 294.853026944882 L 246.6141732283465 304.20735765354334 L 246.6141732283465 304.20735765354334 L 297.6377952755906 304.20735765354334 L 297.6377952755906 304.20735765354334 L 297.6377952755906 294.853026944882 L 297.6377952755906 294.853026944882 L 314.6456692913386 294.853026944882 L 314.6456692913386 294.853026944882 L 314.6456692913386 304.20735765354334 L 314.6456692913386 304.20735765354334 L 341.844094488189 304.20735765354334" fill="none" stroke="#000000"/><path d="M 341.87244094488193 359.1994836377953 L 348.64724409448826 359.1994836377953 L 348.64724409448826 359.1994836377953 L 348.64724409448826 333.8294048976378 L 348.64724409448826 333.8294048976378 L 348.67559055118113 333.8294048976378" fill="none" stroke="#000000"/><path d="M 348.67559055118113 359.1994836377953 L 355.4503937007874 359.1994836377953 L 355.4503937007874 359.1994836377953 L 355.4503937007874 333.8294048976378 L 355.4503937007874 333.8294048976378 L 355.47874015748033 333.8294048976378" fill="none" stroke="#000000"/><path d="M 355.47874015748033 359.1994836377953 L 362.25354330708666 359.1994836377953 L 362.25354330708666 359.1994836377953 L 362.25354330708666 333.8294048976378 L 362.25354330708666 333.8294048976378 L 362.2818897637796 333.8294048976378" fill="none" stroke="#000000"/><path d="M 362.2818897637796 359.1994836377953 L 369.05669291338586 359.1994836377953 L 369.05669291338586 359.1994836377953 L 369.05669291338586 333.8294048976378 L 369.05669291338586 333.8294048976378 L 369.0850393700788 333.8294048976378" fill="none" stroke="#000000"/><path d="M 369.0850393700788 359.1994836377953 L 375.85984251968506 359.1994836377953 L 375.85984251968506 359.1994836377953 L 375.85984251968506 333.8294048976378 L 375.85984251968506 333.8294048976378 L 375.888188976378 333.8294048976378" fill="none" stroke="#000000"/><path d="M 375.888188976378 359.1994836377953 L 382.6629921259843 359.1994836377953 L 382.6629921259843 359.1994836377953 L 382.6629921259843 333.8294048976378 L 382.6629921259843 333.8294048976378 L 382.6913385826772 333.8294048976378" fill="none" stroke="#000000"/><path d="M 382.6913385826772 359.1994836377953 L 389.4661417322835 359.1994836377953 L 389.4661417322835 359.1994836377953 L 389.4661417322835 333.8294048976378 L 389.4661417322835 333.8294048976378 L 389.49448818897645 333.8294048976378" fill="none" stroke="#000000"/><path d="M 389.49448818897645 359.1994836377953 L 396.26929133858266 359.1994836377953 L 396.26929133858266 359.1994836377953 L 396.26929133858266 333.8294048976378 L 396.26929133858266 333.8294048976378 L 396.29763779527565 333.8294048976378" fill="none" stroke="#000000"/><path d="M 396.29763779527565 359.1994836377953 L 403.0724409448819 359.1994836377953 L 403.0724409448819 359.1994836377953 L 403.0724409448819 333.8294048976378 L 403.0724409448819 333.8294048976378 L 403.1007874015749 333.8294048976378" fill="none" stroke="#000000"/><path d="M 403.1007874015749 359.1994836377953 L 409.8755905511811 359.1994836377953 L 409.8755905511811 359.1994836377953 L 409.8755905511811 333.8294048976378 L 409.8755905511811 333.8294048976378 L 409.90393700787405 333.8294048976378" fill="none" stroke="#000000"/><path d="M 409.90393700787405 359.1994836377953 L 416.6787401574804 359.1994836377953 L 416.6787401574804 359.1994836377953 L 416.6787401574804 333.8294048976378 L 416.6787401574804 333.8294048976378 L 416.70708661417325 333.8294048976378" fill="none" stroke="#000000"/><path d="M 416.70708661417325 359.1994836377953 L 423.4818897637796 359.1994836377953 L 423.4818897637796 359.1994836377953 L 423.4818897637796 333.8294048976378 L 423.4818897637796 333.8294048976378 L 423.5102362204725 333.8294048976378" fill="none" stroke="#000000"/><path d="M 423.5102362204725 359.1994836377953 L 430.2850393700788 359.1994836377953 L 430.2850393700788 359.1994836377953 L 430.2850393700788 333.8294048976378 L 430.2850393700788 333.8294048976378 L 430.3133858267717 333.8294048976378" fill="none" stroke="#000000"/><path d="M 430.3133858267717 359.1994836377953 L 437.088188976378 359.1994836377953 L 437.088188976378 359.1994836377953 L 437.088188976378 333.8294048976378 L 437.088188976378 333.8294048976378 L 437.11653543307096 333.8294048976378" fill="none" stroke="#000000"/><path d="M 437.11653543307096 359.1994836377953 L 443.89133858267724 359.1994836377953 L 443.89133858267724 359.1994836377953 L 443.89133858267724 333.8294048976378 L 443.89133858267724 333.8294048976378 L 443.9196850393701 333.8294048976378" fill="none" stroke="#000000"/><path d="M 443.9196850393701 359.1994836377953 L 472.5325984251969 359.1994836377953 L 472.5325984251969 359.1994836377953 L 472.5325984251969 368.6921274078742 L 472.5325984244094 368.6921274078742 L 523.5562204716534 368.6921274078742 L 523.5562204716534 368.6921274078742 L 523.5562204716534 359.33779669921273 L 523.5562204716534 359.33779669921273 L 540.5640944874015 359.33779669921273" fill="none" stroke="#000000"/><path d="M 472.5325984251969 368.55381434645676 L 489.540472440945 368.55381434645676 L 489.540472440945 368.55381434645676 L 489.540472440945 359.1994836377953 L 489.540472440945 359.1994836377953 L 540.5640944881891 359.1994836377953 L 540.5640944881891 359.1994836377953 L 540.5640944881891 368.6921274078742 L 540.5640944874015 368.6921274078742 L 591.5877165346456 368.6921274078742 L 591.5877165346456 368.6921274078742 L 591.5877165346456 359.33779669921273 L 591.5877165346456 359.33779669921273 L 608.5955905503936 359.33779669921273" fill="none" stroke="#000000"/><path d="M 540.5640944881891 368.55381434645676 L 557.5719685039371 368.55381434645676 L 557.5719685039371 368.55381434645676 L 557.5719685039371 359.1994836377953 L 557.5719685039371 359.1994836377953 L 608.5955905511812 359.1994836377953 L 608.5955905511812 359.1994836377953 L 608.5955905511812 368.6921274078742 L 608.5955905503936 368.6921274078742 L 659.6192125976378 368.6921274078742 L 659.6192125976378 368.6921274078742 L 659.6192125976378 359.33779669921273 L 659.6192125976378 359.33779669921273 L 676.6270866133858 359.33779669921273" fill="none" stroke="#000000"/><path d="M 608.5955905511812 368.55381434645676 L 625.6034645669292 368.55381434645676 L 625.6034645669292 368.55381434645676 L 625.6034645669292 359.1994836377953 L 625.6034645669292 359.1994836377953 L 676.6270866141733 359.1994836377953 L 676.6270866141733 359.1994836377953 L 676.6270866141733 368.6921274078742 L 676.6270866133858 368.6921274078742 L 727.6507086606299 368.6921274078742 L 727.6507086606299 368.6921274078742 L 727.6507086606299 359.33779669921273 L 727.6507086606299 359.33779669921273 L 744.6585826763779 359.33779669921273" fill="none" stroke="#000000"/><path d="M 676.6270866141733 368.55381434645676 L 693.6349606299214 368.55381434645676 L 693.6349606299214 368.55381434645676 L 693.6349606299214 359.1994836377953 L 693.6349606299214 359.1994836377953 L 744.6585826771654 359.1994836377953 L 744.6585826771654 359.1994836377953 L 744.6585826771654 368.6921274078742 L 744.6585826763779 368.6921274078742 L 770.1703937 368.6921274078742 L 770.1703937 368.6921274078742 L 770.1703937 423.68425339212604 L 770.1703937 423.68425339212604 L 744.6585826763779 423.68425339212604 L 744.6585826763779 423.68425339212604 L 744.6585826763779 433.0385841007875" fill="none" stroke="#000000"/><path d="M 744.6585826771654 368.55381434645676 L 761.6664566929135 368.55381434645676 L 761.6664566929135 368.55381434645676 L 761.6664566929135 359.1994836377953 L 761.6664566929135 359.1994836377953 L 787.1782677165355 359.1994836377953 L 787.1782677165355 359.1994836377953 L 787.1782677165355 304.20735765354334 L 787.1782677165355 304.20735765354334 L 761.6664566929135 304.20735765354334 L 761.6664566929135 304.20735765354334 L 761.6664566929135 294.853026944882 L 761.6664566929135 294.853026944882 L 744.6585826771654 294.853026944882 L 744.6585826771654 294.853026944882 L 744.6585826771654 304.20735765354334 L 744.6585826771654 304.20735765354334 L 693.6349606299214 304.20735765354334 L 693.6349606299214 304.20735765354334 L 693.6349606299214 294.853026944882 L 693.6349606299214 294.853026944882 L 676.6270866141733 294.853026944882 L 676.6270866141733 294.853026944882 L 676.6270866141733 304.20735765354334 L 676.6270866141733 304.20735765354334 L 625.6034645669292 304.20735765354334 L 625.6034645669292 304.20735765354334 L 625.6034645669292 294.853026944882 L 625.6034645669292 294.853026944882 L 608.5955905511812 294.853026944882 L 608.5955905511812 294.853026944882 L 608.5955905511812 304.20735765354334 L 608.5955905511812 304.20735765354334 L 557.5719685039371 304.20735765354334 L 557.5719685039371 304.20735765354334 L 557.5719685039371 294.853026944882 L 557.5719685039371 294.853026944882 L 540.5640944881891 294.853026944882 L 540.5640944881891 294.853026944882 L 540.5640944881891 304.20735765354334 L 540.5640944881891 304.20735765354334 L 489.540472440945 304.20735765354334 L 489.540472440945 304.20735765354334 L 489.540472440945 294.853026944882 L 489.540472440945 294.853026944882 L 472.5325984251969 294.853026944882 L 472.5325984251969 294.853026944882 L 472.5325984251969 304.20735765354334 L 472.5325984251969 304.20735765354334 L 443.9196850393701 304.20735765354334 L 443.9196850393701 304.20735765354334 L 443.9196850393701 329.57743639370085 L 443.9196850393701 329.57743639370085 L 443.89133858267724 329.57743639370085" fill="none" stroke="#000000"/><path d="M 443.89133858267724 304.20735765354334 L 437.11653543307096 304.20735765354334 L 437.11653543307096 304.20735765354334 L 437.11653543307096 329.57743639370085 L 437.11653543307096 329.57743639370085 L 437.088188976378 329.57743639370085" fill="none" stroke="#000000"/><path d="M 437.088188976378 304.20735765354334 L 430.3133858267717 304.20735765354334 L 430.3133858267717 304.20735765354334 L 430.3133858267717 329.57743639370085 L 430.3133858267717 329.57743639370085 L 430.2850393700788 329.57743639370085" fill="none" stroke="#000000"/><path d="M 430.2850393700788 304.20735765354334 L 423.5102362204725 304.20735765354334 L 423.5102362204725 304.20735765354334 L 423.5102362204725 329.57743639370085 L 423.5102362204725 329.57743639370085 L 423.4818897637796 329.57743639370085" fill="none" stroke="#000000"/><path d="M 423.4818897637796 304.20735765354334 L 416.70708661417325 304.20735765354334 L 416.70708661417325 304.20735765354334 L 416.70708661417325 329.57743639370085 L 416.70708661417325 329.57743639370085 L 416.6787401574804 329.57743639370085" fill="none" stroke="#000000"/><path d="M 416.6787401574804 304.20735765354334 L 409.90393700787405 304.20735765354334 L 409.90393700787405 304.20735765354334 L 409.90393700787405 329.57743639370085 L 409.90393700787405 329.57743639370085 L 409.8755905511811 329.57743639370085" fill="none" stroke="#000000"/><path d="M 409.8755905511811 304.20735765354334 L 403.1007874015749 304.20735765354334 L 403.1007874015749 304.20735765354334 L 403.1007874015749 329.57743639370085 L 403.1007874015749 329.57743639370085 L 403.0724409448819 329.57743639370085" fill="none" stroke="#000000"/><path d="M 403.0724409448819 304.20735765354334 L 396.29763779527565 304.20735765354334 L 396.29763779527565 304.20735765354334 L 396.29763779527565 329.57743639370085 L 396.29763779527565 329.57743639370085 L 396.26929133858266 329.57743639370085" fill="none" stroke="#000000"/><path d="M 396.26929133858266 304.20735765354334 L 389.49448818897645 304.20735765354334 L 389.49448818897645 304.20735765354334 L 389.49448818897645 329.57743639370085 L 389.49448818897645 329.57743639370085 L 389.4661417322835 329.57743639370085" fill="none" stroke="#000000"/><path d="M 389.4661417322835 304.20735765354334 L 382.6913385826772 304.20735765354334 L 382.6913385826772 304.20735765354334 L 382.6913385826772 329.57743639370085 L 382.6913385826772 329.57743639370085 L 382.6629921259843 329.57743639370085" fill="none" stroke="#000000"/><path d="M 382.6629921259843 304.20735765354334 L 375.888188976378 304.20735765354334 L 375.888188976378 304.20735765354334 L 375.888188976378 329.57743639370085 L 375.888188976378 329.57743639370085 L 375.85984251968506 329.57743639370085" fill="none" stroke="#000000"/><path d="M 375.85984251968506 304.20735765354334 L 369.0850393700788 304.20735765354334 L 369.0850393700788 304.20735765354334 L 369.0850393700788 329.57743639370085 L 369.0850393700788 329.57743639370085 L 369.05669291338586 329.57743639370085" fill="none" stroke="#000000"/><path d="M 369.05669291338586 304.20735765354334 L 362.2818897637796 304.20735765354334 L 362.2818897637796 304.20735765354334 L 362.2818897637796 329.57743639370085 L 362.2818897637796 329.57743639370085 L 362.25354330708666 329.57743639370085" fill="none" stroke="#000000"/><path d="M 362.25354330708666 304.20735765354334 L 355.47874015748033 304.20735765354334 L 355.47874015748033 304.20735765354334 L 355.47874015748033 329.57743639370085 L 355.47874015748033 329.57743639370085 L 355.4503937007874 329.57743639370085" fill="none" stroke="#000000"/><path d="M 355.4503937007874 304.20735765354334 L 348.67559055118113 304.20735765354334 L 348.67559055118113 304.20735765354334 L 348.67559055118113 329.57743639370085 L 348.67559055118113 329.57743639370085 L 348.64724409448826 329.57743639370085" fill="none" stroke="#000000"/><path d="M 348.64724409448826 304.20735765354334 L 341.87244094488193 304.20735765354334 L 341.87244094488193 304.20735765354334 L 341.87244094488193 329.57743639370085 L 341.87244094488193 329.57743639370085 L 341.844094488189 329.57743639370085" fill="none" stroke="#000000"/><path d="M 372.48661417322836 308.4593261574804 L 372.4582677165355 308.4593261574804 L 372.4582677165355 308.4593261574804 L 372.4582677165355 354.94751513385825" fill="none" stroke="#000000"/><path d="M 345.27401574803156 308.4593261574804 L 345.24566929133863 308.4593261574804 L 345.24566929133863 308.4593261574804 L 345.24566929133863 354.94751513385825" fill="none" stroke="#000000"/><path d="M 440.51811023622054 308.4593261574804 L 440.4897637795276 308.4593261574804 L 440.4897637795276 308.4593261574804 L 440.4897637795276 354.94751513385825" fill="none" stroke="#000000"/><path d="M 406.5023622047245 308.4593261574804 L 406.47401574803155 308.4593261574804 L 406.47401574803155 308.4593261574804 L 406.47401574803155 354.94751513385825" fill="none" stroke="#000000"/><path d="M 433.7149606299213 308.4593261574804 L 433.6866141732284 308.4593261574804 L 433.6866141732284 308.4593261574804 L 433.6866141732284 354.94751513385825" fill="none" stroke="#000000"/><path d="M 379.2897637795276 308.4593261574804 L 379.26141732283463 308.4593261574804 L 379.26141732283463 308.4593261574804 L 379.26141732283463 354.94751513385825" fill="none" stroke="#000000"/><path d="M 386.0929133858268 308.4593261574804 L 386.0645669291339 308.4593261574804 L 386.0645669291339 308.4593261574804 L 386.0645669291339 354.94751513385825" fill="none" stroke="#000000"/><path d="M 392.896062992126 308.4593261574804 L 392.8677165354331 308.4593261574804 L 392.8677165354331 308.4593261574804 L 392.8677165354331 354.94751513385825" fill="none" stroke="#000000"/><path d="M 426.9118110236221 308.4593261574804 L 426.88346456692915 308.4593261574804 L 426.88346456692915 308.4593261574804 L 426.88346456692915 354.94751513385825" fill="none" stroke="#000000"/><path d="M 413.3055118110237 308.4593261574804 L 413.2771653543307 308.4593261574804 L 413.2771653543307 308.4593261574804 L 413.2771653543307 354.94751513385825" fill="none" stroke="#000000"/><path d="M 399.6992125984252 308.4593261574804 L 399.67086614173235 308.4593261574804 L 399.67086614173235 308.4593261574804 L 399.67086614173235 354.94751513385825" fill="none" stroke="#000000"/><path d="M 420.10866141732293 308.4593261574804 L 420.08031496062995 308.4593261574804 L 420.08031496062995 308.4593261574804 L 420.08031496062995 354.94751513385825" fill="none" stroke="#000000"/><path d="M 365.68346456692916 308.4593261574804 L 365.6551181102363 308.4593261574804 L 365.6551181102363 308.4593261574804 L 365.6551181102363 354.94751513385825" fill="none" stroke="#000000"/><path d="M 358.88031496062996 308.4593261574804 L 358.85196850393703 308.4593261574804 L 358.85196850393703 308.4593261574804 L 358.85196850393703 354.94751513385825" fill="none" stroke="#000000"/><path d="M 352.07716535433076 308.4593261574804 L 352.04881889763783 308.4593261574804 L 352.04881889763783 308.4593261574804 L 352.04881889763783 354.94751513385825" fill="none" stroke="#000000"/><path d="M 472.5325984244094 359.33779669921273 L 455.52472440866137 359.33779669921273 L 455.52472440866137 359.33779669921273 L 455.52472440866137 368.6921274078742 L 455.52472440866137 368.6921274078742 L 426.9089763771653 368.6921274078742 L 426.9089763771653 368.6921274078742 L 426.9089763771653 391.9362218960631 L 426.9089763771653 391.9362218960631 L 426.88062992047236 391.9362218960631" fill="none" stroke="#000000"/><path d="M 426.88062992047236 368.6921274078742 L 414.4365354322834 368.6921274078742 L 414.4365354322834 368.6921274078742 L 414.4365354322834 391.9362218960631 L 414.4365354322834 391.9362218960631 L 414.4081889755905 391.9362218960631" fill="none" stroke="#000000"/><path d="M 414.4081889755905 368.6921274078742 L 401.9640944874015 368.6921274078742 L 401.9640944874015 368.6921274078742 L 401.9640944874015 391.9362218960631 L 401.9640944874015 391.9362218960631 L 401.9357480307086 391.9362218960631" fill="none" stroke="#000000"/><path d="M 401.9357480307086 368.6921274078742 L 389.49165354251966 368.6921274078742 L 389.49165354251966 368.6921274078742 L 389.49165354251966 391.9362218960631 L 389.49165354251966 391.9362218960631 L 389.46330708582667 391.9362218960631" fill="none" stroke="#000000"/><path d="M 389.46330708582667 368.6921274078742 L 377.01921259763776 368.6921274078742 L 377.01921259763776 368.6921274078742 L 377.01921259763776 391.9362218960631 L 377.01921259763776 391.9362218960631 L 376.9908661409448 391.9362218960631" fill="none" stroke="#000000"/><path d="M 376.9908661409448 368.6921274078742 L 364.54677165275587 368.6921274078742 L 364.54677165275587 368.6921274078742 L 364.54677165275587 391.9362218960631 L 364.54677165275587 391.9362218960631 L 364.51842519606294 391.9362218960631" fill="none" stroke="#000000"/><path d="M 364.51842519606294 368.6921274078742 L 352.0743307078739 368.6921274078742 L 352.0743307078739 368.6921274078742 L 352.0743307078739 391.9362218960631 L 352.0743307078739 391.9362218960631 L 352.04598425118104 391.9362218960631" fill="none" stroke="#000000"/><path d="M 352.04598425118104 368.6921274078742 L 339.601889762992 368.6921274078742 L 339.601889762992 368.6921274078742 L 339.601889762992 391.9362218960631 L 339.601889762992 391.9362218960631 L 339.57354330629914 391.9362218960631" fill="none" stroke="#000000"/><path d="M 339.57354330629914 368.6921274078742 L 327.1294488181102 368.6921274078742 L 327.1294488181102 368.6921274078742 L 327.1294488181102 391.9362218960631 L 327.1294488181102 391.9362218960631 L 327.10110236141725 391.9362218960631" fill="none" stroke="#000000"/><path d="M 327.10110236141725 368.6921274078742 L 314.6570078732283 368.6921274078742 L 314.6570078732283 368.6921274078742 L 314.6570078732283 391.9362218960631 L 314.6570078732283 391.9362218960631 L 314.62866141653535 391.9362218960631" fill="none" stroke="#000000"/><path d="M 314.62866141653535 368.6921274078742 L 281.31874015669285 368.6921274078743 L 281.31874015669285 368.6921274078743 L 281.31874015669285 359.33779669921284 L 281.31874015669285 359.33779669921284 L 264.3108661409448 359.33779669921284 L 264.3108661409448 359.33779669921284 L 264.3108661409448 368.6921274078743 L 264.3108661409448 368.6921274078743 L 209.74393700708652 368.6921274078743 L 209.74393700708652 368.6921274078743 L 209.74393700708652 359.33779669921284 L 209.74393700708652 359.33779669921284 L 192.73606299133849 359.33779669921284 L 192.73606299133849 359.33779669921284 L 192.73606299133849 368.6921274078743 L 192.73606299133849 368.6921274078743 L 138.16913385748023 368.6921274078743 L 138.16913385748023 368.6921274078743 L 138.16913385748023 359.33779669921284 L 138.16913385748023 359.33779669921284 L 121.1612598417322 359.33779669921284 L 121.1612598417322 359.33779669921284 L 121.1612598417322 368.6921274078743 L 121.1612598417322 368.6921274078743 L 66.59433070787395 368.6921274078743 L 66.59433070787395 368.6921274078743 L 66.59433070787395 359.33779669921284 L 66.59433070787395 359.33779669921284 L 49.58645669212592 359.33779669921284 L 49.58645669212592 359.33779669921284 L 49.58645669212592 368.6921274078743 L 49.58645669212592 368.6921274078743 L 22.302992125196738 368.6921274078743 L 22.302992125196738 368.6921274078743 L 22.302992125196738 423.68425339212615 L 22.302992125196738 423.68425339212615 L 49.58645669212592 423.68425339212615 L 49.58645669212592 423.68425339212615 L 49.58645669212592 433.0385841007876 L 49.58645669212592 433.0385841007876 L 66.59433070787395 433.0385841007876 L 66.59433070787395 433.0385841007876 L 66.59433070787395 423.68425339212615 L 66.59433070787395 423.68425339212615 L 121.1612598417322 423.68425339212615 L 121.1612598417322 423.68425339212615 L 121.1612598417322 433.0385841007876 L 121.1612598417322 433.0385841007876 L 138.16913385748023 433.0385841007876 L 138.16913385748023 433.0385841007876 L 138.16913385748023 423.68425339212615 L 138.16913385748023 423.68425339212615 L 192.73606299133849 423.68425339212615 L 192.73606299133849 423.68425339212615 L 192.73606299133849 433.0385841007876 L 192.73606299133849 433.0385841007876 L 209.74393700708652 433.0385841007876 L 209.74393700708652 433.0385841007876 L 209.74393700708652 423.68425339212615 L 209.74393700708652 423.68425339212615 L 264.3108661409448 423.68425339212615 L 264.3108661409448 423.68425339212615 L 264.3108661409448 433.0385841007876 L 264.3108661409448 433.0385841007876 L 281.31874015669285 433.0385841007876 L 281.31874015669285 433.0385841007876 L 281.31874015669285 423.68425339212615 L 281.31874015669285 423.68425339212615 L 314.62866141653535 423.68425339212604 L 314.62866141653535 423.68425339212604 L 314.62866141653535 400.4401589039371 L 314.62866141653535 400.4401589039371 L 314.6570078732283 400.4401589039371" fill="none" stroke="#000000"/><path d="M 314.6570078732283 423.68425339212604 L 327.10110236141725 423.68425339212604 L 327.10110236141725 423.68425339212604 L 327.10110236141725 400.4401589039371 L 327.10110236141725 400.4401589039371 L 327.1294488181102 400.4401589039371" fill="none" stroke="#000000"/><path d="M 327.1294488181102 423.68425339212604 L 339.57354330629914 423.68425339212604 L 339.57354330629914 423.68425339212604 L 339.57354330629914 400.4401589039371 L 339.57354330629914 400.4401589039371 L 339.601889762992 400.4401589039371" fill="none" stroke="#000000"/><path d="M 339.601889762992 423.68425339212604 L 352.04598425118104 423.68425339212604 L 352.04598425118104 423.68425339212604 L 352.04598425118104 400.4401589039371 L 352.04598425118104 400.4401589039371 L 352.0743307078739 400.4401589039371" fill="none" stroke="#000000"/><path d="M 352.0743307078739 423.68425339212604 L 364.51842519606294 423.68425339212604 L 364.51842519606294 423.68425339212604 L 364.51842519606294 400.4401589039371 L 364.51842519606294 400.4401589039371 L 364.54677165275587 400.4401589039371" fill="none" stroke="#000000"/><path d="M 364.54677165275587 423.68425339212604 L 376.9908661409448 423.68425339212604 L 376.9908661409448 423.68425339212604 L 376.9908661409448 400.4401589039371 L 376.9908661409448 400.4401589039371 L 377.01921259763776 400.4401589039371" fill="none" stroke="#000000"/><path d="M 377.01921259763776 423.68425339212604 L 389.46330708582667 423.68425339212604 L 389.46330708582667 423.68425339212604 L 389.46330708582667 400.4401589039371 L 389.46330708582667 400.4401589039371 L 389.49165354251966 400.4401589039371" fill="none" stroke="#000000"/><path d="M 389.49165354251966 423.68425339212604 L 401.9357480307086 423.68425339212604 L 401.9357480307086 423.68425339212604 L 401.9357480307086 400.4401589039371 L 401.9357480307086 400.4401589039371 L 401.9640944874015 400.4401589039371" fill="none" stroke="#000000"/><path d="M 401.9640944874015 423.68425339212604 L 414.4081889755905 423.68425339212604 L 414.4081889755905 423.68425339212604 L 414.4081889755905 400.4401589039371 L 414.4081889755905 400.4401589039371 L 414.4365354322834 400.4401589039371" fill="none" stroke="#000000"/><path d="M 414.4365354322834 423.68425339212604 L 426.88062992047236 423.68425339212604 L 426.88062992047236 423.68425339212604 L 426.88062992047236 400.4401589039371 L 426.88062992047236 400.4401589039371 L 426.9089763771653 400.4401589039371" fill="none" stroke="#000000"/><path d="M 426.9089763771653 423.68425339212604 L 455.52472440866137 423.68425339212604 L 455.52472440866137 423.68425339212604 L 455.52472440866137 433.0385841007875 L 455.52472440866137 433.0385841007875 L 472.5325984244094 433.0385841007875 L 472.5325984244094 433.0385841007875 L 472.5325984244094 423.68425339212604 L 472.5325984244094 423.68425339212604 L 523.5562204716534 423.68425339212604 L 523.5562204716534 423.68425339212604 L 523.5562204716534 433.0385841007875" fill="none" stroke="#000000"/><path d="M 540.5640944874015 433.0385841007875 L 540.5640944874015 423.68425339212604 L 540.5640944874015 423.68425339212604 L 591.5877165346457 423.68425339212604 L 591.5877165346457 423.68425339212604 L 591.5877165346457 433.0385841007875" fill="none" stroke="#000000"/><path d="M 608.5955905503937 433.0385841007875 L 608.5955905503937 423.68425339212604 L 608.5955905503937 423.68425339212604 L 659.6192125976378 423.68425339212604 L 659.6192125976378 423.68425339212604 L 659.6192125976378 433.0385841007875" fill="none" stroke="#000000"/><path d="M 676.6270866133858 433.0385841007875 L 676.6270866133858 423.68425339212604 L 676.6270866133858 423.68425339212604 L 727.6507086606299 423.68425339212604 L 727.6507086606299 423.68425339212604 L 727.6507086606299 433.0385841007875" fill="none" stroke="#000000"/><path d="M 345.80976377874003 415.180316384252 L 345.838110235433 415.180316384252 L 345.838110235433 415.180316384252 L 345.838110235433 377.1960644157482" fill="none" stroke="#000000"/><path d="M 395.6995275582677 415.180316384252 L 395.72787401496055 415.180316384252 L 395.72787401496055 415.180316384252 L 395.72787401496055 377.1960644157482" fill="none" stroke="#000000"/><path d="M 383.2270866133858 415.180316384252 L 383.25543307007865 415.180316384252 L 383.25543307007865 415.180316384252 L 383.25543307007865 377.1960644157482" fill="none" stroke="#000000"/><path d="M 408.17196850314957 415.180316384252 L 408.2003149598425 415.180316384252 L 408.2003149598425 415.180316384252 L 408.2003149598425 377.1960644157482" fill="none" stroke="#000000"/><path d="M 370.7546456685039 415.180316384252 L 370.78299212519676 415.180316384252 L 370.78299212519676 415.180316384252 L 370.78299212519676 377.1960644157482" fill="none" stroke="#000000"/><path d="M 333.33732283385825 415.180316384252 L 333.3656692905511 415.180316384252 L 333.3656692905511 415.180316384252 L 333.3656692905511 377.1960644157482" fill="none" stroke="#000000"/><path d="M 358.282204723622 415.180316384252 L 358.3105511803149 415.180316384252 L 358.3105511803149 415.180316384252 L 358.3105511803149 377.1960644157482" fill="none" stroke="#000000"/><path d="M 420.6444094480314 415.180316384252 L 420.67275590472434 415.180316384252 L 420.67275590472434 415.180316384252 L 420.67275590472434 377.1960644157482" fill="none" stroke="#000000"/><path d="M 320.8648818889763 415.180316384252 L 320.89322834566923 415.180316384252 L 320.89322834566923 415.180316384252 L 320.89322834566923 377.1960644157482" fill="none" stroke="#000000"/><path d="M 659.6192125133858 433.1091699850394 L 710.6428345606299 433.1091699850394 L 710.6428345606299 433.1091699850394 L 710.6428345606299 423.75483927637794" fill="none" stroke="#000000"/><path d="M 642.6113384976378 423.75483927637794 L 642.6113384976378 433.1091699850394 L 642.6113384976378 433.1091699850394 L 591.5877164503937 433.1091699850394" fill="none" stroke="#000000"/><path d="M 574.5798424346457 423.75483927637794 L 574.5798424346457 433.1091699850394 L 574.5798424346457 433.1091699850394 L 523.5562203874015 433.1091699850394" fill="none" stroke="#000000"/><path d="M 506.5483463716535 423.75483927637794 L 506.5483463716535 433.1091699850394 L 506.5483463716535 433.1091699850394 L 455.5247243244094 433.1091699850394 L 455.5247243244094 433.1091699850394 L 455.5247243244094 423.75483927637794 L 455.5247243244094 423.75483927637794 L 438.5168503086614 423.75483927637794 L 438.5168503086614 423.75483927637794 L 438.5168503086614 433.1091699850394 L 438.5168503086614 433.1091699850394 L 409.9011022771653 433.1091699850394 L 409.9011022771653 433.1091699850394 L 409.9011022771653 456.3532644732283 L 409.9011022771653 456.3532644732283 L 409.8727558204724 456.3532644732283" fill="none" stroke="#000000"/><path d="M 409.8727558204724 433.1091699850394 L 397.4286613322834 433.1091699850394 L 397.4286613322834 433.1091699850394 L 397.4286613322834 456.3532644732283 L 397.4286613322834 456.3532644732283 L 397.40031487559054 456.3532644732283" fill="none" stroke="#000000"/><path d="M 397.40031487559054 433.1091699850394 L 384.9562203874015 433.1091699850394 L 384.9562203874015 433.1091699850394 L 384.9562203874015 456.3532644732283 L 384.9562203874015 456.3532644732283 L 384.92787393070864 456.3532644732283" fill="none" stroke="#000000"/><path d="M 384.92787393070864 433.1091699850394 L 372.4837794425197 433.1091699850394 L 372.4837794425197 433.1091699850394 L 372.4837794425197 456.3532644732283 L 372.4837794425197 456.3532644732283 L 372.4554329858267 456.3532644732283" fill="none" stroke="#000000"/><path d="M 372.4554329858267 433.1091699850394 L 360.0113384976378 433.1091699850394 L 360.0113384976378 433.1091699850394 L 360.0113384976378 456.3532644732283 L 360.0113384976378 456.3532644732283 L 359.9829920409448 456.3532644732283" fill="none" stroke="#000000"/><path d="M 359.9829920409448 433.1091699850394 L 347.5388975527559 433.1091699850394 L 347.5388975527559 433.1091699850394 L 347.5388975527559 456.3532644732283 L 347.5388975527559 456.3532644732283 L 347.51055109606295 456.3532644732283" fill="none" stroke="#000000"/><path d="M 347.51055109606295 433.1091699850394 L 335.06645660787393 433.1091699850394 L 335.06645660787393 433.1091699850394 L 335.06645660787393 456.3532644732283 L 335.06645660787393 456.3532644732283 L 335.03811015118106 456.3532644732283" fill="none" stroke="#000000"/><path d="M 335.03811015118106 433.1091699850394 L 322.59401566299204 433.1091699850394 L 322.59401566299204 433.1091699850394 L 322.59401566299204 456.3532644732283 L 322.59401566299204 456.3532644732283 L 322.56566920629916 456.3532644732283" fill="none" stroke="#000000"/><path d="M 322.56566920629916 433.1091699850394 L 310.1215747181102 433.1091699850394 L 310.1215747181102 433.1091699850394 L 310.1215747181102 456.3532644732283 L 310.1215747181102 456.3532644732283 L 310.09322826141727 456.3532644732283" fill="none" stroke="#000000"/><path d="M 310.09322826141727 433.1091699850394 L 297.6491337732283 433.1091699850394 L 297.6491337732283 433.1091699850394 L 297.6491337732283 456.3532644732283 L 297.6491337732283 456.3532644732283 L 297.62078731653537 456.3532644732283" fill="none" stroke="#000000"/><path d="M 297.62078731653537 433.1091699850394 L 264.3108660566929 433.1091699850395 L 264.3108660566929 433.1091699850395 L 264.3108660566929 423.75483927637805 L 264.3108660566929 423.75483927637805 L 247.30299204094484 423.75483927637805 L 247.30299204094484 423.75483927637805 L 247.30299204094484 433.1091699850395 L 247.30299204094484 433.1091699850395 L 192.73606290708653 433.1091699850395 L 192.73606290708653 433.1091699850395 L 192.73606290708653 423.75483927637805 L 192.73606290708653 423.75483927637805 L 175.7281888913385 423.75483927637805 L 175.7281888913385 423.75483927637805 L 175.7281888913385 433.1091699850395 L 175.7281888913385 433.1091699850395 L 121.16125975748025 433.1091699850395 L 121.16125975748025 433.1091699850395 L 121.16125975748025 423.75483927637805 L 121.16125975748025 423.75483927637805 L 104.15338574173222 423.75483927637805 L 104.15338574173222 423.75483927637805 L 104.15338574173222 433.1091699850395 L 104.15338574173222 433.1091699850395 L 49.58645660787397 433.1091699850395 L 49.58645660787397 433.1091699850395 L 49.58645660787397 423.75483927637805 L 49.58645660787397 423.75483927637805 L 32.57858259212594 423.75483927637805 L 32.57858259212594 423.75483927637805 L 32.57858259212594 433.1091699850395 L 32.57858259212594 433.1091699850395 L 5.295118025196757 433.1091699850395 L 5.295118025196757 433.1091699850395 L 5.295118025196757 488.1012959692916 L 5.295118025196757 488.1012959692916 L 32.57858259212594 488.1012959692916 L 32.57858259212594 488.1012959692916 L 32.57858259212594 497.4556266779528 L 32.57858259212594 497.4556266779528 L 49.58645660787397 497.4556266779528 L 49.58645660787397 497.4556266779528 L 49.58645660787397 488.1012959692916 L 49.58645660787397 488.1012959692916 L 104.15338574173222 488.1012959692916 L 104.15338574173222 488.1012959692916 L 104.15338574173222 497.4556266779528 L 104.15338574173222 497.4556266779528 L 121.16125975748025 497.4556266779528 L 121.16125975748025 497.4556266779528 L 121.16125975748025 488.1012959692916 L 121.16125975748025 488.1012959692916 L 175.7281888913385 488.1012959692916 L 175.7281888913385 488.1012959692916 L 175.7281888913385 497.4556266779528 L 175.7281888913385 497.4556266779528 L 192.73606290708653 497.4556266779528 L 192.73606290708653 497.4556266779528 L 192.73606290708653 488.1012959692916 L 192.73606290708653 488.1012959692916 L 247.30299204094484 488.1012959692916 L 247.30299204094484 488.1012959692916 L 247.30299204094484 497.4556266779528 L 247.30299204094484 497.4556266779528 L 264.3108660566929 497.4556266779528 L 264.3108660566929 497.4556266779528 L 264.3108660566929 488.1012959692916 L 264.3108660566929 488.1012959692916 L 297.62078731653537 488.10129596929147 L 297.62078731653537 488.10129596929147 L 297.62078731653537 464.8572014811023 L 297.62078731653537 464.8572014811023 L 297.6491337732283 464.8572014811023" fill="none" stroke="#000000"/><path d="M 297.6491337732283 488.10129596929147 L 310.09322826141727 488.10129596929147 L 310.09322826141727 488.10129596929147 L 310.09322826141727 464.8572014811023 L 310.09322826141727 464.8572014811023 L 310.1215747181102 464.8572014811023" fill="none" stroke="#000000"/><path d="M 310.1215747181102 488.10129596929147 L 322.56566920629916 488.10129596929147 L 322.56566920629916 488.10129596929147 L 322.56566920629916 464.8572014811023 L 322.56566920629916 464.8572014811023 L 322.59401566299204 464.8572014811023" fill="none" stroke="#000000"/><path d="M 322.59401566299204 488.10129596929147 L 335.03811015118106 488.10129596929147 L 335.03811015118106 488.10129596929147 L 335.03811015118106 464.8572014811023 L 335.03811015118106 464.8572014811023 L 335.06645660787393 464.8572014811023" fill="none" stroke="#000000"/><path d="M 335.06645660787393 488.10129596929147 L 347.51055109606295 488.10129596929147 L 347.51055109606295 488.10129596929147 L 347.51055109606295 464.8572014811023 L 347.51055109606295 464.8572014811023 L 347.5388975527559 464.8572014811023" fill="none" stroke="#000000"/><path d="M 347.5388975527559 488.10129596929147 L 359.9829920409448 488.10129596929147 L 359.9829920409448 488.10129596929147 L 359.9829920409448 464.8572014811023 L 359.9829920409448 464.8572014811023 L 360.0113384976378 464.8572014811023" fill="none" stroke="#000000"/><path d="M 360.0113384976378 488.10129596929147 L 372.4554329858267 488.10129596929147 L 372.4554329858267 488.10129596929147 L 372.4554329858267 464.8572014811023 L 372.4554329858267 464.8572014811023 L 372.4837794425197 464.8572014811023" fill="none" stroke="#000000"/><path d="M 372.4837794425197 488.10129596929147 L 384.92787393070864 488.10129596929147 L 384.92787393070864 488.10129596929147 L 384.92787393070864 464.8572014811023 L 384.92787393070864 464.8572014811023 L 384.9562203874015 464.8572014811023" fill="none" stroke="#000000"/><path d="M 384.9562203874015 488.10129596929147 L 397.40031487559054 488.10129596929147 L 397.40031487559054 488.10129596929147 L 397.40031487559054 464.8572014811023 L 397.40031487559054 464.8572014811023 L 397.4286613322834 464.8572014811023" fill="none" stroke="#000000"/><path d="M 397.4286613322834 488.10129596929147 L 409.8727558204724 488.10129596929147 L 409.8727558204724 488.10129596929147 L 409.8727558204724 464.8572014811023 L 409.8727558204724 464.8572014811023 L 409.9011022771653 464.8572014811023" fill="none" stroke="#000000"/><path d="M 409.9011022771653 488.10129596929147 L 438.5168503086614 488.10129596929147 L 438.5168503086614 488.10129596929147 L 438.5168503086614 497.4556266779527 L 438.5168503086614 497.4556266779527 L 455.5247243244094 497.4556266779527 L 455.5247243244094 497.4556266779527 L 455.5247243244094 488.10129596929147 L 455.5247243244094 488.10129596929147 L 506.5483463716535 488.10129596929147 L 506.5483463716535 488.10129596929147 L 506.5483463716535 497.4556266779527 L 506.5483463716535 497.4556266779527 L 523.5562203874015 497.4556266779527 L 523.5562203874015 497.4556266779527 L 523.5562203874015 488.10129596929147 L 523.5562203874015 488.10129596929147 L 574.5798424346457 488.10129596929147 L 574.5798424346457 488.10129596929147 L 574.5798424346457 497.4556266779527 L 574.5798424346457 497.4556266779527 L 591.5877164503937 497.4556266779527 L 591.5877164503937 497.4556266779527 L 591.5877164503937 488.10129596929147 L 591.5877164503937 488.10129596929147 L 642.6113384976378 488.10129596929147 L 642.6113384976378 488.10129596929147 L 642.6113384976378 497.4556266779527 L 642.6113384976378 497.4556266779527 L 659.6192125133858 497.4556266779527 L 659.6192125133858 497.4556266779527 L 659.6192125133858 488.10129596929147 L 659.6192125133858 488.10129596929147 L 710.6428345606299 488.10129596929147 L 710.6428345606299 488.10129596929147 L 710.6428345606299 497.4556266779527 L 710.6428345606299 497.4556266779527 L 727.650708576378 497.4556266779527 L 727.650708576378 497.4556266779527 L 727.650708576378 488.10129596929147 L 727.650708576378 488.10129596929147 L 753.1625196 488.10129596929147 L 753.1625196 488.10129596929147 L 753.1625196 433.1091699850394 L 753.1625196 433.1091699850394 L 727.650708576378 433.1091699850394" fill="none" stroke="#000000"/><path d="M 316.32944873385827 479.59735896141746 L 316.35779519055114 479.59735896141746 L 316.35779519055114 479.59735896141746 L 316.35779519055114 441.6131069929134" fill="none" stroke="#000000"/><path d="M 328.80188967874005 479.59735896141746 L 328.83023613543304 479.59735896141746 L 328.83023613543304 479.59735896141746 L 328.83023613543304 441.6131069929134" fill="none" stroke="#000000"/><path d="M 403.63653534803143 479.59735896141746 L 403.66488180472436 479.59735896141746 L 403.66488180472436 479.59735896141746 L 403.66488180472436 441.6131069929134" fill="none" stroke="#000000"/><path d="M 303.8570077889763 479.59735896141746 L 303.88535424566925 479.59735896141746 L 303.88535424566925 479.59735896141746 L 303.88535424566925 441.6131069929134" fill="none" stroke="#000000"/><path d="M 378.6916534582677 479.59735896141746 L 378.71999991496057 479.59735896141746 L 378.71999991496057 479.59735896141746 L 378.71999991496057 441.6131069929134" fill="none" stroke="#000000"/><path d="M 366.2192125133858 479.59735896141746 L 366.24755897007867 479.59735896141746 L 366.24755897007867 479.59735896141746 L 366.24755897007867 441.6131069929134" fill="none" stroke="#000000"/><path d="M 391.1640944031496 479.59735896141746 L 391.1924408598425 479.59735896141746 L 391.1924408598425 479.59735896141746 L 391.1924408598425 441.6131069929134" fill="none" stroke="#000000"/><path d="M 353.7467715685039 479.59735896141746 L 353.7751180251968 479.59735896141746 L 353.7751180251968 479.59735896141746 L 353.7751180251968 441.6131069929134" fill="none" stroke="#000000"/><path d="M 341.274330623622 479.59735896141746 L 341.30267708031494 479.59735896141746 L 341.30267708031494 479.59735896141746 L 341.30267708031494 441.6131069929134" fill="none" stroke="#000000"/><path d="M 39.68504374251984 99.13224412204715 L 35.537957128346534 98.91397640551179 L 35.537957128346534 98.91397640551179 L 31.43339019921268 98.26484254724403 L 31.43339019921268 98.26484254724403 L 27.42236657716535 97.18767719291338 L 27.42236657716535 97.18767719291338 L 23.544571301574933 95.69948821653531 L 23.544571301574933 95.69948821653531 L 19.842524057480432 93.81444884645668 L 19.842524057480432 93.81444884645668 L 16.358744529921523 91.55240160236224 L 16.358744529921523 91.55240160236224 L 13.13008311259864 88.93885829527551 L 13.13008311259864 88.93885829527551 L 10.193390199212672 85.99933073622049 L 10.193390199212672 85.99933073622049 L 7.579846892125943 82.77350396456677 L 7.579846892125943 82.77350396456677 L 5.317799648031496 79.28972443700775 L 5.317799648031496 79.28972443700775 L 3.4299256322835845 75.58767719291336 L 3.4299256322835845 75.58767719291336 L 1.9417366559057427 71.70988191732283 L 1.9417366559057427 71.70988191732283 L 0.8674059472441514 67.69602364960633 L 0.8674059472441514 67.69602364960633 L 0.21827208897639144 63.59429136614176 L 0.21827208897639144 63.59429136614176 L 0.000004372441026134768 59.44720475196846 L 0.000004372441026134768 59.44720475196846 L 31.18110673464571 59.44720475196846 L 31.18110673464571 59.44720475196846 L 31.18110673464571 51.51019687795258 L 31.18110673464571 51.51019687795258 L 48.18898075039374 51.51019687795258 L 48.18898075039374 51.51019687795258 L 48.18898075039374 59.44720475196846 L 48.18898075039374 59.44720475196846 L 79.37008311259865 59.44720475196846 L 79.37008311259865 59.44720475196846 L 79.15181539606306 63.59429136614176 L 79.15181539606306 63.59429136614176 L 78.5026815377953 67.69602364960633 L 78.5026815377953 67.69602364960633 L 77.42835082913393 71.70988191732283 L 77.42835082913393 71.70988191732283 L 75.94016185275586 75.58767719291336 L 75.94016185275586 75.58767719291336 L 74.05228783700795 79.28972443700775 L 74.05228783700795 79.28972443700775 L 71.7902405929135 82.77350396456677 L 71.7902405929135 82.77350396456677 L 69.17669728582678 85.99933073622049 L 69.17669728582678 85.99933073622049 L 66.24000437244104 88.93885829527551 L 66.24000437244104 88.93885829527551 L 63.01134295511815 91.55240160236224 L 63.01134295511815 91.55240160236224 L 59.527563427559244 93.81444884645668 L 59.527563427559244 93.81444884645668 L 55.825516183464515 95.69948821653531 L 55.825516183464515 95.69948821653531 L 51.9477209078741 97.18767719291338 L 51.9477209078741 97.18767719291338 L 47.936697285826995 98.26484254724403 L 47.936697285826995 98.26484254724403 L 43.832130356692915 98.91397640551179 L 43.832130356692915 98.91397640551179 L 39.68504374251984 99.13224412204715 z" fill="none" stroke="#000000"/><path d="M 223.11451530944896 294.2600694220471 L 218.96742869527566 294.0418017055117 L 218.96742869527566 294.0418017055117 L 214.86286176614192 293.39266784724396 L 214.86286176614192 293.39266784724396 L 210.8518381440946 292.3155024929133 L 210.8518381440946 292.3155024929133 L 206.97404286850406 290.82731351653524 L 206.97404286850406 290.82731351653524 L 203.27199562440956 288.9422741464566 L 203.27199562440956 288.9422741464566 L 199.78821609685065 286.68022690236216 L 199.78821609685065 286.68022690236216 L 196.55955467952776 284.06668359527544 L 196.55955467952776 284.06668359527544 L 193.6228617661419 281.1271560362204 L 193.6228617661419 281.1271560362204 L 191.00931845905518 277.9013292645667 L 191.00931845905518 277.9013292645667 L 188.74727121496073 274.4175497370077 L 188.74727121496073 274.4175497370077 L 186.8593971992127 270.7155024929133 L 186.8593971992127 270.7155024929133 L 185.37120822283487 266.83770721732276 L 185.37120822283487 266.83770721732276 L 184.2968775141734 262.82384894960626 L 184.2968775141734 262.82384894960626 L 183.64774365590563 258.7221166661417 L 183.64774365590563 258.7221166661417 L 183.42947593937026 254.57503005196838 L 183.42947593937026 254.57503005196838 L 214.61057830157495 254.57503005196838 L 214.61057830157495 254.57503005196838 L 214.61057830157495 246.6380221779525 L 214.61057830157495 246.6380221779525 L 231.61845231732298 246.6380221779525 L 231.61845231732298 246.6380221779525 L 231.61845231732298 254.57503005196838 L 231.61845231732298 254.57503005196838 L 262.7995546795278 254.57503005196838 L 262.7995546795278 254.57503005196838 L 262.5812869629924 258.7221166661417 L 262.5812869629924 258.7221166661417 L 261.9321531047244 262.82384894960626 L 261.9321531047244 262.82384894960626 L 260.85782239606306 266.83770721732276 L 260.85782239606306 266.83770721732276 L 259.3696334196852 270.7155024929133 L 259.3696334196852 270.7155024929133 L 257.4817594039371 274.4175497370077 L 257.4817594039371 274.4175497370077 L 255.21971215984263 277.9013292645667 L 255.21971215984263 277.9013292645667 L 252.60616885275613 281.1271560362204 L 252.60616885275613 281.1271560362204 L 249.66947593937027 284.06668359527544 L 249.66947593937027 284.06668359527544 L 246.4408145220474 286.68022690236216 L 246.4408145220474 286.68022690236216 L 242.95703499448837 288.9422741464566 L 242.95703499448837 288.9422741464566 L 239.25498775039375 290.82731351653524 L 239.25498775039375 290.82731351653524 L 235.37719247480322 292.3155024929133 L 235.37719247480322 292.3155024929133 L 231.36616885275612 293.39266784724396 L 231.36616885275612 293.39266784724396 L 227.26160192362215 294.0418017055117 L 227.26160192362215 294.0418017055117 L 223.11451530944896 294.2600694220471 z" fill="none" stroke="#000000"/><path d="M 87.4087598755907 294.1229405220472 L 83.2616732614174 293.90467280551184 L 83.2616732614174 293.90467280551184 L 79.15710633228355 293.2555389472441 L 79.15710633228355 293.2555389472441 L 75.14608271023621 292.17837359291343 L 75.14608271023621 292.17837359291343 L 71.2682874346458 290.69018461653536 L 71.2682874346458 290.69018461653536 L 67.5662401905513 288.80514524645673 L 67.5662401905513 288.80514524645673 L 64.08246066299216 286.5430980023623 L 64.08246066299216 286.5430980023623 L 60.85379924566928 283.92955469527556 L 60.85379924566928 283.92955469527556 L 57.91710633228354 280.99002713622053 L 57.91710633228354 280.99002713622053 L 55.30356302519681 277.7642003645668 L 55.30356302519681 277.7642003645668 L 53.04151578110236 274.2804208370078 L 53.04151578110236 274.2804208370078 L 51.15364176535422 270.5783735929134 L 51.15364176535422 270.5783735929134 L 49.66545278897638 266.7005783173229 L 49.66545278897638 266.7005783173229 L 48.59112208031502 262.6867200496064 L 48.59112208031502 262.6867200496064 L 47.94198822204726 258.5849877661418 L 47.94198822204726 258.5849877661418 L 47.72372050551189 254.4379011519685 L 47.72372050551189 254.4379011519685 L 78.90482286771658 254.4379011519685 L 78.90482286771658 254.4379011519685 L 78.90482286771658 246.50089327795263 L 78.90482286771658 246.50089327795263 L 95.9126968834646 246.50089327795263 L 95.9126968834646 246.50089327795263 L 95.9126968834646 254.4379011519685 L 95.9126968834646 254.4379011519685 L 127.09379924566929 254.4379011519685 L 127.09379924566929 254.4379011519685 L 126.87553152913392 258.5849877661418 L 126.87553152913392 258.5849877661418 L 126.22639767086616 262.6867200496064 L 126.22639767086616 262.6867200496064 L 125.1520669622048 266.7005783173229 L 125.1520669622048 266.7005783173229 L 123.66387798582673 270.5783735929134 L 123.66387798582673 270.5783735929134 L 121.77600397007882 274.2804208370078 L 121.77600397007882 274.2804208370078 L 119.51395672598414 277.7642003645668 L 119.51395672598414 277.7642003645668 L 116.90041341889764 280.99002713622053 L 116.90041341889764 280.99002713622053 L 113.9637205055119 283.92955469527556 L 113.9637205055119 283.92955469527556 L 110.73505908818902 286.5430980023623 L 110.73505908818902 286.5430980023623 L 107.25127956062988 288.80514524645673 L 107.25127956062988 288.80514524645673 L 103.54923231653538 290.69018461653536 L 103.54923231653538 290.69018461653536 L 99.67143704094474 292.17837359291343 L 99.67143704094474 292.17837359291343 L 95.66041341889763 293.2555389472441 L 95.66041341889763 293.2555389472441 L 91.55584648976378 293.90467280551184 L 91.55584648976378 293.90467280551184 L 87.4087598755907 294.1229405220472 z" fill="none" stroke="#000000"/><path d="M 502.05932799212576 175.56475883149596 L 502.05932799212576 195.26554623307072 L 502.05932799212576 195.26554623307072 L 511.4136587007872 195.26554623307072" fill="none" stroke="#000000"/><path d="M 447.0672020078739 175.56475883149596 L 447.0672020078739 195.26554623307072 L 447.0672020078739 195.26554623307072 L 437.71287129921245 195.26554623307072 L 437.71287129921245 195.26554623307072 L 437.71287129921257 212.27342024881875 L 437.71287129921257 212.27342024881875 L 447.067202007874 212.27342024881875 L 447.067202007874 212.27342024881875 L 447.067202007874 231.9742076503935 L 447.067202007874 231.9742076503935 L 502.0593279921259 231.9742076503935 L 502.0593279921259 231.9742076503935 L 502.0593279921259 212.27342024881875 L 502.0593279921259 212.27342024881875 L 511.4136587007873 212.27342024881875 L 511.4136587007873 212.27342024881875 L 511.41365870078715 184.63562493307086" fill="none" stroke="#000000"/><path d="M 464.5711390157479 195.47814465826752 L 457.05932799212576 195.47814465826752 L 457.05932799212576 195.47814465826752 L 457.0593279921259 212.06082182362195 L 457.0593279921259 212.06082182362195 L 464.57113901574803 212.06082182362195 L 464.57113901574803 212.06082182362195 L 464.5711390157479 195.47814465826752 z" fill="none" stroke="#000000"/><path d="M 478.31917051181085 195.47814465826752 L 470.8073594881889 195.47814465826752 L 470.8073594881889 195.47814465826752 L 470.80735948818904 212.06082182362195 L 470.80735948818904 212.06082182362195 L 478.31917051181097 212.06082182362195 L 478.31917051181097 212.06082182362195 L 478.31917051181085 195.47814465826752 z" fill="none" stroke="#000000"/><path d="M 492.0672020078739 195.47814465826752 L 484.55539098425174 195.47814465826752 L 484.55539098425174 195.47814465826752 L 484.55539098425186 212.06082182362195 L 484.55539098425186 212.06082182362195 L 492.067202007874 212.06082182362195 L 492.067202007874 212.06082182362195 L 492.0672020078739 195.47814465826752 z" fill="none" stroke="#000000"/><path d="M 575.7601154149606 175.56475879133848 L 575.7601154149606 184.63562493307074 L 575.7601154149606 184.63562493307074 L 594.468776807874 184.63562493307074 L 594.468776807874 184.63562493307074 L 594.468776807874 175.56475879133848" fill="none" stroke="#000000"/><path d="M 520.7679894307086 175.5647587913386 L 520.7679894307086 184.63562493307086 L 520.7679894307086 184.63562493307086 L 511.41365872204733 184.63562493307086" fill="none" stroke="#000000"/><path d="M 511.41365872204733 201.6434989488189 L 520.7679894307086 201.6434989488189 L 520.7679894307086 201.6434989488189 L 520.7679894307086 210.71436509055115 L 520.7679894307086 210.71436509055115 L 575.7601154149606 210.71436509055104 L 575.7601154149606 210.71436509055104 L 575.7601154149606 201.64349894881877 L 575.7601154149606 201.64349894881877 L 585.1144461236221 201.64349894881877 L 585.1144461236221 201.64349894881877 L 585.1144461236221 184.63562493307074" fill="none" stroke="#000000"/><path d="M 649.4609027921258 175.56475879133848 L 649.4609027921258 184.63562493307074 L 649.4609027921258 184.63562493307074 L 658.8152335007873 184.63562493307074 L 658.8152335007873 184.63562493307074 L 658.8152335007873 201.64349894881877 L 658.8152335007873 201.64349894881877 L 649.4609027921258 201.64349894881877 L 649.4609027921258 201.64349894881877 L 649.4609027921258 210.71436509055104 L 649.4609027921258 210.71436509055104 L 594.468776807874 210.71436509055104 L 594.468776807874 210.71436509055104 L 594.468776807874 201.64349894881877 L 594.468776807874 201.64349894881877 L 585.1144460992125 201.64349894881877" fill="none" stroke="#000000"/></svg>