<?xml version="1.0" standalone="no"?>
<!DOCTYPE svg PUBLIC "-//W3C//DTD SVG 1.1//EN" "http://www.w3.org/Graphics/SVG/1.1/DTD/svg11.dtd">
<svg width="478mm" height="366mm" viewBox="-30 -366 478 366" xmlns="http://www.w3.org/2000/svg" version="1.1">
<title>OpenSCAD Model</title>
<path d="
M 15,-343.03 L 33,-343.03 L 33,-339.73 L 39,-339.73 L 39,-343.03 L 57,-343.03
 L 57,-339.73 L 63,-339.73 L 63,-343.03 L 81,-343.03 L 81,-339.73 L 87,-339.73
 L 87,-343.03 L 105,-343.03 L 105,-339.73 L 111,-339.73 L 111,-343.03 L 120.595,-343.03
 L 120.595,-351.98 L 120.605,-351.98 L 120.605,-343.03 L 122.995,-343.03 L 122.995,-351.98 L 123.005,-351.98
 L 123.005,-343.03 L 125.395,-343.03 L 125.395,-351.98 L 125.405,-351.98 L 125.405,-343.03 L 127.795,-343.03
 L 127.795,-351.98 L 127.805,-351.98 L 127.805,-343.03 L 130.195,-343.03 L 130.195,-351.98 L 130.205,-351.98
 L 130.205,-343.03 L 132.595,-343.03 L 132.595,-351.98 L 132.605,-351.98 L 132.605,-343.03 L 134.995,-343.03
 L 134.995,-351.98 L 135.005,-351.98 L 135.005,-343.03 L 137.395,-343.03 L 137.395,-351.98 L 137.405,-351.98
 L 137.405,-343.03 L 139.795,-343.03 L 139.795,-351.98 L 139.805,-351.98 L 139.805,-343.03 L 142.195,-343.03
 L 142.195,-351.98 L 142.205,-351.98 L 142.205,-343.03 L 144.595,-343.03 L 144.595,-351.98 L 144.605,-351.98
 L 144.605,-343.03 L 146.995,-343.03 L 146.995,-351.98 L 147.005,-351.98 L 147.005,-343.03 L 149.395,-343.03
 L 149.395,-351.98 L 149.405,-351.98 L 149.405,-343.03 L 151.795,-343.03 L 151.795,-351.98 L 151.805,-351.98
 L 151.805,-343.03 L 154.195,-343.03 L 154.195,-351.98 L 154.205,-351.98 L 154.205,-343.03 L 156.595,-343.03
 L 156.595,-351.98 L 156.605,-351.98 L 156.605,-343.03 L 166.699,-343.03 L 166.699,-339.73 L 172.699,-339.73
 L 172.699,-343.03 L 190.699,-343.03 L 190.699,-339.73 L 196.699,-339.73 L 196.699,-343.03 L 214.699,-343.03
 L 214.699,-339.73 L 220.699,-339.73 L 220.699,-343.03 L 238.699,-343.03 L 238.699,-339.73 L 244.699,-339.73
 L 244.699,-343.03 L 262.699,-343.03 L 262.699,-339.73 L 268.699,-339.73 L 268.699,-343.03 L 277.699,-343.03
 L 277.699,-362.43 L 268.699,-362.43 L 268.699,-365.73 L 262.699,-365.73 L 262.699,-362.43 L 244.699,-362.43
 L 244.699,-365.73 L 238.699,-365.73 L 238.699,-362.43 L 220.699,-362.43 L 220.699,-365.73 L 214.699,-365.73
 L 214.699,-362.43 L 196.699,-362.43 L 196.699,-365.73 L 190.699,-365.73 L 190.699,-362.43 L 172.699,-362.43
 L 172.699,-365.73 L 166.699,-365.73 L 166.699,-362.43 L 156.605,-362.43 L 156.605,-353.48 L 156.595,-353.48
 L 156.595,-362.43 L 154.205,-362.43 L 154.205,-353.48 L 154.195,-353.48 L 154.195,-362.43 L 151.805,-362.43
 L 151.805,-353.48 L 151.795,-353.48 L 151.795,-362.43 L 149.405,-362.43 L 149.405,-353.48 L 149.395,-353.48
 L 149.395,-362.43 L 147.005,-362.43 L 147.005,-353.48 L 146.995,-353.48 L 146.995,-362.43 L 144.605,-362.43
 L 144.605,-353.48 L 144.595,-353.48 L 144.595,-362.43 L 142.205,-362.43 L 142.205,-353.48 L 142.195,-353.48
 L 142.195,-362.43 L 139.805,-362.43 L 139.805,-353.48 L 139.795,-353.48 L 139.795,-362.43 L 137.405,-362.43
 L 137.405,-353.48 L 137.395,-353.48 L 137.395,-362.43 L 135.005,-362.43 L 135.005,-353.48 L 134.995,-353.48
 L 134.995,-362.43 L 132.605,-362.43 L 132.605,-353.48 L 132.595,-353.48 L 132.595,-362.43 L 130.205,-362.43
 L 130.205,-353.48 L 130.195,-353.48 L 130.195,-362.43 L 127.805,-362.43 L 127.805,-353.48 L 127.795,-353.48
 L 127.795,-362.43 L 125.405,-362.43 L 125.405,-353.48 L 125.395,-353.48 L 125.395,-362.43 L 123.005,-362.43
 L 123.005,-353.48 L 122.995,-353.48 L 122.995,-362.43 L 120.605,-362.43 L 120.605,-353.48 L 120.595,-353.48
 L 120.595,-362.43 L 111,-362.43 L 111,-365.73 L 105,-365.73 L 105,-362.43 L 87,-362.43
 L 87,-365.73 L 81,-365.73 L 81,-362.43 L 63,-362.43 L 63,-365.73 L 57,-365.73
 L 57,-362.43 L 39,-362.43 L 39,-365.73 L 33,-365.73 L 33,-362.43 L 15,-362.43
 L 15,-365.73 L 9,-365.73 L 9,-362.43 L 0,-362.43 L 0,-343.03 L 9,-343.03
 L 9,-339.73 L 15,-339.73 z
M 131.395,-344.53 L 131.395,-360.93 L 131.405,-360.93 L 131.405,-344.53 z
M 121.795,-344.53 L 121.795,-360.93 L 121.805,-360.93 L 121.805,-344.53 z
M 155.395,-344.53 L 155.395,-360.93 L 155.405,-360.93 L 155.405,-344.53 z
M 143.395,-344.53 L 143.395,-360.93 L 143.405,-360.93 L 143.405,-344.53 z
M 152.995,-344.53 L 152.995,-360.93 L 153.005,-360.93 L 153.005,-344.53 z
M 133.795,-344.53 L 133.795,-360.93 L 133.805,-360.93 L 133.805,-344.53 z
M 136.195,-344.53 L 136.195,-360.93 L 136.205,-360.93 L 136.205,-344.53 z
M 138.595,-344.53 L 138.595,-360.93 L 138.605,-360.93 L 138.605,-344.53 z
M 150.595,-344.53 L 150.595,-360.93 L 150.605,-360.93 L 150.605,-344.53 z
M 145.795,-344.53 L 145.795,-360.93 L 145.805,-360.93 L 145.805,-344.53 z
M 140.995,-344.53 L 140.995,-360.93 L 141.005,-360.93 L 141.005,-344.53 z
M 148.195,-344.53 L 148.195,-360.93 L 148.205,-360.93 L 148.205,-344.53 z
M 128.995,-344.53 L 128.995,-360.93 L 129.005,-360.93 L 129.005,-344.53 z
M 126.595,-344.53 L 126.595,-360.93 L 126.605,-360.93 L 126.605,-344.53 z
M 124.195,-344.53 L 124.195,-360.93 L 124.205,-360.93 L 124.205,-344.53 z
M 15,-313.63 L 33,-313.63 L 33,-310.33 L 39,-310.33 L 39,-313.63 L 57,-313.63
 L 57,-310.33 L 63,-310.33 L 63,-313.63 L 81,-313.63 L 81,-310.33 L 87,-310.33
 L 87,-313.63 L 105,-313.63 L 105,-310.33 L 111,-310.33 L 111,-313.63 L 121.095,-313.63
 L 121.095,-321.83 L 121.105,-321.83 L 121.105,-313.63 L 125.495,-313.63 L 125.495,-321.83 L 125.505,-321.83
 L 125.505,-313.63 L 129.895,-313.63 L 129.895,-321.83 L 129.905,-321.83 L 129.905,-313.63 L 134.295,-313.63
 L 134.295,-321.83 L 134.305,-321.83 L 134.305,-313.63 L 138.695,-313.63 L 138.695,-321.83 L 138.705,-321.83
 L 138.705,-313.63 L 143.095,-313.63 L 143.095,-321.83 L 143.105,-321.83 L 143.105,-313.63 L 147.495,-313.63
 L 147.495,-321.83 L 147.505,-321.83 L 147.505,-313.63 L 151.895,-313.63 L 151.895,-321.83 L 151.905,-321.83
 L 151.905,-313.63 L 156.295,-313.63 L 156.295,-321.83 L 156.305,-321.83 L 156.305,-313.63 L 160.695,-313.63
 L 160.695,-321.83 L 160.705,-321.83 L 160.705,-313.63 L 174.478,-313.63 L 174.478,-310.33 L 180.478,-310.33
 L 180.478,-313.63 L 199.228,-313.63 L 199.228,-310.33 L 205.228,-310.33 L 205.228,-313.63 L 223.978,-313.63
 L 223.978,-310.33 L 229.978,-310.33 L 229.978,-313.63 L 248.728,-313.63 L 248.728,-310.33 L 254.728,-310.33
 L 254.728,-313.63 L 264.103,-313.63 L 264.103,-333.03 L 254.728,-333.03 L 254.728,-336.33 L 248.728,-336.33
 L 248.728,-333.03 L 229.978,-333.03 L 229.978,-336.33 L 223.978,-336.33 L 223.978,-333.03 L 205.228,-333.03
 L 205.228,-336.33 L 199.228,-336.33 L 199.228,-333.03 L 180.478,-333.03 L 180.478,-336.33 L 174.478,-336.33
 L 174.478,-333.03 L 160.705,-333.03 L 160.705,-324.83 L 160.695,-324.83 L 160.695,-333.03 L 156.305,-333.03
 L 156.305,-324.83 L 156.295,-324.83 L 156.295,-333.03 L 151.905,-333.03 L 151.905,-324.83 L 151.895,-324.83
 L 151.895,-333.03 L 147.505,-333.03 L 147.505,-324.83 L 147.495,-324.83 L 147.495,-333.03 L 143.105,-333.03
 L 143.105,-324.83 L 143.095,-324.83 L 143.095,-333.03 L 138.705,-333.03 L 138.705,-324.83 L 138.695,-324.83
 L 138.695,-333.03 L 134.305,-333.03 L 134.305,-324.83 L 134.295,-324.83 L 134.295,-333.03 L 129.905,-333.03
 L 129.905,-324.83 L 129.895,-324.83 L 129.895,-333.03 L 125.505,-333.03 L 125.505,-324.83 L 125.495,-324.83
 L 125.495,-333.03 L 121.105,-333.03 L 121.105,-324.83 L 121.095,-324.83 L 121.095,-333.03 L 111,-333.03
 L 111,-336.33 L 105,-336.33 L 105,-333.03 L 87,-333.03 L 87,-336.33 L 81,-336.33
 L 81,-333.03 L 63,-333.03 L 63,-336.33 L 57,-336.33 L 57,-333.03 L 39,-333.03
 L 39,-336.33 L 33,-336.33 L 33,-333.03 L 15,-333.03 L 15,-336.33 L 9,-336.33
 L 9,-333.03 L 0,-333.03 L 0,-313.63 L 9,-313.63 L 9,-310.33 L 15,-310.33
 z
M 136.495,-316.63 L 136.495,-330.03 L 136.505,-330.03 L 136.505,-316.63 z
M 123.295,-316.63 L 123.295,-330.03 L 123.305,-330.03 L 123.305,-316.63 z
M 127.695,-316.63 L 127.695,-330.03 L 127.705,-330.03 L 127.705,-316.63 z
M 162.895,-316.63 L 162.895,-330.03 L 162.905,-330.03 L 162.905,-316.63 z
M 158.495,-316.63 L 158.495,-330.03 L 158.505,-330.03 L 158.505,-316.63 z
M 154.095,-316.63 L 154.095,-330.03 L 154.105,-330.03 L 154.105,-316.63 z
M 149.695,-316.63 L 149.695,-330.03 L 149.705,-330.03 L 149.705,-316.63 z
M 145.295,-316.63 L 145.295,-330.03 L 145.305,-330.03 L 145.305,-316.63 z
M 140.895,-316.63 L 140.895,-330.03 L 140.905,-330.03 L 140.905,-316.63 z
M 132.095,-316.63 L 132.095,-330.03 L 132.105,-330.03 L 132.105,-316.63 z
M 296.899,-313.63 L 300.099,-313.63 L 300.099,-333.03 L 296.899,-333.03 L 296.899,-336.33 L 290.899,-336.33
 L 290.899,-333.03 L 287.699,-333.03 L 287.699,-313.63 L 290.899,-313.63 L 290.899,-310.33 L 296.899,-310.33
 z
M 433.372,-300.318 L 435.026,-300.58 L 436.643,-301.013 L 438.207,-301.613 L 439.699,-302.374 L 441.104,-303.286
 L 442.405,-304.34 L 443.589,-305.524 L 444.643,-306.826 L 445.555,-308.23 L 446.316,-309.722 L 446.916,-311.286
 L 447.349,-312.903 L 447.611,-314.558 L 447.699,-316.23 L 434.699,-316.23 L 434.699,-319.03 L 428.699,-319.03
 L 428.699,-316.23 L 415.699,-316.23 L 415.787,-314.558 L 416.049,-312.903 L 416.482,-311.286 L 417.082,-309.722
 L 417.843,-308.23 L 418.755,-306.826 L 419.809,-305.524 L 420.993,-304.34 L 422.295,-303.286 L 423.699,-302.374
 L 425.191,-301.613 L 426.755,-301.013 L 428.373,-300.58 L 430.027,-300.318 L 431.699,-300.23 z
M 349.372,-300.318 L 351.026,-300.58 L 352.643,-301.013 L 354.207,-301.613 L 355.699,-302.374 L 357.104,-303.286
 L 358.405,-304.34 L 359.589,-305.524 L 360.643,-306.826 L 361.555,-308.23 L 362.316,-309.722 L 362.916,-311.286
 L 363.349,-312.903 L 363.611,-314.558 L 363.699,-316.23 L 350.699,-316.23 L 350.699,-319.03 L 344.699,-319.03
 L 344.699,-316.23 L 331.699,-316.23 L 331.787,-314.558 L 332.049,-312.903 L 332.482,-311.286 L 333.082,-309.722
 L 333.843,-308.23 L 334.755,-306.826 L 335.809,-305.524 L 336.993,-304.34 L 338.295,-303.286 L 339.699,-302.374
 L 341.191,-301.613 L 342.755,-301.013 L 344.373,-300.58 L 346.027,-300.318 L 347.699,-300.23 z
M 391.372,-300.318 L 393.026,-300.58 L 394.643,-301.013 L 396.207,-301.613 L 397.699,-302.374 L 399.104,-303.286
 L 400.405,-304.34 L 401.589,-305.524 L 402.643,-306.826 L 403.555,-308.23 L 404.316,-309.722 L 404.916,-311.286
 L 405.349,-312.903 L 405.611,-314.558 L 405.699,-316.23 L 392.699,-316.23 L 392.699,-319.03 L 386.699,-319.03
 L 386.699,-316.23 L 373.699,-316.23 L 373.787,-314.558 L 374.049,-312.903 L 374.482,-311.286 L 375.082,-309.722
 L 375.843,-308.23 L 376.755,-306.826 L 377.809,-305.524 L 378.993,-304.34 L 380.295,-303.286 L 381.699,-302.374
 L 383.191,-301.613 L 384.755,-301.013 L 386.373,-300.58 L 388.027,-300.318 L 389.699,-300.23 z
M 296.899,-284.23 L 300.099,-284.23 L 300.099,-303.63 L 296.899,-303.63 L 296.899,-306.93 L 290.899,-306.93
 L 290.899,-303.63 L 287.699,-303.63 L 287.699,-284.23 L 290.899,-284.23 L 290.899,-280.93 L 296.899,-280.93
 z
M 15,-284.23 L 33,-284.23 L 33,-280.93 L 39,-280.93 L 39,-284.23 L 57,-284.23
 L 57,-280.93 L 63,-280.93 L 63,-284.23 L 81,-284.23 L 81,-280.93 L 87,-280.93
 L 87,-284.23 L 105,-284.23 L 105,-280.93 L 111,-280.93 L 111,-284.23 L 121.095,-284.23
 L 121.095,-292.43 L 121.105,-292.43 L 121.105,-284.23 L 125.495,-284.23 L 125.495,-292.43 L 125.505,-292.43
 L 125.505,-284.23 L 129.895,-284.23 L 129.895,-292.43 L 129.905,-292.43 L 129.905,-284.23 L 134.295,-284.23
 L 134.295,-292.43 L 134.305,-292.43 L 134.305,-284.23 L 138.695,-284.23 L 138.695,-292.43 L 138.705,-292.43
 L 138.705,-284.23 L 143.095,-284.23 L 143.095,-292.43 L 143.105,-292.43 L 143.105,-284.23 L 147.495,-284.23
 L 147.495,-292.43 L 147.505,-292.43 L 147.505,-284.23 L 151.895,-284.23 L 151.895,-292.43 L 151.905,-292.43
 L 151.905,-284.23 L 156.295,-284.23 L 156.295,-292.43 L 156.305,-292.43 L 156.305,-284.23 L 160.695,-284.23
 L 160.695,-292.43 L 160.705,-292.43 L 160.705,-284.23 L 174.478,-284.23 L 174.478,-280.93 L 180.478,-280.93
 L 180.478,-284.23 L 199.228,-284.23 L 199.228,-280.93 L 205.228,-280.93 L 205.228,-284.23 L 223.978,-284.23
 L 223.978,-280.93 L 229.978,-280.93 L 229.978,-284.23 L 248.728,-284.23 L 248.728,-280.93 L 254.728,-280.93
 L 254.728,-284.23 L 264.103,-284.23 L 264.103,-303.63 L 254.728,-303.63 L 254.728,-306.93 L 248.728,-306.93
 L 248.728,-303.63 L 229.978,-303.63 L 229.978,-306.93 L 223.978,-306.93 L 223.978,-303.63 L 205.228,-303.63
 L 205.228,-306.93 L 199.228,-306.93 L 199.228,-303.63 L 180.478,-303.63 L 180.478,-306.93 L 174.478,-306.93
 L 174.478,-303.63 L 160.705,-303.63 L 160.705,-295.43 L 160.695,-295.43 L 160.695,-303.63 L 156.305,-303.63
 L 156.305,-295.43 L 156.295,-295.43 L 156.295,-303.63 L 151.905,-303.63 L 151.905,-295.43 L 151.895,-295.43
 L 151.895,-303.63 L 147.505,-303.63 L 147.505,-295.43 L 147.495,-295.43 L 147.495,-303.63 L 143.105,-303.63
 L 143.105,-295.43 L 143.095,-295.43 L 143.095,-303.63 L 138.705,-303.63 L 138.705,-295.43 L 138.695,-295.43
 L 138.695,-303.63 L 134.305,-303.63 L 134.305,-295.43 L 134.295,-295.43 L 134.295,-303.63 L 129.905,-303.63
 L 129.905,-295.43 L 129.895,-295.43 L 129.895,-303.63 L 125.505,-303.63 L 125.505,-295.43 L 125.495,-295.43
 L 125.495,-303.63 L 121.105,-303.63 L 121.105,-295.43 L 121.095,-295.43 L 121.095,-303.63 L 111,-303.63
 L 111,-306.93 L 105,-306.93 L 105,-303.63 L 87,-303.63 L 87,-306.93 L 81,-306.93
 L 81,-303.63 L 63,-303.63 L 63,-306.93 L 57,-306.93 L 57,-303.63 L 39,-303.63
 L 39,-306.93 L 33,-306.93 L 33,-303.63 L 15,-303.63 L 15,-306.93 L 9,-306.93
 L 9,-303.63 L 0,-303.63 L 0,-284.23 L 9,-284.23 L 9,-280.93 L 15,-280.93
 z
M 123.295,-287.23 L 123.295,-300.63 L 123.305,-300.63 L 123.305,-287.23 z
M 158.495,-287.23 L 158.495,-300.63 L 158.505,-300.63 L 158.505,-287.23 z
M 154.095,-287.23 L 154.095,-300.63 L 154.105,-300.63 L 154.105,-287.23 z
M 149.695,-287.23 L 149.695,-300.63 L 149.705,-300.63 L 149.705,-287.23 z
M 145.295,-287.23 L 145.295,-300.63 L 145.305,-300.63 L 145.305,-287.23 z
M 140.895,-287.23 L 140.895,-300.63 L 140.905,-300.63 L 140.905,-287.23 z
M 136.495,-287.23 L 136.495,-300.63 L 136.505,-300.63 L 136.505,-287.23 z
M 132.095,-287.23 L 132.095,-300.63 L 132.105,-300.63 L 132.105,-287.23 z
M 127.695,-287.23 L 127.695,-300.63 L 127.705,-300.63 L 127.705,-287.23 z
M 162.895,-287.23 L 162.895,-300.63 L 162.905,-300.63 L 162.905,-287.23 z
M 326.899,-284.23 L 332.099,-284.23 L 332.099,-303.63 L 326.899,-303.63 L 326.899,-306.93 L 320.899,-306.93
 L 320.899,-303.63 L 315.699,-303.63 L 315.699,-284.23 L 320.899,-284.23 L 320.899,-280.93 L 326.899,-280.93
 z
M 320.974,-297.455 L 320.974,-300.105 L 326.824,-300.105 L 326.824,-297.455 z
M 320.974,-292.605 L 320.974,-295.255 L 326.824,-295.255 L 326.824,-292.605 z
M 320.974,-287.755 L 320.974,-290.405 L 326.824,-290.405 L 326.824,-287.755 z
M 0.808228,-0.0204163 L 1.6144,-0.0816498 L 2.41644,-0.183517 L 3.21231,-0.325775 L 4,-0.508057 L 4.77745,-0.729889
 L 5.54271,-0.990723 L 6.29382,-1.28987 L 7.02887,-1.62659 L 7.74596,-2 L 8.44327,-2.40915 L 9.11903,-2.85301
 L 9.7715,-3.33044 L 10.399,-3.84021 L 11,-4.38104 L 11,-115 L 11.0452,-116.503 L 11.1806,-118
 L 11.4057,-119.486 L 11.7198,-120.956 L 12.1216,-122.404 L 12.6098,-123.826 L 13.1826,-125.216 L 13.8378,-126.569
 L 14.5731,-127.88 L 15.3859,-129.144 L 16.2733,-130.358 L 17.232,-131.515 L 18.2585,-132.614 L 19.3491,-133.648
 L 21.6508,-135.582 L 22.7415,-136.616 L 23.768,-137.715 L 24.7267,-138.872 L 25.614,-140.086 L 26.4268,-141.35
 L 27.1622,-142.661 L 27.8174,-144.014 L 28.3902,-145.404 L 28.8783,-146.826 L 29.2802,-148.274 L 29.5942,-149.744
 L 29.8194,-151.23 L 29.9548,-152.728 L 30,-154.23 L 30,-274.23 L 12,-274.23 L 12,-154.23
 L 11.9342,-152.976 L 11.7378,-151.735 L 11.4127,-150.522 L 10.9625,-149.349 L 10.3923,-148.23 L 9.70819,-147.177
 L 8.91772,-146.201 L 8.02956,-145.312 L 7.05342,-144.522 L 6,-143.838 L 4.88083,-143.268 L 3.70819,-142.817
 L 2.49493,-142.492 L 1.25433,-142.296 L 0,-142.23 L -1.25433,-142.296 L -2.49493,-142.492 L -3.70819,-142.817
 L -4.88083,-143.268 L -6,-143.838 L -7.05342,-144.522 L -8.02956,-145.312 L -8.91772,-146.201 L -9.70819,-147.177
 L -10.3923,-148.23 L -10.9625,-149.349 L -11.4127,-150.522 L -11.7378,-151.735 L -11.9342,-152.976 L -12,-154.23
 L -12,-274.23 L -30,-274.23 L -30,-154.23 L -29.9548,-152.728 L -29.8194,-151.23 L -29.5942,-149.744
 L -29.2802,-148.274 L -28.8783,-146.826 L -28.3902,-145.404 L -27.8174,-144.014 L -27.1622,-142.661 L -26.4268,-141.35
 L -25.614,-140.086 L -24.7267,-138.872 L -23.768,-137.715 L -22.7415,-136.616 L -21.6508,-135.582 L -19.3491,-133.648
 L -18.2585,-132.614 L -17.232,-131.515 L -16.2733,-130.358 L -15.3859,-129.144 L -14.5731,-127.88 L -13.8378,-126.569
 L -13.1826,-125.216 L -12.6098,-123.826 L -12.1216,-122.404 L -11.7198,-120.956 L -11.4057,-119.486 L -11.1806,-118
 L -11.0452,-116.503 L -11,-115 L -11,-4.38104 L -10.399,-3.84021 L -9.7715,-3.33044 L -9.11903,-2.85301
 L -8.44327,-2.40915 L -7.74596,-2 L -7.02887,-1.62659 L -6.29382,-1.28987 L -5.54271,-0.990723 L -4.77745,-0.729889
 L -4,-0.508057 L -3.21231,-0.325775 L -2.41644,-0.183517 L -1.6144,-0.0816498 L -0.808228,-0.0204163 L 0,-0
 z
M -23.925,-271.505 L -23.925,-274.155 L -18.075,-274.155 L -18.075,-271.505 z
M 18.075,-271.505 L 18.075,-274.155 L 23.925,-274.155 L 23.925,-271.505 z
M 12.075,-259.305 L 12.075,-265.155 L 14.725,-265.155 L 14.725,-259.305 z
M -29.925,-259.305 L -29.925,-265.155 L -27.275,-265.155 L -27.275,-259.305 z
M -14.725,-259.305 L -14.725,-265.155 L -12.075,-265.155 L -12.075,-259.305 z
M 27.275,-259.305 L 27.275,-265.155 L 29.925,-265.155 L 29.925,-259.305 z
M -14.725,-235.305 L -14.725,-241.155 L -12.075,-241.155 L -12.075,-235.305 z
M 27.275,-235.305 L 27.275,-241.155 L 29.925,-241.155 L 29.925,-235.305 z
M 12.075,-235.305 L 12.075,-241.155 L 14.725,-241.155 L 14.725,-235.305 z
M -29.925,-235.305 L -29.925,-241.155 L -27.275,-241.155 L -27.275,-235.305 z
M 12.075,-211.305 L 12.075,-217.155 L 14.725,-217.155 L 14.725,-211.305 z
M -14.725,-211.305 L -14.725,-217.155 L -12.075,-217.155 L -12.075,-211.305 z
M -29.925,-211.305 L -29.925,-217.155 L -27.275,-217.155 L -27.275,-211.305 z
M 27.275,-211.305 L 27.275,-217.155 L 29.925,-217.155 L 29.925,-211.305 z
M 27.275,-187.305 L 27.275,-193.155 L 29.925,-193.155 L 29.925,-187.305 z
M 12.075,-187.305 L 12.075,-193.155 L 14.725,-193.155 L 14.725,-187.305 z
M -29.925,-187.305 L -29.925,-193.155 L -27.275,-193.155 L -27.275,-187.305 z
M -14.725,-187.305 L -14.725,-193.155 L -12.075,-193.155 L -12.075,-187.305 z
M -14.725,-163.305 L -14.725,-169.155 L -12.075,-169.155 L -12.075,-163.305 z
M -29.925,-163.305 L -29.925,-169.155 L -27.275,-169.155 L -27.275,-163.305 z
M 27.275,-163.305 L 27.275,-169.155 L 29.925,-169.155 L 29.925,-163.305 z
M 12.075,-163.305 L 12.075,-169.155 L 14.725,-169.155 L 14.725,-163.305 z
M -10.925,-99.7 L -10.925,-105.55 L -8.27499,-105.55 L -8.27499,-99.7 z
M 8.27499,-99.7 L 8.27499,-105.55 L 10.925,-105.55 L 10.925,-99.7 z
M 8.27499,-74.95 L 8.27499,-80.8 L 10.925,-80.8 L 10.925,-74.95 z
M -10.925,-74.95 L -10.925,-80.8 L -8.27499,-80.8 L -8.27499,-74.95 z
M 8.27499,-50.2 L 8.27499,-56.05 L 10.925,-56.05 L 10.925,-50.2 z
M -10.925,-50.2 L -10.925,-56.05 L -8.27499,-56.05 L -8.27499,-50.2 z
M 8.27499,-25.45 L 8.27499,-31.3 L 10.925,-31.3 L 10.925,-25.45 z
M -10.925,-25.45 L -10.925,-31.3 L -8.27499,-31.3 L -8.27499,-25.45 z
M -2.92499,-16.075 L -2.92499,-18.725 L 2.92499,-18.725 L 2.92499,-16.075 z
M 75.8082,-0.0204163 L 76.6144,-0.0816498 L 77.4164,-0.183517 L 78.2123,-0.325775 L 79,-0.508057 L 79.7775,-0.729889
 L 80.5427,-0.990723 L 81.2938,-1.28987 L 82.0289,-1.62659 L 82.746,-2 L 83.4433,-2.40915 L 84.119,-2.85301
 L 84.7715,-3.33044 L 85.399,-3.84021 L 86,-4.38104 L 86,-115 L 86.0452,-116.503 L 86.1806,-118
 L 86.4057,-119.486 L 86.7198,-120.956 L 87.1216,-122.404 L 87.6098,-123.826 L 88.1826,-125.216 L 88.8378,-126.569
 L 89.5731,-127.88 L 90.3859,-129.144 L 91.2733,-130.358 L 92.232,-131.515 L 93.2585,-132.614 L 94.3491,-133.648
 L 96.6508,-135.582 L 97.7415,-136.616 L 98.768,-137.715 L 99.7267,-138.872 L 100.614,-140.086 L 101.427,-141.35
 L 102.162,-142.661 L 102.817,-144.014 L 103.39,-145.404 L 103.878,-146.826 L 104.28,-148.274 L 104.594,-149.744
 L 104.819,-151.23 L 104.955,-152.728 L 105,-154.23 L 105,-274.23 L 87,-274.23 L 87,-154.23
 L 86.9342,-152.976 L 86.7378,-151.735 L 86.4127,-150.522 L 85.9625,-149.349 L 85.3923,-148.23 L 84.7082,-147.177
 L 83.9177,-146.201 L 83.0296,-145.312 L 82.0534,-144.522 L 81,-143.838 L 79.8808,-143.268 L 78.7082,-142.817
 L 77.4949,-142.492 L 76.2543,-142.296 L 75,-142.23 L 73.7457,-142.296 L 72.5051,-142.492 L 71.2918,-142.817
 L 70.1192,-143.268 L 69,-143.838 L 67.9466,-144.522 L 66.9704,-145.312 L 66.0823,-146.201 L 65.2918,-147.177
 L 64.6077,-148.23 L 64.0375,-149.349 L 63.5873,-150.522 L 63.2622,-151.735 L 63.0658,-152.976 L 63,-154.23
 L 63,-274.23 L 45,-274.23 L 45,-154.23 L 45.0452,-152.728 L 45.1806,-151.23 L 45.4058,-149.744
 L 45.7198,-148.274 L 46.1217,-146.826 L 46.6098,-145.404 L 47.1826,-144.014 L 47.8378,-142.661 L 48.5732,-141.35
 L 49.386,-140.086 L 50.2733,-138.872 L 51.232,-137.715 L 52.2585,-136.616 L 53.3492,-135.582 L 55.6509,-133.648
 L 56.7415,-132.614 L 57.768,-131.515 L 58.7267,-130.358 L 59.6141,-129.144 L 60.4269,-127.88 L 61.1622,-126.569
 L 61.8174,-125.216 L 62.3902,-123.826 L 62.8784,-122.404 L 63.2802,-120.956 L 63.5943,-119.486 L 63.8194,-118
 L 63.9548,-116.503 L 64,-115 L 64,-4.38104 L 64.601,-3.84021 L 65.2285,-3.33044 L 65.881,-2.85301
 L 66.5567,-2.40915 L 67.254,-2 L 67.9711,-1.62659 L 68.7062,-1.28987 L 69.4573,-0.990723 L 70.2225,-0.729889
 L 71,-0.508057 L 71.7877,-0.325775 L 72.5836,-0.183517 L 73.3856,-0.0816498 L 74.1918,-0.0204163 L 75,-0
 z
M 93.075,-271.505 L 93.075,-274.155 L 98.925,-274.155 L 98.925,-271.505 z
M 51.075,-271.505 L 51.075,-274.155 L 56.925,-274.155 L 56.925,-271.505 z
M 102.275,-259.305 L 102.275,-265.155 L 104.925,-265.155 L 104.925,-259.305 z
M 60.275,-259.305 L 60.275,-265.155 L 62.925,-265.155 L 62.925,-259.305 z
M 45.075,-259.305 L 45.075,-265.155 L 47.725,-265.155 L 47.725,-259.305 z
M 87.075,-259.305 L 87.075,-265.155 L 89.725,-265.155 L 89.725,-259.305 z
M 87.075,-235.305 L 87.075,-241.155 L 89.725,-241.155 L 89.725,-235.305 z
M 102.275,-235.305 L 102.275,-241.155 L 104.925,-241.155 L 104.925,-235.305 z
M 60.275,-235.305 L 60.275,-241.155 L 62.925,-241.155 L 62.925,-235.305 z
M 45.075,-235.305 L 45.075,-241.155 L 47.725,-241.155 L 47.725,-235.305 z
M 102.275,-211.305 L 102.275,-217.155 L 104.925,-217.155 L 104.925,-211.305 z
M 45.075,-211.305 L 45.075,-217.155 L 47.725,-217.155 L 47.725,-211.305 z
M 60.275,-211.305 L 60.275,-217.155 L 62.925,-217.155 L 62.925,-211.305 z
M 87.075,-211.305 L 87.075,-217.155 L 89.725,-217.155 L 89.725,-211.305 z
M 102.275,-187.305 L 102.275,-193.155 L 104.925,-193.155 L 104.925,-187.305 z
M 87.075,-187.305 L 87.075,-193.155 L 89.725,-193.155 L 89.725,-187.305 z
M 60.275,-187.305 L 60.275,-193.155 L 62.925,-193.155 L 62.925,-187.305 z
M 45.075,-187.305 L 45.075,-193.155 L 47.725,-193.155 L 47.725,-187.305 z
M 60.275,-163.305 L 60.275,-169.155 L 62.925,-169.155 L 62.925,-163.305 z
M 45.075,-163.305 L 45.075,-169.155 L 47.725,-169.155 L 47.725,-163.305 z
M 102.275,-163.305 L 102.275,-169.155 L 104.925,-169.155 L 104.925,-163.305 z
M 87.075,-163.305 L 87.075,-169.155 L 89.725,-169.155 L 89.725,-163.305 z
M 83.275,-99.7 L 83.275,-105.55 L 85.925,-105.55 L 85.925,-99.7 z
M 64.075,-99.7 L 64.075,-105.55 L 66.725,-105.55 L 66.725,-99.7 z
M 64.075,-74.95 L 64.075,-80.8 L 66.725,-80.8 L 66.725,-74.95 z
M 83.275,-74.95 L 83.275,-80.8 L 85.925,-80.8 L 85.925,-74.95 z
M 83.275,-50.2 L 83.275,-56.05 L 85.925,-56.05 L 85.925,-50.2 z
M 64.075,-50.2 L 64.075,-56.05 L 66.725,-56.05 L 66.725,-50.2 z
M 83.275,-25.45 L 83.275,-31.3 L 85.925,-31.3 L 85.925,-25.45 z
M 64.075,-25.45 L 64.075,-31.3 L 66.725,-31.3 L 66.725,-25.45 z
M 72.075,-16.075 L 72.075,-18.725 L 77.925,-18.725 L 77.925,-16.075 z
" stroke="black" fill="lightgray" stroke-width="0.5"/>
</svg>
