<svg xmlns="http://www.w3.org/2000/svg" width="11.8in" height="12.98in" viewBox="0 0 849.6 934.5600000000001"><g/><g/><g/><g/><g/><g/><g/><g/><g/><g/><g/><g/><path d="M 2.7128068986466474 85.96707934290819 L 2.7706798750246002 83.6760393429082 L 2.7706798750246002 83.6760393429082 L 2.9442551506151515 81.39082737440427 L 2.9442551506151515 81.39082737440427 L 3.233012567937986 79.11732816180583 L 3.233012567937986 79.11732816180583 L 3.6362635915600334 76.86131871298693 L 3.6362635915600334 76.86131871298693 L 4.152968473449797 74.62849666574284 L 4.152968473449797 74.62849666574284 L 4.781783591560034 72.4247013901523 L 4.781783591560034 72.4247013901523 L 5.521155560063971 70.2554604452704 L 5.521155560063971 70.2554604452704 L 6.369131308095467 68.12632973660898 L 6.369131308095467 68.12632973660898 L 7.323613197859246 66.04272343739638 L 7.323613197859246 66.04272343739638 L 8.382098237229325 64.01002737440426 L 8.382098237229325 64.01002737440426 L 9.541893512819875 62.03340060275072 L 9.541893512819875 62.03340060275072 L 10.800079339591528 60.117860445270395 L 10.800079339591528 60.117860445270395 L 12.153424221481293 58.26833918542788 L 12.153424221481293 58.26833918542788 L 13.59844154431594 56.48959902794756 L 13.59844154431594 56.48959902794756 L 15.131502961638775 54.78597698070347 L 15.131502961638775 54.78597698070347 L 328.69705886715064 54.785976980703445 L 328.69705886715064 54.785976980703445 L 332.95753130809567 54.657850996451494 L 332.95753130809567 54.657850996451494 L 337.2009958750248 54.27403997282943 L 337.2009958750248 54.27403997282943 L 341.4132793395917 53.63596123267195 L 341.4132793395917 53.63596123267195 L 345.58020847345 52.74559902794754 L 345.58020847345 52.74559902794754 L 349.68477540258385 51.606638398026284 L 349.68477540258385 51.606638398026284 L 353.7156415443161 50.22276438227825 L 353.7156415443161 50.22276438227825 L 357.6557990246311 48.59907934290817 L 357.6557990246311 48.59907934290817 L 361.49107461518224 46.74181950038848 L 361.49107461518224 46.74181950038848 L 365.20729508762315 44.65750453975856 L 365.20729508762315 44.65750453975856 L 368.7902872136074 42.35350453975856 L 368.7902872136074 42.35350453975856 L 372.2315470561271 39.83803997282943 L 372.2315470561271 39.83803997282943 L 375.5112320954972 37.120465169679825 L 375.5112320954972 37.120465169679825 L 378.62650768604834 34.210701390152266 L 378.62650768604834 34.210701390152266 L 381.5575313080956 31.119236823223133 L 381.5575313080956 31.119236823223133 L 387.039736032505 24.59473288621526 L 387.039736032505 24.59473288621526 L 389.97075965455224 21.502984854719188 L 389.97075965455224 21.502984854719188 L 393.0860352451034 18.593221075191636 L 393.0860352451034 18.593221075191636 L 396.3657202844735 15.875646272042019 L 396.3657202844735 15.875646272042019 L 399.80698012699315 13.360465169679813 L 399.80698012699315 13.360465169679813 L 403.3899722529775 11.056465169679825 L 403.3899722529775 11.056465169679825 L 407.10619272541845 8.97186674448298 L 407.10619272541845 8.97186674448298 L 410.94146831596964 7.114606901963285 L 410.94146831596964 7.114606901963285 L 414.88162579628454 5.490921862593211 L 414.88162579628454 5.490921862593211 L 418.91249193801684 4.107331311412111 L 418.91249193801684 4.107331311412111 L 423.0170588671507 2.968087216923905 L 423.0170588671507 2.968087216923905 L 427.18398800100897 2.0780084767664277 L 427.18398800100897 2.0780084767664277 L 431.39627146557586 1.439646272042026 L 431.39627146557586 1.439646272042026 L 435.64257067817425 1.0558352484199673 L 435.64257067817425 1.0558352484199673 L 439.9002084734499 0.9277092641680016 L 439.9002084734499 0.9277092641680016 L 780.0576887884106 0.9277092641679873 L 780.0576887884106 0.9277092641679873 L 780.0576887884106 51.951331311412076 L 780.0576887884106 51.951331311412076 L 439.9002084734498 51.9513313114121 L 439.9002084734498 51.9513313114121 L 436.3455628041584 52.13785099645147 L 436.3455628041584 52.13785099645147 L 432.82776752856785 52.69457540590029 L 432.82776752856785 52.69457540590029 L 429.38934233171744 53.6161187129869 L 429.38934233171744 53.6161187129869 L 426.0643029616387 54.89227619330187 L 426.0643029616387 54.89227619330187 L 422.8923344577017 56.50859115393179 L 422.8923344577017 56.50859115393179 L 419.9074525679379 58.44780060275069 L 419.9074525679379 58.44780060275069 L 417.1408383947096 60.68850296495541 L 417.1408383947096 60.68850296495541 L 414.62083839470955 63.20612186259321 L 414.62083839470955 63.20612186259321 L 412.3814683159694 65.97313288621525 L 412.3814683159694 65.97313288621525 L 410.44257067817415 68.95920532716013 L 410.44257067817415 68.95920532716013 L 408.8268226466781 72.13165572086092 L 408.8268226466781 72.13165572086092 L 407.54839744982775 75.45567461849872 L 407.54839744982775 75.45567461849872 L 406.6271376073081 78.89483682322313 L 406.6271376073081 78.89483682322313 L 406.071547056127 82.41149824054597 L 406.071547056127 82.41149824054597 L 405.88446044195376 85.96707934290816 L 405.88446044195376 85.96707934290816 L 406.07154705612714 89.52266044527038 L 406.07154705612714 89.52266044527038 L 406.6271376073082 93.03932186259321 L 406.6271376073082 93.03932186259321 L 407.5483974498279 96.47848406731762 L 407.5483974498279 96.47848406731762 L 408.8268226466783 99.80250296495541 L 408.8268226466783 99.80250296495541 L 410.4425706781743 102.9749533586562 L 410.4425706781743 102.9749533586562 L 412.3814683159696 105.96102579960109 L 412.3814683159696 105.96102579960109 L 414.6208383947097 108.72803682322314 L 414.6208383947097 108.72803682322314 L 417.14083839470976 111.24565572086092 L 417.14083839470976 111.24565572086092 L 419.9074525679381 113.48635808306565 L 419.9074525679381 113.48635808306565 L 422.89233445770185 115.42556753188455 L 422.89233445770185 115.42556753188455 L 426.0643029616389 117.04188249251447 L 426.0643029616389 117.04188249251447 L 429.3893423317176 118.31803997282942 L 429.3893423317176 118.31803997282942 L 432.827767528568 119.23958327991605 L 432.827767528568 119.23958327991605 L 436.3455628041586 119.79630768936485 L 436.3455628041586 119.79630768936485 L 439.9002084734499 119.98282737440422 L 439.9002084734499 119.98282737440422 L 780.0576887884106 119.98282737440421 L 780.0576887884106 119.98282737440421 L 780.0576887884106 171.0064494216483 L 780.0576887884106 171.0064494216483 L 439.9002084734498 171.0064494216483 L 439.9002084734498 171.0064494216483 L 435.6425706781742 170.87832343739638 L 435.6425706781742 170.87832343739638 L 431.3962714655758 170.49451241377432 L 431.3962714655758 170.49451241377432 L 427.1839880010089 169.8561502090499 L 427.1839880010089 169.8561502090499 L 423.01705886715064 168.96607146889244 L 423.01705886715064 168.96607146889244 L 418.91249193801673 167.82682737440422 L 418.91249193801673 167.82682737440422 L 414.8816257962845 166.44323682322312 L 414.8816257962845 166.44323682322312 L 410.94146831596953 164.81955178385306 L 410.94146831596953 164.81955178385306 L 407.10619272541834 162.96229194133338 L 407.10619272541834 162.96229194133338 L 403.3899722529774 160.8776935161365 L 403.3899722529774 160.8776935161365 L 399.8069801269931 158.57369351613653 L 399.8069801269931 158.57369351613653 L 396.3657202844734 156.0585124137743 L 396.3657202844734 156.0585124137743 L 393.0860352451033 153.3409376106247 L 393.0860352451033 153.3409376106247 L 389.9707596545522 150.43117383109717 L 389.9707596545522 150.43117383109717 L 387.03973603250495 147.3394257996011 L 387.03973603250495 147.3394257996011 L 381.5575313080955 140.81492186259322 L 381.5575313080955 140.81492186259322 L 378.6265076860483 137.72345729566408 L 378.6265076860483 137.72345729566408 L 375.5112320954971 134.81369351613654 L 375.5112320954971 134.81369351613654 L 372.231547056127 132.09611871298694 L 372.231547056127 132.09611871298694 L 368.7902872136073 129.58065414605778 L 368.7902872136073 129.58065414605778 L 365.20729508762304 127.27665414605778 L 365.20729508762304 127.27665414605778 L 361.4910746151821 125.19233918542787 L 361.4910746151821 125.19233918542787 L 357.65579902463094 123.33507934290819 L 357.65579902463094 123.33507934290819 L 353.71564154431593 121.7113943035381 L 353.71564154431593 121.7113943035381 L 349.6847754025837 120.32752028779007 L 349.6847754025837 120.32752028779007 L 345.58020847344983 119.18855965786881 L 345.58020847344983 119.18855965786881 L 341.41327933959155 118.2981974531444 L 341.41327933959155 118.2981974531444 L 337.20099587502466 117.66011871298691 L 337.20099587502466 117.66011871298691 L 332.9575313080955 117.27630768936487 L 332.9575313080955 117.27630768936487 L 328.69705886715064 117.1481817051129 L 328.69705886715064 117.1481817051129 L 15.131502961638779 117.14818170511292 L 15.131502961638779 117.14818170511292 L 13.598441544315941 115.44455965786884 L 13.598441544315941 115.44455965786884 L 12.153424221481297 113.66581950038851 L 12.153424221481297 113.66581950038851 L 10.800079339591532 111.81629824054599 L 10.800079339591532 111.81629824054599 L 9.541893512819879 109.90075808306568 L 9.541893512819879 109.90075808306568 L 8.382098237229327 107.92413131141214 L 8.382098237229327 107.92413131141214 L 7.323613197859248 105.89143524842001 L 7.323613197859248 105.89143524842001 L 6.369131308095468 103.8078289492074 L 6.369131308095468 103.8078289492074 L 5.5211555600639715 101.67869824054598 L 5.5211555600639715 101.67869824054598 L 4.781783591560035 99.5094572956641 L 4.781783591560035 99.5094572956641 L 4.152968473449798 97.30566202007356 L 4.152968473449798 97.30566202007356 L 3.6362635915600343 95.07283997282946 L 3.6362635915600343 95.07283997282946 L 3.2330125679379864 92.81683052401056 L 3.2330125679379864 92.81683052401056 L 2.9442551506151515 90.54333131141213 L 2.9442551506151515 90.54333131141213 L 2.7706798750246002 88.25811934290819 L 2.7706798750246002 88.25811934290819 L 2.7128068986466474 85.96707934290819 z" fill="none" stroke="#000000"/><path d="M 772.3332793395916 34.73085887046719 L 779.8450903632136 34.73085887046719 L 779.8450903632136 34.73085887046719 L 779.8450903632136 18.14818170511286 L 779.8450903632136 18.14818170511286 L 772.3332793395916 18.14818170511286 L 772.3332793395916 18.14818170511286 L 772.3332793395916 34.73085887046719 z" fill="none" stroke="#000000"/><path d="M 772.3332793395916 153.78597698070342 L 779.8450903632136 153.78597698070342 L 779.8450903632136 153.78597698070342 L 779.8450903632136 137.20329981534908 L 779.8450903632136 137.20329981534908 L 772.3332793395916 137.20329981534908 L 772.3332793395916 137.20329981534908 L 772.3332793395916 153.78597698070342 z" fill="none" stroke="#000000"/><path d="M 737.7506021742372 127.70723682322311 L 754.3332793395916 127.70723682322311 L 754.3332793395916 127.70723682322311 L 754.3332793395916 120.19542579960107 L 754.3332793395916 120.19542579960107 L 737.7506021742372 120.19542579960107 L 737.7506021742372 120.19542579960107 L 737.7506021742372 127.70723682322311 z" fill="none" stroke="#000000"/><path d="M 737.7506021742372 8.65211871298689 L 754.3332793395916 8.65211871298689 L 754.3332793395916 8.65211871298689 L 754.3332793395916 1.1403076893648318 L 754.3332793395916 1.1403076893648318 L 737.7506021742372 1.1403076893648318 L 737.7506021742372 1.1403076893648318 L 737.7506021742372 8.65211871298689 z" fill="none" stroke="#000000"/><path d="M 737.7506021742372 51.73873288621523 L 754.3332793395916 51.73873288621523 L 754.3332793395916 51.73873288621523 L 754.3332793395916 44.22692186259318 L 754.3332793395916 44.22692186259318 L 737.7506021742372 44.22692186259318 L 737.7506021742372 44.22692186259318 L 737.7506021742372 51.73873288621523 z" fill="none" stroke="#000000"/><path d="M 737.7506021742372 170.79385099645145 L 754.3332793395916 170.79385099645145 L 754.3332793395916 170.79385099645145 L 754.3332793395916 163.2820399728294 L 754.3332793395916 163.2820399728294 L 737.7506021742372 163.2820399728294 L 737.7506021742372 163.2820399728294 L 737.7506021742372 170.79385099645145 z" fill="none" stroke="#000000"/><path d="M 669.7191061112451 51.73873288621523 L 686.3017832765995 51.73873288621523 L 686.3017832765995 51.73873288621523 L 686.3017832765995 44.22692186259318 L 686.3017832765995 44.22692186259318 L 669.7191061112451 44.22692186259318 L 669.7191061112451 44.22692186259318 L 669.7191061112451 51.73873288621523 z" fill="none" stroke="#000000"/><path d="M 669.7191061112451 170.79385099645145 L 686.3017832765995 170.79385099645145 L 686.3017832765995 170.79385099645145 L 686.3017832765995 163.2820399728294 L 686.3017832765995 163.2820399728294 L 669.7191061112451 163.2820399728294 L 669.7191061112451 163.2820399728294 L 669.7191061112451 170.79385099645145 z" fill="none" stroke="#000000"/><path d="M 669.7191061112451 127.70723682322311 L 686.3017832765995 127.70723682322311 L 686.3017832765995 127.70723682322311 L 686.3017832765995 120.19542579960107 L 686.3017832765995 120.19542579960107 L 669.7191061112451 120.19542579960107 L 669.7191061112451 120.19542579960107 L 669.7191061112451 127.70723682322311 z" fill="none" stroke="#000000"/><path d="M 669.7191061112451 8.65211871298689 L 686.3017832765995 8.65211871298689 L 686.3017832765995 8.65211871298689 L 686.3017832765995 1.1403076893648318 L 686.3017832765995 1.1403076893648318 L 669.7191061112451 1.1403076893648318 L 669.7191061112451 1.1403076893648318 L 669.7191061112451 8.65211871298689 z" fill="none" stroke="#000000"/><path d="M 601.687610048253 127.70723682322313 L 618.2702872136074 127.70723682322313 L 618.2702872136074 127.70723682322313 L 618.2702872136074 120.19542579960108 L 618.2702872136074 120.19542579960108 L 601.687610048253 120.19542579960108 L 601.687610048253 120.19542579960108 L 601.687610048253 127.70723682322313 z" fill="none" stroke="#000000"/><path d="M 601.687610048253 170.79385099645145 L 618.2702872136074 170.79385099645145 L 618.2702872136074 170.79385099645145 L 618.2702872136074 163.2820399728294 L 618.2702872136074 163.2820399728294 L 601.687610048253 163.2820399728294 L 601.687610048253 163.2820399728294 L 601.687610048253 170.79385099645145 z" fill="none" stroke="#000000"/><path d="M 601.687610048253 8.652118712986862 L 618.2702872136074 8.652118712986862 L 618.2702872136074 8.652118712986862 L 618.2702872136074 1.1403076893648176 L 618.2702872136074 1.1403076893648176 L 601.687610048253 1.1403076893648176 L 601.687610048253 1.1403076893648176 L 601.687610048253 8.652118712986862 z" fill="none" stroke="#000000"/><path d="M 601.687610048253 51.738732886215224 L 618.2702872136074 51.738732886215224 L 618.2702872136074 51.738732886215224 L 618.2702872136074 44.22692186259318 L 618.2702872136074 44.22692186259318 L 601.687610048253 44.22692186259318 L 601.687610048253 44.22692186259318 L 601.687610048253 51.738732886215224 z" fill="none" stroke="#000000"/><path d="M 533.6561139852608 127.70723682322311 L 550.2387911506153 127.70723682322311 L 550.2387911506153 127.70723682322311 L 550.2387911506153 120.19542579960105 L 550.2387911506153 120.19542579960105 L 533.6561139852608 120.19542579960105 L 533.6561139852608 120.19542579960105 L 533.6561139852608 127.70723682322311 z" fill="none" stroke="#000000"/><path d="M 533.6561139852608 51.738732886215224 L 550.2387911506153 51.738732886215224 L 550.2387911506153 51.738732886215224 L 550.2387911506153 44.22692186259318 L 550.2387911506153 44.22692186259318 L 533.6561139852608 44.22692186259318 L 533.6561139852608 44.22692186259318 L 533.6561139852608 51.738732886215224 z" fill="none" stroke="#000000"/><path d="M 533.6561139852608 8.652118712986876 L 550.2387911506153 8.652118712986876 L 550.2387911506153 8.652118712986876 L 550.2387911506153 1.1403076893648318 L 550.2387911506153 1.1403076893648318 L 533.6561139852608 1.1403076893648318 L 533.6561139852608 1.1403076893648318 L 533.6561139852608 8.652118712986876 z" fill="none" stroke="#000000"/><path d="M 533.6561139852608 170.79385099645145 L 550.2387911506153 170.79385099645145 L 550.2387911506153 170.79385099645145 L 550.2387911506153 163.2820399728294 L 550.2387911506153 163.2820399728294 L 533.6561139852608 163.2820399728294 L 533.6561139852608 163.2820399728294 L 533.6561139852608 170.79385099645145 z" fill="none" stroke="#000000"/><path d="M 465.6246179222688 127.70723682322313 L 482.2072950876231 127.70723682322313 L 482.2072950876231 127.70723682322313 L 482.2072950876231 120.19542579960108 L 482.2072950876231 120.19542579960108 L 465.6246179222688 120.19542579960108 L 465.6246179222688 120.19542579960108 L 465.6246179222688 127.70723682322313 z" fill="none" stroke="#000000"/><path d="M 465.6246179222688 170.79385099645145 L 482.2072950876231 170.79385099645145 L 482.2072950876231 170.79385099645145 L 482.2072950876231 163.2820399728294 L 482.2072950876231 163.2820399728294 L 465.6246179222688 163.2820399728294 L 465.6246179222688 163.2820399728294 L 465.6246179222688 170.79385099645145 z" fill="none" stroke="#000000"/><path d="M 465.6246179222688 8.652118712986876 L 482.2072950876231 8.652118712986876 L 482.2072950876231 8.652118712986876 L 482.2072950876231 1.1403076893648318 L 482.2072950876231 1.1403076893648318 L 465.6246179222688 1.1403076893648318 L 465.6246179222688 1.1403076893648318 L 465.6246179222688 8.652118712986876 z" fill="none" stroke="#000000"/><path d="M 465.6246179222688 51.73873288621523 L 482.2072950876231 51.73873288621523 L 482.2072950876231 51.73873288621523 L 482.2072950876231 44.22692186259319 L 482.2072950876231 44.22692186259319 L 465.6246179222688 44.22692186259319 L 465.6246179222688 44.22692186259319 L 465.6246179222688 51.73873288621523 z" fill="none" stroke="#000000"/><path d="M 285.32698012699313 116.93558327991605 L 301.90965729234745 116.93558327991605 L 301.90965729234745 116.93558327991605 L 301.90965729234745 109.42374390983731 L 301.90965729234745 109.42374390983731 L 285.32698012699313 109.42374390983731 L 285.32698012699313 109.42374390983731 L 285.32698012699313 116.93558327991605 z" fill="none" stroke="#000000"/><path d="M 285.32698012699313 62.510414775979044 L 301.90965729234745 62.510414775979044 L 301.90965729234745 62.510414775979044 L 301.90965729234745 54.9985754059003 L 301.90965729234745 54.9985754059003 L 285.32698012699313 54.9985754059003 L 285.32698012699313 54.9985754059003 L 285.32698012699313 62.510414775979044 z" fill="none" stroke="#000000"/><path d="M 215.1694998120325 116.93558327991606 L 231.75217697738682 116.93558327991606 L 231.75217697738682 116.93558327991606 L 231.75217697738682 109.42374390983733 L 231.75217697738682 109.42374390983733 L 215.1694998120325 109.42374390983733 L 215.1694998120325 109.42374390983733 L 215.1694998120325 116.93558327991606 z" fill="none" stroke="#000000"/><path d="M 215.1694998120325 62.510414775979044 L 231.75217697738682 62.510414775979044 L 231.75217697738682 62.510414775979044 L 231.75217697738682 54.998575405900304 L 231.75217697738682 54.998575405900304 L 215.1694998120325 54.998575405900304 L 215.1694998120325 54.998575405900304 L 215.1694998120325 62.510414775979044 z" fill="none" stroke="#000000"/><path d="M 145.01201949707186 116.93558327991606 L 161.5946966624262 116.93558327991606 L 161.5946966624262 116.93558327991606 L 161.5946966624262 109.42374390983733 L 161.5946966624262 109.42374390983733 L 145.01201949707186 109.42374390983733 L 145.01201949707186 109.42374390983733 L 145.01201949707186 116.93558327991606 z" fill="none" stroke="#000000"/><path d="M 145.01201949707186 62.51041477597905 L 161.5946966624262 62.510414775979044 L 161.5946966624262 62.510414775979044 L 161.5946966624262 54.99857540590031 L 161.5946966624262 54.99857540590031 L 145.01201949707186 54.99857540590031 L 145.01201949707186 54.99857540590031 L 145.01201949707186 62.51041477597905 z" fill="none" stroke="#000000"/><path d="M 74.85453918211122 116.93558327991607 L 91.43721634746555 116.93558327991606 L 91.43721634746555 116.93558327991606 L 91.43721634746555 109.42374390983733 L 91.43721634746555 109.42374390983733 L 74.85453918211122 109.42374390983733 L 74.85453918211122 109.42374390983733 L 74.85453918211122 116.93558327991607 z" fill="none" stroke="#000000"/><path d="M 74.85453918211121 62.51041477597906 L 91.43721634746555 62.51041477597905 L 91.43721634746555 62.51041477597905 L 91.43721634746555 54.99857540590031 L 91.43721634746555 54.99857540590031 L 74.85453918211122 54.99857540590031 L 74.85453918211122 54.99857540590031 L 74.85453918211121 62.51041477597906 z" fill="none" stroke="#000000"/><path d="M 48.27973603250493 94.25838957912866 L 55.79154705612697 94.25838957912866 L 55.79154705612697 94.25838957912866 L 55.79154705612697 77.67576910668771 L 55.79154705612697 77.67576910668771 L 48.27973603250492 77.67576910668771 L 48.27973603250492 77.67576910668771 L 48.27973603250493 94.25838957912866 z" fill="none" stroke="#000000"/><path d="M 2.7128069000000448 257.18109529685046 L 2.770679876377997 254.8901346669292 L 2.770679876377997 254.8901346669292 L 2.944255151968548 252.60484332834653 L 2.944255151968548 252.60484332834653 L 3.2330125692913825 250.33145750157487 L 3.2330125692913825 250.33145750157487 L 3.63626359291343 248.07536301338587 L 3.63626359291343 248.07536301338587 L 4.152968474803194 245.8425126196851 L 4.152968474803194 245.8425126196851 L 4.781783592913429 243.63857561181106 L 4.781783592913429 243.63857561181106 L 5.521155561417367 241.46950474566935 L 5.521155561417367 241.46950474566935 L 6.369131309448864 239.34040238346464 L 6.369131309448864 239.34040238346464 L 7.323613199212643 237.25665435196856 L 7.323613199212643 237.25665435196856 L 8.38209823858272 235.22392994251976 L 8.38209823858272 235.22392994251976 L 9.541893514173275 233.2473315173229 L 9.541893514173275 233.2473315173229 L 10.800079340944926 231.33196143858274 L 10.800079340944926 231.33196143858274 L 12.15342422283469 229.48235513937013 L 12.15342422283469 229.48235513937013 L 13.598441545669337 227.7036149818898 L 13.598441545669337 227.7036149818898 L 15.131502962992172 225.99999293464572 L 15.131502962992172 225.99999293464572 L 328.69705886850403 225.9999929346457 L 328.69705886850403 225.9999929346457 L 332.95753130944905 225.87186695039372 L 332.95753130944905 225.87186695039372 L 337.20099587637816 225.4880559267717 L 337.20099587637816 225.4880559267717 L 341.4132793409451 224.8499771866142 L 341.4132793409451 224.8499771866142 L 345.5802084748034 223.9596149818898 L 345.5802084748034 223.9596149818898 L 349.68477540393724 222.82065435196853 L 349.68477540393724 222.82065435196853 L 353.7156415456695 221.43678033622052 L 353.7156415456695 221.43678033622052 L 357.6557990259845 219.81309529685043 L 357.6557990259845 219.81309529685043 L 361.4910746165356 217.95583545433075 L 361.4910746165356 217.95583545433075 L 365.20729508897654 215.8715204937008 L 365.20729508897654 215.8715204937008 L 368.7902872149608 213.5675204937008 L 368.7902872149608 213.5675204937008 L 372.2315470574805 211.0520559267717 L 372.2315470574805 211.0520559267717 L 375.51123209685056 208.33448112362206 L 375.51123209685056 208.33448112362206 L 378.6265076874017 205.42471734409452 L 378.6265076874017 205.42471734409452 L 381.55753130944896 202.33325277716537 L 381.55753130944896 202.33325277716537 L 387.0397360338584 195.8087488401575 L 387.0397360338584 195.8087488401575 L 389.9707596559056 192.71700080866145 L 389.9707596559056 192.71700080866145 L 393.0860352464568 189.8072370291339 L 393.0860352464568 189.8072370291339 L 396.3657202858269 187.08966222598428 L 396.3657202858269 187.08966222598428 L 399.80698012834654 184.57448112362206 L 399.80698012834654 184.57448112362206 L 403.38997225433087 182.27048112362206 L 403.38997225433087 182.27048112362206 L 407.10619272677184 180.18588269842522 L 407.10619272677184 180.18588269842522 L 410.94146831732303 178.32862285590554 L 410.94146831732303 178.32862285590554 L 414.8816257976379 176.70493781653545 L 414.8816257976379 176.70493781653545 L 418.9124919393702 175.32134726535435 L 418.9124919393702 175.32134726535435 L 423.0170588685041 174.18210317086616 L 423.0170588685041 174.18210317086616 L 427.18398800236236 173.29202443070866 L 427.18398800236236 173.29202443070866 L 431.39627146692925 172.65366222598425 L 431.39627146692925 172.65366222598425 L 435.64257067952764 172.26985120236222 L 435.64257067952764 172.26985120236222 L 439.90020847480326 172.14172521811025 L 439.90020847480326 172.14172521811025 L 780.0576887897639 172.14172521811025 L 780.0576887897639 172.14172521811025 L 780.0576887897639 223.1653472653543 L 780.0576887897639 223.1653472653543 L 439.9002084748032 223.16534726535434 L 439.9002084748032 223.16534726535434 L 436.345562805512 223.3518669503937 L 436.345562805512 223.3518669503937 L 432.8277675299214 223.90859135984252 L 432.8277675299214 223.90859135984252 L 429.389342333071 224.83013466692913 L 429.389342333071 224.83013466692913 L 426.06430296299226 226.1062921472441 L 426.06430296299226 226.1062921472441 L 422.89233445905523 227.722607107874 L 422.89233445905523 227.722607107874 L 419.9074525692915 229.66178821023624 L 419.9074525692915 229.66178821023624 L 417.14083839606315 231.90257561181102 L 417.14083839606315 231.90257561181102 L 414.6208383960631 234.42002443070862 L 414.6208383960631 234.42002443070862 L 412.38146831732297 237.18720553307085 L 412.38146831732297 237.18720553307085 L 410.4425706795277 240.17322128110234 L 410.4425706795277 240.17322128110234 L 408.8268226480317 243.34575671417323 L 408.8268226480317 243.34575671417323 L 407.5483974511813 246.66966222598427 L 407.5483974511813 246.66966222598427 L 406.6271376086616 250.10893781653544 L 406.6271376086616 250.10893781653544 L 406.07154705748053 253.62559923385828 L 406.07154705748053 253.62559923385828 L 405.8844604433073 257.18109529685046 L 405.8844604433073 257.18109529685046 L 406.07154705748053 260.7365913598426 L 406.07154705748053 260.7365913598426 L 406.6271376086616 264.25325277716536 L 406.6271376086616 264.25325277716536 L 407.5483974511813 267.6925283677166 L 407.5483974511813 267.6925283677166 L 408.8268226480317 271.0164338795276 L 408.8268226480317 271.0164338795276 L 410.4425706795277 274.1889693125985 L 410.4425706795277 274.1889693125985 L 412.38146831732297 277.17498506063 L 412.38146831732297 277.17498506063 L 414.6208383960631 279.9421661629922 L 414.6208383960631 279.9421661629922 L 417.14083839606315 282.4596149818898 L 417.14083839606315 282.4596149818898 L 419.9074525692915 284.7004023834646 L 419.9074525692915 284.7004023834646 L 422.89233445905523 286.63958348582685 L 422.89233445905523 286.63958348582685 L 426.06430296299226 288.25589844645674 L 426.06430296299226 288.25589844645674 L 429.389342333071 289.5320559267717 L 429.389342333071 289.5320559267717 L 432.8277675299214 290.4535992338583 L 432.8277675299214 290.4535992338583 L 436.345562805512 291.0103236433071 L 436.345562805512 291.0103236433071 L 439.90020847480326 291.1968433283465 L 439.90020847480326 291.1968433283465 L 780.0576887897639 291.19684332834646 L 780.0576887897639 291.19684332834646 L 780.0576887897639 342.2204653755904 L 780.0576887897639 342.2204653755904 L 439.9002084748032 342.22046537559044 L 439.9002084748032 342.22046537559044 L 435.6425706795276 342.0929063204723 L 435.6425706795276 342.0929063204723 L 431.3962714669292 341.7073945094487 L 431.3962714669292 341.7073945094487 L 427.1839880023623 341.0695992338581 L 427.1839880023623 341.0695992338581 L 423.017058868504 340.1795204937007 L 423.017058868504 340.1795204937007 L 418.9124919393701 339.03999293464557 L 418.9124919393701 339.03999293464557 L 414.88162579763787 337.6566858480314 L 414.88162579763787 337.6566858480314 L 410.9414683173229 336.0324338795275 L 410.9414683173229 336.0324338795275 L 407.1061927267717 334.17574096614163 L 407.1061927267717 334.17574096614163 L 403.38997225433076 332.0922763992125 L 403.38997225433076 332.0922763992125 L 399.8069801283465 329.78770947007865 L 399.8069801283465 329.78770947007865 L 396.3657202858268 327.27252836771646 L 396.3657202858268 327.27252836771646 L 393.0860352464567 324.55495356456686 L 393.0860352464567 324.55495356456686 L 389.97075965590557 321.6451897850393 L 389.97075965590557 321.6451897850393 L 387.03973603385833 318.55344175354327 L 387.03973603385833 318.55344175354327 L 381.5575313094489 312.0289378165354 L 381.5575313094489 312.0289378165354 L 378.62650768740167 308.9374732496063 L 378.62650768740167 308.9374732496063 L 375.5112320968505 306.0277094700787 L 375.5112320968505 306.0277094700787 L 372.2315470574804 303.3101346669291 L 372.2315470574804 303.3101346669291 L 368.7902872149607 300.7946701 L 368.7902872149607 300.7946701 L 365.2072950889764 298.4906701 L 365.2072950889764 298.4906701 L 361.49107461653546 296.4063551393701 L 361.49107461653546 296.4063551393701 L 357.6557990259843 294.5490952968504 L 357.6557990259843 294.5490952968504 L 353.7156415456693 292.9254102574803 L 353.7156415456693 292.9254102574803 L 349.68477540393707 291.5415362417323 L 349.68477540393707 291.5415362417323 L 345.5802084748032 290.402575611811 L 345.5802084748032 290.402575611811 L 341.41327934094494 289.5122134070866 L 341.41327934094494 289.5122134070866 L 337.20099587637804 288.8741346669292 L 337.20099587637804 288.8741346669292 L 332.9575313094489 288.4903236433071 L 332.9575313094489 288.4903236433071 L 328.69705886850403 288.36219765905514 L 328.69705886850403 288.36219765905514 L 15.131502962992176 288.36219765905514 L 15.131502962992176 288.36219765905514 L 13.598441545669338 286.6585756118111 L 13.598441545669338 286.6585756118111 L 12.153424222834694 284.87983545433076 L 12.153424222834694 284.87983545433076 L 10.80007934094493 283.03022915511815 L 10.80007934094493 283.03022915511815 L 9.541893514173275 281.114859076378 L 9.541893514173275 281.114859076378 L 8.382098238582724 279.13826065118116 L 8.382098238582724 279.13826065118116 L 7.323613199212646 277.10553624173235 L 7.323613199212646 277.10553624173235 L 6.369131309448866 275.0217882102363 L 6.369131309448866 275.0217882102363 L 5.52115556141737 272.89268584803153 L 5.52115556141737 272.89268584803153 L 4.781783592913433 270.7236149818898 L 4.781783592913433 270.7236149818898 L 4.152968474803195 268.5196779740158 L 4.152968474803195 268.5196779740158 L 3.636263592913432 266.28682758031505 L 3.636263592913432 266.28682758031505 L 3.2330125692913843 264.03073309212607 L 3.2330125692913843 264.03073309212607 L 2.94425515196855 261.7573472653544 L 2.94425515196855 261.7573472653544 L 2.770679876377998 259.4720559267717 L 2.770679876377998 259.4720559267717 L 2.712806900000045 257.18109529685046 z" fill="none" stroke="#000000"/><path d="M 772.333279340945 324.99999293464566 L 779.845090364567 324.99999293464566 L 779.845090364567 324.99999293464566 L 779.845090364567 308.41731576929135 L 779.845090364567 308.41731576929135 L 772.333279340945 308.41731576929135 L 772.333279340945 308.41731576929135 L 772.333279340945 324.99999293464566 z" fill="none" stroke="#000000"/><path d="M 772.333279340945 205.94487482440945 L 779.845090364567 205.94487482440945 L 779.845090364567 205.94487482440945 L 779.845090364567 189.3621976590551 L 779.845090364567 189.3621976590551 L 772.333279340945 189.3621976590551 L 772.333279340945 189.3621976590551 L 772.333279340945 205.94487482440945 z" fill="none" stroke="#000000"/><path d="M 737.7506021755906 342.00786695039375 L 754.3332793409451 342.00786695039375 L 754.3332793409451 342.00786695039375 L 754.3332793409451 334.49605592677165 L 754.3332793409451 334.49605592677165 L 737.7506021755906 334.49605592677165 L 737.7506021755906 334.49605592677165 L 737.7506021755906 342.00786695039375 z" fill="none" stroke="#000000"/><path d="M 737.7506021755906 222.95274884015748 L 754.3332793409451 222.95274884015748 L 754.3332793409451 222.95274884015748 L 754.3332793409451 215.44093781653544 L 754.3332793409451 215.44093781653544 L 737.7506021755906 215.44093781653544 L 737.7506021755906 215.44093781653544 L 737.7506021755906 222.95274884015748 z" fill="none" stroke="#000000"/><path d="M 737.7506021755906 179.86613466692913 L 754.3332793409451 179.86613466692913 L 754.3332793409451 179.86613466692913 L 754.3332793409451 172.3543236433071 L 754.3332793409451 172.3543236433071 L 737.7506021755906 172.3543236433071 L 737.7506021755906 172.3543236433071 L 737.7506021755906 179.86613466692913 z" fill="none" stroke="#000000"/><path d="M 737.7506021755906 298.92125277716536 L 754.3332793409451 298.92125277716536 L 754.3332793409451 298.92125277716536 L 754.3332793409451 291.4094417535433 L 754.3332793409451 291.4094417535433 L 737.7506021755906 291.4094417535433 L 737.7506021755906 291.4094417535433 L 737.7506021755906 298.92125277716536 z" fill="none" stroke="#000000"/><path d="M 669.7191061125985 179.86613466692916 L 686.3017832779528 179.86613466692916 L 686.3017832779528 179.86613466692916 L 686.3017832779528 172.3543236433071 L 686.3017832779528 172.3543236433071 L 669.7191061125985 172.3543236433071 L 669.7191061125985 172.3543236433071 L 669.7191061125985 179.86613466692916 z" fill="none" stroke="#000000"/><path d="M 669.7191061125985 342.00786695039375 L 686.3017832779528 342.00786695039375 L 686.3017832779528 342.00786695039375 L 686.3017832779528 334.49605592677165 L 686.3017832779528 334.49605592677165 L 669.7191061125985 334.49605592677165 L 669.7191061125985 334.49605592677165 L 669.7191061125985 342.00786695039375 z" fill="none" stroke="#000000"/><path d="M 669.7191061125985 222.9527488401575 L 686.3017832779528 222.9527488401575 L 686.3017832779528 222.9527488401575 L 686.3017832779528 215.44093781653547 L 686.3017832779528 215.44093781653547 L 669.7191061125985 215.44093781653547 L 669.7191061125985 215.44093781653547 L 669.7191061125985 222.9527488401575 z" fill="none" stroke="#000000"/><path d="M 669.7191061125985 298.92125277716536 L 686.3017832779528 298.92125277716536 L 686.3017832779528 298.92125277716536 L 686.3017832779528 291.4094417535433 L 686.3017832779528 291.4094417535433 L 669.7191061125985 291.4094417535433 L 669.7191061125985 291.4094417535433 L 669.7191061125985 298.92125277716536 z" fill="none" stroke="#000000"/><path d="M 601.6876100496064 342.00786695039375 L 618.2702872149607 342.00786695039375 L 618.2702872149607 342.00786695039375 L 618.2702872149607 334.49605592677165 L 618.2702872149607 334.49605592677165 L 601.6876100496064 334.49605592677165 L 601.6876100496064 334.49605592677165 L 601.6876100496064 342.00786695039375 z" fill="none" stroke="#000000"/><path d="M 601.6876100496064 179.86613466692916 L 618.2702872149607 179.86613466692916 L 618.2702872149607 179.86613466692916 L 618.2702872149607 172.3543236433071 L 618.2702872149607 172.3543236433071 L 601.6876100496064 172.3543236433071 L 601.6876100496064 172.3543236433071 L 601.6876100496064 179.86613466692916 z" fill="none" stroke="#000000"/><path d="M 601.6876100496064 222.9527488401575 L 618.2702872149607 222.9527488401575 L 618.2702872149607 222.9527488401575 L 618.2702872149607 215.44093781653547 L 618.2702872149607 215.44093781653547 L 601.6876100496064 215.44093781653547 L 601.6876100496064 215.44093781653547 L 601.6876100496064 222.9527488401575 z" fill="none" stroke="#000000"/><path d="M 601.6876100496064 298.92125277716536 L 618.2702872149607 298.92125277716536 L 618.2702872149607 298.92125277716536 L 618.2702872149607 291.4094417535433 L 618.2702872149607 291.4094417535433 L 601.6876100496064 291.4094417535433 L 601.6876100496064 291.4094417535433 L 601.6876100496064 298.92125277716536 z" fill="none" stroke="#000000"/><path d="M 533.6561139866143 298.92125277716536 L 550.2387911519686 298.92125277716536 L 550.2387911519686 298.92125277716536 L 550.2387911519686 291.4094417535433 L 550.2387911519686 291.4094417535433 L 533.6561139866143 291.4094417535433 L 533.6561139866143 291.4094417535433 L 533.6561139866143 298.92125277716536 z" fill="none" stroke="#000000"/><path d="M 533.6561139866143 222.9527488401575 L 550.2387911519686 222.9527488401575 L 550.2387911519686 222.9527488401575 L 550.2387911519686 215.44093781653547 L 550.2387911519686 215.44093781653547 L 533.6561139866143 215.44093781653547 L 533.6561139866143 215.44093781653547 L 533.6561139866143 222.9527488401575 z" fill="none" stroke="#000000"/><path d="M 533.6561139866143 179.86613466692916 L 550.2387911519686 179.86613466692916 L 550.2387911519686 179.86613466692916 L 550.2387911519686 172.3543236433071 L 550.2387911519686 172.3543236433071 L 533.6561139866143 172.3543236433071 L 533.6561139866143 172.3543236433071 L 533.6561139866143 179.86613466692916 z" fill="none" stroke="#000000"/><path d="M 533.6561139866143 342.00786695039375 L 550.2387911519686 342.00786695039375 L 550.2387911519686 342.00786695039375 L 550.2387911519686 334.49605592677165 L 550.2387911519686 334.49605592677165 L 533.6561139866143 334.49605592677165 L 533.6561139866143 334.49605592677165 L 533.6561139866143 342.00786695039375 z" fill="none" stroke="#000000"/><path d="M 465.62461792362217 342.0078669503938 L 482.2072950889765 342.00786695039375 L 482.2072950889765 342.00786695039375 L 482.2072950889765 334.49605592677165 L 482.2072950889765 334.49605592677165 L 465.62461792362217 334.4960559267717 L 465.62461792362217 334.4960559267717 L 465.62461792362217 342.0078669503938 z" fill="none" stroke="#000000"/><path d="M 465.62461792362217 222.9527488401575 L 482.2072950889765 222.9527488401575 L 482.2072950889765 222.9527488401575 L 482.2072950889765 215.44093781653547 L 482.2072950889765 215.44093781653547 L 465.62461792362217 215.44093781653547 L 465.62461792362217 215.44093781653547 L 465.62461792362217 222.9527488401575 z" fill="none" stroke="#000000"/><path d="M 465.62461792362217 298.92125277716536 L 482.2072950889765 298.92125277716536 L 482.2072950889765 298.92125277716536 L 482.2072950889765 291.4094417535433 L 482.2072950889765 291.4094417535433 L 465.62461792362217 291.4094417535433 L 465.62461792362217 291.4094417535433 L 465.62461792362217 298.92125277716536 z" fill="none" stroke="#000000"/><path d="M 465.62461792362217 179.86613466692916 L 482.2072950889765 179.86613466692916 L 482.2072950889765 179.86613466692916 L 482.2072950889765 172.3543236433071 L 482.2072950889765 172.3543236433071 L 465.62461792362217 172.3543236433071 L 465.62461792362217 172.3543236433071 L 465.62461792362217 179.86613466692916 z" fill="none" stroke="#000000"/><path d="M 285.3269801283466 233.72440238346462 L 301.9096572937009 233.72440238346462 L 301.9096572937009 233.72440238346462 L 301.9096572937009 226.21259135984255 L 301.9096572937009 226.21259135984255 L 285.3269801283466 226.21259135984255 L 285.3269801283466 226.21259135984255 L 285.3269801283466 233.72440238346462 z" fill="none" stroke="#000000"/><path d="M 285.3269801283466 288.14959923385834 L 301.9096572937009 288.14959923385834 L 301.9096572937009 288.14959923385834 L 301.9096572937009 280.6377882102363 L 301.9096572937009 280.6377882102363 L 285.3269801283466 280.6377882102363 L 285.3269801283466 280.6377882102363 L 285.3269801283466 288.14959923385834 z" fill="none" stroke="#000000"/><path d="M 215.16949981338595 288.14959923385834 L 231.75217697874027 288.14959923385834 L 231.75217697874027 288.14959923385834 L 231.75217697874027 280.6377882102363 L 231.75217697874027 280.6377882102363 L 215.16949981338595 280.6377882102363 L 215.16949981338595 280.6377882102363 L 215.16949981338595 288.14959923385834 z" fill="none" stroke="#000000"/><path d="M 215.16949981338593 233.72440238346465 L 231.75217697874024 233.72440238346465 L 231.75217697874024 233.72440238346465 L 231.75217697874024 226.21259135984258 L 231.75217697874024 226.21259135984258 L 215.16949981338593 226.21259135984258 L 215.16949981338593 226.21259135984258 L 215.16949981338593 233.72440238346465 z" fill="none" stroke="#000000"/><path d="M 145.0120194984253 233.72440238346465 L 161.59469666377962 233.72440238346465 L 161.59469666377962 233.72440238346465 L 161.59469666377962 226.21259135984258 L 161.59469666377962 226.21259135984258 L 145.0120194984253 226.21259135984258 L 145.0120194984253 226.21259135984258 L 145.0120194984253 233.72440238346465 z" fill="none" stroke="#000000"/><path d="M 145.01201949842533 288.14959923385834 L 161.59469666377964 288.14959923385834 L 161.59469666377964 288.14959923385834 L 161.59469666377964 280.6377882102363 L 161.59469666377964 280.6377882102363 L 145.01201949842533 280.6377882102363 L 145.01201949842533 280.6377882102363 L 145.01201949842533 288.14959923385834 z" fill="none" stroke="#000000"/><path d="M 74.85453918346467 288.14959923385834 L 91.437216348819 288.14959923385834 L 91.437216348819 288.14959923385834 L 91.437216348819 280.6377882102363 L 91.437216348819 280.6377882102363 L 74.85453918346467 280.6377882102363 L 74.85453918346467 280.6377882102363 L 74.85453918346467 288.14959923385834 z" fill="none" stroke="#000000"/><path d="M 74.85453918346467 233.72440238346465 L 91.437216348819 233.72440238346465 L 91.437216348819 233.72440238346465 L 91.437216348819 226.21259135984258 L 91.437216348819 226.21259135984258 L 74.85453918346467 226.21259135984258 L 74.85453918346467 226.21259135984258 L 74.85453918346467 233.72440238346465 z" fill="none" stroke="#000000"/><path d="M 48.27973603385837 265.4724338795276 L 55.791547057480415 265.4724338795276 L 55.791547057480415 265.4724338795276 L 55.791547057480415 248.88975671417327 L 55.791547057480415 248.88975671417327 L 48.27973603385837 248.88975671417327 L 48.27973603385837 248.88975671417327 L 48.27973603385837 265.4724338795276 z" fill="none" stroke="#000000"/><path d="M 443.8885005204724 375.0011864251969 L 443.91684697716533 375.0011864251969 L 443.91684697716533 375.0011864251969 L 443.91684697716533 351.7570919370079 L 443.91684697716533 351.7570919370079 L 472.5325950086614 351.7570919370079 L 472.5325950086614 351.7570919370079 L 472.5325950086614 342.40276122834644 L 472.5325950086614 342.40276122834644 L 489.54046902440945 342.40276122834644 L 489.54046902440945 342.40276122834644 L 489.54046902440945 351.7570919370079 L 489.54046902440945 351.7570919370079 L 540.5640910716536 351.7570919370079 L 540.5640910716536 351.7570919370079 L 540.5640910716536 342.40276122834644 L 540.5640910716536 342.40276122834644 L 557.5719650874016 342.40276122834644 L 557.5719650874016 342.40276122834644 L 557.5719650874016 351.7570919370079 L 557.5719650874016 351.7570919370079 L 608.5955871346457 351.7570919370079 L 608.5955871346457 351.7570919370079 L 608.5955871346457 342.40276122834644 L 608.5955871346457 342.40276122834644 L 625.6034611503937 342.40276122834644 L 625.6034611503937 342.40276122834644 L 625.6034611503937 351.7570919370079 L 625.6034611503937 351.7570919370079 L 676.6270831976378 351.7570919370079 L 676.6270831976378 351.7570919370079 L 676.6270831976378 342.40276122834644 L 676.6270831976378 342.40276122834644 L 693.6349572133859 342.40276122834644 L 693.6349572133859 342.40276122834644 L 693.6349572133859 351.7570919370079 L 693.6349572133859 351.7570919370079 L 744.65857926063 351.7570919370079 L 744.65857926063 351.7570919370079 L 744.65857926063 342.40276122834644 L 744.65857926063 342.40276122834644 L 761.666453276378 342.40276122834644 L 761.666453276378 342.40276122834644 L 761.666453276378 351.7570919370079 L 761.666453276378 351.7570919370079 L 787.1782643 351.7570919370079 L 787.1782643 351.7570919370079 L 787.1782643 406.74921792125974 L 787.1782643 406.74921792125974 L 761.666453276378 406.74921792125974 L 761.666453276378 406.74921792125974 L 761.666453276378 416.1035486299213 L 761.666453276378 416.1035486299213 L 744.65857926063 416.1035486299213" fill="none" stroke="#000000"/><path d="M 443.8885005204724 351.7570919370079 L 431.44440603228344 351.7570919370079 L 431.44440603228344 351.7570919370079 L 431.44440603228344 375.0011864251969 L 431.44440603228344 375.0011864251969 L 431.4160595755905 375.0011864251969" fill="none" stroke="#000000"/><path d="M 431.4160595755905 351.7570919370079 L 418.97196508740154 351.7570919370079 L 418.97196508740154 351.7570919370079 L 418.97196508740154 375.0011864251969 L 418.97196508740154 375.0011864251969 L 418.94361863070867 375.0011864251969" fill="none" stroke="#000000"/><path d="M 418.94361863070867 351.7570919370079 L 406.4995241425197 351.7570919370079 L 406.4995241425197 351.7570919370079 L 406.4995241425197 375.0011864251969 L 406.4995241425197 375.0011864251969 L 406.47117768582683 375.0011864251969" fill="none" stroke="#000000"/><path d="M 406.47117768582683 351.7570919370079 L 394.02708319763786 351.7570919370079 L 394.02708319763786 351.7570919370079 L 394.02708319763786 375.0011864251969 L 394.02708319763786 375.0011864251969 L 393.998736740945 375.0011864251969" fill="none" stroke="#000000"/><path d="M 393.998736740945 351.7570919370079 L 381.554642252756 351.7570919370079 L 381.554642252756 351.7570919370079 L 381.554642252756 375.0011864251969 L 381.554642252756 375.0011864251969 L 381.52629579606315 375.0011864251969" fill="none" stroke="#000000"/><path d="M 381.52629579606315 351.7570919370079 L 369.08220130787424 351.7570919370079 L 369.08220130787424 351.7570919370079 L 369.08220130787424 375.0011864251969 L 369.08220130787424 375.0011864251969 L 369.0538548511813 375.0011864251969" fill="none" stroke="#000000"/><path d="M 369.0538548511813 351.7570919370079 L 356.6097603629924 351.7570919370079 L 356.6097603629924 351.7570919370079 L 356.6097603629924 375.0011864251969 L 356.6097603629924 375.0011864251969 L 356.58141390629953 375.0011864251969" fill="none" stroke="#000000"/><path d="M 356.58141390629953 351.7570919370079 L 344.13731941811056 351.7570919370079 L 344.13731941811056 351.7570919370079 L 344.13731941811056 375.0011864251969 L 344.13731941811056 375.0011864251969 L 344.1089729614177 375.0011864251969" fill="none" stroke="#000000"/><path d="M 344.1089729614177 351.7570919370079 L 314.6456658748035 351.757091937008 L 314.6456658748035 351.757091937008 L 314.6456658748035 342.40276122834655 L 314.6456658748035 342.40276122834655 L 297.6377918590555 342.40276122834655 L 297.6377918590555 342.40276122834655 L 297.6377918590555 351.757091937008 L 297.6377918590555 351.757091937008 L 246.6141698118114 351.757091937008 L 246.6141698118114 351.757091937008 L 246.6141698118114 342.40276122834655 L 246.6141698118114 342.40276122834655 L 229.60629579606336 342.40276122834655 L 229.60629579606336 342.40276122834655 L 229.60629579606336 351.757091937008 L 229.60629579606336 351.757091937008 L 178.58267374881927 351.757091937008 L 178.58267374881927 351.757091937008 L 178.58267374881927 342.40276122834655 L 178.58267374881927 342.40276122834655 L 161.57479973307125 342.40276122834655 L 161.57479973307125 342.40276122834655 L 161.57479973307125 351.757091937008 L 161.57479973307125 351.757091937008 L 110.55117768582704 351.757091937008 L 110.55117768582704 351.757091937008 L 110.55117768582704 342.40276122834655 L 110.55117768582704 342.40276122834655 L 93.54330367007901 342.40276122834655 L 93.54330367007901 342.40276122834655 L 93.54330367007901 351.757091937008 L 93.54330367007901 351.757091937008 L 42.51968162283504 351.757091937008 L 42.51968162283504 351.757091937008 L 42.51968162283504 342.40276122834655 L 42.51968162283504 342.40276122834655 L 25.511807607087007 342.40276122834655 L 25.511807607087007 342.40276122834655 L 25.511807607087007 351.757091937008 L 25.511807607087007 351.757091937008 L -0.0000034165350371040404 351.757091937008 L -0.0000034165350371040404 351.757091937008 L -0.0000034165350371040404 406.74921792125974 L -0.0000034165350371040404 406.74921792125974 L 25.511807607087007 406.74921792125974 L 25.511807607087007 406.74921792125974 L 25.511807607087007 416.1035486299213 L 25.511807607087007 416.1035486299213 L 42.51968162283504 416.1035486299213 L 42.51968162283504 416.1035486299213 L 42.51968162283504 406.74921792125974 L 42.51968162283504 406.74921792125974 L 93.54330367007913 406.74921792125974 L 93.54330367007913 406.74921792125974 L 93.54330367007913 416.1035486299213 L 93.54330367007913 416.1035486299213 L 110.55117768582716 416.1035486299213 L 110.55117768582716 416.1035486299213 L 110.55117768582716 406.74921792125974 L 110.55117768582716 406.74921792125974 L 161.57479973307125 406.74921792125974 L 161.57479973307125 406.74921792125974 L 161.57479973307125 416.1035486299213 L 161.57479973307125 416.1035486299213 L 178.58267374881927 416.1035486299213 L 178.58267374881927 416.1035486299213 L 178.58267374881927 406.74921792125974 L 178.58267374881927 406.74921792125974 L 229.60629579606336 406.74921792125974 L 229.60629579606336 406.74921792125974 L 229.60629579606336 416.1035486299213 L 229.60629579606336 416.1035486299213 L 246.6141698118114 416.1035486299213 L 246.6141698118114 416.1035486299213 L 246.6141698118114 406.74921792125974 L 246.6141698118114 406.74921792125974 L 297.63779185905554 406.74921792125974 L 297.63779185905554 406.74921792125974 L 297.63779185905554 416.1035486299213 L 297.63779185905554 416.1035486299213 L 314.64566587480357 416.1035486299213 L 314.64566587480357 416.1035486299213 L 314.64566587480357 406.74921792125974 L 314.64566587480357 406.74921792125974 L 344.10897296141775 406.74921792125974 L 344.10897296141775 406.74921792125974 L 344.10897296141775 383.50512343307093 L 344.10897296141775 383.50512343307093 L 344.1373194181107 383.50512343307093" fill="none" stroke="#000000"/><path d="M 344.1373194181107 406.74921792125974 L 356.5814139062996 406.74921792125974 L 356.5814139062996 406.74921792125974 L 356.5814139062996 383.50512343307093 L 356.5814139062996 383.50512343307093 L 356.60976036299246 383.50512343307093" fill="none" stroke="#000000"/><path d="M 356.60976036299246 406.74921792125974 L 369.0538548511814 406.74921792125974 L 369.0538548511814 406.74921792125974 L 369.0538548511814 383.50512343307093 L 369.0538548511814 383.50512343307093 L 369.0822013078743 383.50512343307093" fill="none" stroke="#000000"/><path d="M 369.0822013078743 406.74921792125974 L 381.52629579606327 406.74921792125974 L 381.52629579606327 406.74921792125974 L 381.52629579606327 383.50512343307093 L 381.52629579606327 383.50512343307093 L 381.55464225275614 383.50512343307093" fill="none" stroke="#000000"/><path d="M 381.55464225275614 406.74921792125974 L 393.99873674094505 406.74921792125974 L 393.99873674094505 406.74921792125974 L 393.99873674094505 383.50512343307093 L 393.99873674094505 383.50512343307093 L 394.027083197638 383.50512343307093" fill="none" stroke="#000000"/><path d="M 394.027083197638 406.74921792125974 L 406.4711776858269 406.74921792125974 L 406.4711776858269 406.74921792125974 L 406.4711776858269 383.50512343307093 L 406.4711776858269 383.50512343307093 L 406.49952414251976 383.50512343307093" fill="none" stroke="#000000"/><path d="M 406.49952414251976 406.74921792125974 L 418.9436186307087 406.74921792125974 L 418.9436186307087 406.74921792125974 L 418.9436186307087 383.50512343307093 L 418.9436186307087 383.50512343307093 L 418.9719650874016 383.50512343307093" fill="none" stroke="#000000"/><path d="M 418.9719650874016 406.74921792125974 L 431.41605957559057 406.74921792125974 L 431.41605957559057 406.74921792125974 L 431.41605957559057 383.50512343307093 L 431.41605957559057 383.50512343307093 L 431.4444060322835 383.50512343307093" fill="none" stroke="#000000"/><path d="M 431.4444060322835 406.74921792125974 L 443.8885005204725 406.74921792125974 L 443.8885005204725 406.74921792125974 L 443.8885005204725 383.50512343307093 L 443.8885005204725 383.50512343307093 L 443.91684697716545 383.50512343307093" fill="none" stroke="#000000"/><path d="M 443.91684697716545 406.74921792125974 L 472.5325950086614 406.74921792125974 L 472.5325950086614 406.74921792125974 L 472.5325950086614 416.1035486299213 L 472.5325950086614 416.1035486299213 L 489.54046902440945 416.1035486299213 L 489.54046902440945 416.1035486299213 L 489.54046902440945 406.74921792125974 L 489.54046902440945 406.74921792125974 L 540.5640910716536 406.74921792125974 L 540.5640910716536 406.74921792125974 L 540.5640910716536 416.1035486299213 L 540.5640910716536 416.1035486299213 L 557.5719650874016 416.1035486299213 L 557.5719650874016 416.1035486299213 L 557.5719650874016 406.74921792125974 L 557.5719650874016 406.74921792125974 L 608.5955871346457 406.74921792125974 L 608.5955871346457 406.74921792125974 L 608.5955871346457 416.1035486299213 L 608.5955871346457 416.1035486299213 L 625.6034611503937 416.1035486299213 L 625.6034611503937 416.1035486299213 L 625.6034611503937 406.74921792125974 L 625.6034611503937 406.74921792125974 L 676.6270831976378 406.74921792125974 L 676.6270831976378 406.74921792125974 L 676.6270831976378 416.1035486299213 L 676.6270831976378 416.1035486299213 L 693.6349572133859 416.1035486299213 L 693.6349572133859 416.1035486299213 L 693.6349572133859 406.74921792125974 L 693.6349572133859 406.74921792125974 L 744.65857926063 406.74921792125974 L 744.65857926063 406.74921792125974 L 744.65857926063 416.2604649598426" fill="none" stroke="#000000"/><path d="M 375.2900753236221 398.24528091338584 L 375.31842178031496 398.24528091338584 L 375.31842178031496 398.24528091338584 L 375.31842178031496 360.2610289448819" fill="none" stroke="#000000"/><path d="M 387.762516268504 398.24528091338584 L 387.79086272519686 398.24528091338584 L 387.79086272519686 398.24528091338584 L 387.79086272519686 360.2610289448819" fill="none" stroke="#000000"/><path d="M 400.2349572133859 398.24528091338584 L 400.2633036700788 398.24528091338584 L 400.2633036700788 398.24528091338584 L 400.2633036700788 360.2610289448819" fill="none" stroke="#000000"/><path d="M 412.70739815826784 398.24528091338584 L 412.7357446149607 398.24528091338584 L 412.7357446149607 398.24528091338584 L 412.7357446149607 360.2610289448819" fill="none" stroke="#000000"/><path d="M 350.34519343385836 398.24528091338584 L 350.3735398905512 398.24528091338584 L 350.3735398905512 398.24528091338584 L 350.3735398905512 360.2610289448819" fill="none" stroke="#000000"/><path d="M 425.1798391031497 398.24528091338584 L 425.2081855598426 398.24528091338584 L 425.2081855598426 398.24528091338584 L 425.2081855598426 360.2610289448819" fill="none" stroke="#000000"/><path d="M 437.65228004803157 398.24528091338584 L 437.6806265047245 398.24528091338584 L 437.6806265047245 398.24528091338584 L 437.6806265047245 360.2610289448819" fill="none" stroke="#000000"/><path d="M 362.81763437874025 398.24528091338584 L 362.8459808354331 398.24528091338584 L 362.8459808354331 398.24528091338584 L 362.8459808354331 360.2610289448819" fill="none" stroke="#000000"/><path d="M 426.8806264204723 439.5045594480315 L 426.90897287716524 439.5045594480315 L 426.90897287716524 439.5045594480315 L 426.90897287716524 416.2604649598426 L 426.90897287716524 416.2604649598426 L 455.5247209086613 416.2604649598426 L 455.5247209086613 416.2604649598426 L 455.5247209086613 406.90613425118113 L 455.5247209086613 406.90613425118113 L 472.53259492440935 406.90613425118113 L 472.53259492440935 406.90613425118113 L 472.53259492440935 416.2604649598426 L 472.53259492440935 416.2604649598426 L 523.5562169716534 416.2604649598426 L 523.5562169716534 416.2604649598426 L 523.5562169716534 406.90613425118113 L 523.5562169716534 406.90613425118113 L 540.5640909874014 406.90613425118113 L 540.5640909874014 406.90613425118113 L 540.5640909874014 416.2604649598426 L 540.5640909874014 416.2604649598426 L 591.5877130346456 416.2604649598426 L 591.5877130346456 416.2604649598426 L 591.5877130346456 406.90613425118113 L 591.5877130346456 406.90613425118113 L 608.5955870503936 406.90613425118113 L 608.5955870503936 406.90613425118113 L 608.5955870503936 416.2604649598426 L 608.5955870503936 416.2604649598426 L 659.6192090976377 416.2604649598426 L 659.6192090976377 416.2604649598426 L 659.6192090976377 406.90613425118113 L 659.6192090976377 406.90613425118113 L 676.6270831133858 406.90613425118113 L 676.6270831133858 406.90613425118113 L 676.6270831133858 416.2604649598426 L 676.6270831133858 416.2604649598426 L 727.6507051606299 416.2604649598426 L 727.6507051606299 416.2604649598426 L 727.6507051606299 406.90613425118113 L 727.6507051606299 406.90613425118113 L 744.6585791763779 406.90613425118113" fill="none" stroke="#000000"/><path d="M 426.8806264204723 416.2604649598426 L 414.43653193228334 416.2604649598426 L 414.43653193228334 416.2604649598426 L 414.43653193228334 439.5045594480315 L 414.43653193228334 439.5045594480315 L 414.4081854755904 439.5045594480315" fill="none" stroke="#000000"/><path d="M 414.4081854755904 416.2604649598426 L 401.96409098740145 416.2604649598426 L 401.96409098740145 416.2604649598426 L 401.96409098740145 439.5045594480315 L 401.96409098740145 439.5045594480315 L 401.9357445307086 439.5045594480315" fill="none" stroke="#000000"/><path d="M 401.9357445307086 416.2604649598426 L 389.4916500425196 416.2604649598426 L 389.4916500425196 416.2604649598426 L 389.4916500425196 439.5045594480315 L 389.4916500425196 439.5045594480315 L 389.46330358582674 439.5045594480315" fill="none" stroke="#000000"/><path d="M 389.46330358582674 416.2604649598426 L 377.01920909763777 416.2604649598426 L 377.01920909763777 416.2604649598426 L 377.01920909763777 439.5045594480315 L 377.01920909763777 439.5045594480315 L 376.9908626409449 439.5045594480315" fill="none" stroke="#000000"/><path d="M 376.9908626409449 416.2604649598426 L 364.54676815275593 416.2604649598426 L 364.54676815275593 416.2604649598426 L 364.54676815275593 439.5045594480315 L 364.54676815275593 439.5045594480315 L 364.51842169606306 439.5045594480315" fill="none" stroke="#000000"/><path d="M 364.51842169606306 416.2604649598426 L 352.07432720787415 416.2604649598426 L 352.07432720787415 416.2604649598426 L 352.07432720787415 439.5045594480315 L 352.07432720787415 439.5045594480315 L 352.0459807511812 439.5045594480315" fill="none" stroke="#000000"/><path d="M 352.0459807511812 416.2604649598426 L 339.6018862629923 416.2604649598426 L 339.6018862629923 416.2604649598426 L 339.6018862629923 439.5045594480315 L 339.6018862629923 439.5045594480315 L 339.57353980629944 439.5045594480315" fill="none" stroke="#000000"/><path d="M 339.57353980629944 416.2604649598426 L 327.12944531811047 416.2604649598426 L 327.12944531811047 416.2604649598426 L 327.12944531811047 439.5045594480315 L 327.12944531811047 439.5045594480315 L 327.1010988614176 439.5045594480315" fill="none" stroke="#000000"/><path d="M 327.1010988614176 416.2604649598426 L 314.65700437322863 416.2604649598426 L 314.65700437322863 416.2604649598426 L 314.65700437322863 439.5045594480315 L 314.65700437322863 439.5045594480315 L 314.62865791653576 439.5045594480315" fill="none" stroke="#000000"/><path d="M 314.62865791653576 416.2604649598426 L 275.58708311338614 416.2604649598427 L 275.58708311338614 416.2604649598427 L 275.58708311338614 406.90613425118124 L 275.58708311338614 406.90613425118124 L 258.5792090976381 406.90613425118124 L 258.5792090976381 406.90613425118124 L 258.5792090976381 416.2604649598427 L 258.5792090976381 416.2604649598427 L 205.42960279842555 416.2604649598427 L 205.42960279842555 416.2604649598427 L 205.42960279842555 406.90613425118124 L 205.42960279842555 406.90613425118124 L 188.42172878267752 406.90613425118124 L 188.42172878267752 406.90613425118124 L 188.42172878267752 416.2604649598427 L 188.42172878267752 416.2604649598427 L 135.27212248346484 416.2604649598427 L 135.27212248346484 416.2604649598427 L 135.27212248346484 406.90613425118124 L 135.27212248346484 406.90613425118124 L 118.26424846771681 406.90613425118124 L 118.26424846771681 406.90613425118124 L 118.26424846771681 416.2604649598427 L 118.26424846771681 416.2604649598427 L 65.11464216850425 416.2604649598427 L 65.11464216850425 416.2604649598427 L 65.11464216850425 406.90613425118124 L 65.11464216850425 406.90613425118124 L 48.10676815275622 406.90613425118124 L 48.10676815275622 406.90613425118124 L 48.10676815275622 416.2604649598427 L 48.10676815275622 416.2604649598427 L 21.531965003149935 416.2604649598427 L 21.531965003149935 416.2604649598427 L 21.531965003149935 471.25259094409466 L 21.531965003149935 471.25259094409466 L 48.10676815275622 471.25259094409466 L 48.10676815275622 471.25259094409466 L 48.10676815275622 480.6069216527561 L 48.10676815275622 480.6069216527561 L 65.11464216850425 480.6069216527561 L 65.11464216850425 480.6069216527561 L 65.11464216850425 471.25259094409466 L 65.11464216850425 471.25259094409466 L 118.26424846771681 471.25259094409466 L 118.26424846771681 471.25259094409466 L 118.26424846771681 480.6069216527561 L 118.26424846771681 480.6069216527561 L 135.27212248346484 480.6069216527561 L 135.27212248346484 480.6069216527561 L 135.27212248346484 471.25259094409466 L 135.27212248346484 471.25259094409466 L 188.42172878267752 471.25259094409466 L 188.42172878267752 471.25259094409466 L 188.42172878267752 480.6069216527561 L 188.42172878267752 480.6069216527561 L 205.42960279842555 480.6069216527561 L 205.42960279842555 480.6069216527561 L 205.42960279842555 471.25259094409466 L 205.42960279842555 471.25259094409466 L 258.5792090976381 471.25259094409466 L 258.5792090976381 471.25259094409466 L 258.5792090976381 480.6069216527561 L 258.5792090976381 480.6069216527561 L 275.58708311338614 480.6069216527561 L 275.58708311338614 480.6069216527561 L 275.58708311338614 471.25259094409466 L 275.58708311338614 471.25259094409466 L 314.62865791653576 471.25259094409455 L 314.62865791653576 471.25259094409455 L 314.62865791653576 448.0084964559055 L 314.62865791653576 448.0084964559055 L 314.65700437322863 448.0084964559055" fill="none" stroke="#000000"/><path d="M 314.65700437322863 471.25259094409455 L 327.1010988614176 471.25259094409455 L 327.1010988614176 471.25259094409455 L 327.1010988614176 448.0084964559055 L 327.1010988614176 448.0084964559055 L 327.12944531811047 448.0084964559055" fill="none" stroke="#000000"/><path d="M 327.12944531811047 471.25259094409455 L 339.57353980629944 471.25259094409455 L 339.57353980629944 471.25259094409455 L 339.57353980629944 448.0084964559055 L 339.57353980629944 448.0084964559055 L 339.6018862629923 448.0084964559055" fill="none" stroke="#000000"/><path d="M 339.6018862629923 471.25259094409455 L 352.0459807511812 471.25259094409455 L 352.0459807511812 471.25259094409455 L 352.0459807511812 448.0084964559055 L 352.0459807511812 448.0084964559055 L 352.07432720787415 448.0084964559055" fill="none" stroke="#000000"/><path d="M 352.07432720787415 471.25259094409455 L 364.51842169606306 471.25259094409455 L 364.51842169606306 471.25259094409455 L 364.51842169606306 448.0084964559055 L 364.51842169606306 448.0084964559055 L 364.54676815275593 448.0084964559055" fill="none" stroke="#000000"/><path d="M 364.54676815275593 471.25259094409455 L 376.9908626409449 471.25259094409455 L 376.9908626409449 471.25259094409455 L 376.9908626409449 448.0084964559055 L 376.9908626409449 448.0084964559055 L 377.01920909763777 448.0084964559055" fill="none" stroke="#000000"/><path d="M 377.01920909763777 471.25259094409455 L 389.46330358582674 471.25259094409455 L 389.46330358582674 471.25259094409455 L 389.46330358582674 448.0084964559055 L 389.46330358582674 448.0084964559055 L 389.4916500425196 448.0084964559055" fill="none" stroke="#000000"/><path d="M 389.4916500425196 471.25259094409455 L 401.9357445307086 471.25259094409455 L 401.9357445307086 471.25259094409455 L 401.9357445307086 448.0084964559055 L 401.9357445307086 448.0084964559055 L 401.96409098740145 448.0084964559055" fill="none" stroke="#000000"/><path d="M 401.96409098740145 471.25259094409455 L 414.4081854755904 471.25259094409455 L 414.4081854755904 471.25259094409455 L 414.4081854755904 448.0084964559055 L 414.4081854755904 448.0084964559055 L 414.43653193228334 448.0084964559055" fill="none" stroke="#000000"/><path d="M 414.43653193228334 471.25259094409455 L 426.8806264204723 471.25259094409455 L 426.8806264204723 471.25259094409455 L 426.8806264204723 448.0084964559055 L 426.8806264204723 448.0084964559055 L 426.90897287716524 448.0084964559055" fill="none" stroke="#000000"/><path d="M 426.90897287716524 471.25259094409455 L 455.5247209086613 471.25259094409455 L 455.5247209086613 471.25259094409455 L 455.5247209086613 480.606921652756 L 455.5247209086613 480.606921652756 L 472.53259492440935 480.606921652756 L 472.53259492440935 480.606921652756 L 472.53259492440935 471.25259094409455 L 472.53259492440935 471.25259094409455 L 523.5562169716534 471.25259094409455 L 523.5562169716534 471.25259094409455 L 523.5562169716534 480.606921652756" fill="none" stroke="#000000"/><path d="M 540.5640909874014 480.606921652756 L 540.5640909874014 471.25259094409455 L 540.5640909874014 471.25259094409455 L 591.5877130346456 471.25259094409455 L 591.5877130346456 471.25259094409455 L 591.5877130346456 480.606921652756" fill="none" stroke="#000000"/><path d="M 608.5955870503936 480.606921652756 L 608.5955870503936 471.25259094409455 L 608.5955870503936 471.25259094409455 L 659.6192090976377 471.25259094409455 L 659.6192090976377 471.25259094409455 L 659.6192090976377 480.606921652756" fill="none" stroke="#000000"/><path d="M 676.6270831133858 480.606921652756 L 676.6270831133858 471.25259094409455 L 676.6270831133858 471.25259094409455 L 727.6507051606299 471.25259094409455 L 727.6507051606299 471.25259094409455 L 727.6507051606299 480.606921652756" fill="none" stroke="#000000"/><path d="M 744.6585791763779 480.606921652756 L 744.6585791763779 471.25259094409455 L 744.6585791763779 471.25259094409455 L 770.1703901999999 471.25259094409455 L 770.1703901999999 471.25259094409455 L 770.1703901999999 416.2604649598426 L 770.1703901999999 416.2604649598426 L 744.6585791763779 416.2604649598426" fill="none" stroke="#000000"/><path d="M 420.64440594803136 462.74865393622053 L 420.6727524047243 462.74865393622053 L 420.6727524047243 462.74865393622053 L 420.6727524047243 424.7644019677166" fill="none" stroke="#000000"/><path d="M 408.17196500314947 462.74865393622053 L 408.2003114598424 462.74865393622053 L 408.2003114598424 462.74865393622053 L 408.2003114598424 424.7644019677166" fill="none" stroke="#000000"/><path d="M 308.39243744409436 462.74865393622053 L 308.4207839007872 462.74865393622053 L 308.4207839007872 462.74865393622053 L 308.4207839007872 424.7644019677166" fill="none" stroke="#000000"/><path d="M 320.86487838897625 462.74865393622053 L 320.8932248456692 462.74865393622053 L 320.8932248456692 462.74865393622053 L 320.8932248456692 424.7644019677166" fill="none" stroke="#000000"/><path d="M 333.3373193338582 462.74865393622053 L 333.3656657905511 462.74865393622053 L 333.3656657905511 462.74865393622053 L 333.3656657905511 424.7644019677166" fill="none" stroke="#000000"/><path d="M 345.8097602787401 462.74865393622053 L 345.838106735433 462.74865393622053 L 345.838106735433 462.74865393622053 L 345.838106735433 424.7644019677166" fill="none" stroke="#000000"/><path d="M 358.282201223622 462.74865393622053 L 358.31054768031487 462.74865393622053 L 358.31054768031487 462.74865393622053 L 358.31054768031487 424.7644019677166" fill="none" stroke="#000000"/><path d="M 370.7546421685039 462.74865393622053 L 370.78298862519677 462.74865393622053 L 370.78298862519677 462.74865393622053 L 370.78298862519677 424.7644019677166" fill="none" stroke="#000000"/><path d="M 383.2270831133858 462.74865393622053 L 383.2554295700787 462.74865393622053 L 383.2554295700787 462.74865393622053 L 383.2554295700787 424.7644019677166" fill="none" stroke="#000000"/><path d="M 395.69952405826774 462.74865393622053 L 395.7278705149606 462.74865393622053 L 395.7278705149606 462.74865393622053 L 395.7278705149606 424.7644019677166" fill="none" stroke="#000000"/><path d="M 659.6192090133858 480.6752500826773 L 710.6428310606299 480.6752500826773 L 710.6428310606299 480.6752500826773 L 710.6428310606299 471.32091937401583" fill="none" stroke="#000000"/><path d="M 642.6113349976378 471.32091937401583 L 642.6113349976378 480.6752500826773 L 642.6113349976378 480.6752500826773 L 591.5877129503936 480.6752500826773" fill="none" stroke="#000000"/><path d="M 574.5798389346455 471.32091937401583 L 574.5798389346455 480.6752500826773 L 574.5798389346455 480.6752500826773 L 523.5562168874014 480.6752500826773" fill="none" stroke="#000000"/><path d="M 506.5483428716534 471.32091937401583 L 506.5483428716534 480.6752500826773 L 506.5483428716534 480.6752500826773 L 455.52472082440937 480.6752500826773 L 455.52472082440937 480.6752500826773 L 455.52472082440937 471.32091937401583 L 455.52472082440937 471.32091937401583 L 438.51684680866134 471.32091937401583 L 438.51684680866134 471.32091937401583 L 438.51684680866134 480.6752500826773 L 438.51684680866134 480.6752500826773 L 409.90109877716526 480.6752500826773 L 409.90109877716526 480.6752500826773 L 409.90109877716526 503.9193445708662 L 409.90109877716526 503.9193445708662 L 409.87275232047233 503.9193445708662" fill="none" stroke="#000000"/><path d="M 409.87275232047233 480.6752500826773 L 397.42865783228336 480.6752500826773 L 397.42865783228336 480.6752500826773 L 397.42865783228336 503.9193445708662 L 397.42865783228336 503.9193445708662 L 397.40031137559043 503.9193445708662" fill="none" stroke="#000000"/><path d="M 397.40031137559043 480.6752500826773 L 384.95621688740147 480.6752500826773 L 384.95621688740147 480.6752500826773 L 384.95621688740147 503.9193445708662 L 384.95621688740147 503.9193445708662 L 384.9278704307086 503.9193445708662" fill="none" stroke="#000000"/><path d="M 384.9278704307086 480.6752500826773 L 372.4837759425196 480.6752500826773 L 372.4837759425196 480.6752500826773 L 372.4837759425196 503.9193445708662 L 372.4837759425196 503.9193445708662 L 372.45542948582676 503.9193445708662" fill="none" stroke="#000000"/><path d="M 372.45542948582676 480.6752500826773 L 360.0113349976378 480.6752500826773 L 360.0113349976378 480.6752500826773 L 360.0113349976378 503.9193445708662 L 360.0113349976378 503.9193445708662 L 359.9829885409449 503.9193445708662" fill="none" stroke="#000000"/><path d="M 359.9829885409449 480.6752500826773 L 347.53889405275595 480.6752500826773 L 347.53889405275595 480.6752500826773 L 347.53889405275595 503.9193445708662 L 347.53889405275595 503.9193445708662 L 347.5105475960631 503.9193445708662" fill="none" stroke="#000000"/><path d="M 347.5105475960631 480.6752500826773 L 335.06645310787417 480.6752500826773 L 335.06645310787417 480.6752500826773 L 335.06645310787417 503.9193445708662 L 335.06645310787417 503.9193445708662 L 335.03810665118124 503.9193445708662" fill="none" stroke="#000000"/><path d="M 335.03810665118124 480.6752500826773 L 322.5940121629923 480.6752500826773 L 322.5940121629923 480.6752500826773 L 322.5940121629923 503.9193445708662 L 322.5940121629923 503.9193445708662 L 322.56566570629946 503.9193445708662" fill="none" stroke="#000000"/><path d="M 322.56566570629946 480.6752500826773 L 310.1215712181105 480.6752500826773 L 310.1215712181105 480.6752500826773 L 310.1215712181105 503.9193445708662 L 310.1215712181105 503.9193445708662 L 310.0932247614176 503.9193445708662" fill="none" stroke="#000000"/><path d="M 310.0932247614176 480.6752500826773 L 297.64913027322865 480.6752500826773 L 297.64913027322865 480.6752500826773 L 297.64913027322865 503.9193445708662 L 297.64913027322865 503.9193445708662 L 297.6207838165358 503.9193445708662" fill="none" stroke="#000000"/><path d="M 297.6207838165358 480.6752500826773 L 258.57920901338616 480.6752500826774 L 258.57920901338616 480.6752500826774 L 258.57920901338616 471.32091937401594 L 258.57920901338616 471.32091937401594 L 241.57133499763813 471.32091937401594 L 241.57133499763813 471.32091937401594 L 241.57133499763813 480.6752500826774 L 241.57133499763813 480.6752500826774 L 188.42172869842557 480.6752500826774 L 188.42172869842557 480.6752500826774 L 188.42172869842557 471.32091937401594 L 188.42172869842557 471.32091937401594 L 171.41385468267754 471.32091937401594 L 171.41385468267754 471.32091937401594 L 171.41385468267754 480.6752500826774 L 171.41385468267754 480.6752500826774 L 118.26424838346486 480.6752500826774 L 118.26424838346486 480.6752500826774 L 118.26424838346486 471.32091937401594 L 118.26424838346486 471.32091937401594 L 101.25637436771683 471.32091937401594 L 101.25637436771683 471.32091937401594 L 101.25637436771683 480.6752500826774 L 101.25637436771683 480.6752500826774 L 48.106768068504266 480.6752500826774 L 48.106768068504266 480.6752500826774 L 48.106768068504266 471.32091937401594 L 48.106768068504266 471.32091937401594 L 31.098894052756236 471.32091937401594 L 31.098894052756236 471.32091937401594 L 31.098894052756236 480.6752500826774 L 31.098894052756236 480.6752500826774 L 4.524090903149954 480.6752500826774 L 4.524090903149954 480.6752500826774 L 4.524090903149954 535.6673760669293 L 4.524090903149954 535.6673760669293 L 31.098894052756236 535.6673760669293 L 31.098894052756236 535.6673760669293 L 31.098894052756236 545.0217067755907 L 31.098894052756236 545.0217067755907 L 48.106768068504266 545.0217067755907 L 48.106768068504266 545.0217067755907 L 48.106768068504266 535.6673760669293 L 48.106768068504266 535.6673760669293 L 101.25637436771683 535.6673760669293 L 101.25637436771683 535.6673760669293 L 101.25637436771683 545.0217067755907 L 101.25637436771683 545.0217067755907 L 118.26424838346486 545.0217067755907 L 118.26424838346486 545.0217067755907 L 118.26424838346486 535.6673760669293 L 118.26424838346486 535.6673760669293 L 171.41385468267754 535.6673760669293 L 171.41385468267754 535.6673760669293 L 171.41385468267754 545.0217067755907 L 171.41385468267754 545.0217067755907 L 188.42172869842557 545.0217067755907 L 188.42172869842557 545.0217067755907 L 188.42172869842557 535.6673760669293 L 188.42172869842557 535.6673760669293 L 241.57133499763813 535.6673760669293 L 241.57133499763813 535.6673760669293 L 241.57133499763813 545.0217067755907 L 241.57133499763813 545.0217067755907 L 258.57920901338616 545.0217067755907 L 258.57920901338616 545.0217067755907 L 258.57920901338616 535.6673760669293 L 258.57920901338616 535.6673760669293 L 297.6207838165358 535.6673760669291 L 297.6207838165358 535.6673760669291 L 297.6207838165358 512.4232815787402 L 297.6207838165358 512.4232815787402 L 297.64913027322865 512.4232815787402" fill="none" stroke="#000000"/><path d="M 297.64913027322865 535.6673760669291 L 310.0932247614176 535.6673760669291 L 310.0932247614176 535.6673760669291 L 310.0932247614176 512.4232815787402 L 310.0932247614176 512.4232815787402 L 310.1215712181105 512.4232815787402" fill="none" stroke="#000000"/><path d="M 310.1215712181105 535.6673760669291 L 322.56566570629946 535.6673760669291 L 322.56566570629946 535.6673760669291 L 322.56566570629946 512.4232815787402 L 322.56566570629946 512.4232815787402 L 322.5940121629923 512.4232815787402" fill="none" stroke="#000000"/><path d="M 322.5940121629923 535.6673760669291 L 335.03810665118124 535.6673760669291 L 335.03810665118124 535.6673760669291 L 335.03810665118124 512.4232815787402 L 335.03810665118124 512.4232815787402 L 335.06645310787417 512.4232815787402" fill="none" stroke="#000000"/><path d="M 335.06645310787417 535.6673760669291 L 347.5105475960631 535.6673760669291 L 347.5105475960631 535.6673760669291 L 347.5105475960631 512.4232815787402 L 347.5105475960631 512.4232815787402 L 347.53889405275595 512.4232815787402" fill="none" stroke="#000000"/><path d="M 347.53889405275595 535.6673760669291 L 359.9829885409449 535.6673760669291 L 359.9829885409449 535.6673760669291 L 359.9829885409449 512.4232815787402 L 359.9829885409449 512.4232815787402 L 360.0113349976378 512.4232815787402" fill="none" stroke="#000000"/><path d="M 360.0113349976378 535.6673760669291 L 372.45542948582676 535.6673760669291 L 372.45542948582676 535.6673760669291 L 372.45542948582676 512.4232815787402 L 372.45542948582676 512.4232815787402 L 372.4837759425196 512.4232815787402" fill="none" stroke="#000000"/><path d="M 372.4837759425196 535.6673760669291 L 384.9278704307086 535.6673760669291 L 384.9278704307086 535.6673760669291 L 384.9278704307086 512.4232815787402 L 384.9278704307086 512.4232815787402 L 384.95621688740147 512.4232815787402" fill="none" stroke="#000000"/><path d="M 384.95621688740147 535.6673760669291 L 397.40031137559043 535.6673760669291 L 397.40031137559043 535.6673760669291 L 397.40031137559043 512.4232815787402 L 397.40031137559043 512.4232815787402 L 397.42865783228336 512.4232815787402" fill="none" stroke="#000000"/><path d="M 397.42865783228336 535.6673760669291 L 409.87275232047233 535.6673760669291 L 409.87275232047233 535.6673760669291 L 409.87275232047233 512.4232815787402 L 409.87275232047233 512.4232815787402 L 409.90109877716526 512.4232815787402" fill="none" stroke="#000000"/><path d="M 409.90109877716526 535.6673760669291 L 438.51684680866134 535.6673760669291 L 438.51684680866134 535.6673760669291 L 438.51684680866134 545.0217067755906 L 438.51684680866134 545.0217067755906 L 455.52472082440937 545.0217067755906 L 455.52472082440937 545.0217067755906 L 455.52472082440937 535.6673760669291 L 455.52472082440937 535.6673760669291 L 506.54834287165346 535.6673760669291 L 506.54834287165346 535.6673760669291 L 506.54834287165346 545.0217067755906 L 506.54834287165346 545.0217067755906 L 523.5562168874014 545.0217067755906 L 523.5562168874014 545.0217067755906 L 523.5562168874014 535.6673760669291 L 523.5562168874014 535.6673760669291 L 574.5798389346456 535.6673760669291 L 574.5798389346456 535.6673760669291 L 574.5798389346456 545.0217067755906 L 574.5798389346456 545.0217067755906 L 591.5877129503937 545.0217067755906 L 591.5877129503937 545.0217067755906 L 591.5877129503937 535.6673760669291 L 591.5877129503937 535.6673760669291 L 642.6113349976378 535.6673760669291 L 642.6113349976378 535.6673760669291 L 642.6113349976378 545.0217067755906 L 642.6113349976378 545.0217067755906 L 659.6192090133858 545.0217067755906 L 659.6192090133858 545.0217067755906 L 659.6192090133858 535.6673760669291 L 659.6192090133858 535.6673760669291 L 710.6428310606299 535.6673760669291 L 710.6428310606299 535.6673760669291 L 710.6428310606299 545.0217067755906 L 710.6428310606299 545.0217067755906 L 727.6507050763779 545.0217067755906 L 727.6507050763779 545.0217067755906 L 727.6507050763779 535.6673760669291 L 727.6507050763779 535.6673760669291 L 753.1625161 535.6673760669291 L 753.1625161 535.6673760669291 L 753.1625161 480.6752500826773 L 753.1625161 480.6752500826773 L 727.6507050763779 480.6752500826773" fill="none" stroke="#000000"/><path d="M 328.8018861787401 527.1634390590551 L 328.830232635433 527.1634390590551 L 328.830232635433 527.1634390590551 L 328.830232635433 489.1791870905513" fill="none" stroke="#000000"/><path d="M 391.16409090314954 527.1634390590551 L 391.1924373598425 527.1634390590551 L 391.1924373598425 527.1634390590551 L 391.1924373598425 489.1791870905513" fill="none" stroke="#000000"/><path d="M 291.3845633440945 527.1634390590551 L 291.41290980078736 527.1634390590551 L 291.41290980078736 527.1634390590551 L 291.41290980078736 489.1791870905513" fill="none" stroke="#000000"/><path d="M 303.8570042889764 527.1634390590551 L 303.88535074566926 527.1634390590551 L 303.88535074566926 527.1634390590551 L 303.88535074566926 489.1791870905513" fill="none" stroke="#000000"/><path d="M 316.3294452338583 527.1634390590551 L 316.35779169055115 527.1634390590551 L 316.35779169055115 527.1634390590551 L 316.35779169055115 489.1791870905513" fill="none" stroke="#000000"/><path d="M 403.6365318480315 527.1634390590551 L 403.6648783047244 527.1634390590551 L 403.6648783047244 527.1634390590551 L 403.6648783047244 489.1791870905513" fill="none" stroke="#000000"/><path d="M 341.2743271236221 527.1634390590551 L 341.302673580315 527.1634390590551 L 341.302673580315 527.1634390590551 L 341.302673580315 489.1791870905513" fill="none" stroke="#000000"/><path d="M 353.746768068504 527.1634390590551 L 353.7751145251969 527.1634390590551 L 353.7751145251969 527.1634390590551 L 353.7751145251969 489.1791870905513" fill="none" stroke="#000000"/><path d="M 366.2192090133859 527.1634390590551 L 366.2475554700788 527.1634390590551 L 366.2475554700788 527.1634390590551 L 366.2475554700788 489.1791870905513" fill="none" stroke="#000000"/><path d="M 378.6916499582678 527.1634390590551 L 378.7199964149607 527.1634390590551 L 378.7199964149607 527.1634390590551 L 378.7199964149607 489.1791870905513" fill="none" stroke="#000000"/><path d="M 53.2913382086615 164.48467743307015 L 53.04188938976381 169.22420499212535 L 53.04188938976381 169.22420499212535 L 52.299212224409416 173.91270892913326 L 52.299212224409416 173.91270892913326 L 51.07181064960628 178.49916562204658 L 51.07181064960628 178.49916562204658 L 49.371023248031406 182.93255144881834 L 49.371023248031406 182.93255144881834 L 47.213857893700606 187.16184278740104 L 47.213857893700606 187.16184278740104 L 44.628661043307034 191.14168530708605 L 44.628661043307034 191.14168530708605 L 41.640944507873996 194.83239396850342 L 41.640944507873996 194.83239396850342 L 38.28472403543299 198.18861444094455 L 38.28472403543299 198.18861444094455 L 34.59401537401561 201.17633097637747 L 34.59401537401561 201.17633097637747 L 30.614172854330604 203.76152782677116 L 30.614172854330604 203.76152782677116 L 26.384881515747907 205.91869318110196 L 26.384881515747907 205.91869318110196 L 21.951495688976138 207.61948058267683 L 21.951495688976138 207.61948058267683 L 17.36787364173199 208.84688215747985 L 17.36787364173199 208.84688215747985 L 12.676535059054913 209.58955932283425 L 12.676535059054913 209.58955932283425 L 7.937007499999709 209.83900814173194 L 7.937007499999709 209.83900814173194 L 7.937007499999709 172.9886144409445 L 7.937007499999709 172.9886144409445 L -3.7401605368359014e-7 172.9886144409445 L -3.7401605368359014e-7 172.9886144409445 L -3.7401605368359014e-7 155.98074042519647 L -3.7401605368359014e-7 155.98074042519647 L 7.937007499999709 155.98074042519647 L 7.937007499999709 155.98074042519647 L 7.937007499999709 119.13034672440926 L 7.937007499999709 119.13034672440926 L 12.676535059054913 119.37979554330695 L 12.676535059054913 119.37979554330695 L 17.36787364173199 120.12247270866123 L 17.36787364173199 120.12247270866123 L 21.951495688976138 121.34987428346426 L 21.951495688976138 121.34987428346426 L 26.384881515747907 123.05066168503913 L 26.384881515747907 123.05066168503913 L 30.614172854330604 125.20782703936993 L 30.614172854330604 125.20782703936993 L 34.59401537401561 127.7930238897635 L 34.59401537401561 127.7930238897635 L 38.28472403543299 130.78074042519654 L 38.28472403543299 130.78074042519654 L 41.640944507873996 134.13696089763755 L 41.640944507873996 134.13696089763755 L 44.628661043307034 137.82483491338553 L 44.628661043307034 137.82483491338553 L 47.213857893700606 141.80751207873982 L 47.213857893700606 141.80751207873982 L 49.371023248031406 146.03680341732252 L 49.371023248031406 146.03680341732252 L 51.07181064960628 150.47018924409429 L 51.07181064960628 150.47018924409429 L 52.299212224409416 155.05381129133843 L 52.299212224409416 155.05381129133843 L 53.04188938976381 159.74231522834623 L 53.04188938976381 159.74231522834623 L 53.2913382086615 164.48467743307015 z" fill="none" stroke="#000000"/><path d="M 327.6809842740156 135.0770708826774 L 342.4211417543305 135.0770708826774 L 342.4211417543305 135.0770708826774 L 342.4211417543305 125.72274017401594 L 342.4211417543305 125.72274017401594 L 359.42901577007854 125.72274017401594 L 359.42901577007854 125.72274017401594 L 359.42901577007854 135.0770708826774 L 359.42901577007854 135.0770708826774 L 374.16917325039344 135.0770708826774 L 374.16917325039344 135.0770708826774 L 374.16917325039344 190.06919686692925 L 374.16917325039344 190.06919686692925 L 359.42901577007854 190.06919686692925 L 359.42901577007854 190.06919686692925 L 359.42901577007854 199.4235275755907 L 359.42901577007854 199.4235275755907 L 342.4211417543305 199.4235275755907 L 342.4211417543305 199.4235275755907 L 342.4211417543305 190.06919686692925 L 342.4211417543305 190.06919686692925 L 327.6809842740156 190.06919686692925 L 327.6809842740156 190.06919686692925 L 327.6809842740156 127.77464543307087" fill="none" stroke="#000000"/><path d="M 342.6337401795273 172.56525985905546 L 342.6337401795273 180.0770708826774 L 342.6337401795273 180.0770708826774 L 359.21641734488173 180.0770708826774 L 359.21641734488173 180.0770708826774 L 359.21641734488173 172.56525985905546 L 359.21641734488173 172.56525985905546 L 342.6337401795273 172.56525985905546 z" fill="none" stroke="#000000"/><path d="M 342.6337401795273 158.8172283629923 L 342.6337401795273 166.32903938661434 L 342.6337401795273 166.32903938661434 L 359.21641734488173 166.32903938661434 L 359.21641734488173 166.32903938661434 L 359.21641734488173 158.8172283629923 L 359.21641734488173 158.8172283629923 L 342.6337401795273 158.8172283629923 z" fill="none" stroke="#000000"/><path d="M 342.6337401795273 145.06919686692925 L 342.6337401795273 152.5810078905513 L 342.6337401795273 152.5810078905513 L 359.21641734488173 152.5810078905513 L 359.21641734488173 152.5810078905513 L 359.21641734488173 145.06919686692925 L 359.21641734488173 145.06919686692925 L 342.6337401795273 145.06919686692925 z" fill="none" stroke="#000000"/><path d="M 134.8621728771658 348.77960100866153 L 130.12264531811059 348.53015218976384 L 130.12264531811059 348.53015218976384 L 125.4341413811029 347.78747502440945 L 125.4341413811029 347.78747502440945 L 120.84768468818936 346.5600734496063 L 120.84768468818936 346.5600734496063 L 116.4142988614177 344.85928604803144 L 116.4142988614177 344.85928604803144 L 112.18500752283501 342.70212069370064 L 112.18500752283501 342.70212069370064 L 108.20516500315 340.11692384330706 L 108.20516500315 340.11692384330706 L 104.51445634173263 337.129207307874 L 104.51445634173263 337.129207307874 L 101.15823586929162 333.772986835433 L 101.15823586929162 333.772986835433 L 98.17051933385858 330.08227817401564 L 98.17051933385858 330.08227817401564 L 95.58532248346489 326.10243565433063 L 95.58532248346489 326.10243565433063 L 93.42815712913409 321.87314431574794 L 93.42815712913409 321.87314431574794 L 91.72736972755922 317.43975848897617 L 91.72736972755922 317.43975848897617 L 90.4999681527562 312.856136441732 L 90.4999681527562 312.856136441732 L 89.75729098740192 308.16479785905494 L 89.75729098740192 308.16479785905494 L 89.50784216850423 303.42527029999974 L 89.50784216850423 303.42527029999974 L 126.35823586929143 303.42527029999974 L 126.35823586929143 303.42527029999974 L 126.35823586929143 295.488262425984 L 126.35823586929143 295.488262425984 L 143.36610988503946 295.488262425984 L 143.36610988503946 295.488262425984 L 143.36610988503946 303.42527029999974 L 143.36610988503946 303.42527029999974 L 180.2165035858269 303.42527029999974 L 180.2165035858269 303.42527029999974 L 179.9670547669292 308.16479785905494 L 179.9670547669292 308.16479785905494 L 179.22437760157493 312.856136441732 L 179.22437760157493 312.856136441732 L 177.9969760267719 317.43975848897617 L 177.9969760267719 317.43975848897617 L 176.29618862519703 321.87314431574794 L 176.29618862519703 321.87314431574794 L 174.13902327086623 326.10243565433063 L 174.13902327086623 326.10243565433063 L 171.55382642047255 330.08227817401564 L 171.55382642047255 330.08227817401564 L 168.5661098850395 333.772986835433 L 168.5661098850395 333.772986835433 L 165.2098894125985 337.129207307874 L 165.2098894125985 337.129207307874 L 161.52201539685063 340.11692384330706 L 161.52201539685063 340.11692384330706 L 157.53933823149634 342.70212069370064 L 157.53933823149634 342.70212069370064 L 153.31004689291365 344.85928604803144 L 153.31004689291365 344.85928604803144 L 148.87666106614176 346.5600734496063 L 148.87666106614176 346.5600734496063 L 144.29303901889773 347.78747502440945 L 144.29303901889773 347.78747502440945 L 139.60453508188982 348.53015218976384 L 139.60453508188982 348.53015218976384 L 134.8621728771658 348.77960100866153 z" fill="none" stroke="#000000"/><path d="M 270.92516508740243 348.77960100866153 L 266.18563752834723 348.53015218976384 L 266.18563752834723 348.53015218976384 L 261.4971335913393 347.78747502440945 L 261.4971335913393 347.78747502440945 L 256.910676898426 346.5600734496063 L 256.910676898426 346.5600734496063 L 252.47729107165412 344.85928604803144 L 252.47729107165412 344.85928604803144 L 248.24799973307142 342.70212069370064 L 248.24799973307142 342.70212069370064 L 244.26815721338642 340.11692384330706 L 244.26815721338642 340.11692384330706 L 240.57744855196904 337.129207307874 L 240.57744855196904 337.129207307874 L 237.22122807952803 333.772986835433 L 237.22122807952803 333.772986835433 L 234.233511544095 330.08227817401564 L 234.233511544095 330.08227817401564 L 231.6483146937013 326.10243565433063 L 231.6483146937013 326.10243565433063 L 229.4911493393705 321.87314431574794 L 229.4911493393705 321.87314431574794 L 227.79036193779564 317.43975848897617 L 227.79036193779564 317.43975848897617 L 226.5629603629926 312.856136441732 L 226.5629603629926 312.856136441732 L 225.82028319763833 308.16479785905494 L 225.82028319763833 308.16479785905494 L 225.57083437874064 303.42527029999974 L 225.57083437874064 303.42527029999974 L 262.4212280795281 303.42527029999974 L 262.4212280795281 303.42527029999974 L 262.4212280795281 295.488262425984 L 262.4212280795281 295.488262425984 L 279.4291020952761 295.488262425984 L 279.4291020952761 295.488262425984 L 279.4291020952761 303.42527029999974 L 279.4291020952761 303.42527029999974 L 316.2794957960633 303.42527029999974 L 316.2794957960633 303.42527029999974 L 316.0300469771656 308.16479785905494 L 316.0300469771656 308.16479785905494 L 315.28736981181135 312.856136441732 L 315.28736981181135 312.856136441732 L 314.0599682370083 317.43975848897617 L 314.0599682370083 317.43975848897617 L 312.35918083543345 321.87314431574794 L 312.35918083543345 321.87314431574794 L 310.20201548110265 326.10243565433063 L 310.20201548110265 326.10243565433063 L 307.61681863070896 330.08227817401564 L 307.61681863070896 330.08227817401564 L 304.6291020952759 333.772986835433 L 304.6291020952759 333.772986835433 L 301.2728816228349 337.129207307874 L 301.2728816228349 337.129207307874 L 297.58500760708705 340.11692384330706 L 297.58500760708705 340.11692384330706 L 293.60233044173276 342.70212069370064 L 293.60233044173276 342.70212069370064 L 289.37303910315006 344.85928604803144 L 289.37303910315006 344.85928604803144 L 284.9396532763782 346.5600734496063 L 284.9396532763782 346.5600734496063 L 280.35603122913415 347.78747502440945 L 280.35603122913415 347.78747502440945 L 275.66752729212624 348.53015218976384 L 275.66752729212624 348.53015218976384 L 270.92516508740243 348.77960100866153 z" fill="none" stroke="#000000"/><path d="M 327.68098430866144 182.76677141732273 L 318.61011816692917 182.76677141732273 L 318.61011816692917 182.76677141732273 L 318.61011816692917 192.12110212598418 L 318.61011816692917 192.12110212598418 L 301.60224415118114 192.12110212598418 L 301.60224415118114 192.12110212598418 L 301.60224415118114 182.76677141732273 L 301.60224415118114 182.76677141732273 L 292.5313780094489 182.76677141732273" fill="none" stroke="#000000"/><path d="M 327.68098430866144 127.77464543307087 L 318.61011816692917 127.77464543307087 L 318.61011816692917 127.77464543307087 L 318.61011816692917 118.42031472440942 L 318.61011816692917 118.42031472440942 L 301.60224415118114 118.42031472440942 L 301.60224415118114 118.42031472440942 L 301.60224415118114 127.77464543307087 L 301.60224415118114 127.77464543307087 L 292.5313780094489 127.77464543307087 L 292.5313780094489 127.77464543307087 L 292.5313780094489 182.8745900401574 L 292.5313780086615 182.8745900401574 L 283.4605118669292 182.8745900401574 L 283.4605118669292 182.8745900401574 L 283.4605118669292 192.22892074881884 L 283.4605118669292 192.22892074881884 L 266.4526378511812 192.22892074881884 L 266.4526378511812 192.22892074881884 L 266.4526378511812 182.8745900401574 L 266.4526378511812 182.8745900401574 L 257.3817717094489 182.8745900401574 L 257.3817717094489 182.8745900401574 L 257.3817717094489 127.88246405590542 L 257.3817717094489 127.88246405590542 L 266.4526378511812 127.88246405590542 L 266.4526378511812 127.88246405590542 L 266.4526378511812 118.52813334724397 L 266.4526378511812 118.52813334724397 L 283.4605118669292 118.52813334724397 L 283.4605118669292 118.52813334724397 L 283.4605118669292 127.88246405590542 L 283.4605118669292 127.88246405590542 L 292.5313780086615 127.88246405590542" fill="none" stroke="#000000"/></svg>